<?xml version="1.0" standalone="no"?>
<!DOCTYPE svg PUBLIC "-//W3C//DTD SVG 20010904//EN"
 "http://www.w3.org/TR/2001/REC-SVG-20010904/DTD/svg10.dtd">
<svg version="1.0" xmlns="http://www.w3.org/2000/svg"
 width="150.000000pt" height="150.000000pt" viewBox="0 0 150.000000 150.000000"
 preserveAspectRatio="xMidYMid meet">
<metadata>
Created by potrace 1.11, written by Peter Selinger 2001-2013
</metadata>
<g transform="translate(0.000000,150.000000) scale(0.100000,-0.100000)"
fill="#000000" stroke="none">
<path d="M615 1486 c-160 -32 -271 -92 -391 -211 -77 -76 -98 -105 -137 -185
-65 -133 -81 -200 -81 -345 0 -140 20 -219 87 -350 49 -95 158 -214 251 -274
217 -142 495 -159 732 -46 357 171 519 601 364 967 -86 201 -267 361 -484 427
-90 28 -247 35 -341 17z m282 -15 c275 -57 498 -268 570 -541 27 -101 25 -284
-5 -380 -81 -258 -278 -450 -532 -517 -89 -24 -272 -24 -360 0 -275 74 -484
294 -540 569 -24 113 -25 159 -5 273 54 306 292 544 600 600 100 19 167 17
272 -4z"/>
<path d="M566 1450 c-239 -64 -426 -241 -506 -480 -32 -94 -39 -283 -15 -383
51 -213 190 -389 380 -483 121 -59 196 -77 325 -77 550 1 894 574 639 1064
-92 176 -275 318 -472 364 -88 21 -264 19 -351 -5z m122 -25 c14 26 27 13 13
-13 -8 -15 -6 -23 9 -37 11 -10 17 -22 14 -27 -3 -5 -15 -2 -25 8 -17 16 -19
16 -19 1 0 -36 -18 -15 -22 26 -5 47 2 71 12 42 7 -19 7 -19 18 0z m129 -30
c-2 -26 -7 -49 -11 -52 -12 -13 -16 5 -10 50 9 61 28 62 21 2z m113 -6 l6 -24
6 23 c3 12 11 22 17 22 11 0 7 -30 -10 -78 -10 -27 -28 -20 -30 11 -1 17 -2
18 -6 5 -2 -10 -10 -18 -17 -18 -10 0 -11 10 -3 45 11 48 28 54 37 14z m-361
-1 c19 -53 22 -68 11 -68 -6 0 -14 10 -19 23 -19 52 -22 67 -11 67 6 0 14 -10
19 -22z m-94 -54 c3 -25 4 -48 1 -52 -4 -3 -22 10 -41 28 -35 34 -41 58 -7 27
26 -23 29 -21 24 13 -2 17 0 30 6 30 5 0 13 -21 17 -46z m608 18 c10 -10 14
-22 10 -25 -12 -12 -22 -7 -17 8 4 8 1 15 -5 15 -13 0 -45 -59 -36 -68 8 -8
25 19 19 30 -3 4 2 5 10 2 19 -7 20 -15 3 -38 -11 -15 -17 -17 -35 -7 -27 14
-27 27 -2 69 23 37 31 39 53 14z m-204 -67 c241 -57 420 -280 421 -522 0 -107
-14 -172 -56 -258 -44 -90 -97 -151 -181 -209 -109 -74 -166 -90 -313 -90
-108 0 -133 3 -185 23 -358 141 -479 568 -245 863 21 26 40 44 44 41 13 -13 5
-34 -27 -70 -38 -43 -76 -117 -90 -177 -14 -61 -19 -223 -7 -231 5 -3 10 -20
10 -36 0 -38 50 -140 96 -198 61 -76 180 -154 264 -174 53 -12 219 -14 274 -3
41 9 150 62 183 91 27 22 76 71 98 98 30 34 87 150 92 187 10 67 14 212 7 228
-4 10 -9 29 -11 44 -3 31 -75 170 -90 175 -7 3 -8 -10 -2 -39 4 -24 5 -52 3
-64 -3 -11 -7 -36 -9 -55 -2 -19 -4 -37 -4 -41 -1 -4 -9 -5 -18 -2 -17 5 -17
5 0 -6 25 -16 21 -30 -10 -31 l-28 -1 25 -8 c25 -8 25 -8 -5 -11 -30 -2 -30
-2 -3 -6 19 -3 25 -9 21 -19 -4 -12 -17 -14 -57 -10 l-51 5 48 -11 c42 -9 47
-13 41 -32 -4 -11 -7 -27 -7 -33 0 -18 -4 -17 -35 13 -47 45 -147 84 -234 91
l-78 6 0 53 c0 30 -4 54 -10 54 -5 0 -10 -22 -10 -50 l0 -50 -50 0 c-27 0 -73
-5 -102 -11 -54 -12 -158 -70 -158 -89 0 -5 -3 -10 -8 -10 -4 0 -6 18 -4 40 2
22 9 40 16 40 6 0 4 5 -4 10 -13 9 -13 10 0 10 9 0 11 3 5 8 -15 11 -12 46 5
54 12 5 11 7 -5 9 -12 1 -6 5 15 9 l35 7 -32 2 c-31 1 -33 3 -33 39 0 58 -27
171 -50 209 -12 20 -20 37 -18 38 5 5 176 -20 183 -26 3 -4 -16 -5 -42 -3 -77
5 -27 -5 90 -19 59 -7 104 -10 100 -6 -5 4 -19 10 -33 12 -41 8 66 -2 208 -19
73 -8 138 -14 144 -12 10 4 -183 34 -292 45 -25 3 -63 8 -85 12 l-40 8 30 12
c17 7 50 15 74 17 53 5 62 10 54 29 -3 8 0 15 6 15 6 0 11 -9 11 -19 0 -22 19
-31 63 -31 42 0 121 -25 155 -48 15 -10 35 -22 45 -25 9 -4 17 -11 17 -17 0
-5 12 -10 26 -10 21 0 25 4 19 18 -4 12 -1 11 15 -5 11 -13 25 -23 30 -23 18
0 10 19 -16 37 -14 10 -35 27 -47 37 -31 29 -143 85 -185 92 -46 9 -204 10
-253 2 -20 -3 -66 -20 -103 -37 -74 -34 -106 -40 -87 -17 16 19 125 67 186 82
70 17 178 17 254 -1z m331 -30 c0 -8 -4 -15 -10 -15 -5 0 -10 7 -10 16 0 8 -5
12 -11 9 -6 -4 -7 -19 -4 -35 7 -32 -6 -44 -35 -35 -20 6 -29 45 -10 45 6 0
10 -9 10 -21 0 -12 4 -17 11 -13 6 3 9 19 6 34 -7 34 9 53 35 39 10 -5 18 -16
18 -24z m-495 -15 c8 -13 -5 -13 -25 0 -13 8 -13 10 2 10 9 0 20 -4 23 -10z
m100 0 c3 -6 -1 -7 -9 -4 -18 7 -21 14 -7 14 6 0 13 -4 16 -10z m110 -38 c-6
-7 -35 18 -35 31 0 5 9 2 20 -8 11 -10 18 -20 15 -23z m-312 11 c-7 -2 -19 -2
-25 0 -7 3 -2 5 12 5 14 0 19 -2 13 -5z m-390 -32 c-3 -10 0 -22 6 -25 6 -4
11 -2 11 3 0 6 4 11 10 11 5 0 7 -6 4 -14 -8 -20 14 -30 33 -14 14 11 16 11
12 -1 -11 -33 -36 -36 -73 -7 -31 24 -34 29 -23 46 15 25 27 26 20 1z m807
-32 c0 -18 -10 -8 -25 24 l-16 32 21 -24 c11 -13 20 -27 20 -32z m244 17 c-10
-8 -14 -18 -9 -25 5 -9 10 -10 18 -2 13 13 27 14 27 2 0 -12 -70 -64 -77 -57
-4 3 1 14 10 24 21 23 11 35 -15 21 -17 -9 -40 -5 -27 4 2 2 19 15 37 30 19
15 38 24 43 21 6 -3 3 -11 -7 -18z m-681 -13 c-7 -2 -21 -2 -30 0 -10 3 -4 5
12 5 17 0 24 -2 18 -5z m-400 -93 c41 -16 51 -36 12 -26 -18 5 -25 2 -25 -8 0
-8 7 -16 15 -20 8 -3 15 -9 15 -14 0 -5 -20 -2 -45 7 -44 16 -64 38 -25 28 25
-7 38 13 16 25 -15 9 -24 33 -8 26 4 -2 24 -10 45 -18z m1170 -20 c-15 -14
-81 -38 -88 -32 -8 8 77 52 88 45 5 -3 5 -9 0 -13z m-959 -37 c8 -51 7 -192
-3 -275 -4 -38 -5 -68 -2 -68 4 0 17 16 30 35 13 19 30 35 37 35 8 0 14 5 14
11 0 19 91 51 166 56 41 3 74 2 74 -2 0 -4 -17 -29 -37 -56 -61 -80 -157 -139
-228 -139 l-35 0 25 57 c14 31 23 58 21 61 -5 4 -36 -64 -36 -78 0 -4 -7 -13
-15 -20 -8 -7 -15 -25 -15 -41 0 -27 3 -29 38 -29 43 0 123 35 170 75 32 27
114 135 125 165 3 8 6 -101 6 -243 l1 -259 -47 5 c-159 17 -314 137 -371 287
-15 41 -42 172 -36 181 2 4 6 26 9 50 6 54 34 132 63 179 12 19 22 38 22 43 0
4 4 7 9 7 4 0 11 -17 15 -37z m-60 12 c-10 -8 -23 -14 -29 -14 -5 0 -1 6 9 14
11 8 24 15 30 15 5 0 1 -7 -10 -15z m-203 -101 c21 -4 39 -11 39 -17 0 -6 -15
-7 -37 -4 -23 4 -42 2 -52 -6 -12 -10 -13 -8 -8 13 4 14 7 32 8 40 1 11 3 10
6 -2 3 -12 18 -20 44 -24z m169 19 c0 -5 -13 -17 -28 -27 l-27 -19 24 26 c26
28 31 32 31 20z m907 -30 c-3 -10 -5 -4 -5 12 0 17 2 24 5 18 2 -7 2 -21 0
-30z m188 17 c3 -11 3 -24 0 -30 -9 -15 -45 -12 -51 5 -4 8 -18 15 -32 15 -29
0 -20 15 13 23 44 10 64 7 70 -13z m-210 -37 c13 -47 15 -65 16 -146 0 -82
-23 -163 -61 -218 -11 -15 -20 -31 -20 -36 0 -13 -90 -96 -135 -124 -47 -30
-135 -64 -153 -61 -6 2 -28 -1 -47 -7 l-35 -9 0 253 0 254 68 -3 c68 -4 170
-36 196 -62 8 -8 19 -14 23 -14 5 0 20 -14 33 -32 l24 -32 18 43 c24 57 48
152 48 190 0 38 15 41 25 4z m-925 -74 c-7 -11 -14 -18 -17 -15 -3 3 0 12 7
21 18 21 23 19 10 -6z m975 -9 c-4 -12 -9 -19 -12 -17 -3 3 -2 15 2 27 4 12 9
19 12 17 3 -3 2 -15 -2 -27z m-980 -110 c-4 -12 -9 -19 -12 -17 -3 3 -2 15 2
27 4 12 9 19 12 17 3 -3 2 -15 -2 -27z m985 11 c-5 -11 -15 -23 -22 -27 -7 -5
-8 -2 -3 7 21 37 44 55 25 20z m-1076 -87 c3 -9 6 -21 5 -27 0 -7 -4 -2 -9 10
-8 20 -12 21 -45 12 -20 -6 -39 -8 -42 -5 -5 5 49 23 73 25 7 1 15 -6 18 -15z
m1196 -9 c17 16 19 15 29 -4 16 -29 13 -39 -5 -16 -15 20 -15 20 -30 0 -13
-17 -16 -18 -24 -5 -5 8 -10 22 -10 30 1 11 3 11 11 -3 10 -17 12 -17 29 -2z
m-1083 -27 c-3 -7 -5 -2 -5 12 0 14 2 19 5 13 2 -7 2 -19 0 -25z m953 29 c0
-2 -12 -14 -27 -28 l-28 -24 24 28 c23 25 31 32 31 24z m-900 -119 c-1 -28 -2
-30 -11 -15 -6 10 -8 25 -5 33 9 24 16 16 16 -18z m841 2 c-22 -19 -41 -26
-41 -15 0 5 51 34 60 34 3 0 -6 -9 -19 -19z m172 -24 c5 -15 7 -30 4 -33 -7
-7 -47 3 -67 17 -13 9 -11 13 10 30 31 24 41 21 53 -14z m-1152 -4 c-25 -36
-51 -58 -51 -44 0 6 5 14 10 17 14 9 -7 35 -27 35 -8 0 -11 5 -8 10 3 6 26 10
51 10 l45 0 -20 -28z m209 -72 c0 -13 -1 -13 -10 0 -5 8 -10 22 -10 30 0 13 1
13 10 0 5 -8 10 -22 10 -30z m706 15 c-11 -8 -27 -15 -35 -14 -9 0 -2 7 14 14
39 18 45 18 21 0z m-826 -51 c14 -35 13 -37 -10 -31 -16 4 -20 0 -20 -19 0
-13 -4 -24 -10 -24 -5 0 -7 13 -3 30 6 31 -4 39 -25 18 -7 -7 -12 -9 -12 -5 0
10 52 56 63 57 4 0 12 -12 17 -26z m1000 -28 c0 -4 -10 -2 -22 6 -22 13 -68
13 -68 0 0 -4 15 -17 33 -29 17 -13 25 -23 17 -23 -8 0 -28 12 -44 26 -23 21
-26 28 -15 35 8 5 19 9 26 9 7 0 10 7 6 16 -4 12 3 10 30 -7 20 -13 37 -28 37
-33z m-790 -10 c0 -6 -7 -2 -15 8 -8 11 -15 25 -15 30 0 6 7 2 15 -8 8 -11 15
-25 15 -30z m527 13 c-14 -8 -22 -8 -30 0 -8 8 -3 11 19 11 25 -1 27 -2 11
-11z m-437 -44 c13 -14 21 -25 18 -25 -2 0 -15 11 -28 25 -13 14 -21 25 -18
25 2 0 15 -11 28 -25z m343 -2 c-7 -2 -21 -2 -30 0 -10 3 -4 5 12 5 17 0 24
-2 18 -5z m-217 -34 c4 -8 1 -8 -14 0 -12 6 -24 16 -28 22 -4 8 -1 8 14 0 12
-6 24 -16 28 -22z m-312 5 c13 -35 6 -51 -26 -58 -37 -7 -35 -9 -40 29 -2 24
1 30 22 36 37 10 37 10 44 -7z m416 6 c13 -9 13 -10 0 -10 -8 0 -22 5 -30 10
-13 9 -13 10 0 10 8 0 22 -5 30 -10z m318 -30 c34 -21 44 -37 16 -26 -21 8
-45 -11 -37 -30 3 -8 1 -14 -5 -14 -5 0 -12 12 -15 28 -3 15 -9 35 -12 45 -9
23 11 22 53 -3z m-628 -34 c0 -1 -5 -17 -11 -35 -10 -28 -9 -34 7 -47 17 -13
16 -13 -9 -2 -17 7 -26 17 -22 26 3 7 8 25 11 38 3 13 10 24 15 24 5 0 9 -2 9
-4z m467 -47 c10 -25 16 -29 32 -24 28 9 27 -4 -1 -14 -19 -7 -26 -4 -40 23
-19 35 -22 46 -10 46 4 0 13 -14 19 -31z m-125 -1 c-17 -17 -15 -25 8 -31 26
-7 25 -19 -2 -36 -21 -13 -22 -13 -9 3 13 15 13 19 0 27 -8 5 -18 9 -23 9 -5
0 -1 9 9 20 10 11 21 20 24 20 3 0 0 -5 -7 -12z m-125 -65 c-2 -16 -4 -5 -4
22 0 28 2 40 4 28 2 -13 2 -35 0 -50z"/>
<path d="M943 1093 c9 -2 25 -2 35 0 9 3 1 5 -18 5 -19 0 -27 -2 -17 -5z"/>
<path d="M1023 1083 c9 -2 25 -2 35 0 9 3 1 5 -18 5 -19 0 -27 -2 -17 -5z"/>
<path d="M473 863 c9 -2 23 -2 30 0 6 3 -1 5 -18 5 -16 0 -22 -2 -12 -5z"/>
<path d="M1048 833 c7 -3 16 -2 19 1 4 3 -2 6 -13 5 -11 0 -14 -3 -6 -6z"/>
<path d="M1038 793 c6 -2 18 -2 25 0 6 3 1 5 -13 5 -14 0 -19 -2 -12 -5z"/>
<path d="M1098 783 c7 -3 16 -2 19 1 4 3 -2 6 -13 5 -11 0 -14 -3 -6 -6z"/>
<path d="M1088 743 c7 -3 16 -2 19 1 4 3 -2 6 -13 5 -11 0 -14 -3 -6 -6z"/>
<path d="M702 718 c-13 -20 -49 -61 -82 -91 -54 -50 -92 -71 -176 -94 -25 -6
-29 -12 -25 -29 l6 -22 60 19 c33 10 76 32 96 48 47 39 152 176 147 192 -2 7
-14 -4 -26 -23z"/>
<path d="M693 658 c-75 -103 -130 -147 -214 -172 -41 -12 -49 -25 -27 -40 25
-15 77 12 146 78 71 68 136 150 130 167 -2 6 -18 -9 -35 -33z"/>
<path d="M687 602 c-53 -70 -130 -140 -178 -162 -38 -16 -40 -19 -22 -28 16
-9 28 -6 59 15 57 38 121 101 155 155 42 66 32 80 -14 20z"/>
<path d="M680 532 c-25 -31 -71 -75 -103 -96 -39 -27 -53 -42 -45 -48 21 -13
27 -10 78 38 48 45 127 150 119 158 -2 3 -24 -21 -49 -52z"/>
<path d="M686 491 c-20 -27 -52 -63 -71 -80 -41 -35 -43 -41 -14 -41 11 0 41
22 70 52 27 28 49 48 49 44 0 -4 -21 -29 -47 -57 -56 -60 -50 -75 11 -26 43
36 44 38 44 97 0 33 -1 60 -3 60 -2 0 -20 -22 -39 -49z"/>
<path d="M692 377 c-26 -28 -27 -33 -7 -41 18 -7 45 2 45 15 0 6 -10 4 -22 -2
l-23 -12 23 25 c12 13 22 27 22 31 0 14 -17 7 -38 -16z"/>
<path d="M715 321 c-3 -5 -1 -12 5 -16 5 -3 10 1 10 9 0 18 -6 21 -15 7z"/>
<path d="M1360 910 c0 -5 6 -10 14 -10 8 0 18 5 21 10 3 6 -3 10 -14 10 -12 0
-21 -4 -21 -10z"/>
<path d="M780 774 c0 -20 84 -127 123 -157 53 -40 116 -67 160 -67 32 0 37 3
37 23 0 13 -13 48 -30 78 -34 62 -38 60 -10 -5 l19 -46 -37 0 c-70 0 -177 72
-246 165 -9 11 -16 15 -16 9z"/>
<path d="M771 742 c-1 -19 104 -157 147 -192 35 -29 109 -60 143 -60 9 0 19 9
22 19 4 17 -3 21 -46 31 -29 6 -70 21 -92 34 -40 24 -124 107 -157 156 -9 14
-17 19 -17 12z"/>
<path d="M771 691 c-1 -21 61 -100 131 -167 70 -67 121 -94 147 -77 25 16 20
23 -35 42 -83 28 -134 71 -221 187 -12 16 -22 23 -22 15z"/>
<path d="M770 641 c0 -40 103 -161 184 -214 31 -20 43 -24 58 -16 17 9 14 13
-30 35 -47 23 -125 97 -185 174 -15 19 -27 29 -27 21z"/>
<path d="M770 584 c0 -29 152 -204 178 -204 4 0 13 4 20 9 10 6 -1 17 -37 40
-49 32 -94 76 -138 136 -12 17 -23 25 -23 19z"/>
<path d="M773 464 c2 -66 6 -86 22 -104 l20 -23 -22 12 c-13 6 -23 8 -23 2 0
-13 27 -22 45 -15 21 8 19 13 -12 48 l-28 30 43 -33 c24 -19 46 -31 49 -27 3
3 -15 28 -40 55 -26 28 -47 53 -47 57 0 4 22 -16 49 -44 29 -30 59 -52 70 -52
12 0 21 2 21 4 0 2 -21 25 -48 52 -26 27 -59 65 -74 84 l-26 35 1 -81z"/>
<path d="M770 314 c0 -8 5 -12 10 -9 6 4 8 11 5 16 -9 14 -15 11 -15 -7z"/>
<path d="M1308 476 c-16 -12 -16 -14 8 -25 32 -14 35 -12 27 17 -6 25 -11 26
-35 8z"/>
<path d="M160 471 c0 -18 18 -21 30 -6 10 13 9 15 -9 15 -11 0 -21 -4 -21 -9z"/>
<path d="M261 356 c-9 -10 -8 -15 4 -20 10 -4 15 1 15 14 0 24 -4 25 -19 6z"/>
<path d="M368 252 c-18 -4 -25 -37 -9 -46 4 -3 15 0 24 7 19 15 8 44 -15 39z"/>
<path d="M1100 221 c0 -11 4 -21 9 -21 18 0 21 18 6 30 -13 10 -15 9 -15 -9z"/>
</g>
</svg>
