<?xml version="1.0" standalone="no"?>
<!DOCTYPE svg PUBLIC "-//W3C//DTD SVG 1.1//EN" "http://www.w3.org/Graphics/SVG/1.1/DTD/svg11.dtd" >
<svg xmlns="http://www.w3.org/2000/svg" xmlns:xlink="http://www.w3.org/1999/xlink" version="1.1">
<metadata>
Created by FontForge 20170731 at Wed Oct 17 00:58:32 2018
 By Aleksey,,,
Copyright (c) 2018 by Typetype. Designer Ivan Gladkikh, technical designers Philipp Nurullin, Vika Usmanova, Nadyr Rakhimov, Marina Khodak. All rights reserved. |DCNT
</metadata>
<defs>
<font id="TTFirsNeue-LightItalic" horiz-adv-x="615" >
  <font-face 
    font-family="TT Firs Neue Light"
    font-weight="300"
    font-style="italic"
    font-stretch="normal"
    units-per-em="1000"
    panose-1="2 0 5 3 3 0 0 9 0 4"
    ascent="800"
    descent="-200"
    x-height="500"
    cap-height="700"
    bbox="-306 -280 1493 1031"
    underline-thickness="50"
    underline-position="-250"
    slope="-10"
    unicode-range="U+000D-FB02"
  />
<missing-glyph horiz-adv-x="0" 
 />
    <glyph glyph-name="ff" unicode="ff" 
d="M233 445l-78 -445h-60l78 445h-70l10 55h70l35 200h225l-9 -55h-165l-26 -145h245l35 200h225l-9 -55h-165l-26 -145h135l-10 -55h-135l-78 -445h-60l78 445h-245z" />
    <glyph glyph-name="fi" unicode="fi" horiz-adv-x="540" 
d="M400 0l78 445h-245l-78 -445h-60l78 445h-70l10 55h70l35 200h335l-9 -55h-275l-26 -145h305l-88 -500h-60z" />
    <glyph glyph-name="fl" unicode="fl" horiz-adv-x="590" 
d="M583 700l-113 -645h115l-10 -55h-175l114 645h-245l-26 -145h135l-10 -55h-135l-78 -445h-60l78 445h-70l10 55h70l35 200h365z" />
    <glyph glyph-name="f_j" unicode="fj" horiz-adv-x="540" 
d="M548 500l-122 -690h-205l10 55h145l102 580h-245l-78 -445h-60l78 445h-70l10 55h70l35 200h335l-9 -55h-275l-26 -145h305z" />
    <glyph glyph-name="f_t" unicode="ft" horiz-adv-x="660" 
d="M103 445l10 55h70l35 200h365l-35 -200h165l-10 -55h-165l-68 -390h170l-10 -55h-230l78 445h-245l-78 -445h-60l78 445h-70zM269 645l-26 -145h245l26 145h-245z" />
    <glyph glyph-name=".notdef" horiz-adv-x="0" 
 />
    <glyph glyph-name=".null" horiz-adv-x="0" 
 />
    <glyph glyph-name=".null" horiz-adv-x="0" 
 />
    <glyph glyph-name="nonmarkingreturn" horiz-adv-x="333" 
 />
    <glyph glyph-name="CR" unicode="&#xd;" horiz-adv-x="0" 
 />
    <glyph glyph-name="space" unicode=" " horiz-adv-x="280" 
 />
    <glyph glyph-name="exclam" unicode="!" horiz-adv-x="280" 
d="M294 700l-64 -365l-34 -135h-40l14 135l64 365h60zM143 -15q-21 0 -34 13t-13 32q0 26 15 40.5t39 14.5q21 0 34 -13t13 -32q0 -26 -15 -40.5t-39 -14.5z" />
    <glyph glyph-name="quotedbl" unicode="&#x22;" horiz-adv-x="355" 
d="M248 700l-23 -130l-30 -115h-40l10 115l23 130h60zM403 700l-23 -130l-30 -115h-40l10 115l23 130h60z" />
    <glyph glyph-name="numbersign" unicode="#" horiz-adv-x="660" 
d="M547 495l96 205h60l-96 -205h110l-9 -50h-125l-88 -190h120l-9 -50h-135l-96 -205h-60l96 205h-175l-96 -205h-60l96 205h-110l9 50h125l88 190h-120l9 50h135l96 205h60l-96 -205h175zM523 445h-175l-88 -190h175z" />
    <glyph glyph-name="dollar" unicode="$" horiz-adv-x="635" 
d="M368 40q84 -4 135.5 40t51.5 102q0 23 -12 43t-27 33.5t-45 29t-50.5 24.5t-57.5 23q-88 32 -140 74.5t-52 109.5q0 82 67.5 141.5t175.5 59.5h5l16 90h65l-17 -96q51 -9 88.5 -31.5t56.5 -50.5t28 -48t12 -38l2 -11h-64q-8 35 -33 62q-57 63 -167 63q-76 0 -123 -38.5
t-47 -94.5q0 -27 15 -50t46.5 -42t58.5 -31.5t72 -29.5q41 -16 71.5 -31.5t60 -38t45 -52t15.5 -64.5q0 -85 -72 -146.5t-187 -61.5h-7l-16 -90h-65l17 96q-117 20 -172 112q-23 39 -31 87h65l3 -11q4 -17 16 -36.5t35 -43t65 -39t97 -15.5z" />
    <glyph glyph-name="percent" unicode="%" horiz-adv-x="765" 
d="M688 700h65l-543 -700h-65zM319 656q-47 0 -81 -35t-34 -90q0 -43 26.5 -70t70.5 -27q47 0 81 35t34 90q0 43 -26.5 70t-70.5 27zM294 380q-64 0 -106.5 44t-42.5 106q0 74 55 127t126 53q64 0 106.5 -44t42.5 -106q0 -74 -55 -127t-126 -53zM579 44q47 0 81 35t34 90
q0 43 -26.5 70t-70.5 27q-47 0 -81 -35t-34 -90q0 -43 26.5 -70t70.5 -27zM604 320q64 0 106.5 -44t42.5 -106q0 -74 -55 -127t-126 -53q-64 0 -106.5 44t-42.5 106q0 74 55 127t126 53z" />
    <glyph glyph-name="ampersand" unicode="&#x26;" horiz-adv-x="700" 
d="M324 40q78 0 137.5 61t59.5 151q0 73 -46 120.5t-117 47.5q-78 0 -137.5 -61t-59.5 -151q0 -73 46 -120.5t117 -47.5zM664 0l-93 193q-16 -95 -86 -154t-163 -59q-101 0 -166.5 65.5t-65.5 161.5q0 115 80.5 194t187.5 79q32 0 62 -10l23 -9l-86 179l10 60h390l-10 -60
h-315l307 -640h-75z" />
    <glyph glyph-name="quotesingle" unicode="'" horiz-adv-x="200" 
d="M248 700l-23 -130l-30 -115h-40l10 115l23 130h60z" />
    <glyph glyph-name="parenleft" unicode="(" horiz-adv-x="365" 
d="M464 755l27 -48q-134 -86 -208.5 -218.5t-74.5 -273.5q0 -137 68 -254q30 -53 69 -93l-41 -43q-48 45 -81 101q-81 132 -81 285q0 227 161 410q70 79 161 134z" />
    <glyph glyph-name="parenright" unicode=")" horiz-adv-x="365" 
d="M8 -175l-27 48q134 86 208.5 218.5t74.5 273.5q0 136 -69 254q-29 51 -68 93l41 43q47 -45 81 -101q81 -136 81 -285q0 -229 -161 -410q-68 -77 -161 -134z" />
    <glyph glyph-name="asterisk" unicode="*" horiz-adv-x="360" 
d="M290 700v-120h120v-50h-105l70 -105l-45 -25l-65 105l-65 -105l-45 25l70 105h-105v50h120v120h50z" />
    <glyph glyph-name="plus" unicode="+" horiz-adv-x="500" 
d="M339 280v-175h-60v175h-165v55h165v175h60v-175h165v-55h-165z" />
    <glyph glyph-name="comma" unicode="," horiz-adv-x="195" 
d="M95 -10q-15 0 -25.5 12.5t-10.5 27.5q0 22 15.5 36t36.5 14q49 0 49 -60q0 -62 -33.5 -96.5t-88.5 -43.5l6 30q71 19 71 70v4q-1 2 -1 5q-1 1 -1 4q-1 -1 -2 -1t-1.5 -0.5t-1.5 -0.5q-2 -1 -13 -1z" />
    <glyph glyph-name="hyphen" unicode="-" horiz-adv-x="480" 
d="M469 250h-360l11 60h360z" />
    <glyph glyph-name="period" unicode="." horiz-adv-x="190" 
d="M108 -15q-21 0 -34 13t-13 32q0 26 15 40.5t39 14.5q21 0 34 -13t13 -32q0 -26 -15 -40.5t-39 -14.5z" />
    <glyph glyph-name="slash" unicode="/" horiz-adv-x="350" 
d="M473 700l-398 -700h-65l398 700h65z" />
    <glyph glyph-name="zero" unicode="0" horiz-adv-x="740" 
d="M400 40q111 0 197 100t86 271q0 115 -61 181.5t-157 66.5q-111 0 -197 -100t-86 -271q0 -115 61 -181.5t157 -66.5zM397 -20q-125 0 -203 83.5t-78 223.5q0 98 30.5 181t80.5 137t113 84t128 30q125 0 203 -83.5t78 -223.5q0 -98 -30.5 -181t-80.5 -137t-113 -84
t-128 -30z" />
    <glyph glyph-name="one" unicode="1" horiz-adv-x="310" 
d="M154 0l111 625l-148 -100l12 70l154 105h60l-124 -700h-65z" />
    <glyph glyph-name="two" unicode="2" horiz-adv-x="570" 
d="M343 190l-192 -130h390l-11 -60h-490l11 60l244 165q15 10 49 32.5t45.5 30.5t37.5 26.5t35 26.5t27.5 24.5t24.5 26.5t17 25.5t14.5 29t6.5 30.5t3 36q0 63 -45.5 105t-120.5 42q-88 0 -144 -78q-26 -35 -39 -77h-71q18 59 51 107q76 108 205 108q102 0 165.5 -59
t63.5 -145q0 -51 -16 -92t-60.5 -83t-74.5 -64t-104 -72q-14 -10 -22 -15z" />
    <glyph glyph-name="three" unicode="3" horiz-adv-x="590" 
d="M333 420h16q103 0 166.5 -61.5t63.5 -143.5q0 -97 -75.5 -166t-185.5 -69q-153 0 -216 100q-28 43 -36 100h63q7 -37 32 -70q54 -70 162 -70q84 0 137.5 48.5t53.5 123.5q0 63 -48.5 105.5t-126.5 42.5h-107l11 60l288 220h-355l11 60h445l-11 -60z" />
    <glyph glyph-name="four" unicode="4" horiz-adv-x="585" 
d="M480 0h-65l28 160h-375l11 60l334 480h70l-334 -480h305l33 190h65l-33 -190h105l-11 -60h-105z" />
    <glyph glyph-name="five" unicode="5" 
d="M287 640l-60 -231q21 17 38 25q50 26 108 26q104 0 170 -62t66 -156q0 -110 -79 -186t-190 -76q-144 0 -207 100q-30 45 -37 100h64q9 -37 32 -70q50 -70 155 -70q82 0 139 57t57 143q0 72 -48.5 116t-126.5 44q-67 0 -123 -38q-24 -15 -42 -37h-55l95 375h405l-11 -60
h-350z" />
    <glyph glyph-name="six" unicode="6" horiz-adv-x="605" 
d="M90 206q0 34 9 65.5t16.5 50t35 51.5t36.5 42.5t50 48.5l18 18l223 218h80l-240 -234l11 2q14 2 34 2q109 0 179.5 -62.5t70.5 -163.5q0 -110 -82 -187t-197 -77q-108 0 -176 65.5t-68 160.5zM340 40q87 0 147.5 57.5t60.5 144.5q0 73 -51 120.5t-134 47.5
q-87 0 -147.5 -58t-60.5 -144q0 -73 51 -120.5t134 -47.5z" />
    <glyph glyph-name="seven" unicode="7" horiz-adv-x="485" 
d="M156 0h-70l408 640h-385l10 60h455l-10 -60z" />
    <glyph glyph-name="eight" unicode="8" horiz-adv-x="640" 
d="M358 -20q-108 0 -188.5 54.5t-80.5 148.5q0 51 20.5 91t51.5 62t55 32.5t45 15.5l12 2q-29 13 -47 31q-47 45 -47 107q0 79 67 137.5t175 58.5q110 0 173.5 -53t63.5 -126q0 -43 -16 -76.5t-42 -53t-44 -28.5t-36 -15q-2 -1 -5 -2l-5 -1q36 -15 59 -35q60 -48 60 -127
q0 -91 -75 -157t-196 -66zM420 400q78 0 126 42.5t48 95.5q0 50 -46.5 86t-131.5 36q-79 0 -126 -42t-47 -96q0 -50 46 -86t131 -36zM364 40q91 0 145.5 45.5t54.5 111.5q0 60 -55.5 102t-155.5 42q-91 0 -145.5 -45.5t-54.5 -111.5q0 -60 55 -102t156 -42z" />
    <glyph glyph-name="nine" unicode="9" horiz-adv-x="605" 
d="M640 494q0 -34 -9 -65.5t-16.5 -50t-35 -51.5t-36.5 -42.5t-50 -48.5l-18 -18l-223 -218h-80l240 234l-11 -2q-14 -2 -34 -2q-109 0 -179.5 62.5t-70.5 163.5q0 110 82 187t197 77q108 0 176 -65.5t68 -160.5zM390 660q-87 0 -147.5 -58t-60.5 -144q0 -73 51 -120.5
t134 -47.5q87 0 147.5 57.5t60.5 144.5q0 73 -51 120.5t-134 47.5z" />
    <glyph glyph-name="colon" unicode=":" horiz-adv-x="190" 
d="M182 410q-21 0 -34 13t-13 32q0 26 15 40.5t39 14.5q21 0 34 -13t13 -32q0 -26 -15 -40.5t-39 -14.5zM108 -15q-21 0 -34 13t-13 32q0 26 15 40.5t39 14.5q21 0 34 -13t13 -32q0 -26 -15 -40.5t-39 -14.5z" />
    <glyph glyph-name="semicolon" unicode=";" horiz-adv-x="190" 
d="M95 -10q-15 0 -25.5 12.5t-10.5 27.5q0 22 15.5 36t36.5 14q49 0 49 -60q0 -62 -33.5 -96.5t-88.5 -43.5l6 30q71 19 71 70v4q-1 2 -1 5q-1 1 -1 4q-1 -1 -2 -1t-1.5 -0.5t-1.5 -0.5q-2 -1 -13 -1zM182 410q-21 0 -34 13t-13 32q0 26 15 40.5t39 14.5q21 0 34 -13t13 -32
q0 -26 -15 -40.5t-39 -14.5z" />
    <glyph glyph-name="less" unicode="&#x3c;" horiz-adv-x="500" 
d="M105 215v70l380 200v-60l-320 -170v-10l320 -170v-60z" />
    <glyph glyph-name="equal" unicode="=" horiz-adv-x="500" 
d="M490 330h-370v55h370v-55zM490 145h-370v55h370v-55z" />
    <glyph glyph-name="greater" unicode="&#x3e;" horiz-adv-x="500" 
d="M490 285v-70l-380 -200v60l320 170v10l-320 170v60z" />
    <glyph glyph-name="question" unicode="?" horiz-adv-x="525" 
d="M509 535q0 58 -39.5 91.5t-110.5 33.5q-102 0 -160 -70q-28 -34 -40 -70h-69q22 57 57 100q78 100 207 100q99 0 159.5 -51.5t60.5 -128.5q0 -70 -35 -113.5t-95 -74.5q-30 -16 -50 -28.5t-42.5 -32t-35 -43.5t-15.5 -53h-66q5 38 19 68t36.5 51.5t43 35t49.5 28.5
q40 21 63 36.5t43 47.5t20 73zM241 -15q-21 0 -34 13t-13 32q0 26 15 40.5t39 14.5q21 0 34 -13t13 -32q0 -26 -15 -40.5t-39 -14.5z" />
    <glyph glyph-name="at" unicode="@" horiz-adv-x="815" 
d="M537 165l8 44q-11 -17 -25 -27q-31 -27 -80 -27q-58 0 -97.5 41t-39.5 106q0 78 51.5 130.5t116.5 52.5q45 0 71 -19t35 -40l4 -11l11 60h60l-45 -255h6q68 0 118.5 52t50.5 141q0 91 -75 159t-203 68q-139 0 -240.5 -102t-101.5 -255q0 -125 81 -204t214 -79
q62 0 117 17q28 8 46 18l-10 -55q-18 -10 -46 -18q-55 -17 -116 -17q-153 0 -249 96t-96 240q0 173 121 293.5t285 120.5q149 0 241 -85.5t92 -196.5q0 -115 -73.5 -181.5t-200.5 -66.5h-31zM454 210q43 0 77 36t34 89q0 44 -25 69.5t-65 25.5q-43 0 -77 -36t-34 -89
q0 -44 25 -69.5t65 -25.5z" />
    <glyph glyph-name="A" unicode="A" horiz-adv-x="675" 
d="M600 0l-19 230h-370l-101 -230h-65l308 700h250l62 -700h-65zM543 640h-150l-157 -350h340z" />
    <glyph glyph-name="B" unicode="B" horiz-adv-x="700" 
d="M470 330h-257l-47 -270h287q75 0 119.5 41.5t44.5 108.5q0 52 -39 86t-108 34zM520 640h-252l-44 -250h278q63 0 102 38.5t39 101.5q0 47 -32.5 78.5t-90.5 31.5zM213 700h307q89 0 138.5 -48.5t49.5 -119.5q0 -70 -34 -112t-71 -56q-5 -2 -12 -5l-6 -2l-2 -5
q26 -10 49 -30q50 -46 50 -112q0 -90 -65.5 -150t-168.5 -60h-358z" />
    <glyph glyph-name="C" unicode="C" horiz-adv-x="800" 
d="M743 245h67q-29 -73 -80 -133q-112 -132 -288 -132q-149 0 -241.5 92t-92.5 236q0 88 32.5 165.5t86.5 131t126 84.5t149 31t140 -26t100 -66t58 -80.5t26 -77.5h-66q-17 54 -49 95q-73 95 -216 95q-132 0 -227 -98t-95 -252q0 -120 75.5 -195t197.5 -75q140 0 232 102
q39 43 65 103z" />
    <glyph glyph-name="D" unicode="D" horiz-adv-x="720" 
d="M410 640h-142l-102 -580h189q135 0 225 93.5t90 231.5q0 110 -73 182.5t-187 72.5zM213 700h197q143 0 234 -88t91 -227q0 -161 -112.5 -273t-273.5 -112h-259z" />
    <glyph glyph-name="E" unicode="E" horiz-adv-x="610" 
d="M166 60h410l-11 -60h-475l123 700h475l-10 -60h-410l-45 -255h335l-11 -60h-335z" />
    <glyph glyph-name="F" unicode="F" horiz-adv-x="580" 
d="M209 305l-54 -305h-65l123 700h465l-10 -60h-400l-49 -275h320l-10 -60h-320z" />
    <glyph glyph-name="G" unicode="G" horiz-adv-x="860" 
d="M757 300h-138l10 60h295l-10 -60h-90q-7 -42 -26.5 -85t-53 -85.5t-76.5 -75.5t-102 -53.5t-124 -20.5q-149 0 -241.5 92t-92.5 236q0 88 32.5 165.5t86.5 131t126 84.5t149 31q62 0 114.5 -16.5t87 -42t60.5 -59.5t39.5 -65t20.5 -62h-66q-16 52 -49 92q-77 93 -214 93
q-132 0 -227 -98t-95 -252q0 -120 75.5 -195t197.5 -75q70 0 130 27.5t97 69t59 84.5t25 79z" />
    <glyph glyph-name="H" unicode="H" horiz-adv-x="715" 
d="M90 0l123 700h65l-55 -315h405l55 315h65l-123 -700h-65l57 325h-405l-57 -325h-65z" />
    <glyph glyph-name="I" unicode="I" horiz-adv-x="245" 
d="M278 700l-123 -700h-65l123 700h65z" />
    <glyph glyph-name="J" unicode="J" horiz-adv-x="550" 
d="M594 700l-88 -499q-19 -105 -83 -163t-159 -58q-56 0 -99.5 17t-68.5 45t-39.5 56t-19.5 58l67 14q6 -37 25 -65q45 -65 137 -65q67 0 114.5 43.5t61.5 123.5l87 493h65z" />
    <glyph glyph-name="K" unicode="K" horiz-adv-x="630" 
d="M545 0l-173 325h-160l-57 -325h-65l123 700h65l-55 -315h155l280 315h80l-305 -340l192 -360h-80z" />
    <glyph glyph-name="L" unicode="L" horiz-adv-x="526" 
d="M278 700l-112 -640h380l-11 -60h-445l123 700h65z" />
    <glyph glyph-name="M" unicode="M" horiz-adv-x="915" 
d="M561 175h-145l-148 465l-113 -640h-65l123 700h105l148 -465h65l312 465h105l-123 -700h-65l113 640z" />
    <glyph glyph-name="N" unicode="N" horiz-adv-x="725" 
d="M635 0h-95l-273 635l-112 -635h-65l123 700h95l273 -635l112 635h65z" />
    <glyph glyph-name="O" unicode="O" horiz-adv-x="820" 
d="M447 40q133 0 228 98t95 252q0 120 -76 195t-198 75q-133 0 -228 -98t-95 -252q0 -120 75.5 -195t198.5 -75zM443 -20q-149 0 -242 92.5t-93 235.5q0 176 116 294t276 118q149 0 242 -92.5t93 -235.5q0 -176 -116 -294t-276 -118z" />
    <glyph glyph-name="P" unicode="P" horiz-adv-x="680" 
d="M480 640h-212l-58 -330h247q87 0 138 51t51 133q0 63 -44.5 104.5t-121.5 41.5zM213 700h267q107 0 169 -59t62 -144q0 -106 -72.5 -176.5t-185.5 -70.5h-254l-44 -250h-65z" />
    <glyph glyph-name="Q" unicode="Q" horiz-adv-x="820" 
d="M345 -200l33 185q-122 20 -196 108.5t-74 214.5q0 176 116 294t276 118q149 0 242 -92.5t93 -235.5q0 -176 -117 -294t-276 -118l-32 -180h-65zM447 40q133 0 228 98t95 252q0 120 -76 195t-198 75q-133 0 -228 -98t-95 -252q0 -120 75.5 -195t198.5 -75z" />
    <glyph glyph-name="R" unicode="R" horiz-adv-x="685" 
d="M475 640h-207l-55 -310h254q84 0 132.5 47.5t48.5 126.5q0 63 -44 99.5t-129 36.5zM213 700h272q106 0 167 -54.5t61 -138.5q0 -97 -61 -162t-163 -73l131 -272h-75l-127 270h-215l-48 -270h-65z" />
    <glyph glyph-name="S" unicode="S" horiz-adv-x="635" 
d="M368 40q84 -4 135.5 40t51.5 102q0 23 -12 43t-27 33.5t-45 29t-50.5 24.5t-57.5 23q-88 32 -140 74.5t-52 109.5q0 82 67.5 141.5t175.5 59.5q56 0 102 -14t72 -34t45 -45.5t26 -44t9 -33.5l2 -14h-64q-8 35 -33 62q-57 63 -167 63q-76 0 -123 -38.5t-47 -94.5
q0 -27 15 -50t46.5 -42t58.5 -31.5t72 -29.5q41 -16 71.5 -31.5t60 -38t45 -52t15.5 -64.5q0 -85 -72 -146.5t-187 -61.5q-163 0 -233 102q-34 46 -41 103h65l3 -11q4 -17 16 -36.5t35 -43t65 -39t97 -15.5z" />
    <glyph glyph-name="T" unicode="T" horiz-adv-x="585" 
d="M357 640h-250l11 60h565l-11 -60h-250l-113 -640h-65z" />
    <glyph glyph-name="U" unicode="U" horiz-adv-x="710" 
d="M129 270l76 430h65l-76 -430q-5 -30 -5 -51q0 -25 4 -42q12 -64 61 -100.5t128 -36.5q86 0 143 52.5t74 149.5l81 458h65l-82 -463q-22 -119 -99.5 -188t-187.5 -69q-97 0 -162 47.5t-83 127.5q-7 27 -7 60q0 23 5 55z" />
    <glyph glyph-name="V" unicode="V" horiz-adv-x="675" 
d="M268 60h145l278 640h72l-308 -700h-245l-62 700h68z" />
    <glyph glyph-name="W" unicode="W" horiz-adv-x="960" 
d="M659 700l27 -640h35l248 640h69l-278 -700h-136l-23 640h-30l-247 -640h-134l-32 700h67l22 -640h35l253 640h124z" />
    <glyph glyph-name="X" unicode="X" horiz-adv-x="635" 
d="M615 0h-67l-119 320h-91l-231 -320h-72l252 350l-119 350h67l109 -320h90l221 320h73l-241 -350z" />
    <glyph glyph-name="Y" unicode="Y" horiz-adv-x="635" 
d="M738 700l-353 -445l-45 -255h-65l45 255l-197 445h77l160 -370h5l290 370h83z" />
    <glyph glyph-name="Z" unicode="Z" horiz-adv-x="600" 
d="M40 0l11 60l541 575l1 5h-425l10 60h510l-10 -60l-542 -575v-5h445l-11 -60h-530z" />
    <glyph glyph-name="bracketleft" unicode="[" horiz-adv-x="325" 
d="M417 665h-145l-132 -750h145l-11 -60h-210l153 870h210z" />
    <glyph glyph-name="backslash" unicode="\" horiz-adv-x="350" 
d="M280 0l-152 700h65l152 -700h-65z" />
    <glyph glyph-name="bracketright" unicode="]" horiz-adv-x="325" 
d="M288 665h-145l10 60h210l-153 -870h-210l11 60h145z" />
    <glyph glyph-name="asciicircum" unicode="^" horiz-adv-x="460" 
d="M310 640h-20l-115 -255h-60l145 315h80l145 -315h-60z" />
    <glyph glyph-name="underscore" unicode="_" horiz-adv-x="310" 
d="M321 -165h-350l10 55h350z" />
    <glyph glyph-name="grave" unicode="`" horiz-adv-x="225" 
d="M122 695h75l64 -145h-50z" />
    <glyph glyph-name="a" unicode="a" 
d="M476 0l15 84q-25 -36 -74 -65t-112 -29q-93 0 -155.5 65.5t-62.5 164.5q0 123 81.5 206.5t184.5 83.5q79 0 128 -40t62 -87l21 117h60l-88 -500h-60zM312 45q79 0 143.5 65.5t64.5 162.5q0 79 -48 130.5t-117 51.5q-79 0 -143.5 -65.5t-64.5 -162.5q0 -79 48 -130.5
t117 -51.5z" />
    <glyph glyph-name="b" unicode="b" 
d="M263 700l-50 -284q25 36 74 65t112 29q93 0 155.5 -65.5t62.5 -164.5q0 -123 -81.5 -206.5t-184.5 -83.5q-79 0 -128 40t-62 87l-21 -117h-60l123 700h60zM392 455q-79 0 -143.5 -65.5t-64.5 -162.5q0 -79 48 -130.5t117 -51.5q79 0 143.5 65.5t64.5 162.5
q0 79 -48 130.5t-117 51.5z" />
    <glyph glyph-name="c" unicode="c" horiz-adv-x="570" 
d="M507 175h60q-21 -51 -56 -93q-82 -92 -197 -92q-96 0 -161.5 65.5t-65.5 165.5q0 123 82 206t188 83q118 0 183 -88q26 -38 37 -87h-60q-10 34 -32 60q-46 60 -131 60q-80 0 -143.5 -66t-63.5 -164q0 -79 48.5 -129.5t120.5 -50.5q85 0 146 65q28 30 45 65z" />
    <glyph glyph-name="d" unicode="d" 
d="M476 0l15 84q-25 -36 -74 -65t-112 -29q-93 0 -155.5 65.5t-62.5 164.5q0 123 81.5 206.5t184.5 83.5q79 0 128 -40t62 -87l55 317h60l-122 -700h-60zM312 45q79 0 143.5 65.5t64.5 162.5q0 79 -48 130.5t-117 51.5q-79 0 -143.5 -65.5t-64.5 -162.5q0 -79 48 -130.5
t117 -51.5z" />
    <glyph glyph-name="e" unicode="e" horiz-adv-x="590" 
d="M87 221q0 115 79 202t195 87q101 0 165.5 -65.5t64.5 -164.5q0 -8 -3 -35l-2 -15h-439v-5q0 -79 49 -129.5t128 -50.5q81 0 142 55q27 24 46 55h60q-25 -48 -60 -83q-82 -82 -192 -82q-102 0 -167.5 65t-65.5 166zM154 285h374q0 64 -45 117t-125 53q-76 0 -132.5 -51
t-71.5 -119z" />
    <glyph glyph-name="f" unicode="f" horiz-adv-x="305" 
d="M98 445l10 55h70l35 200h225l-9 -55h-165l-26 -145h135l-10 -55h-135l-78 -445h-60l78 445h-70z" />
    <glyph glyph-name="g" unicode="g" 
d="M77 -190l10 55h365l39 219q-25 -36 -74 -65t-112 -29q-93 0 -155.5 65.5t-62.5 164.5q0 123 81.5 206.5t184.5 83.5q79 0 128 -40t62 -87l21 117h60l-122 -690h-425zM312 45q79 0 143.5 65.5t64.5 162.5q0 79 -48 130.5t-117 51.5q-79 0 -143.5 -65.5t-64.5 -162.5
q0 -79 48 -130.5t117 -51.5z" />
    <glyph glyph-name="h" unicode="h" horiz-adv-x="580" 
d="M203 700h60l-47 -270q16 22 40 40q54 40 130 40q74 0 119 -36.5t56 -101.5q3 -20 3 -39q0 -23 -5 -55l-49 -278h-60l51 289q4 20 4 41q0 9 -2 25q-17 100 -128 100q-66 0 -119 -46t-65 -118l-51 -291h-60z" />
    <glyph glyph-name="i" unicode="i" horiz-adv-x="220" 
d="M80 0l88 500h60l-88 -500h-60zM221 605q-18 0 -29.5 12t-11.5 30q0 20 14.5 34t34.5 14q18 0 29.5 -12t11.5 -30q0 -20 -14.5 -34t-34.5 -14z" />
    <glyph glyph-name="j" unicode="j" horiz-adv-x="220" 
d="M229 500l-122 -690h-205l10 55h145l112 635h60zM222 605q-18 0 -29.5 12t-11.5 30q0 20 14.5 34t34.5 14q18 0 29.5 -12t11.5 -30q0 -20 -14.5 -34t-34.5 -14z" />
    <glyph glyph-name="k" unicode="k" horiz-adv-x="520" 
d="M181 235l-41 -235h-60l123 700h60l-72 -410h119l202 210h71l-227 -240l154 -260h-69l-139 235h-121z" />
    <glyph glyph-name="l" unicode="l" horiz-adv-x="270" 
d="M263 700l-113 -645h115l-10 -55h-175l123 700h60z" />
    <glyph glyph-name="m" unicode="m" horiz-adv-x="910" 
d="M533 405h6q22 32 46 52q61 53 145 53q64 0 107 -37t55 -100q3 -19 3 -39q0 -23 -5 -55l-50 -279h-60l51 284q4 21 4 45q0 16 -1 24q-8 48 -37 75t-77 27q-62 0 -113 -44t-63 -108l-54 -303h-60l51 286q4 20 4 41q0 10 -2 26q-17 102 -114 102q-61 0 -112 -43.5
t-63 -106.5l-54 -305h-60l88 500h60l-12 -70q18 22 43 40q56 40 123 40q77 0 122 -53q17 -20 29 -52z" />
    <glyph glyph-name="n" unicode="n" horiz-adv-x="580" 
d="M168 500h60l-12 -70q16 22 40 40q54 40 130 40q74 0 119 -36.5t56 -101.5q3 -20 3 -39q0 -23 -5 -55l-49 -278h-60l51 289q4 20 4 41q0 9 -2 25q-17 100 -128 100q-66 0 -119 -46t-65 -118l-51 -291h-60z" />
    <glyph glyph-name="o" unicode="o" horiz-adv-x="600" 
d="M323 -10q-105 0 -170.5 65.5t-65.5 165.5q0 124 82 206.5t195 82.5q105 0 170.5 -65.5t65.5 -165.5q0 -123 -82.5 -206t-194.5 -83zM147 225q0 -79 49.5 -129.5t129.5 -50.5q86 0 150 65.5t64 164.5q0 79 -49.5 129.5t-129.5 50.5q-86 0 -150 -65.5t-64 -164.5z" />
    <glyph glyph-name="p" unicode="p" 
d="M227 500l-15 -84q25 36 74 65t112 29q93 0 155.5 -65.5t62.5 -164.5q0 -123 -81.5 -206.5t-184.5 -83.5q-79 0 -128 40t-62 87l-54 -307h-60l121 690h60zM391 455q-79 0 -143.5 -65.5t-64.5 -162.5q0 -79 48 -130.5t117 -51.5q79 0 143.5 65.5t64.5 162.5q0 79 -48 130.5
t-117 51.5z" />
    <glyph glyph-name="q" unicode="q" 
d="M442 -190l49 274q-25 -36 -74 -65t-112 -29q-93 0 -155.5 65.5t-62.5 164.5q0 123 81.5 206.5t184.5 83.5q79 0 128 -40t62 -87l21 117h60l-122 -690h-60zM312 45q79 0 143.5 65.5t64.5 162.5q0 79 -48 130.5t-117 51.5q-79 0 -143.5 -65.5t-64.5 -162.5q0 -79 48 -130.5
t117 -51.5z" />
    <glyph glyph-name="r" unicode="r" horiz-adv-x="375" 
d="M439 450h-60q-71 0 -124 -48t-67 -127l-48 -275h-60l88 500h60l-17 -95q15 26 42 50q58 50 136 50h60z" />
    <glyph glyph-name="s" unicode="s" horiz-adv-x="510" 
d="M71 150h64q7 -29 28 -53q44 -52 139 -52q60 0 93 25t33 65q0 25 -24.5 45t-49.5 29.5t-75 24.5q-149 42 -149 133q0 59 48.5 101t131.5 42q113 0 174 -73q25 -31 34 -72h-65q-9 25 -27 45q-41 45 -120 45q-56 0 -86 -24t-30 -57q0 -19 11 -34t37 -27.5t44.5 -19
t56.5 -18.5q68 -21 108.5 -51t40.5 -82q0 -65 -51 -108.5t-139 -43.5q-126 0 -190 80q-26 33 -37 80z" />
    <glyph glyph-name="t" unicode="t" horiz-adv-x="355" 
d="M103 445l10 55h70l20 110h60l-20 -110h165l-10 -55h-165l-68 -390h170l-10 -55h-230l78 445h-70z" />
    <glyph glyph-name="u" unicode="u" horiz-adv-x="590" 
d="M507 0h-60l12 70q-16 -22 -40 -40q-54 -40 -130 -40q-74 0 -119 36.5t-56 101.5q-3 20 -3 39q0 23 5 55l49 278h60l-51 -289q-3 -20 -3 -37q0 -11 2 -29q6 -46 38.5 -73t88.5 -27q66 0 119 46t65 118l51 291h60z" />
    <glyph glyph-name="v" unicode="v" horiz-adv-x="525" 
d="M160 0l-52 500h63l42 -445h105l198 445h67l-228 -500h-195z" />
    <glyph glyph-name="w" unicode="w" horiz-adv-x="770" 
d="M813 500l-198 -500h-136l-12 445h-30l-168 -445h-134l-22 500h64l17 -445h36l168 445h130l12 -445h34l173 445h66z" />
    <glyph glyph-name="x" unicode="x" horiz-adv-x="490" 
d="M375 255l105 -255h-69l-89 230h-64l-171 -230h-72l195 255l-97 245h69l82 -215h65l158 215h71z" />
    <glyph glyph-name="y" unicode="y" horiz-adv-x="505" 
d="M150 0l-47 500h66l37 -445h94l208 445h65l-327 -690h-65l94 190h-125z" />
    <glyph glyph-name="z" unicode="z" horiz-adv-x="470" 
d="M513 445l-388 -390h330l-10 -55h-410l10 55l388 390h-310l10 55h390z" />
    <glyph glyph-name="braceleft" unicode="{" horiz-adv-x="340" 
d="M191 295l-1 -5q18 -5 27 -14q9 -6 17 -24q4 -8 4 -22q0 -6 -2 -20l-41 -235q-1 -5 -1 -12q0 -17 11 -31q14 -17 44 -17h60l-10 -60h-60q-61 0 -89 34q-22 25 -22 62q0 8 2 24l41 235q1 5 1 15q0 40 -46 40h-30l10 55h30q55 0 64 55l41 230q9 53 50.5 86.5t100.5 33.5h60
l-10 -60h-60q-30 0 -50.5 -16.5t-25.5 -43.5l-41 -230q-9 -45 -42 -66q-12 -9 -32 -14z" />
    <glyph glyph-name="bar" unicode="|" horiz-adv-x="305" 
d="M245 750v-850h-65v850h65z" />
    <glyph glyph-name="braceright" unicode="}" horiz-adv-x="340" 
d="M247 290l1 5q-19 5 -28 14q-10 7 -16 24q-4 8 -4 22q0 6 2 20l40 230q1 5 1 13q0 17 -10 30q-15 17 -45 17h-60l10 60h60q61 0 89 -34q22 -25 22 -62q0 -8 -2 -24l-40 -230q-1 -5 -1 -15q0 -40 46 -40h30l-10 -55h-30q-55 0 -64 -55l-42 -235q-9 -53 -50.5 -86.5
t-100.5 -33.5h-60l11 60h60q29 0 49.5 16.5t25.5 43.5l42 235q9 45 41 66q13 9 33 14z" />
    <glyph glyph-name="asciitilde" unicode="~" horiz-adv-x="500" 
d="M405 245q-47 0 -103 40q-3 2 -12 8.5t-12.5 8.5t-11 7t-12 7t-11 4.5t-12 3.5t-11.5 1q-55 0 -55 -60v-20h-60v20q0 56 30 88t80 32q46 0 104 -40q2 -1 9 -6.5t9.5 -7t8.5 -5.5l9 -6t8.5 -5t9.5 -4t8.5 -3t9 -2.5t9.5 -0.5q55 0 55 60v20h60v-20q0 -56 -30 -88t-80 -32z
" />
    <glyph glyph-name="nbspace" unicode="&#xa0;" horiz-adv-x="280" 
 />
    <glyph glyph-name="exclamdown" unicode="&#xa1;" horiz-adv-x="280" 
d="M229 510q21 0 34 -13t13 -32q0 -26 -15 -40.5t-39 -14.5q-21 0 -34 13t-13 32q0 26 15 40.5t39 14.5zM81 -190l62 350l34 135h40l-14 -135l-62 -350h-60z" />
    <glyph glyph-name="cent" unicode="&#xa2;" horiz-adv-x="570" 
d="M241 -100l17 97q-76 18 -123.5 78.5t-47.5 145.5q0 120 79 202.5t182 86.5l15 80h60l-16 -84q93 -19 141 -96q22 -36 29 -75h-60q-10 34 -32 60q-46 60 -131 60q-80 0 -143.5 -66t-63.5 -164q0 -79 48.5 -129.5t120.5 -50.5q85 0 146 65q28 30 45 65h60q-23 -53 -56 -92
q-76 -92 -194 -93l-16 -90h-60z" />
    <glyph glyph-name="sterling" unicode="&#xa3;" horiz-adv-x="550" 
d="M201 405l25 145q9 50 31 86.5t52.5 56t60.5 28.5t61 9q112 0 160 -80q22 -35 26 -80h-64q-4 28 -19 50q-34 50 -109 50q-51 0 -87.5 -30.5t-47.5 -94.5l-24 -140h170l-10 -60h-171l-34 -195q-9 -46 -30 -69q-13 -13 -20 -16v-5h375l-11 -60h-500l11 60h15q79 0 95 90
l34 195h-74l10 60h75z" />
    <glyph glyph-name="currency" unicode="&#xa4;" horiz-adv-x="675" 
d="M480 640h-183l-56 -320h218q84 0 135 51t51 127q0 61 -44.5 101.5t-120.5 40.5zM243 700h237q103 0 166.5 -56.5t63.5 -143.5q0 -102 -72 -171t-185 -69h-223l-15 -90h255l-11 -60h-255l-19 -110h-65l19 110h-85l11 60h85l15 90h-85l11 60h85z" />
    <glyph glyph-name="yen" unicode="&#xa5;" horiz-adv-x="635" 
d="M158 220l11 60h150l-196 420h77l162 -360h5l288 360h83l-344 -420h150l-11 -60h-155l-12 -70h155l-11 -60h-155l-15 -90h-65l15 90h-155l11 60h155l12 70h-155z" />
    <glyph glyph-name="brokenbar" unicode="&#xa6;" horiz-adv-x="305" 
d="M245 750v-365h-65v365h65zM245 265v-365h-65v365h65z" />
    <glyph glyph-name="section" unicode="&#xa7;" horiz-adv-x="565" 
d="M568 340q0 -51 -40 -84.5t-85 -40.5q30 -13 50.5 -41.5t20.5 -60.5q0 -55 -51.5 -94t-141.5 -39q-131 0 -195 72q-27 30 -38 73h63q9 -25 30 -45q47 -45 142 -45q65 0 98 22.5t33 55.5q0 19 -12.5 35t-39.5 30t-49.5 22.5t-60.5 21.5q-163 53 -163 138q0 49 36 82t90 43
q-30 13 -51 41t-21 60q0 55 52.5 94.5t140.5 39.5q126 0 188 -70q27 -32 36 -70h-64l-6 14q-12 25 -51 48t-109 23q-64 0 -95.5 -23t-31.5 -56q0 -35 42.5 -59.5t120.5 -49.5q74 -25 118 -56.5t44 -80.5zM391 245q47 4 82 31t35 59q0 29 -34.5 50t-98.5 45q-43 14 -69 25
q-47 -4 -82 -31t-35 -59q0 -29 35.5 -51.5t97.5 -42.5q65 -25 69 -26z" />
    <glyph glyph-name="dieresis" unicode="&#xa8;" horiz-adv-x="320" 
d="M181 605q-18 0 -29.5 12t-11.5 30q0 20 14.5 34t34.5 14q18 0 29.5 -12t11.5 -30q0 -20 -14.5 -34t-34.5 -14zM351 605q-18 0 -29.5 12t-11.5 30q0 20 14.5 34t34.5 14q18 0 29.5 -12t11.5 -30q0 -20 -14.5 -34t-34.5 -14z" />
    <glyph glyph-name="copyright" unicode="&#xa9;" horiz-adv-x="840" 
d="M174 350q0 -135 89 -225t221 -90t221 90t89 225t-89 225t-221 90t-221 -90t-89 -225zM374 350q0 -59 32.5 -94.5t82.5 -35.5q53 0 82 35q14 16 23 35h65q-13 -36 -36 -63q-54 -62 -134 -62q-76 0 -125.5 52t-49.5 133t49.5 133t125.5 52q79 0 134 -63q22 -27 36 -62h-65
q-7 16 -23 35q-33 35 -82 35q-50 0 -82.5 -35.5t-32.5 -94.5zM854 350q0 -158 -106 -264t-264 -106t-264 106t-106 264t106 264t264 106t264 -106t106 -264z" />
    <glyph glyph-name="ordfeminine" unicode="&#xaa;" horiz-adv-x="380" 
d="M227 370q-48 0 -78.5 26t-30.5 65q0 45 32.5 74.5t85.5 29.5h125l2 14q1 5 1 13q0 27 -16 43q-20 20 -54 20q-35 0 -62 -23q-11 -11 -18 -22h-67q14 27 37 50q50 50 118 50q46 0 77.5 -23.5t42.5 -60.5q3 -14 3 -28q0 -8 -2 -24l-36 -204h-60l9 49h-5q-15 -17 -28 -25
q-38 -24 -76 -24zM242 425q38 0 69.5 27.5t40.5 62.5h-112q-30 0 -46 -14t-16 -35q0 -18 17 -29.5t47 -11.5z" />
    <glyph glyph-name="guillemotleft" unicode="&#xab;" horiz-adv-x="530" 
d="M295 54l-46 -39l-164 235l246 235l34 -41l-205 -197zM495 54l-46 -39l-164 235l246 235l34 -41l-205 -197z" />
    <glyph glyph-name="logicalnot" unicode="&#xac;" horiz-adv-x="500" 
d="M440 175v110h-315v55h375v-165h-60z" />
    <glyph glyph-name="uni00AD" unicode="&#xad;" horiz-adv-x="480" 
d="M469 250h-360l11 60h360z" />
    <glyph glyph-name="registered" unicode="&#xae;" horiz-adv-x="600" 
d="M430 345l-50 75h-55v-75h-50v245h110q48 0 74 -23t26 -62t-28 -60q-12 -11 -27 -15l55 -85h-55zM385 540h-60v-70h60q50 0 50 35t-50 35zM370 260q93 0 151.5 57.5t58.5 147.5t-58.5 147.5t-151.5 57.5t-151.5 -57.5t-58.5 -147.5t58.5 -147.5t151.5 -57.5zM370 210
q-112 0 -186 73t-74 182t74 182t186 73t186 -73t74 -182t-74 -182t-186 -73z" />
    <glyph glyph-name="macron" unicode="&#xaf;" horiz-adv-x="315" 
d="M137 640l10 55h255l-10 -55h-255z" />
    <glyph glyph-name="degree" unicode="&#xb0;" horiz-adv-x="330" 
d="M180 575q0 -33 22 -54t53 -21t53 21t22 54t-22 54t-53 21t-53 -21t-22 -54zM385 575q0 -52 -39 -88.5t-91 -36.5t-91 36.5t-39 88.5t39 88.5t91 36.5t91 -36.5t39 -88.5z" />
    <glyph glyph-name="plusminus" unicode="&#xb1;" horiz-adv-x="500" 
d="M115 30v55h165v170h-165v55h165v175h60v-175h165v-55h-165v-170h165v-55h-390z" />
    <glyph glyph-name="twosuperior" unicode="&#xb2;" horiz-adv-x="350" 
d="M215 515h186l-10 -55h-280l10 55l94 50q92 48 123.5 74t31.5 61q0 25 -18 40t-55 15q-40 0 -66 -30q-11 -12 -19 -30h-61q10 29 31 57q46 58 117 58q61 0 96 -30.5t35 -74.5q0 -52 -50.5 -96t-164.5 -94z" />
    <glyph glyph-name="threesuperior" unicode="&#xb3;" horiz-adv-x="345" 
d="M407 745l-119 -75q52 -7 79.5 -34.5t27.5 -67.5q0 -49 -38.5 -83.5t-98.5 -34.5q-82 0 -119 52q-18 24 -22 53h65q3 -15 13 -25q21 -25 66 -25q35 0 54.5 17.5t19.5 45.5q0 52 -80 52h-61l9 50l119 75h-155l9 55h240z" />
    <glyph glyph-name="acute" unicode="&#xb4;" horiz-adv-x="225" 
d="M242 695h75l-141 -145h-50z" />
    <glyph glyph-name="mu" unicode="&#xb5;" horiz-adv-x="590" 
d="M292 -10q-53 0 -88.5 21t-47.5 44l-7 12l-47 -267h-60l123 700h60l-51 -289q-3 -20 -3 -37q0 -11 2 -29q6 -46 38.5 -73t88.5 -27q66 0 119 46t65 118l51 291h60l-88 -500h-60l12 70q-16 -22 -40 -40q-54 -40 -127 -40z" />
    <glyph glyph-name="paragraph" unicode="&#xb6;" horiz-adv-x="385" 
d="M110 525q0 76 53 125.5t139 49.5h138v-60h-85v-830h-65v540q-76 0 -128 52.5t-52 122.5z" />
    <glyph glyph-name="periodcentered" unicode="&#xb7;" horiz-adv-x="280" 
d="M188 215q-48 0 -48 44q0 25 15 40.5t38 15.5q48 0 48 -44q0 -25 -15 -40.5t-38 -15.5z" />
    <glyph glyph-name="cedilla" unicode="&#xb8;" horiz-adv-x="235" 
d="M157 10l-44 -67q28 -4 47.5 -26t19.5 -51q0 -44 -31.5 -72.5t-77.5 -28.5q-35 0 -59 13q-12 7 -19 14l8 44q9 -9 18 -13q22 -13 55 -13q24 0 40 14.5t16 38.5q0 42 -55 42h-32l69 105h45z" />
    <glyph glyph-name="onesuperior" unicode="&#xb9;" horiz-adv-x="340" 
d="M136 460l10 55h100l38 220l-99 -55l11 65l105 55h55l-50 -285h95l-10 -55h-255z" />
    <glyph glyph-name="ordmasculine" unicode="&#xba;" horiz-adv-x="410" 
d="M282 425q50 0 84.5 36t34.5 95q0 45 -27.5 72t-74.5 27q-50 0 -84.5 -36t-34.5 -95q0 -45 27.5 -72t74.5 -27zM304 710q68 0 112.5 -44.5t44.5 -110.5q0 -77 -55 -131t-129 -54q-68 0 -112.5 44.5t-44.5 110.5q0 77 55 131t129 54z" />
    <glyph glyph-name="guillemotright" unicode="&#xbb;" horiz-adv-x="530" 
d="M330 446l46 39l164 -235l-246 -235l-34 41l205 197zM130 446l46 39l164 -235l-246 -235l-34 41l205 197z" />
    <glyph glyph-name="onequarter" unicode="&#xbc;" horiz-adv-x="735" 
d="M759 700l-553 -700h-60l553 700h60zM119 360l10 55h100l38 220l-99 -55l11 65l105 55h55l-50 -285h95l-10 -55h-255zM654 0h-60l13 75h-175l10 55l172 210h65l-172 -210h110l12 70h60l-12 -70h50l-10 -55h-50z" />
    <glyph glyph-name="onehalf" unicode="&#xbd;" horiz-adv-x="790" 
d="M759 700l-553 -700h-60l553 700h60zM119 360l10 55h100l38 220l-99 -55l11 65l105 55h55l-50 -285h95l-10 -55h-255zM558 55h186l-10 -55h-280l10 55l94 50q92 48 123.5 74t31.5 61q0 25 -18 40t-55 15q-40 0 -66 -30q-11 -12 -19 -30h-61q10 29 31 57q46 58 117 58
q61 0 96 -30.5t35 -74.5q0 -52 -50.5 -96t-164.5 -94z" />
    <glyph glyph-name="threequarters" unicode="&#xbe;" horiz-adv-x="730" 
d="M754 700l-553 -700h-60l553 700h60zM649 0h-60l13 75h-175l10 55l172 210h65l-172 -210h110l12 70h60l-12 -70h50l-10 -55h-50zM390 645l-119 -75q52 -7 79.5 -34.5t27.5 -67.5q0 -49 -38.5 -83.5t-98.5 -34.5q-82 0 -119 52q-18 24 -22 53h65q3 -15 13 -25
q21 -25 66 -25q35 0 54.5 17.5t19.5 45.5q0 52 -80 52h-61l9 50l119 75h-155l9 55h240z" />
    <glyph glyph-name="questiondown" unicode="&#xbf;" horiz-adv-x="525" 
d="M114 -20q0 -58 39.5 -91.5t110.5 -33.5q100 0 160 70q28 34 40 70h69q-22 -57 -57 -100q-78 -100 -207 -100q-99 0 -159.5 51.5t-60.5 128.5q0 72 34 112t94 68q30 14 48.5 24t40.5 27.5t34.5 40.5t16.5 53h66q-11 -71 -49.5 -109t-97.5 -64q-59 -25 -90.5 -56t-31.5 -91
zM382 510q21 0 34 -13t13 -32q0 -26 -15 -40.5t-39 -14.5q-21 0 -34 13t-13 32q0 26 15 40.5t39 14.5z" />
    <glyph glyph-name="Agrave" unicode="&#xc0;" horiz-adv-x="675" 
d="M600 0l-19 230h-370l-101 -230h-65l308 700h250l62 -700h-65zM543 640h-150l-157 -350h340zM366 935h75l64 -145h-50z" />
    <glyph glyph-name="Aacute" unicode="&#xc1;" horiz-adv-x="675" 
d="M600 0l-19 230h-370l-101 -230h-65l308 700h250l62 -700h-65zM543 640h-150l-157 -350h340zM571 935h75l-141 -145h-50z" />
    <glyph glyph-name="Acircumflex" unicode="&#xc2;" horiz-adv-x="675" 
d="M600 0l-19 230h-370l-101 -230h-65l308 700h250l62 -700h-65zM543 640h-150l-157 -350h340zM625 790h-58l-57 100h-15l-93 -100h-62l136 145h65z" />
    <glyph glyph-name="Atilde" unicode="&#xc3;" horiz-adv-x="675" 
d="M600 0l-19 230h-370l-101 -230h-65l308 700h250l62 -700h-65zM543 640h-150l-157 -350h340zM539 795q-37 0 -68 33l-9 9t-10.5 9.5t-8.5 6t-11 6t-11 1.5q-15 0 -27.5 -10t-14.5 -25l-4 -25h-50l5 26q7 37 34 60.5t65 23.5q35 0 69 -32q31 -33 50 -33q15 0 27 10t14 25
l4 25h51l-5 -26q-7 -37 -34.5 -60.5t-65.5 -23.5z" />
    <glyph glyph-name="Adieresis" unicode="&#xc4;" horiz-adv-x="675" 
d="M600 0l-19 230h-370l-101 -230h-65l308 700h250l62 -700h-65zM543 640h-150l-157 -350h340zM406 805q-18 0 -29.5 12t-11.5 30q0 20 14.5 34t34.5 14q18 0 29.5 -12t11.5 -30q0 -20 -14.5 -34t-34.5 -14zM576 805q-18 0 -29.5 12t-11.5 30q0 20 14.5 34t34.5 14
q18 0 29.5 -12t11.5 -30q0 -20 -14.5 -34t-34.5 -14z" />
    <glyph glyph-name="Aring" unicode="&#xc5;" horiz-adv-x="675" 
d="M600 0l-19 230h-370l-101 -230h-65l308 700h250l62 -700h-65zM543 640h-150l-157 -350h340zM435 855q0 -21 14.5 -35.5t36.5 -14.5q23 0 41.5 18t18.5 42q0 21 -14.5 35.5t-36.5 14.5q-23 0 -41.5 -18t-18.5 -42zM390 850q0 44 33 77t76 33q39 0 65.5 -26.5t26.5 -63.5
q0 -45 -33 -77.5t-76 -32.5q-39 0 -65.5 26.5t-26.5 63.5z" />
    <glyph glyph-name="AE" unicode="&#xc6;" horiz-adv-x="985" 
d="M561 60h390l-11 -60h-455l41 230h-315l-101 -230h-65l308 700h710l-10 -60h-390l-45 -255h315l-11 -60h-315zM393 640l-157 -350h300l62 350h-205z" />
    <glyph glyph-name="Ccedilla" unicode="&#xc7;" horiz-adv-x="800" 
d="M743 245h67q-30 -72 -80 -132q-111 -133 -288 -133l-24 -37q28 -4 47.5 -26t19.5 -51q0 -44 -31.5 -72.5t-77.5 -28.5q-35 0 -59 13q-12 7 -19 14l8 44q9 -9 18 -13q22 -13 55 -13q24 0 40 14.5t16 38.5q0 42 -55 42h-32l51 77q-131 14 -211 104t-80 222q0 88 32.5 165.5
t86.5 131t126 84.5t149 31t140 -26t100 -66t58 -80.5t26 -77.5h-66q-17 54 -49 95q-73 95 -216 95q-132 0 -227 -98t-95 -252q0 -120 75.5 -195t197.5 -75q140 0 232 102q39 43 65 103z" />
    <glyph glyph-name="Egrave" unicode="&#xc8;" horiz-adv-x="610" 
d="M166 60h410l-11 -60h-475l123 700h475l-10 -60h-410l-45 -255h335l-11 -60h-335zM361 935h75l64 -145h-50z" />
    <glyph glyph-name="Eacute" unicode="&#xc9;" horiz-adv-x="610" 
d="M166 60h410l-11 -60h-475l123 700h475l-10 -60h-410l-45 -255h335l-11 -60h-335zM536 935h75l-141 -145h-50z" />
    <glyph glyph-name="Ecircumflex" unicode="&#xca;" horiz-adv-x="610" 
d="M166 60h410l-11 -60h-475l123 700h475l-10 -60h-410l-45 -255h335l-11 -60h-335zM600 790h-58l-57 100h-15l-93 -100h-62l136 145h65z" />
    <glyph glyph-name="Edieresis" unicode="&#xcb;" horiz-adv-x="610" 
d="M166 60h410l-11 -60h-475l123 700h475l-10 -60h-410l-45 -255h335l-11 -60h-335zM381 805q-18 0 -29.5 12t-11.5 30q0 20 14.5 34t34.5 14q18 0 29.5 -12t11.5 -30q0 -20 -14.5 -34t-34.5 -14zM551 805q-18 0 -29.5 12t-11.5 30q0 20 14.5 34t34.5 14q18 0 29.5 -12
t11.5 -30q0 -20 -14.5 -34t-34.5 -14z" />
    <glyph glyph-name="Igrave" unicode="&#xcc;" horiz-adv-x="245" 
d="M278 700l-123 -700h-65l123 700h65zM136 935h75l64 -145h-50z" />
    <glyph glyph-name="Iacute" unicode="&#xcd;" horiz-adv-x="245" 
d="M278 700l-123 -700h-65l123 700h65zM351 935h75l-141 -145h-50z" />
    <glyph glyph-name="Icircumflex" unicode="&#xce;" horiz-adv-x="245" 
d="M278 700l-123 -700h-65l123 700h65zM396 790h-58l-57 100h-15l-93 -100h-62l136 145h65z" />
    <glyph glyph-name="Idieresis" unicode="&#xcf;" horiz-adv-x="245" 
d="M278 700l-123 -700h-65l123 700h65zM176 805q-18 0 -29.5 12t-11.5 30q0 20 14.5 34t34.5 14q18 0 29.5 -12t11.5 -30q0 -20 -14.5 -34t-34.5 -14zM346 805q-18 0 -29.5 12t-11.5 30q0 20 14.5 34t34.5 14q18 0 29.5 -12t11.5 -30q0 -20 -14.5 -34t-34.5 -14z" />
    <glyph glyph-name="Eth" unicode="&#xd0;" horiz-adv-x="730" 
d="M222 700h197q143 0 234 -88t91 -227q0 -161 -112.5 -273t-273.5 -112h-259l56 315h-75l11 65h75zM419 640h-142l-46 -260h185l-11 -65h-185l-45 -255h189q135 0 225 93.5t90 231.5q0 110 -73 182.5t-187 72.5z" />
    <glyph glyph-name="Ntilde" unicode="&#xd1;" horiz-adv-x="725" 
d="M635 0h-95l-273 635l-112 -635h-65l123 700h95l273 -635l112 635h65zM564 795q-37 0 -68 33l-9 9t-10.5 9.5t-8.5 6t-11 6t-11 1.5q-15 0 -27.5 -10t-14.5 -25l-4 -25h-50l5 26q7 37 34 60.5t65 23.5q35 0 69 -32q31 -33 50 -33q15 0 27 10t14 25l4 25h51l-5 -26
q-7 -37 -34.5 -60.5t-65.5 -23.5z" />
    <glyph glyph-name="Ograve" unicode="&#xd2;" horiz-adv-x="820" 
d="M447 40q133 0 228 98t95 252q0 120 -76 195t-198 75q-133 0 -228 -98t-95 -252q0 -120 75.5 -195t198.5 -75zM443 -20q-149 0 -242 92.5t-93 235.5q0 176 116 294t276 118q149 0 242 -92.5t93 -235.5q0 -176 -116 -294t-276 -118zM405 935h75l64 -145h-50z" />
    <glyph glyph-name="Oacute" unicode="&#xd3;" horiz-adv-x="820" 
d="M447 40q133 0 228 98t95 252q0 120 -76 195t-198 75q-133 0 -228 -98t-95 -252q0 -120 75.5 -195t198.5 -75zM443 -20q-149 0 -242 92.5t-93 235.5q0 176 116 294t276 118q149 0 242 -92.5t93 -235.5q0 -176 -116 -294t-276 -118zM611 935h75l-141 -145h-50z" />
    <glyph glyph-name="Ocircumflex" unicode="&#xd4;" horiz-adv-x="820" 
d="M447 40q133 0 228 98t95 252q0 120 -76 195t-198 75q-133 0 -228 -98t-95 -252q0 -120 75.5 -195t198.5 -75zM443 -20q-149 0 -242 92.5t-93 235.5q0 176 116 294t276 118q149 0 242 -92.5t93 -235.5q0 -176 -116 -294t-276 -118zM670 790h-58l-57 100h-15l-93 -100h-62
l136 145h65z" />
    <glyph glyph-name="Otilde" unicode="&#xd5;" horiz-adv-x="820" 
d="M447 40q133 0 228 98t95 252q0 120 -76 195t-198 75q-133 0 -228 -98t-95 -252q0 -120 75.5 -195t198.5 -75zM443 -20q-149 0 -242 92.5t-93 235.5q0 176 116 294t276 118q149 0 242 -92.5t93 -235.5q0 -176 -116 -294t-276 -118zM594 795q-37 0 -68 33l-9 9t-10.5 9.5
t-8.5 6t-11 6t-11 1.5q-15 0 -27.5 -10t-14.5 -25l-4 -25h-50l5 26q7 37 34 60.5t65 23.5q35 0 69 -32q31 -33 50 -33q15 0 27 10t14 25l4 25h51l-5 -26q-7 -37 -34.5 -60.5t-65.5 -23.5z" />
    <glyph glyph-name="Odieresis" unicode="&#xd6;" horiz-adv-x="820" 
d="M447 40q133 0 228 98t95 252q0 120 -76 195t-198 75q-133 0 -228 -98t-95 -252q0 -120 75.5 -195t198.5 -75zM443 -20q-149 0 -242 92.5t-93 235.5q0 176 116 294t276 118q149 0 242 -92.5t93 -235.5q0 -176 -116 -294t-276 -118zM451 805q-18 0 -29.5 12t-11.5 30
q0 20 14.5 34t34.5 14q18 0 29.5 -12t11.5 -30q0 -20 -14.5 -34t-34.5 -14zM621 805q-18 0 -29.5 12t-11.5 30q0 20 14.5 34t34.5 14q18 0 29.5 -12t11.5 -30q0 -20 -14.5 -34t-34.5 -14z" />
    <glyph glyph-name="multiply" unicode="&#xd7;" horiz-adv-x="500" 
d="M180 465l130 -130l130 130l40 -40l-130 -130l130 -130l-40 -40l-130 130l-130 -130l-40 40l130 130l-130 130z" />
    <glyph glyph-name="Oslash" unicode="&#xd8;" horiz-adv-x="820" 
d="M37 70l109 78q-37 71 -37 160q0 176 116 294t276 118q174 0 269 -123l151 108l-13 -75l-109 -78q37 -71 37 -160q0 -176 -116 -294t-276 -118q-174 0 -269 123l-151 -108zM448 40q133 0 228 98t95 252q0 71 -25 124l-519 -373q76 -101 221 -101zM174 310q0 -70 25 -124
l519 373q-76 101 -221 101q-133 0 -228 -98t-95 -252z" />
    <glyph glyph-name="Ugrave" unicode="&#xd9;" horiz-adv-x="710" 
d="M129 270l76 430h65l-76 -430q-5 -30 -5 -51q0 -25 4 -42q12 -64 61 -100.5t128 -36.5q86 0 143 52.5t74 149.5l81 458h65l-82 -463q-22 -119 -99.5 -188t-187.5 -69q-97 0 -162 47.5t-83 127.5q-7 27 -7 60q0 23 5 55zM376 935h75l64 -145h-50z" />
    <glyph glyph-name="Uacute" unicode="&#xda;" horiz-adv-x="710" 
d="M129 270l76 430h65l-76 -430q-5 -30 -5 -51q0 -25 4 -42q12 -64 61 -100.5t128 -36.5q86 0 143 52.5t74 149.5l81 458h65l-82 -463q-22 -119 -99.5 -188t-187.5 -69q-97 0 -162 47.5t-83 127.5q-7 27 -7 60q0 23 5 55zM561 935h75l-141 -145h-50z" />
    <glyph glyph-name="Ucircumflex" unicode="&#xdb;" horiz-adv-x="710" 
d="M129 270l76 430h65l-76 -430q-5 -30 -5 -51q0 -25 4 -42q12 -64 61 -100.5t128 -36.5q86 0 143 52.5t74 149.5l81 458h65l-82 -463q-22 -119 -99.5 -188t-187.5 -69q-97 0 -162 47.5t-83 127.5q-7 27 -7 60q0 23 5 55zM620 790h-58l-57 100h-15l-93 -100h-62l136 145h65z
" />
    <glyph glyph-name="Udieresis" unicode="&#xdc;" horiz-adv-x="710" 
d="M129 270l76 430h65l-76 -430q-5 -30 -5 -51q0 -25 4 -42q12 -64 61 -100.5t128 -36.5q86 0 143 52.5t74 149.5l81 458h65l-82 -463q-22 -119 -99.5 -188t-187.5 -69q-97 0 -162 47.5t-83 127.5q-7 27 -7 60q0 23 5 55zM396 805q-18 0 -29.5 12t-11.5 30q0 20 14.5 34
t34.5 14q18 0 29.5 -12t11.5 -30q0 -20 -14.5 -34t-34.5 -14zM566 805q-18 0 -29.5 12t-11.5 30q0 20 14.5 34t34.5 14q18 0 29.5 -12t11.5 -30q0 -20 -14.5 -34t-34.5 -14z" />
    <glyph glyph-name="Yacute" unicode="&#xdd;" horiz-adv-x="635" 
d="M738 700l-353 -445l-45 -255h-65l45 255l-197 445h77l160 -370h5l290 370h83zM511 935h75l-141 -145h-50z" />
    <glyph glyph-name="Thorn" unicode="&#xde;" horiz-adv-x="725" 
d="M508 500h-247l-51 -290h298q82 0 128.5 44t46.5 115q0 57 -43.5 94t-131.5 37zM272 560h246q111 0 170.5 -55t59.5 -134q0 -95 -68.5 -158t-176.5 -63h-304l-26 -150h-65l123 700h65z" />
    <glyph glyph-name="germandbls" unicode="&#xdf;" horiz-adv-x="570" 
d="M355 345h-38l10 55h20q66 0 112.5 41.5t46.5 101.5q0 47 -35.5 79.5t-93.5 32.5q-54 0 -93.5 -33t-48.5 -86l-95 -536h-60l96 547q12 70 69.5 116.5t134.5 46.5q83 0 134.5 -47.5t51.5 -115.5q0 -71 -35.5 -111.5t-74.5 -52.5q-20 -6 -18 -6v-5q34 -9 62 -29
q62 -46 62 -125q0 -92 -63 -155t-159 -63h-85l10 55h80q65 0 111 44.5t46 112.5q0 54 -41 93.5t-106 39.5z" />
    <glyph glyph-name="agrave" unicode="&#xe0;" 
d="M476 0l15 84q-25 -36 -74 -65t-112 -29q-93 0 -155.5 65.5t-62.5 164.5q0 123 81.5 206.5t184.5 83.5q79 0 128 -40t62 -87l21 117h60l-88 -500h-60zM312 45q79 0 143.5 65.5t64.5 162.5q0 79 -48 130.5t-117 51.5q-79 0 -143.5 -65.5t-64.5 -162.5q0 -79 48 -130.5
t117 -51.5zM282 745h75l64 -145h-50z" />
    <glyph glyph-name="aacute" unicode="&#xe1;" 
d="M476 0l15 84q-25 -36 -74 -65t-112 -29q-93 0 -155.5 65.5t-62.5 164.5q0 123 81.5 206.5t184.5 83.5q79 0 128 -40t62 -87l21 117h60l-88 -500h-60zM312 45q79 0 143.5 65.5t64.5 162.5q0 79 -48 130.5t-117 51.5q-79 0 -143.5 -65.5t-64.5 -162.5q0 -79 48 -130.5
t117 -51.5zM471 745h75l-141 -145h-50z" />
    <glyph glyph-name="acircumflex" unicode="&#xe2;" 
d="M476 0l15 84q-25 -36 -74 -65t-112 -29q-93 0 -155.5 65.5t-62.5 164.5q0 123 81.5 206.5t184.5 83.5q79 0 128 -40t62 -87l21 117h60l-88 -500h-60zM312 45q79 0 143.5 65.5t64.5 162.5q0 79 -48 130.5t-117 51.5q-79 0 -143.5 -65.5t-64.5 -162.5q0 -79 48 -130.5
t117 -51.5zM545 600h-58l-57 100h-15l-93 -100h-62l136 145h65z" />
    <glyph glyph-name="atilde" unicode="&#xe3;" 
d="M476 0l15 84q-25 -36 -74 -65t-112 -29q-93 0 -155.5 65.5t-62.5 164.5q0 123 81.5 206.5t184.5 83.5q79 0 128 -40t62 -87l21 117h60l-88 -500h-60zM312 45q79 0 143.5 65.5t64.5 162.5q0 79 -48 130.5t-117 51.5q-79 0 -143.5 -65.5t-64.5 -162.5q0 -79 48 -130.5
t117 -51.5zM470 600q-37 0 -68 33l-9 9t-10.5 9.5t-8.5 6t-11 6t-11 1.5q-15 0 -27.5 -10t-14.5 -25l-4 -25h-50l5 26q7 37 34 60.5t65 23.5q35 0 69 -32q31 -33 50 -33q15 0 27 10t14 25l4 25h51l-5 -26q-7 -37 -34.5 -60.5t-65.5 -23.5z" />
    <glyph glyph-name="adieresis" unicode="&#xe4;" 
d="M476 0l15 84q-25 -36 -74 -65t-112 -29q-93 0 -155.5 65.5t-62.5 164.5q0 123 81.5 206.5t184.5 83.5q79 0 128 -40t62 -87l21 117h60l-88 -500h-60zM312 45q79 0 143.5 65.5t64.5 162.5q0 79 -48 130.5t-117 51.5q-79 0 -143.5 -65.5t-64.5 -162.5q0 -79 48 -130.5
t117 -51.5zM321 615q-18 0 -29.5 12t-11.5 30q0 20 14.5 34t34.5 14q18 0 29.5 -12t11.5 -30q0 -20 -14.5 -34t-34.5 -14zM491 615q-18 0 -29.5 12t-11.5 30q0 20 14.5 34t34.5 14q18 0 29.5 -12t11.5 -30q0 -20 -14.5 -34t-34.5 -14z" />
    <glyph glyph-name="aring" unicode="&#xe5;" 
d="M476 0l15 84q-25 -36 -74 -65t-112 -29q-93 0 -155.5 65.5t-62.5 164.5q0 123 81.5 206.5t184.5 83.5q79 0 128 -40t62 -87l21 117h60l-88 -500h-60zM312 45q79 0 143.5 65.5t64.5 162.5q0 79 -48 130.5t-117 51.5q-79 0 -143.5 -65.5t-64.5 -162.5q0 -79 48 -130.5
t117 -51.5zM359 680q0 -21 14.5 -35.5t36.5 -14.5q23 0 41.5 18t18.5 42q0 21 -14.5 35.5t-36.5 14.5q-23 0 -41.5 -18t-18.5 -42zM314 675q0 44 33 77t76 33q39 0 65.5 -26.5t26.5 -63.5q0 -45 -33 -77.5t-76 -32.5q-39 0 -65.5 26.5t-26.5 63.5z" />
    <glyph glyph-name="ae" unicode="&#xe6;" horiz-adv-x="965" 
d="M258 -10q-72 0 -118.5 37.5t-46.5 101.5q0 70 51 115.5t136 45.5h210l4 21q3 17 3 31q0 41 -24 73q-33 40 -107 40q-75 0 -124 -53q-22 -22 -36 -52h-61q17 46 48 80q70 80 175 80q141 0 179 -103q81 103 199 103q97 0 158.5 -65.5t61.5 -164.5q0 -8 -3 -32l-2 -13h-419
v-10q0 -78 47.5 -129t119.5 -51q78 0 135 55q28 26 43 55h60q-23 -48 -57 -83q-78 -82 -185 -82q-72 0 -128.5 38.5t-81.5 99.5q-32 -59 -91 -98.5t-146 -39.5zM153 132q0 -40 33.5 -63.5t93.5 -23.5q77 0 134 53.5t67 136.5h-205q-59 0 -91 -28.5t-32 -74.5zM549 290h354
q0 60 -42.5 112.5t-117.5 52.5q-69 0 -124 -50.5t-70 -114.5z" />
    <glyph glyph-name="ccedilla" unicode="&#xe7;" horiz-adv-x="570" 
d="M507 175h60q-20 -50 -52 -88q-72 -87 -181 -96l-31 -48q28 -4 47.5 -26t19.5 -51q0 -44 -31.5 -72.5t-77.5 -28.5q-35 0 -59 13q-12 7 -19 14l8 44q9 -9 18 -13q22 -13 55 -13q24 0 40 14.5t16 38.5q0 42 -55 42h-32l56 86q-87 8 -144.5 72.5t-57.5 157.5q0 123 82 206
t188 83q118 0 183 -88q26 -38 37 -87h-60q-10 34 -32 60q-46 60 -131 60q-80 0 -143.5 -66t-63.5 -164q0 -79 48.5 -129.5t120.5 -50.5q85 0 146 65q28 30 45 65z" />
    <glyph glyph-name="egrave" unicode="&#xe8;" horiz-adv-x="590" 
d="M87 221q0 115 79 202t195 87q101 0 165.5 -65.5t64.5 -164.5q0 -8 -3 -35l-2 -15h-439v-5q0 -79 49 -129.5t128 -50.5q81 0 142 55q27 24 46 55h60q-25 -48 -60 -83q-82 -82 -192 -82q-102 0 -167.5 65t-65.5 166zM154 285h374q0 64 -45 117t-125 53q-76 0 -132.5 -51
t-71.5 -119zM261 745h75l64 -145h-50z" />
    <glyph glyph-name="eacute" unicode="&#xe9;" horiz-adv-x="590" 
d="M87 221q0 115 79 202t195 87q101 0 165.5 -65.5t64.5 -164.5q0 -8 -3 -35l-2 -15h-439v-5q0 -79 49 -129.5t128 -50.5q81 0 142 55q27 24 46 55h60q-25 -48 -60 -83q-82 -82 -192 -82q-102 0 -167.5 65t-65.5 166zM154 285h374q0 64 -45 117t-125 53q-76 0 -132.5 -51
t-71.5 -119zM466 745h75l-141 -145h-50z" />
    <glyph glyph-name="ecircumflex" unicode="&#xea;" horiz-adv-x="590" 
d="M87 221q0 115 79 202t195 87q101 0 165.5 -65.5t64.5 -164.5q0 -8 -3 -35l-2 -15h-439v-5q0 -79 49 -129.5t128 -50.5q81 0 142 55q27 24 46 55h60q-25 -48 -60 -83q-82 -82 -192 -82q-102 0 -167.5 65t-65.5 166zM154 285h374q0 64 -45 117t-125 53q-76 0 -132.5 -51
t-71.5 -119zM520 600h-58l-57 100h-15l-93 -100h-62l136 145h65z" />
    <glyph glyph-name="edieresis" unicode="&#xeb;" horiz-adv-x="590" 
d="M87 221q0 115 79 202t195 87q101 0 165.5 -65.5t64.5 -164.5q0 -8 -3 -35l-2 -15h-439v-5q0 -79 49 -129.5t128 -50.5q81 0 142 55q27 24 46 55h60q-25 -48 -60 -83q-82 -82 -192 -82q-102 0 -167.5 65t-65.5 166zM154 285h374q0 64 -45 117t-125 53q-76 0 -132.5 -51
t-71.5 -119zM306 615q-18 0 -29.5 12t-11.5 30q0 20 14.5 34t34.5 14q18 0 29.5 -12t11.5 -30q0 -20 -14.5 -34t-34.5 -14zM476 615q-18 0 -29.5 12t-11.5 30q0 20 14.5 34t34.5 14q18 0 29.5 -12t11.5 -30q0 -20 -14.5 -34t-34.5 -14z" />
    <glyph glyph-name="igrave" unicode="&#xec;" horiz-adv-x="220" 
d="M80 0l88 500h60l-88 -500h-60zM91 745h75l64 -145h-50z" />
    <glyph glyph-name="iacute" unicode="&#xed;" horiz-adv-x="220" 
d="M80 0l88 500h60l-88 -500h-60zM297 745h75l-141 -145h-50z" />
    <glyph glyph-name="icircumflex" unicode="&#xee;" horiz-adv-x="220" 
d="M80 0l88 500h60l-88 -500h-60zM347 594h-58l-57 100h-15l-93 -100h-62l136 145h65z" />
    <glyph glyph-name="idieresis" unicode="&#xef;" horiz-adv-x="220" 
d="M80 0l88 500h60l-88 -500h-60zM121 615q-18 0 -29.5 12t-11.5 30q0 20 14.5 34t34.5 14q18 0 29.5 -12t11.5 -30q0 -20 -14.5 -34t-34.5 -14zM291 615q-18 0 -29.5 12t-11.5 30q0 20 14.5 34t34.5 14q18 0 29.5 -12t11.5 -30q0 -20 -14.5 -34t-34.5 -14z" />
    <glyph glyph-name="eth" unicode="&#xf0;" horiz-adv-x="575" 
d="M318 45q81 0 138 56.5t57 143.5q0 70 -46.5 115t-121.5 45q-81 0 -138 -56.5t-57 -143.5q0 -70 46.5 -115t121.5 -45zM572 675l-108 -66q58 -79 87 -144.5t29 -147.5q0 -148 -72 -237.5t-194 -89.5q-100 0 -162 60t-62 151q0 112 74.5 185.5t178.5 73.5q73 0 117.5 -28.5
t60.5 -60.5l8 -17q-3 55 -32.5 108.5t-80.5 117.5l-134 -80l9 55l101 60q-45 53 -80 85h71l28 -27l26 -28l145 85z" />
    <glyph glyph-name="ntilde" unicode="&#xf1;" horiz-adv-x="580" 
d="M168 500h60l-12 -70q16 22 40 40q54 40 130 40q74 0 119 -36.5t56 -101.5q3 -20 3 -39q0 -23 -5 -55l-49 -278h-60l51 289q4 20 4 41q0 9 -2 25q-17 100 -128 100q-66 0 -119 -46t-65 -118l-51 -291h-60zM455 600q-37 0 -68 33l-9 9t-10.5 9.5t-8.5 6t-11 6t-11 1.5
q-15 0 -27.5 -10t-14.5 -25l-4 -25h-50l5 26q7 37 34 60.5t65 23.5q35 0 69 -32q31 -33 50 -33q15 0 27 10t14 25l4 25h51l-5 -26q-7 -37 -34.5 -60.5t-65.5 -23.5z" />
    <glyph glyph-name="ograve" unicode="&#xf2;" horiz-adv-x="600" 
d="M323 -10q-105 0 -170.5 65.5t-65.5 165.5q0 124 82 206.5t195 82.5q105 0 170.5 -65.5t65.5 -165.5q0 -123 -82.5 -206t-194.5 -83zM147 225q0 -79 49.5 -129.5t129.5 -50.5q86 0 150 65.5t64 164.5q0 79 -49.5 129.5t-129.5 50.5q-86 0 -150 -65.5t-64 -164.5zM270 745
h75l64 -145h-50z" />
    <glyph glyph-name="oacute" unicode="&#xf3;" horiz-adv-x="600" 
d="M323 -10q-105 0 -170.5 65.5t-65.5 165.5q0 124 82 206.5t195 82.5q105 0 170.5 -65.5t65.5 -165.5q0 -123 -82.5 -206t-194.5 -83zM147 225q0 -79 49.5 -129.5t129.5 -50.5q86 0 150 65.5t64 164.5q0 79 -49.5 129.5t-129.5 50.5q-86 0 -150 -65.5t-64 -164.5zM472 745
h75l-141 -145h-50z" />
    <glyph glyph-name="ocircumflex" unicode="&#xf4;" horiz-adv-x="600" 
d="M323 -10q-105 0 -170.5 65.5t-65.5 165.5q0 124 82 206.5t195 82.5q105 0 170.5 -65.5t65.5 -165.5q0 -123 -82.5 -206t-194.5 -83zM147 225q0 -79 49.5 -129.5t129.5 -50.5q86 0 150 65.5t64 164.5q0 79 -49.5 129.5t-129.5 50.5q-86 0 -150 -65.5t-64 -164.5zM535 600
h-58l-57 100h-15l-93 -100h-62l136 145h65z" />
    <glyph glyph-name="otilde" unicode="&#xf5;" horiz-adv-x="600" 
d="M323 -10q-105 0 -170.5 65.5t-65.5 165.5q0 124 82 206.5t195 82.5q105 0 170.5 -65.5t65.5 -165.5q0 -123 -82.5 -206t-194.5 -83zM147 225q0 -79 49.5 -129.5t129.5 -50.5q86 0 150 65.5t64 164.5q0 79 -49.5 129.5t-129.5 50.5q-86 0 -150 -65.5t-64 -164.5zM455 600
q-37 0 -68 33l-9 9t-10.5 9.5t-8.5 6t-11 6t-11 1.5q-15 0 -27.5 -10t-14.5 -25l-4 -25h-50l5 26q7 37 34 60.5t65 23.5q35 0 69 -32q31 -33 50 -33q15 0 27 10t14 25l4 25h51l-5 -26q-7 -37 -34.5 -60.5t-65.5 -23.5z" />
    <glyph glyph-name="odieresis" unicode="&#xf6;" horiz-adv-x="600" 
d="M323 -10q-105 0 -170.5 65.5t-65.5 165.5q0 124 82 206.5t195 82.5q105 0 170.5 -65.5t65.5 -165.5q0 -123 -82.5 -206t-194.5 -83zM147 225q0 -79 49.5 -129.5t129.5 -50.5q86 0 150 65.5t64 164.5q0 79 -49.5 129.5t-129.5 50.5q-86 0 -150 -65.5t-64 -164.5zM311 615
q-18 0 -29.5 12t-11.5 30q0 20 14.5 34t34.5 14q18 0 29.5 -12t11.5 -30q0 -20 -14.5 -34t-34.5 -14zM481 615q-18 0 -29.5 12t-11.5 30q0 20 14.5 34t34.5 14q18 0 29.5 -12t11.5 -30q0 -20 -14.5 -34t-34.5 -14z" />
    <glyph glyph-name="divide" unicode="&#xf7;" horiz-adv-x="500" 
d="M500 240h-380v60h380v-60zM260 445q0 20 14 35t36 15t36 -15t14 -35t-14 -35t-36 -15t-36 15t-14 35zM360 95q0 -20 -14 -35t-36 -15t-36 15t-14 35t14 35t36 15t36 -15t14 -35z" />
    <glyph glyph-name="oslash" unicode="&#xf8;" horiz-adv-x="600" 
d="M161 150l336 248q-51 57 -136 57q-86 0 -150 -65.5t-64 -164.5q0 -46 14 -75zM540 275q0 46 -14 75l-336 -248q51 -57 136 -57q86 0 150 65.5t64 164.5zM600 279q0 -123 -82.5 -206t-194.5 -83q-115 0 -181 77l-98 -72l13 78l54 40q-24 48 -24 108q0 124 82 206.5
t195 82.5q115 0 181 -77l98 72l-13 -78l-54 -40q24 -48 24 -108z" />
    <glyph glyph-name="ugrave" unicode="&#xf9;" horiz-adv-x="590" 
d="M507 0h-60l12 70q-16 -22 -40 -40q-54 -40 -130 -40q-74 0 -119 36.5t-56 101.5q-3 20 -3 39q0 23 5 55l49 278h60l-51 -289q-3 -20 -3 -37q0 -11 2 -29q6 -46 38.5 -73t88.5 -27q66 0 119 46t65 118l51 291h60zM282 745h75l64 -145h-50z" />
    <glyph glyph-name="uacute" unicode="&#xfa;" horiz-adv-x="590" 
d="M507 0h-60l12 70q-16 -22 -40 -40q-54 -40 -130 -40q-74 0 -119 36.5t-56 101.5q-3 20 -3 39q0 23 5 55l49 278h60l-51 -289q-3 -20 -3 -37q0 -11 2 -29q6 -46 38.5 -73t88.5 -27q66 0 119 46t65 118l51 291h60zM476 745h75l-141 -145h-50z" />
    <glyph glyph-name="ucircumflex" unicode="&#xfb;" horiz-adv-x="590" 
d="M507 0h-60l12 70q-16 -22 -40 -40q-54 -40 -130 -40q-74 0 -119 36.5t-56 101.5q-3 20 -3 39q0 23 5 55l49 278h60l-51 -289q-3 -20 -3 -37q0 -11 2 -29q6 -46 38.5 -73t88.5 -27q66 0 119 46t65 118l51 291h60zM530 600h-58l-57 100h-15l-93 -100h-62l136 145h65z" />
    <glyph glyph-name="udieresis" unicode="&#xfc;" horiz-adv-x="590" 
d="M507 0h-60l12 70q-16 -22 -40 -40q-54 -40 -130 -40q-74 0 -119 36.5t-56 101.5q-3 20 -3 39q0 23 5 55l49 278h60l-51 -289q-3 -20 -3 -37q0 -11 2 -29q6 -46 38.5 -73t88.5 -27q66 0 119 46t65 118l51 291h60zM306 615q-18 0 -29.5 12t-11.5 30q0 20 14.5 34t34.5 14
q18 0 29.5 -12t11.5 -30q0 -20 -14.5 -34t-34.5 -14zM476 615q-18 0 -29.5 12t-11.5 30q0 20 14.5 34t34.5 14q18 0 29.5 -12t11.5 -30q0 -20 -14.5 -34t-34.5 -14z" />
    <glyph glyph-name="yacute" unicode="&#xfd;" horiz-adv-x="505" 
d="M150 0l-47 500h66l37 -445h94l208 445h65l-327 -690h-65l94 190h-125zM426 745h75l-141 -145h-50z" />
    <glyph glyph-name="thorn" unicode="&#xfe;" 
d="M263 700l-51 -284q25 36 74 65t112 29q93 0 155.5 -65.5t62.5 -164.5q0 -123 -81.5 -206.5t-184.5 -83.5q-79 0 -128 40t-62 87l-54 -307h-60l157 890h60zM391 455q-79 0 -143.5 -65.5t-64.5 -162.5q0 -79 48 -130.5t117 -51.5q79 0 143.5 65.5t64.5 162.5
q0 79 -48 130.5t-117 51.5z" />
    <glyph glyph-name="ydieresis" unicode="&#xff;" horiz-adv-x="505" 
d="M150 0l-47 500h66l37 -445h94l208 445h65l-327 -690h-65l94 190h-125zM266 610q-18 0 -29.5 12t-11.5 30q0 20 14.5 34t34.5 14q18 0 29.5 -12t11.5 -30q0 -20 -14.5 -34t-34.5 -14zM436 610q-18 0 -29.5 12t-11.5 30q0 20 14.5 34t34.5 14q18 0 29.5 -12t11.5 -30
q0 -20 -14.5 -34t-34.5 -14z" />
    <glyph glyph-name="Amacron" unicode="&#x100;" horiz-adv-x="675" 
d="M600 0l-19 230h-370l-101 -230h-65l308 700h250l62 -700h-65zM543 640h-150l-157 -350h340zM360 820l10 55h255l-10 -55h-255z" />
    <glyph glyph-name="amacron" unicode="&#x101;" 
d="M476 0l15 84q-25 -36 -74 -65t-112 -29q-93 0 -155.5 65.5t-62.5 164.5q0 123 81.5 206.5t184.5 83.5q79 0 128 -40t62 -87l21 117h60l-88 -500h-60zM312 45q79 0 143.5 65.5t64.5 162.5q0 79 -48 130.5t-117 51.5q-79 0 -143.5 -65.5t-64.5 -162.5q0 -79 48 -130.5
t117 -51.5zM277 625l10 55h255l-10 -55h-255z" />
    <glyph glyph-name="Abreve" unicode="&#x102;" horiz-adv-x="675" 
d="M600 0l-19 230h-370l-101 -230h-65l308 700h250l62 -700h-65zM543 640h-150l-157 -350h340zM488 790q-56 0 -92 32.5t-36 79.5v8h55v-5q0 -28 20.5 -46.5t57.5 -18.5q33 0 55.5 19t26.5 51h56q-6 -52 -47 -86t-96 -34z" />
    <glyph glyph-name="abreve" unicode="&#x103;" 
d="M476 0l15 84q-25 -36 -74 -65t-112 -29q-93 0 -155.5 65.5t-62.5 164.5q0 123 81.5 206.5t184.5 83.5q79 0 128 -40t62 -87l21 117h60l-88 -500h-60zM312 45q79 0 143.5 65.5t64.5 162.5q0 79 -48 130.5t-117 51.5q-79 0 -143.5 -65.5t-64.5 -162.5q0 -79 48 -130.5
t117 -51.5zM403 605q-56 0 -92 32.5t-36 79.5v8h55v-5q0 -28 20.5 -46.5t57.5 -18.5q33 0 55.5 19t26.5 51h56q-6 -52 -47 -86t-96 -34z" />
    <glyph glyph-name="Aogonek" unicode="&#x104;" horiz-adv-x="675" 
d="M565 -225q-43 0 -70 22t-27 62q0 48 37 81t95 60l-19 230h-370l-101 -230h-65l308 700h250l62 -700q-88 -44 -114 -68q-32 -31 -33 -65q0 -42 55 -42q27 0 42 4q9 1 18 5l-8 -45q-7 -4 -17 -7q-18 -7 -43 -7zM543 640h-150l-157 -350h340z" />
    <glyph glyph-name="aogonek" unicode="&#x105;" 
d="M436 -225q-43 0 -70 22t-27 62q0 26 12.5 49t36 41.5t42.5 29.5t46 24l15 81q-25 -36 -74 -65t-112 -29q-93 0 -155.5 65.5t-62.5 164.5q0 123 81.5 206.5t184.5 83.5q79 0 128 -40t62 -87l21 117h60l-88 -500q-88 -44 -114 -68q-33 -30 -33 -65q0 -42 55 -42q27 0 42 4
q9 1 18 5l-8 -45q-7 -4 -17 -7q-18 -7 -43 -7zM312 45q79 0 143.5 65.5t64.5 162.5q0 79 -48 130.5t-117 51.5q-79 0 -143.5 -65.5t-64.5 -162.5q0 -79 48 -130.5t117 -51.5z" />
    <glyph glyph-name="Cacute" unicode="&#x106;" horiz-adv-x="800" 
d="M743 245h67q-29 -73 -80 -133q-112 -132 -288 -132q-149 0 -241.5 92t-92.5 236q0 88 32.5 165.5t86.5 131t126 84.5t149 31t140 -26t100 -66t58 -80.5t26 -77.5h-66q-17 54 -49 95q-73 95 -216 95q-132 0 -227 -98t-95 -252q0 -120 75.5 -195t197.5 -75q140 0 232 102
q39 43 65 103zM601 935h75l-141 -145h-50z" />
    <glyph glyph-name="cacute" unicode="&#x107;" horiz-adv-x="570" 
d="M507 175h60q-21 -51 -56 -93q-82 -92 -197 -92q-96 0 -161.5 65.5t-65.5 165.5q0 123 82 206t188 83q118 0 183 -88q26 -38 37 -87h-60q-10 34 -32 60q-46 60 -131 60q-80 0 -143.5 -66t-63.5 -164q0 -79 48.5 -129.5t120.5 -50.5q85 0 146 65q28 30 45 65zM476 745h75
l-141 -145h-50z" />
    <glyph glyph-name="Ccircumflex" unicode="&#x108;" horiz-adv-x="800" 
d="M743 245h67q-29 -73 -80 -133q-112 -132 -288 -132q-149 0 -241.5 92t-92.5 236q0 88 32.5 165.5t86.5 131t126 84.5t149 31t140 -26t100 -66t58 -80.5t26 -77.5h-66q-17 54 -49 95q-73 95 -216 95q-132 0 -227 -98t-95 -252q0 -120 75.5 -195t197.5 -75q140 0 232 102
q39 43 65 103zM660 790h-58l-57 100h-15l-93 -100h-62l136 145h65z" />
    <glyph glyph-name="ccircumflex" unicode="&#x109;" horiz-adv-x="570" 
d="M507 175h60q-21 -51 -56 -93q-82 -92 -197 -92q-96 0 -161.5 65.5t-65.5 165.5q0 123 82 206t188 83q118 0 183 -88q26 -38 37 -87h-60q-10 34 -32 60q-46 60 -131 60q-80 0 -143.5 -66t-63.5 -164q0 -79 48.5 -129.5t120.5 -50.5q85 0 146 65q28 30 45 65zM530 600h-58
l-57 100h-15l-93 -100h-62l136 145h65z" />
    <glyph glyph-name="Ccaron" unicode="&#x10c;" horiz-adv-x="800" 
d="M743 245h67q-29 -73 -80 -133q-112 -132 -288 -132q-149 0 -241.5 92t-92.5 236q0 88 32.5 165.5t86.5 131t126 84.5t149 31t140 -26t100 -66t58 -80.5t26 -77.5h-66q-17 54 -49 95q-73 95 -216 95q-132 0 -227 -98t-95 -252q0 -120 75.5 -195t197.5 -75q140 0 232 102
q39 43 65 103zM628 935h62l-136 -145h-65l-84 145h58l57 -100h15z" />
    <glyph glyph-name="ccaron" unicode="&#x10d;" horiz-adv-x="570" 
d="M507 175h60q-21 -51 -56 -93q-82 -92 -197 -92q-96 0 -161.5 65.5t-65.5 165.5q0 123 82 206t188 83q118 0 183 -88q26 -38 37 -87h-60q-10 34 -32 60q-46 60 -131 60q-80 0 -143.5 -66t-63.5 -164q0 -79 48.5 -129.5t120.5 -50.5q85 0 146 65q28 30 45 65zM488 745h62
l-136 -145h-65l-84 145h58l57 -100h15z" />
    <glyph glyph-name="Dcaron" unicode="&#x10e;" horiz-adv-x="720" 
d="M410 640h-142l-102 -580h189q135 0 225 93.5t90 231.5q0 110 -73 182.5t-187 72.5zM213 700h197q143 0 234 -88t91 -227q0 -161 -112.5 -273t-273.5 -112h-259zM568 935h62l-136 -145h-65l-84 145h58l57 -100h15z" />
    <glyph glyph-name="dcaron" unicode="&#x10f;" horiz-adv-x="660" 
d="M476 0l15 84q-25 -36 -74 -65t-112 -29q-93 0 -155.5 65.5t-62.5 164.5q0 123 81.5 206.5t184.5 83.5q79 0 128 -40t62 -87l55 317h60l-122 -700h-60zM312 45q79 0 143.5 65.5t64.5 162.5q0 79 -48 130.5t-117 51.5q-79 0 -143.5 -65.5t-64.5 -162.5q0 -79 48 -130.5
t117 -51.5zM741 630q-15 0 -25.5 10t-10.5 25q0 18 14 31.5t35 13.5t34 -15.5t13 -42.5q0 -52 -33.5 -85t-79.5 -37l5 30q28 3 46 19.5t18 41.5v5q-1 1 -1 4q-1 1 -1 3l-4 -2q-2 -1 -10 -1z" />
    <glyph glyph-name="Dcroat" unicode="&#x110;" horiz-adv-x="730" 
d="M222 700h197q143 0 234 -88t91 -227q0 -161 -112.5 -273t-273.5 -112h-259l56 315h-75l11 65h75zM419 640h-142l-46 -260h185l-11 -65h-185l-45 -255h189q135 0 225 93.5t90 231.5q0 110 -73 182.5t-187 72.5z" />
    <glyph glyph-name="dcroat" unicode="&#x111;" horiz-adv-x="610" 
d="M464 0l13 75q-17 -24 -44 -43q-62 -42 -134 -42q-94 0 -153 59.5t-59 154.5q0 120 75 198t177 78q73 0 119 -32t62 -67l8 -18l36 202h-135l9 55h135l15 80h60l-15 -80h70l-9 -55h-70l-100 -565h-60zM311 45q79 0 137 60.5t58 156.5q0 74 -45.5 118.5t-118.5 44.5
q-79 0 -137 -60.5t-58 -156.5q0 -74 45.5 -118.5t118.5 -44.5z" />
    <glyph glyph-name="Emacron" unicode="&#x112;" horiz-adv-x="610" 
d="M166 60h410l-11 -60h-475l123 700h475l-10 -60h-410l-45 -255h335l-11 -60h-335zM335 830l10 55h255l-10 -55h-255z" />
    <glyph glyph-name="emacron" unicode="&#x113;" horiz-adv-x="590" 
d="M87 221q0 115 79 202t195 87q101 0 165.5 -65.5t64.5 -164.5q0 -8 -3 -35l-2 -15h-439v-5q0 -79 49 -129.5t128 -50.5q81 0 142 55q27 24 46 55h60q-25 -48 -60 -83q-82 -82 -192 -82q-102 0 -167.5 65t-65.5 166zM154 285h374q0 64 -45 117t-125 53q-76 0 -132.5 -51
t-71.5 -119zM255 625l10 55h255l-10 -55h-255z" />
    <glyph glyph-name="Edotaccent" unicode="&#x116;" horiz-adv-x="610" 
d="M166 60h410l-11 -60h-475l123 700h475l-10 -60h-410l-45 -255h335l-11 -60h-335zM461 805q-18 0 -29.5 12t-11.5 30q0 20 14.5 34t34.5 14q18 0 29.5 -12t11.5 -30q0 -20 -14.5 -34t-34.5 -14z" />
    <glyph glyph-name="edotaccent" unicode="&#x117;" horiz-adv-x="590" 
d="M87 221q0 115 79 202t195 87q101 0 165.5 -65.5t64.5 -164.5q0 -8 -3 -35l-2 -15h-439v-5q0 -79 49 -129.5t128 -50.5q81 0 142 55q27 24 46 55h60q-25 -48 -60 -83q-82 -82 -192 -82q-102 0 -167.5 65t-65.5 166zM154 285h374q0 64 -45 117t-125 53q-76 0 -132.5 -51
t-71.5 -119zM381 610q-18 0 -29.5 12t-11.5 30q0 20 14.5 34t34.5 14q18 0 29.5 -12t11.5 -30q0 -20 -14.5 -34t-34.5 -14z" />
    <glyph glyph-name="Eogonek" unicode="&#x118;" horiz-adv-x="610" 
d="M465 -225q-43 0 -70 22t-27 62q0 83 132 141h-410l123 700h475l-10 -60h-410l-45 -255h335l-11 -60h-335l-46 -265h410l-11 -60q-88 -44 -114 -68q-33 -30 -33 -65q0 -42 55 -42q27 0 42 4q9 1 18 5l-8 -45q-7 -4 -17 -7q-18 -7 -43 -7z" />
    <glyph glyph-name="eogonek" unicode="&#x119;" horiz-adv-x="590" 
d="M297 -225q-43 0 -70 22t-27 62q0 77 110 131q-99 4 -161 68t-62 163q0 115 79 202t195 87q101 0 165.5 -65.5t64.5 -164.5q0 -8 -3 -35l-2 -15h-439v-5q0 -79 49 -129.5t128 -50.5q81 0 142 55q27 24 46 55h60q-20 -44 -58 -80t-66 -51.5t-51 -23.5q-88 -44 -114 -68
q-33 -30 -33 -65q0 -42 55 -42q27 0 42 4q9 1 18 5l-8 -45q-7 -4 -17 -7q-18 -7 -43 -7zM154 285h374q0 64 -45 117t-125 53q-76 0 -132.5 -51t-71.5 -119z" />
    <glyph glyph-name="Ecaron" unicode="&#x11a;" horiz-adv-x="610" 
d="M166 60h410l-11 -60h-475l123 700h475l-10 -60h-410l-45 -255h335l-11 -60h-335zM569 935h62l-136 -145h-65l-84 145h58l57 -100h15z" />
    <glyph glyph-name="ecaron" unicode="&#x11b;" horiz-adv-x="590" 
d="M87 221q0 115 79 202t195 87q101 0 165.5 -65.5t64.5 -164.5q0 -8 -3 -35l-2 -15h-439v-5q0 -79 49 -129.5t128 -50.5q81 0 142 55q27 24 46 55h60q-25 -48 -60 -83q-82 -82 -192 -82q-102 0 -167.5 65t-65.5 166zM154 285h374q0 64 -45 117t-125 53q-76 0 -132.5 -51
t-71.5 -119zM478 745h62l-136 -145h-65l-84 145h58l57 -100h15z" />
    <glyph glyph-name="Gbreve" unicode="&#x11e;" horiz-adv-x="860" 
d="M757 300h-138l10 60h295l-10 -60h-90q-7 -42 -26.5 -85t-53 -85.5t-76.5 -75.5t-102 -53.5t-124 -20.5q-149 0 -241.5 92t-92.5 236q0 88 32.5 165.5t86.5 131t126 84.5t149 31q62 0 114.5 -16.5t87 -42t60.5 -59.5t39.5 -65t20.5 -62h-66q-16 52 -49 92q-77 93 -214 93
q-132 0 -227 -98t-95 -252q0 -120 75.5 -195t197.5 -75q70 0 130 27.5t97 69t59 84.5t25 79zM518 790q-56 0 -92 32.5t-36 79.5v8h55v-5q0 -28 20.5 -46.5t57.5 -18.5q33 0 55.5 19t26.5 51h56q-6 -52 -47 -86t-96 -34z" />
    <glyph glyph-name="gbreve" unicode="&#x11f;" 
d="M77 -190l10 55h365l39 219q-25 -36 -74 -65t-112 -29q-93 0 -155.5 65.5t-62.5 164.5q0 123 81.5 206.5t184.5 83.5q79 0 128 -40t62 -87l21 117h60l-122 -690h-425zM312 45q79 0 143.5 65.5t64.5 162.5q0 79 -48 130.5t-117 51.5q-79 0 -143.5 -65.5t-64.5 -162.5
q0 -79 48 -130.5t117 -51.5zM403 605q-56 0 -92 32.5t-36 79.5v8h55v-5q0 -28 20.5 -46.5t57.5 -18.5q33 0 55.5 19t26.5 51h56q-6 -52 -47 -86t-96 -34z" />
    <glyph glyph-name="Gcommaaccent" unicode="&#x122;" horiz-adv-x="860" 
d="M757 300h-138l10 60h295l-10 -60h-90q-7 -42 -26.5 -85t-53 -85.5t-76.5 -75.5t-102 -53.5t-124 -20.5q-149 0 -241.5 92t-92.5 236q0 88 32.5 165.5t86.5 131t126 84.5t149 31q62 0 114.5 -16.5t87 -42t60.5 -59.5t39.5 -65t20.5 -62h-66q-16 52 -49 92q-77 93 -214 93
q-132 0 -227 -98t-95 -252q0 -120 75.5 -195t197.5 -75q70 0 130 27.5t97 69t59 84.5t25 79zM405 -180q-15 0 -25.5 10t-10.5 25q0 18 14 31.5t35 13.5t34 -15.5t13 -42.5q0 -52 -33.5 -85t-79.5 -37l5 30q28 3 46 19.5t18 41.5v5q-1 1 -1 4q-1 1 -1 3l-4 -2q-2 -1 -10 -1z
" />
    <glyph glyph-name="gcommaaccent" unicode="&#x123;" 
d="M404 670q15 0 25.5 -10t10.5 -25q0 -18 -14 -31.5t-35 -13.5t-34 15.5t-13 42.5q0 52 33 85t80 37l-5 -30q-28 -3 -46 -19.5t-18 -41.5q0 -8 1 -9q0 -2 1 -3q2 0 4 1q6 2 10 2zM77 -190l10 55h365l39 219q-25 -36 -74 -65t-112 -29q-93 0 -155.5 65.5t-62.5 164.5
q0 123 81.5 206.5t184.5 83.5q79 0 128 -40t62 -87l21 117h60l-122 -690h-425zM312 45q79 0 143.5 65.5t64.5 162.5q0 79 -48 130.5t-117 51.5q-79 0 -143.5 -65.5t-64.5 -162.5q0 -79 48 -130.5t117 -51.5z" />
    <glyph glyph-name="Imacron" unicode="&#x12a;" horiz-adv-x="245" 
d="M278 700l-123 -700h-65l123 700h65zM125 820l10 55h255l-10 -55h-255z" />
    <glyph glyph-name="imacron" unicode="&#x12b;" horiz-adv-x="220" 
d="M80 0l88 500h60l-88 -500h-60zM82 625l10 55h255l-10 -55h-255z" />
    <glyph glyph-name="Iogonek" unicode="&#x12e;" horiz-adv-x="245" 
d="M55 -225q-43 0 -70 22t-27 62q0 26 12 48t33.5 40t40.5 29t45 24l124 700h65l-124 -700l-52 -28q-94 -48 -94 -105q0 -42 55 -42q27 0 42 4q9 1 18 5l-8 -45q-7 -4 -17 -7q-18 -7 -43 -7z" />
    <glyph glyph-name="iogonek" unicode="&#x12f;" horiz-adv-x="220" 
d="M40 -225q-43 0 -70 22t-27 62q0 26 12.5 49t36.5 41.5t43 29.5t46 24l87 497h60l-88 -500q-88 -44 -114 -68q-33 -30 -33 -65q0 -42 55 -42q27 0 42 4q9 1 18 5l-8 -45q-7 -4 -17 -7q-18 -7 -43 -7zM221 605q-18 0 -29.5 12t-11.5 30q0 20 14.5 34t34.5 14q18 0 29.5 -12
t11.5 -30q0 -20 -14.5 -34t-34.5 -14z" />
    <glyph glyph-name="Idotaccent" unicode="&#x130;" horiz-adv-x="245" 
d="M278 700l-123 -700h-65l123 700h65zM261 806q-18 0 -29.5 12t-11.5 30q0 20 14.5 34t34.5 14q18 0 29.5 -12t11.5 -30q0 -20 -14.5 -34t-34.5 -14z" />
    <glyph glyph-name="dotlessi" unicode="&#x131;" horiz-adv-x="220" 
d="M80 0l88 500h60l-88 -500h-60z" />
    <glyph glyph-name="Kcommaaccent" unicode="&#x136;" horiz-adv-x="630" 
d="M545 0l-173 325h-160l-57 -325h-65l123 700h65l-55 -315h155l280 315h80l-305 -340l192 -360h-80zM320 -180q-15 0 -25.5 10t-10.5 25q0 18 14 31.5t35 13.5t34 -15.5t13 -42.5q0 -52 -33.5 -85t-79.5 -37l5 30q28 3 46 19.5t18 41.5v5q-1 1 -1 4q-1 1 -1 3l-4 -2
q-2 -1 -10 -1z" />
    <glyph glyph-name="kcommaaccent" unicode="&#x137;" horiz-adv-x="520" 
d="M181 235l-41 -235h-60l123 700h60l-72 -410h119l202 210h71l-227 -240l154 -260h-69l-139 235h-121zM266 -180q-15 0 -25.5 10t-10.5 25q0 18 14 31.5t35 13.5t34 -15.5t13 -42.5q0 -52 -33.5 -85t-79.5 -37l5 30q28 3 46 19.5t18 41.5v5q-1 1 -1 4q-1 1 -1 3l-4 -2
q-2 -1 -10 -1z" />
    <glyph glyph-name="Lacute" unicode="&#x139;" horiz-adv-x="526" 
d="M278 700l-112 -640h380l-11 -60h-445l123 700h65zM356 935h75l-141 -145h-50z" />
    <glyph glyph-name="lacute" unicode="&#x13a;" horiz-adv-x="270" 
d="M263 700l-113 -645h115l-10 -55h-175l123 700h60zM341 935h75l-141 -145h-50z" />
    <glyph glyph-name="Lcommaaccent" unicode="&#x13b;" horiz-adv-x="526" 
d="M278 700l-112 -640h380l-11 -60h-445l123 700h65zM295 -180q-15 0 -25.5 10t-10.5 25q0 18 14 31.5t35 13.5t34 -15.5t13 -42.5q0 -52 -33.5 -85t-79.5 -37l5 30q28 3 46 19.5t18 41.5v5q-1 1 -1 4q-1 1 -1 3l-4 -2q-2 -1 -10 -1z" />
    <glyph glyph-name="lcommaaccent" unicode="&#x13c;" horiz-adv-x="270" 
d="M263 700l-113 -645h115l-10 -55h-175l123 700h60zM140 -180q-15 0 -25.5 10t-10.5 25q0 18 14 31.5t35 13.5t34 -15.5t13 -42.5q0 -52 -33.5 -85t-79.5 -37l5 30q28 3 46 19.5t18 41.5v5q-1 1 -1 4q-1 1 -1 3l-4 -2q-2 -1 -10 -1z" />
    <glyph glyph-name="Lcaron" unicode="&#x13d;" horiz-adv-x="526" 
d="M278 700l-112 -640h380l-11 -60h-445l123 700h65zM399 630q-15 0 -25.5 10t-10.5 25q0 18 14 31.5t35 13.5t34 -15.5t13 -42.5q0 -52 -33.5 -85t-79.5 -37l5 30q28 3 46 19.5t18 41.5v5q-1 1 -1 4q-1 1 -1 3l-4 -2q-2 -1 -10 -1z" />
    <glyph glyph-name="lcaron" unicode="&#x13e;" horiz-adv-x="270" 
d="M263 700l-113 -645h115l-10 -55h-175l123 700h60zM346 630q-15 0 -25.5 10t-10.5 25q0 18 14 31.5t35 13.5t34 -15.5t13 -42.5q0 -52 -33.5 -85t-79.5 -37l5 30q28 3 46 19.5t18 41.5v5q-1 1 -1 4q-1 1 -1 3l-4 -2q-2 -1 -10 -1z" />
    <glyph glyph-name="Lslash" unicode="&#x141;" horiz-adv-x="526" 
d="M278 700l-58 -330l162 70l-11 -65l-162 -70l-44 -245h380l-10 -60h-445l48 275l-70 -30l11 65l71 30l63 360h65z" />
    <glyph glyph-name="lslash" unicode="&#x142;" horiz-adv-x="280" 
d="M273 700l-58 -330l103 45l-11 -60l-103 -45l-45 -255h115l-9 -55h-175l50 285l-92 -40l11 60l92 40l62 355h60z" />
    <glyph glyph-name="Nacute" unicode="&#x143;" horiz-adv-x="725" 
d="M635 0h-95l-273 635l-112 -635h-65l123 700h95l273 -635l112 635h65zM571 935h75l-141 -145h-50z" />
    <glyph glyph-name="nacute" unicode="&#x144;" horiz-adv-x="580" 
d="M168 500h60l-12 -70q16 22 40 40q54 40 130 40q74 0 119 -36.5t56 -101.5q3 -20 3 -39q0 -23 -5 -55l-49 -278h-60l51 289q4 20 4 41q0 9 -2 25q-17 100 -128 100q-66 0 -119 -46t-65 -118l-51 -291h-60zM481 745h75l-141 -145h-50z" />
    <glyph glyph-name="Ncommaaccent" unicode="&#x145;" horiz-adv-x="725" 
d="M635 0h-95l-273 635l-112 -635h-65l123 700h95l273 -635l112 635h65zM346 -180q-15 0 -25.5 10t-10.5 25q0 18 14 31.5t35 13.5t34 -15.5t13 -42.5q0 -52 -33.5 -85t-79.5 -37l5 30q28 3 46 19.5t18 41.5v5q-1 1 -1 4q-1 1 -1 3l-4 -2q-2 -1 -10 -1z" />
    <glyph glyph-name="ncommaaccent" unicode="&#x146;" horiz-adv-x="580" 
d="M168 500h60l-12 -70q16 22 40 40q54 40 130 40q74 0 119 -36.5t56 -101.5q3 -20 3 -39q0 -23 -5 -55l-49 -278h-60l51 289q4 20 4 41q0 9 -2 25q-17 100 -128 100q-66 0 -119 -46t-65 -118l-51 -291h-60zM280 -180q-15 0 -25.5 10t-10.5 25q0 18 14 31.5t35 13.5
t34 -15.5t13 -42.5q0 -52 -33.5 -85t-79.5 -37l5 30q28 3 46 19.5t18 41.5v5q-1 1 -1 4q-1 1 -1 3l-4 -2q-2 -1 -10 -1z" />
    <glyph glyph-name="Ncaron" unicode="&#x147;" horiz-adv-x="725" 
d="M635 0h-95l-273 635l-112 -635h-65l123 700h95l273 -635l112 635h65zM613 935h62l-136 -145h-65l-84 145h58l57 -100h15z" />
    <glyph glyph-name="ncaron" unicode="&#x148;" horiz-adv-x="580" 
d="M168 500h60l-12 -70q16 22 40 40q54 40 130 40q74 0 119 -36.5t56 -101.5q3 -20 3 -39q0 -23 -5 -55l-49 -278h-60l51 289q4 20 4 41q0 9 -2 25q-17 100 -128 100q-66 0 -119 -46t-65 -118l-51 -291h-60zM493 745h62l-136 -145h-65l-84 145h58l57 -100h15z" />
    <glyph glyph-name="Omacron" unicode="&#x14c;" horiz-adv-x="820" 
d="M447 40q133 0 228 98t95 252q0 120 -76 195t-198 75q-133 0 -228 -98t-95 -252q0 -120 75.5 -195t198.5 -75zM443 -20q-149 0 -242 92.5t-93 235.5q0 176 116 294t276 118q149 0 242 -92.5t93 -235.5q0 -176 -116 -294t-276 -118zM410 820l10 55h255l-10 -55h-255z" />
    <glyph glyph-name="omacron" unicode="&#x14d;" horiz-adv-x="600" 
d="M323 -10q-105 0 -170.5 65.5t-65.5 165.5q0 124 82 206.5t195 82.5q105 0 170.5 -65.5t65.5 -165.5q0 -123 -82.5 -206t-194.5 -83zM147 225q0 -79 49.5 -129.5t129.5 -50.5q86 0 150 65.5t64 164.5q0 79 -49.5 129.5t-129.5 50.5q-86 0 -150 -65.5t-64 -164.5zM265 625
l10 55h255l-10 -55h-255z" />
    <glyph glyph-name="Ohungarumlaut" unicode="&#x150;" horiz-adv-x="820" 
d="M447 40q133 0 228 98t95 252q0 120 -76 195t-198 75q-133 0 -228 -98t-95 -252q0 -120 75.5 -195t198.5 -75zM443 -20q-149 0 -242 92.5t-93 235.5q0 176 116 294t276 118q149 0 242 -92.5t93 -235.5q0 -176 -116 -294t-276 -118zM531 935h70l-126 -145h-45zM676 935h70
l-126 -145h-45z" />
    <glyph glyph-name="ohungarumlaut" unicode="&#x151;" horiz-adv-x="600" 
d="M323 -10q-105 0 -170.5 65.5t-65.5 165.5q0 124 82 206.5t195 82.5q105 0 170.5 -65.5t65.5 -165.5q0 -123 -82.5 -206t-194.5 -83zM147 225q0 -79 49.5 -129.5t129.5 -50.5q86 0 150 65.5t64 164.5q0 79 -49.5 129.5t-129.5 50.5q-86 0 -150 -65.5t-64 -164.5zM391 745
h70l-126 -145h-45zM536 745h70l-126 -145h-45z" />
    <glyph glyph-name="OE" unicode="&#x152;" horiz-adv-x="1180" 
d="M675 0l20 107q-29 -33 -73 -64q-93 -63 -200 -63q-136 0 -225 91t-89 232q0 181 115.5 299t267.5 118q61 0 112.5 -19t84 -48.5t50.5 -52t28 -42.5l6 -13l27 155h460l-11 -60h-395l-45 -255h320l-10 -60h-320l-47 -265h395l-11 -60h-460zM428 40q126 0 217.5 99t91.5 258
q0 119 -70 191t-185 72q-126 0 -217.5 -99t-91.5 -258q0 -119 70 -191t185 -72z" />
    <glyph glyph-name="oe" unicode="&#x153;" horiz-adv-x="1005" 
d="M357 510q45 0 82 -14t61 -36.5t38 -42.5t23 -40q37 60 94.5 96.5t125.5 36.5q98 0 161.5 -65.5t63.5 -164.5q0 -8 -3 -35l-2 -15h-424v-5q0 -78 47.5 -129t119.5 -51q77 0 138 55q26 25 45 55h60q-24 -46 -59 -83q-80 -82 -188 -82q-70 0 -126.5 38.5t-79.5 93.5
q-28 -50 -87.5 -91t-135.5 -41q-96 0 -160 65.5t-64 164.5q0 119 80.5 204.5t189.5 85.5zM584 285h359q0 63 -44.5 116.5t-120.5 53.5q-70 0 -124.5 -51t-69.5 -119zM312 45q80 0 143.5 66.5t63.5 165.5q0 77 -47 127.5t-118 50.5q-80 0 -143.5 -66.5t-63.5 -165.5
q0 -77 47 -127.5t118 -50.5z" />
    <glyph glyph-name="Racute" unicode="&#x154;" horiz-adv-x="685" 
d="M475 640h-207l-55 -310h254q84 0 132.5 47.5t48.5 126.5q0 63 -44 99.5t-129 36.5zM213 700h272q106 0 167 -54.5t61 -138.5q0 -97 -61 -162t-163 -73l131 -272h-75l-127 270h-215l-48 -270h-65zM541 935h75l-141 -145h-50z" />
    <glyph glyph-name="racute" unicode="&#x155;" horiz-adv-x="375" 
d="M439 450h-60q-71 0 -124 -48t-67 -127l-48 -275h-60l88 500h60l-17 -95q15 26 42 50q58 50 136 50h60zM401 745h75l-141 -145h-50z" />
    <glyph glyph-name="Rcommaaccent" unicode="&#x156;" horiz-adv-x="685" 
d="M475 640h-207l-55 -310h254q84 0 132.5 47.5t48.5 126.5q0 63 -44 99.5t-129 36.5zM213 700h272q106 0 167 -54.5t61 -138.5q0 -97 -61 -162t-163 -73l131 -272h-75l-127 270h-215l-48 -270h-65zM324 -180q-15 0 -25.5 10t-10.5 25q0 18 14 31.5t35 13.5t34 -15.5
t13 -42.5q0 -52 -33.5 -85t-79.5 -37l5 30q28 3 46 19.5t18 41.5v5q-1 1 -1 4q-1 1 -1 3l-4 -2q-2 -1 -10 -1z" />
    <glyph glyph-name="rcommaaccent" unicode="&#x157;" horiz-adv-x="375" 
d="M439 450h-60q-71 0 -124 -48t-67 -127l-48 -275h-60l88 500h60l-17 -95q15 26 42 50q58 50 136 50h60zM85 -180q-15 0 -25.5 10t-10.5 25q0 18 14 31.5t35 13.5t34 -15.5t13 -42.5q0 -52 -33.5 -85t-79.5 -37l5 30q28 3 46 19.5t18 41.5v5q-1 1 -1 4q-1 1 -1 3l-4 -2
q-2 -1 -10 -1z" />
    <glyph glyph-name="Rcaron" unicode="&#x158;" horiz-adv-x="685" 
d="M475 640h-207l-55 -310h254q84 0 132.5 47.5t48.5 126.5q0 63 -44 99.5t-129 36.5zM213 700h272q106 0 167 -54.5t61 -138.5q0 -97 -61 -162t-163 -73l131 -272h-75l-127 270h-215l-48 -270h-65zM563 935h62l-136 -145h-65l-84 145h58l57 -100h15z" />
    <glyph glyph-name="rcaron" unicode="&#x159;" horiz-adv-x="375" 
d="M439 450h-60q-71 0 -124 -48t-67 -127l-48 -275h-60l88 500h60l-17 -95q15 26 42 50q58 50 136 50h60zM428 745h62l-136 -145h-65l-84 145h58l57 -100h15z" />
    <glyph glyph-name="Sacute" unicode="&#x15a;" horiz-adv-x="635" 
d="M368 40q84 -4 135.5 40t51.5 102q0 23 -12 43t-27 33.5t-45 29t-50.5 24.5t-57.5 23q-88 32 -140 74.5t-52 109.5q0 82 67.5 141.5t175.5 59.5q56 0 102 -14t72 -34t45 -45.5t26 -44t9 -33.5l2 -14h-64q-8 35 -33 62q-57 63 -167 63q-76 0 -123 -38.5t-47 -94.5
q0 -27 15 -50t46.5 -42t58.5 -31.5t72 -29.5q41 -16 71.5 -31.5t60 -38t45 -52t15.5 -64.5q0 -85 -72 -146.5t-187 -61.5q-163 0 -233 102q-34 46 -41 103h65l3 -11q4 -17 16 -36.5t35 -43t65 -39t97 -15.5zM531 935h75l-141 -145h-50z" />
    <glyph glyph-name="sacute" unicode="&#x15b;" horiz-adv-x="510" 
d="M71 150h64q7 -29 28 -53q44 -52 139 -52q60 0 93 25t33 65q0 25 -24.5 45t-49.5 29.5t-75 24.5q-149 42 -149 133q0 59 48.5 101t131.5 42q113 0 174 -73q25 -31 34 -72h-65q-9 25 -27 45q-41 45 -120 45q-56 0 -86 -24t-30 -57q0 -19 11 -34t37 -27.5t44.5 -19
t56.5 -18.5q68 -21 108.5 -51t40.5 -82q0 -65 -51 -108.5t-139 -43.5q-126 0 -190 80q-26 33 -37 80zM436 745h75l-141 -145h-50z" />
    <glyph glyph-name="Scedilla" unicode="&#x15e;" horiz-adv-x="635" 
d="M368 40q84 -4 135.5 40t51.5 102q0 23 -12 43t-27 33.5t-45 29t-50.5 24.5t-57.5 23q-88 32 -140 74.5t-52 109.5q0 82 67.5 141.5t175.5 59.5q56 0 102 -14t72 -34t45 -45.5t26 -44t9 -33.5l2 -14h-64q-8 35 -33 62q-57 63 -167 63q-76 0 -123 -38.5t-47 -94.5
q0 -27 15 -50t46.5 -42t58.5 -31.5t72 -29.5q41 -16 71.5 -31.5t60 -38t45 -52t15.5 -64.5q0 -84 -70 -145t-183 -63l-24 -37q28 -4 47.5 -26t19.5 -51q0 -44 -31.5 -72.5t-77.5 -28.5q-35 0 -59 13q-12 7 -19 14l8 44q9 -9 18 -13q22 -13 55 -13q24 0 40 14.5t16 38.5
q0 42 -55 42h-32l50 77q-136 10 -201 108q-27 40 -35 95h65l3 -11q4 -17 16 -36.5t35 -43t65 -39t97 -15.5z" />
    <glyph glyph-name="scedilla" unicode="&#x15f;" horiz-adv-x="510" 
d="M71 150h64q7 -29 28 -53q44 -52 139 -52q60 0 93 25t33 65q0 25 -24.5 45t-49.5 29.5t-75 24.5q-149 42 -149 133q0 59 48.5 101t131.5 42q113 0 174 -73q25 -31 34 -72h-65q-9 25 -27 45q-41 45 -120 45q-56 0 -86 -24t-30 -57q0 -19 11 -34t37 -27.5t44.5 -19
t56.5 -18.5q68 -21 108.5 -51t40.5 -82q0 -65 -49.5 -107.5t-134.5 -44.5l-31 -47q28 -4 47.5 -26t19.5 -51q0 -44 -31.5 -72.5t-77.5 -28.5q-35 0 -59 13q-12 7 -19 14l8 44q9 -9 18 -13q22 -13 55 -13q24 0 40 14.5t16 38.5q0 42 -55 42h-32l57 87q-103 11 -158 86
q-24 35 -31 72z" />
    <glyph glyph-name="Scaron" unicode="&#x160;" horiz-adv-x="635" 
d="M368 40q84 -4 135.5 40t51.5 102q0 23 -12 43t-27 33.5t-45 29t-50.5 24.5t-57.5 23q-88 32 -140 74.5t-52 109.5q0 82 67.5 141.5t175.5 59.5q56 0 102 -14t72 -34t45 -45.5t26 -44t9 -33.5l2 -14h-64q-8 35 -33 62q-57 63 -167 63q-76 0 -123 -38.5t-47 -94.5
q0 -27 15 -50t46.5 -42t58.5 -31.5t72 -29.5q41 -16 71.5 -31.5t60 -38t45 -52t15.5 -64.5q0 -85 -72 -146.5t-187 -61.5q-163 0 -233 102q-34 46 -41 103h65l3 -11q4 -17 16 -36.5t35 -43t65 -39t97 -15.5zM553 935h62l-136 -145h-65l-84 145h58l57 -100h15z" />
    <glyph glyph-name="scaron" unicode="&#x161;" horiz-adv-x="510" 
d="M71 150h64q7 -29 28 -53q44 -52 139 -52q60 0 93 25t33 65q0 25 -24.5 45t-49.5 29.5t-75 24.5q-149 42 -149 133q0 59 48.5 101t131.5 42q113 0 174 -73q25 -31 34 -72h-65q-9 25 -27 45q-41 45 -120 45q-56 0 -86 -24t-30 -57q0 -19 11 -34t37 -27.5t44.5 -19
t56.5 -18.5q68 -21 108.5 -51t40.5 -82q0 -65 -51 -108.5t-139 -43.5q-126 0 -190 80q-26 33 -37 80zM458 745h62l-136 -145h-65l-84 145h58l57 -100h15z" />
    <glyph glyph-name="Tcommaaccent" unicode="&#x162;" horiz-adv-x="585" 
d="M357 640h-250l11 60h565l-11 -60h-250l-113 -640h-65zM249 -180q-15 0 -25.5 10t-10.5 25q0 18 14 31.5t35 13.5t34 -15.5t13 -42.5q0 -52 -33.5 -85t-79.5 -37l5 30q28 3 46 19.5t18 41.5v5q-1 1 -1 4q-1 1 -1 3l-4 -2q-2 -1 -10 -1z" />
    <glyph glyph-name="tcommaaccent" unicode="&#x163;" horiz-adv-x="355" 
d="M103 445l10 55h70l20 110h60l-20 -110h165l-10 -55h-165l-68 -390h170l-10 -55h-230l78 445h-70zM185 -180q-15 0 -25.5 10t-10.5 25q0 18 14 31.5t35 13.5t34 -15.5t13 -42.5q0 -52 -33.5 -85t-79.5 -37l5 30q28 3 46 19.5t18 41.5v5q-1 1 -1 4q-1 1 -1 3l-4 -2
q-2 -1 -10 -1z" />
    <glyph glyph-name="Tcaron" unicode="&#x164;" horiz-adv-x="585" 
d="M357 640h-250l11 60h565l-11 -60h-250l-113 -640h-65zM513 935h62l-136 -145h-65l-84 145h58l57 -100h15z" />
    <glyph glyph-name="tcaron" unicode="&#x165;" horiz-adv-x="355" 
d="M103 445l10 55h70l20 110h60l-98 -555h170l-10 -55h-230l78 445h-70zM346 540q-15 0 -25.5 10t-10.5 25q0 18 14 31.5t35 13.5t34 -15.5t13 -42.5q0 -52 -33.5 -85t-79.5 -37l5 30q28 3 46 19.5t18 41.5v5q-1 1 -1 4q-1 1 -1 3l-4 -2q-2 -1 -10 -1z" />
    <glyph glyph-name="Umacron" unicode="&#x16a;" horiz-adv-x="710" 
d="M129 270l76 430h65l-76 -430q-5 -30 -5 -51q0 -25 4 -42q12 -64 61 -100.5t128 -36.5q86 0 143 52.5t74 149.5l81 458h65l-82 -463q-22 -119 -99.5 -188t-187.5 -69q-97 0 -162 47.5t-83 127.5q-7 27 -7 60q0 23 5 55zM357 820l10 55h255l-10 -55h-255z" />
    <glyph glyph-name="umacron" unicode="&#x16b;" horiz-adv-x="590" 
d="M507 0h-60l12 70q-16 -22 -40 -40q-54 -40 -130 -40q-74 0 -119 36.5t-56 101.5q-3 20 -3 39q0 23 5 55l49 278h60l-51 -289q-3 -20 -3 -37q0 -11 2 -29q6 -46 38.5 -73t88.5 -27q66 0 119 46t65 118l51 291h60zM265 625l10 55h255l-10 -55h-255z" />
    <glyph glyph-name="Uring" unicode="&#x16e;" horiz-adv-x="710" 
d="M129 270l76 430h65l-76 -430q-5 -30 -5 -51q0 -25 4 -42q12 -64 61 -100.5t128 -36.5q86 0 143 52.5t74 149.5l81 458h65l-82 -463q-22 -119 -99.5 -188t-187.5 -69q-97 0 -162 47.5t-83 127.5q-7 27 -7 60q0 23 5 55zM435 855q0 -21 14.5 -35.5t36.5 -14.5q23 0 41.5 18
t18.5 42q0 21 -14.5 35.5t-36.5 14.5q-23 0 -41.5 -18t-18.5 -42zM390 850q0 44 33 77t76 33q39 0 65.5 -26.5t26.5 -63.5q0 -45 -33 -77.5t-76 -32.5q-39 0 -65.5 26.5t-26.5 63.5z" />
    <glyph glyph-name="uring" unicode="&#x16f;" horiz-adv-x="590" 
d="M507 0h-60l12 70q-16 -22 -40 -40q-54 -40 -130 -40q-74 0 -119 36.5t-56 101.5q-3 20 -3 39q0 23 5 55l49 278h60l-51 -289q-3 -20 -3 -37q0 -11 2 -29q6 -46 38.5 -73t88.5 -27q66 0 119 46t65 118l51 291h60zM349 680q0 -21 14.5 -35.5t36.5 -14.5q23 0 41.5 18
t18.5 42q0 21 -14.5 35.5t-36.5 14.5q-23 0 -41.5 -18t-18.5 -42zM304 675q0 44 33 77t76 33q39 0 65.5 -26.5t26.5 -63.5q0 -45 -33 -77.5t-76 -32.5q-39 0 -65.5 26.5t-26.5 63.5z" />
    <glyph glyph-name="Uhungarumlaut" unicode="&#x170;" horiz-adv-x="710" 
d="M129 270l76 430h65l-76 -430q-5 -30 -5 -51q0 -25 4 -42q12 -64 61 -100.5t128 -36.5q86 0 143 52.5t74 149.5l81 458h65l-82 -463q-22 -119 -99.5 -188t-187.5 -69q-97 0 -162 47.5t-83 127.5q-7 27 -7 60q0 23 5 55zM471 935h70l-126 -145h-45zM616 935h70l-126 -145
h-45z" />
    <glyph glyph-name="uhungarumlaut" unicode="&#x171;" horiz-adv-x="590" 
d="M507 0h-60l12 70q-16 -22 -40 -40q-54 -40 -130 -40q-74 0 -119 36.5t-56 101.5q-3 20 -3 39q0 23 5 55l49 278h60l-51 -289q-3 -20 -3 -37q0 -11 2 -29q6 -46 38.5 -73t88.5 -27q66 0 119 46t65 118l51 291h60zM391 745h70l-126 -145h-45zM536 745h70l-126 -145h-45z
" />
    <glyph glyph-name="Uogonek" unicode="&#x172;" horiz-adv-x="710" 
d="M352 -225q-43 0 -70 22t-27 62q0 70 94 122q-88 6 -145.5 54t-74.5 125q-5 28 -5 53t5 57l76 430h65l-76 -430q-5 -30 -5 -51q0 -25 4 -42q12 -64 61 -100.5t128 -36.5q86 0 143 52.5t74 149.5l81 458h65l-82 -463q-20 -108 -85.5 -174.5t-160.5 -79.5q-53 -26 -82.5 -53
t-29.5 -63q0 -42 55 -42q27 0 42 4q9 1 18 5l-8 -45q-7 -4 -17 -7q-18 -7 -43 -7z" />
    <glyph glyph-name="uogonek" unicode="&#x173;" horiz-adv-x="590" 
d="M407 -225q-43 0 -70 22t-27 62q0 26 12.5 49t36 41.5t42.5 29.5t46 24l12 67q-16 -22 -40 -40q-54 -40 -130 -40q-74 0 -119 36.5t-56 101.5q-3 20 -3 39q0 23 5 55l49 278h60l-51 -289q-3 -20 -3 -37q0 -11 2 -29q6 -46 38.5 -73t88.5 -27q66 0 119 46t65 118l51 291h60
l-88 -500q-88 -44 -114 -68q-33 -30 -33 -65q0 -42 55 -42q27 0 42 4q9 1 18 5l-8 -45q-7 -4 -17 -7q-18 -7 -43 -7z" />
    <glyph glyph-name="Ydieresis" unicode="&#x178;" horiz-adv-x="635" 
d="M738 700l-353 -445l-45 -255h-65l45 255l-197 445h77l160 -370h5l290 370h83zM357 805q-18 0 -29.5 12t-11.5 30q0 20 14.5 34t34.5 14q18 0 29.5 -12t11.5 -30q0 -20 -14.5 -34t-34.5 -14zM527 805q-18 0 -29.5 12t-11.5 30q0 20 14.5 34t34.5 14q18 0 29.5 -12
t11.5 -30q0 -20 -14.5 -34t-34.5 -14z" />
    <glyph glyph-name="Zacute" unicode="&#x179;" horiz-adv-x="600" 
d="M40 0l11 60l541 575l1 5h-425l10 60h510l-10 -60l-542 -575v-5h445l-11 -60h-530zM511 935h75l-141 -145h-50z" />
    <glyph glyph-name="zacute" unicode="&#x17a;" horiz-adv-x="470" 
d="M513 445l-388 -390h330l-10 -55h-410l10 55l388 390h-310l10 55h390zM416 745h75l-141 -145h-50z" />
    <glyph glyph-name="Zdotaccent" unicode="&#x17b;" horiz-adv-x="600" 
d="M40 0l11 60l541 575l1 5h-425l10 60h510l-10 -60l-542 -575v-5h445l-11 -60h-530zM436 805q-18 0 -29.5 12t-11.5 30q0 20 14.5 34t34.5 14q18 0 29.5 -12t11.5 -30q0 -20 -14.5 -34t-34.5 -14z" />
    <glyph glyph-name="zdotaccent" unicode="&#x17c;" horiz-adv-x="470" 
d="M513 445l-388 -390h330l-10 -55h-410l10 55l388 390h-310l10 55h390zM341 615q-18 0 -29.5 12t-11.5 30q0 20 14.5 34t34.5 14q18 0 29.5 -12t11.5 -30q0 -20 -14.5 -34t-34.5 -14z" />
    <glyph glyph-name="Zcaron" unicode="&#x17d;" horiz-adv-x="600" 
d="M40 0l11 60l541 575l1 5h-425l10 60h510l-10 -60l-542 -575v-5h445l-11 -60h-530zM542 935h62l-136 -145h-65l-84 145h58l57 -100h15z" />
    <glyph glyph-name="zcaron" unicode="&#x17e;" horiz-adv-x="470" 
d="M513 445l-388 -390h330l-10 -55h-410l10 55l388 390h-310l10 55h390zM438 745h62l-136 -145h-65l-84 145h58l57 -100h15z" />
    <glyph glyph-name="florin" unicode="&#x192;" horiz-adv-x="360" 
d="M158 445l4 55h70l48 200h210l-5 -55h-160l-33 -145h130l-4 -55h-140l-151 -635h-200l5 55h150l136 580h-60z" />
    <glyph glyph-name="uni01FA" unicode="&#x1fa;" horiz-adv-x="675" 
d="M545 1031h65l-77 -77q26 -10 42 -33t16 -51q0 -45 -33 -77.5t-76 -32.5q-39 0 -65.5 26.5t-26.5 63.5q0 42 29.5 73.5t69.5 35.5zM435 855q0 -21 14.5 -35.5t36.5 -14.5q23 0 41.5 18t18.5 42q0 21 -14.5 35.5t-36.5 14.5q-23 0 -41.5 -18t-18.5 -42zM600 0l-19 230h-370
l-101 -230h-65l308 700h250l62 -700h-65zM543 640h-150l-157 -350h340z" />
    <glyph glyph-name="uni01FB" unicode="&#x1fb;" 
d="M469 855h65l-77 -76q26 -10 42 -33t16 -51q0 -45 -33 -77.5t-76 -32.5q-39 0 -65.5 26.5t-26.5 63.5q0 42 29.5 73.5t69.5 35.5zM359 680q0 -21 14.5 -35.5t36.5 -14.5q23 0 41.5 18t18.5 42q0 21 -14.5 35.5t-36.5 14.5q-23 0 -41.5 -18t-18.5 -42zM476 0l15 84
q-25 -36 -74 -65t-112 -29q-93 0 -155.5 65.5t-62.5 164.5q0 123 81.5 206.5t184.5 83.5q79 0 128 -40t62 -87l21 117h60l-88 -500h-60zM312 45q79 0 143.5 65.5t64.5 162.5q0 79 -48 130.5t-117 51.5q-79 0 -143.5 -65.5t-64.5 -162.5q0 -79 48 -130.5t117 -51.5z" />
    <glyph glyph-name="uni01FC" unicode="&#x1fc;" horiz-adv-x="985" 
d="M561 60h390l-11 -60h-455l41 230h-315l-101 -230h-65l308 700h710l-10 -60h-390l-45 -255h315l-11 -60h-315zM393 640l-157 -350h300l62 350h-205zM766 935h75l-141 -145h-50z" />
    <glyph glyph-name="uni01FD" unicode="&#x1fd;" horiz-adv-x="965" 
d="M258 -10q-72 0 -118.5 37.5t-46.5 101.5q0 70 51 115.5t136 45.5h210l4 21q3 17 3 31q0 41 -24 73q-33 40 -107 40q-75 0 -124 -53q-22 -22 -36 -52h-61q17 46 48 80q70 80 175 80q141 0 179 -103q81 103 199 103q97 0 158.5 -65.5t61.5 -164.5q0 -8 -3 -32l-2 -13h-419
v-10q0 -78 47.5 -129t119.5 -51q78 0 135 55q28 26 43 55h60q-23 -48 -57 -83q-78 -82 -185 -82q-72 0 -128.5 38.5t-81.5 99.5q-32 -59 -91 -98.5t-146 -39.5zM153 132q0 -40 33.5 -63.5t93.5 -23.5q77 0 134 53.5t67 136.5h-205q-59 0 -91 -28.5t-32 -74.5zM549 290h354
q0 60 -42.5 112.5t-117.5 52.5q-69 0 -124 -50.5t-70 -114.5zM646 745h75l-141 -145h-50z" />
    <glyph glyph-name="uni01FE" unicode="&#x1fe;" horiz-adv-x="820" 
d="M37 70l109 78q-37 71 -37 160q0 176 116 294t276 118q174 0 269 -123l151 108l-13 -75l-109 -78q37 -71 37 -160q0 -176 -116 -294t-276 -118q-174 0 -269 123l-151 -108zM448 40q133 0 228 98t95 252q0 71 -25 124l-519 -373q76 -101 221 -101zM174 310q0 -70 25 -124
l519 373q-76 101 -221 101q-133 0 -228 -98t-95 -252zM612 935h75l-141 -145h-50z" />
    <glyph glyph-name="uni01FF" unicode="&#x1ff;" horiz-adv-x="600" 
d="M161 150l336 248q-51 57 -136 57q-86 0 -150 -65.5t-64 -164.5q0 -46 14 -75zM540 275q0 46 -14 75l-336 -248q51 -57 136 -57q86 0 150 65.5t64 164.5zM600 279q0 -123 -82.5 -206t-194.5 -83q-115 0 -181 77l-98 -72l13 78l54 40q-24 48 -24 108q0 124 82 206.5
t195 82.5q115 0 181 -77l98 72l-13 -78l-54 -40q24 -48 24 -108zM472 745h75l-141 -145h-50z" />
    <glyph glyph-name="Scommaaccent" unicode="&#x218;" horiz-adv-x="635" 
d="M368 40q84 -4 135.5 40t51.5 102q0 23 -12 43t-27 33.5t-45 29t-50.5 24.5t-57.5 23q-88 32 -140 74.5t-52 109.5q0 82 67.5 141.5t175.5 59.5q56 0 102 -14t72 -34t45 -45.5t26 -44t9 -33.5l2 -14h-64q-8 35 -33 62q-57 63 -167 63q-76 0 -123 -38.5t-47 -94.5
q0 -27 15 -50t46.5 -42t58.5 -31.5t72 -29.5q41 -16 71.5 -31.5t60 -38t45 -52t15.5 -64.5q0 -85 -72 -146.5t-187 -61.5q-163 0 -233 102q-34 46 -41 103h65l3 -11q4 -17 16 -36.5t35 -43t65 -39t97 -15.5zM304 -180q-15 0 -25.5 10t-10.5 25q0 18 14 31.5t35 13.5
t34 -15.5t13 -42.5q0 -52 -33.5 -85t-79.5 -37l5 30q28 3 46 19.5t18 41.5v5q-1 1 -1 4q-1 1 -1 3l-4 -2q-2 -1 -10 -1z" />
    <glyph glyph-name="scommaaccent" unicode="&#x219;" horiz-adv-x="510" 
d="M71 150h64q7 -29 28 -53q44 -52 139 -52q60 0 93 25t33 65q0 25 -24.5 45t-49.5 29.5t-75 24.5q-149 42 -149 133q0 59 48.5 101t131.5 42q113 0 174 -73q25 -31 34 -72h-65q-9 25 -27 45q-41 45 -120 45q-56 0 -86 -24t-30 -57q0 -19 11 -34t37 -27.5t44.5 -19
t56.5 -18.5q68 -21 108.5 -51t40.5 -82q0 -65 -51 -108.5t-139 -43.5q-126 0 -190 80q-26 33 -37 80zM245 -180q-15 0 -25.5 10t-10.5 25q0 18 14 31.5t35 13.5t34 -15.5t13 -42.5q0 -52 -33.5 -85t-79.5 -37l5 30q28 3 46 19.5t18 41.5v5q-1 1 -1 4q-1 1 -1 3l-4 -2
q-2 -1 -10 -1z" />
    <glyph glyph-name="uni021A" unicode="&#x21a;" horiz-adv-x="585" 
d="M357 640h-250l11 60h565l-11 -60h-250l-113 -640h-65zM249 -180q-15 0 -25.5 10t-10.5 25q0 18 14 31.5t35 13.5t34 -15.5t13 -42.5q0 -52 -33.5 -85t-79.5 -37l5 30q28 3 46 19.5t18 41.5v5q-1 1 -1 4q-1 1 -1 3l-4 -2q-2 -1 -10 -1z" />
    <glyph glyph-name="uni021B" unicode="&#x21b;" horiz-adv-x="355" 
d="M103 445l10 55h70l20 110h60l-20 -110h165l-10 -55h-165l-68 -390h170l-10 -55h-230l78 445h-70zM184 -180q-15 0 -25.5 10t-10.5 25q0 18 14 31.5t35 13.5t34 -15.5t13 -42.5q0 -52 -33.5 -85t-79.5 -37l5 30q28 3 46 19.5t18 41.5v5q-1 1 -1 4q-1 1 -1 3l-4 -2
q-2 -1 -10 -1z" />
    <glyph glyph-name="afii57929" unicode="&#x2bc;" horiz-adv-x="160" 
d="M179 620q-15 0 -25.5 10t-10.5 25q0 18 14 31.5t35 13.5t34 -15.5t13 -42.5q0 -52 -33.5 -85t-79.5 -37l5 30q28 3 46 19.5t18 41.5v5q-1 1 -1 4q-1 1 -1 3l-4 -2q-2 -1 -10 -1z" />
    <glyph glyph-name="circumflex" unicode="&#x2c6;" horiz-adv-x="345" 
d="M405 550h-58l-57 100h-15l-93 -100h-62l136 145h65z" />
    <glyph glyph-name="caron" unicode="&#x2c7;" horiz-adv-x="345" 
d="M368 695h62l-136 -145h-65l-84 145h58l57 -100h15z" />
    <glyph glyph-name="breve" unicode="&#x2d8;" horiz-adv-x="330" 
d="M266 560q-56 0 -92 32.5t-36 79.5v8h55v-5q0 -28 20.5 -46.5t57.5 -18.5q33 0 55.5 19t26.5 51h56q-6 -52 -47 -86t-96 -34z" />
    <glyph glyph-name="dotaccent" unicode="&#x2d9;" horiz-adv-x="150" 
d="M181 605q-18 0 -29.5 12t-11.5 30q0 20 14.5 34t34.5 14q18 0 29.5 -12t11.5 -30q0 -20 -14.5 -34t-34.5 -14z" />
    <glyph glyph-name="ring" unicode="&#x2da;" horiz-adv-x="260" 
d="M170 590q0 -21 14.5 -35.5t36.5 -14.5q23 0 41.5 18t18.5 42q0 21 -14.5 35.5t-36.5 14.5q-23 0 -41.5 -18t-18.5 -42zM125 585q0 44 33 77t76 33q39 0 65.5 -26.5t26.5 -63.5q0 -45 -33 -77.5t-76 -32.5q-39 0 -65.5 26.5t-26.5 63.5z" />
    <glyph glyph-name="ogonek" unicode="&#x2db;" horiz-adv-x="230" 
d="M95 -225q-43 0 -70 22t-27 62q0 85 153 151l44 -10q-88 -44 -114 -68q-33 -30 -33 -65q0 -42 55 -42q27 0 42 4q9 1 18 5l-8 -45q-7 -4 -17 -7q-18 -7 -43 -7z" />
    <glyph glyph-name="tilde" unicode="&#x2dc;" horiz-adv-x="360" 
d="M339 575q-37 0 -68 33l-9 9t-10.5 9.5t-8.5 6t-11 6t-11 1.5q-15 0 -27.5 -10t-14.5 -25l-4 -25h-50l5 26q7 37 34 60.5t65 23.5q35 0 69 -32q31 -33 50 -33q15 0 27 10t14 25l4 25h51l-5 -26q-7 -37 -34.5 -60.5t-65.5 -23.5z" />
    <glyph glyph-name="hungarumlaut" unicode="&#x2dd;" horiz-adv-x="350" 
d="M227 695h70l-126 -145h-45zM372 695h70l-126 -145h-45z" />
    <glyph glyph-name="uni0301" unicode="&#x301;" horiz-adv-x="0" 
d="M-170 940h65l-115 -115h-40z" />
    <glyph glyph-name="uni030A" unicode="&#x30a;" horiz-adv-x="0" 
d="M-261 755q0 -21 14.5 -35.5t36.5 -14.5q23 0 41.5 18t18.5 42q0 21 -14.5 35.5t-36.5 14.5q-23 0 -41.5 -18t-18.5 -42zM-306 750q0 44 33 77t76 33q39 0 65.5 -26.5t26.5 -63.5q0 -45 -33 -77.5t-76 -32.5q-39 0 -65.5 26.5t-26.5 63.5z" />
    <glyph glyph-name="afii10023" unicode="&#x401;" horiz-adv-x="610" 
d="M166 60h410l-11 -60h-475l123 700h475l-10 -60h-410l-45 -255h335l-11 -60h-335zM366 783q-18 0 -29.5 12t-11.5 30q0 20 14.5 34t34.5 14q18 0 29.5 -12t11.5 -30q0 -20 -14.5 -34t-34.5 -14zM536 783q-18 0 -29.5 12t-11.5 30q0 20 14.5 34t34.5 14q18 0 29.5 -12
t11.5 -30q0 -20 -14.5 -34t-34.5 -14z" />
    <glyph glyph-name="afii10051" unicode="&#x402;" horiz-adv-x="770" 
d="M644 -30l36 205q4 17 4 38q0 20 -4 35q-12 52 -53.5 82t-107.5 30h-176l-64 -360h-65l113 640h-215l11 60h520l-11 -60h-240l-39 -220h171q84 0 141 -40.5t77 -109.5q7 -24 7 -53q0 -20 -5 -48l-45 -259h-211l11 60h145z" />
    <glyph glyph-name="afii10052" unicode="&#x403;" horiz-adv-x="540" 
d="M268 640l-113 -640h-65l123 700h440l-10 -60h-375zM522 920h75l-141 -145h-50z" />
    <glyph glyph-name="afii10053" unicode="&#x404;" horiz-adv-x="800" 
d="M486 325h-313v-15q0 -120 75.5 -195t197.5 -75q140 0 232 102q39 43 65 103h67q-29 -73 -80 -133q-112 -132 -288 -132q-149 0 -241.5 92t-92.5 236q0 88 32.5 165.5t86.5 131t126 84.5t149 31t140 -26t100 -66t58 -80.5t26 -77.5h-66q-17 54 -49 95q-73 95 -216 95
q-114 0 -202.5 -75.5t-112.5 -199.5h317z" />
    <glyph glyph-name="afii10054" unicode="&#x405;" horiz-adv-x="635" 
d="M368 40q84 -4 135.5 40t51.5 102q0 23 -12 43t-27 33.5t-45 29t-50.5 24.5t-57.5 23q-88 32 -140 74.5t-52 109.5q0 82 67.5 141.5t175.5 59.5q56 0 102 -14t72 -34t45 -45.5t26 -44t9 -33.5l2 -14h-64q-8 35 -33 62q-57 63 -167 63q-76 0 -123 -38.5t-47 -94.5
q0 -27 15 -50t46.5 -42t58.5 -31.5t72 -29.5q41 -16 71.5 -31.5t60 -38t45 -52t15.5 -64.5q0 -85 -72 -146.5t-187 -61.5q-163 0 -233 102q-34 46 -41 103h65l3 -11q4 -17 16 -36.5t35 -43t65 -39t97 -15.5z" />
    <glyph glyph-name="afii10055" unicode="&#x406;" horiz-adv-x="245" 
d="M278 700l-123 -700h-65l123 700h65z" />
    <glyph glyph-name="afii10056" unicode="&#x407;" horiz-adv-x="245" 
d="M278 700l-123 -700h-65l123 700h65zM171 783q-18 0 -29.5 12t-11.5 30q0 20 14.5 34t34.5 14q18 0 29.5 -12t11.5 -30q0 -20 -14.5 -34t-34.5 -14zM341 783q-18 0 -29.5 12t-11.5 30q0 20 14.5 34t34.5 14q18 0 29.5 -12t11.5 -30q0 -20 -14.5 -34t-34.5 -14z" />
    <glyph glyph-name="afii10057" unicode="&#x408;" horiz-adv-x="550" 
d="M594 700l-88 -499q-19 -105 -83 -163t-159 -58q-56 0 -99.5 17t-68.5 45t-39.5 56t-19.5 58l67 14q6 -37 25 -65q45 -65 137 -65q67 0 114.5 43.5t61.5 123.5l87 493h65z" />
    <glyph glyph-name="afii10058" unicode="&#x409;" horiz-adv-x="1050" 
d="M794 0h-304l113 640h-230l-273 -640h-65l303 700h340l-44 -250h187q107 0 169 -59t62 -144q0 -106 -72.5 -176.5t-185.5 -70.5zM821 390h-197l-58 -330h232q87 0 138 51t51 133q0 63 -44.5 104.5t-121.5 41.5z" />
    <glyph glyph-name="afii10059" unicode="&#x40a;" horiz-adv-x="1120" 
d="M864 0h-314l63 360h-395l-63 -360h-65l123 700h65l-49 -280h395l49 280h65l-49 -280h202q107 0 169 -55t62 -133q0 -99 -72.5 -165.5t-185.5 -66.5zM891 360h-213l-52 -300h242q87 0 138 47t51 122q0 55 -45 93t-121 38z" />
    <glyph glyph-name="afii10060" unicode="&#x40b;" horiz-adv-x="770" 
d="M744 169l-30 -169h-65l31 175q4 17 4 38q0 20 -4 35q-12 52 -53.5 82t-107.5 30h-176l-64 -360h-65l113 640h-215l11 60h520l-11 -60h-240l-39 -220h171q84 0 141 -40.5t77 -109.5q7 -24 7 -53q0 -20 -5 -48z" />
    <glyph glyph-name="afii10061" unicode="&#x40c;" horiz-adv-x="630" 
d="M545 0l-173 325h-160l-57 -325h-65l123 700h65l-55 -315h155l280 315h80l-305 -340l192 -360h-80zM548 920h75l-141 -145h-50z" />
    <glyph glyph-name="afii10062" unicode="&#x40e;" horiz-adv-x="600" 
d="M221 265l-93 435h70l79 -375h145l216 375h70l-403 -700h-70l151 265h-165zM424 775q-66 0 -105 35.5t-39 88.5v11h54v-9q0 -34 24.5 -55t68.5 -21q39 0 66 22t32 63h55q-8 -62 -52 -98.5t-104 -36.5z" />
    <glyph glyph-name="afii10145" unicode="&#x40f;" horiz-adv-x="715" 
d="M90 0l123 700h65l-112 -640h405l112 640h65l-123 -700h-235l-25 -140h-65l25 140h-235z" />
    <glyph glyph-name="afii10017" unicode="&#x410;" horiz-adv-x="675" 
d="M600 0l-19 230h-370l-101 -230h-65l308 700h250l62 -700h-65zM543 640h-150l-157 -350h340z" />
    <glyph glyph-name="afii10018" unicode="&#x411;" horiz-adv-x="670" 
d="M425 370h-205l-54 -310h245q82 0 132.5 48t50.5 121q0 63 -47 102t-122 39zM231 430h199q102 0 165.5 -57.5t63.5 -140.5q0 -98 -72 -165t-181 -67h-316l123 700h480l-10 -60h-415z" />
    <glyph glyph-name="afii10019" unicode="&#x412;" horiz-adv-x="700" 
d="M470 330h-257l-47 -270h287q75 0 119.5 41.5t44.5 108.5q0 52 -39 86t-108 34zM520 640h-252l-44 -250h278q63 0 102 38.5t39 101.5q0 47 -32.5 78.5t-90.5 31.5zM213 700h307q89 0 138.5 -48.5t49.5 -119.5q0 -70 -34 -112t-71 -56q-5 -2 -12 -5l-6 -2l-2 -5
q26 -10 49 -30q50 -46 50 -112q0 -90 -65.5 -150t-168.5 -60h-358z" />
    <glyph glyph-name="afii10020" unicode="&#x413;" horiz-adv-x="540" 
d="M268 640l-113 -640h-65l123 700h440l-10 -60h-375z" />
    <glyph glyph-name="afii10021" unicode="&#x414;" horiz-adv-x="720" 
d="M614 700l47 -640h80l-35 -200h-65l25 140h-590l-25 -140h-65l35 200h80l273 640h240zM414 640l-248 -580h430l-42 580h-140z" />
    <glyph glyph-name="afii10022" unicode="&#x415;" horiz-adv-x="610" 
d="M166 60h410l-11 -60h-475l123 700h475l-10 -60h-410l-45 -255h335l-11 -60h-335z" />
    <glyph glyph-name="afii10024" unicode="&#x416;" horiz-adv-x="980" 
d="M890 0l-163 325h-145l-57 -325h-65l57 325h-143l-277 -325h-82l308 360l-175 340h79l160 -315h141l55 315h65l-55 -315h139l270 315h81l-295 -340l182 -360h-80z" />
    <glyph glyph-name="afii10025" unicode="&#x417;" horiz-adv-x="640" 
d="M419 720q113 0 174.5 -53.5t61.5 -128.5q0 -93 -75 -148q-34 -25 -74 -35l-1 -5q28 -11 55 -32q56 -46 56 -118q0 -91 -73 -155.5t-189 -64.5q-159 0 -234 107q-34 49 -41 108h65q6 -43 32 -78q57 -77 184 -77q89 0 140 44t51 110q0 59 -49.5 97.5t-133.5 38.5h-82l10 60
h120q78 0 126 40.5t48 104.5q0 52 -46 88.5t-129 36.5q-98 0 -162 -70q-29 -32 -45 -70h-65q21 56 59 100q84 100 217 100z" />
    <glyph glyph-name="afii10026" unicode="&#x418;" horiz-adv-x="725" 
d="M668 700h90l-123 -700h-65l110 625l-500 -625h-90l123 700h65l-110 -625z" />
    <glyph glyph-name="afii10027" unicode="&#x419;" horiz-adv-x="725" 
d="M668 700h90l-123 -700h-65l110 625l-500 -625h-90l123 700h65l-110 -625zM504 775q-66 0 -105 35.5t-39 88.5v11h54v-9q0 -34 24.5 -55t68.5 -21q39 0 66 22t32 63h55q-8 -62 -52 -98.5t-104 -36.5z" />
    <glyph glyph-name="afii10028" unicode="&#x41a;" horiz-adv-x="630" 
d="M545 0l-173 325h-160l-57 -325h-65l123 700h65l-55 -315h155l280 315h80l-305 -340l192 -360h-80z" />
    <glyph glyph-name="afii10029" unicode="&#x41b;" horiz-adv-x="665" 
d="M529 640h-145l-278 -640h-66l303 700h245l57 -700h-64z" />
    <glyph glyph-name="afii10030" unicode="&#x41c;" horiz-adv-x="915" 
d="M561 175h-145l-148 465l-113 -640h-65l123 700h105l148 -465h65l312 465h105l-123 -700h-65l113 640z" />
    <glyph glyph-name="afii10031" unicode="&#x41d;" horiz-adv-x="715" 
d="M90 0l123 700h65l-55 -315h405l55 315h65l-123 -700h-65l57 325h-405l-57 -325h-65z" />
    <glyph glyph-name="afii10032" unicode="&#x41e;" horiz-adv-x="820" 
d="M447 40q133 0 228 98t95 252q0 120 -76 195t-198 75q-133 0 -228 -98t-95 -252q0 -120 75.5 -195t198.5 -75zM443 -20q-149 0 -242 92.5t-93 235.5q0 176 116 294t276 118q149 0 242 -92.5t93 -235.5q0 -176 -116 -294t-276 -118z" />
    <glyph glyph-name="afii10033" unicode="&#x41f;" horiz-adv-x="715" 
d="M90 0l123 700h535l-123 -700h-65l113 640h-405l-113 -640h-65z" />
    <glyph glyph-name="afii10034" unicode="&#x420;" horiz-adv-x="680" 
d="M480 640h-212l-58 -330h247q87 0 138 51t51 133q0 63 -44.5 104.5t-121.5 41.5zM213 700h267q107 0 169 -59t62 -144q0 -106 -72.5 -176.5t-185.5 -70.5h-254l-44 -250h-65z" />
    <glyph glyph-name="afii10035" unicode="&#x421;" horiz-adv-x="800" 
d="M743 245h67q-29 -73 -80 -133q-112 -132 -288 -132q-149 0 -241.5 92t-92.5 236q0 88 32.5 165.5t86.5 131t126 84.5t149 31t140 -26t100 -66t58 -80.5t26 -77.5h-66q-17 54 -49 95q-73 95 -216 95q-132 0 -227 -98t-95 -252q0 -120 75.5 -195t197.5 -75q140 0 232 102
q39 43 65 103z" />
    <glyph glyph-name="afii10036" unicode="&#x422;" horiz-adv-x="585" 
d="M357 640h-250l11 60h565l-11 -60h-250l-113 -640h-65z" />
    <glyph glyph-name="afii10037" unicode="&#x423;" horiz-adv-x="600" 
d="M221 265l-93 435h70l79 -375h145l216 375h70l-403 -700h-70l151 265h-165z" />
    <glyph glyph-name="afii10038" unicode="&#x424;" horiz-adv-x="875" 
d="M514 605h-32q-142 0 -225 -79.5t-83 -185.5q0 -91 66 -156t185 -79zM490 105h32q142 0 225 79.5t83 185.5q0 91 -66 156t-185 79zM480 45l-14 -80h-65l14 80q-143 15 -225 97t-82 195q0 136 109 232t273 96h34l14 80h65l-14 -80q143 -15 225 -97t82 -195
q0 -136 -109 -232t-273 -96h-34z" />
    <glyph glyph-name="afii10039" unicode="&#x425;" horiz-adv-x="635" 
d="M615 0h-67l-119 320h-91l-231 -320h-72l252 350l-119 350h67l109 -320h90l221 320h73l-241 -350z" />
    <glyph glyph-name="afii10040" unicode="&#x426;" horiz-adv-x="710" 
d="M620 0h-530l123 700h66l-112 -640h374l112 640h65l-112 -640h90l-36 -200h-65z" />
    <glyph glyph-name="afii10041" unicode="&#x427;" horiz-adv-x="670" 
d="M512 0l47 268q-20 -11 -49 -22q-59 -21 -128 -21q-91 0 -149.5 41.5t-73.5 114.5q-6 25 -6 53q0 21 5 53l37 213h65l-38 -219q-4 -20 -4 -43q0 -59 35 -100q47 -53 143 -53q65 0 124 23q26 10 49 24l66 368h65l-123 -700h-65z" />
    <glyph glyph-name="afii10042" unicode="&#x428;" horiz-adv-x="995" 
d="M1028 700l-123 -700h-815l123 700h66l-112 -640h309l112 640h65l-112 -640h310l112 640h65z" />
    <glyph glyph-name="afii10043" unicode="&#x429;" horiz-adv-x="1020" 
d="M930 0h-840l123 700h66l-112 -640h309l112 640h65l-112 -640h310l112 640h65l-112 -640h90l-36 -200h-65z" />
    <glyph glyph-name="afii10044" unicode="&#x42a;" horiz-adv-x="725" 
d="M469 0h-309l113 640h-160l11 60h224l-44 -250h192q107 0 169 -59t62 -144q0 -106 -72.5 -176.5t-185.5 -70.5zM496 390h-202l-58 -330h237q87 0 138 51t51 133q0 63 -44.5 104.5t-121.5 41.5z" />
    <glyph glyph-name="afii10045" unicode="&#x42b;" horiz-adv-x="855" 
d="M389 0h-299l123 700h65l-44 -250h182q107 0 169 -59t62 -144q0 -106 -72.5 -176.5t-185.5 -70.5zM416 390h-192l-58 -330h227q87 0 138 51t51 133q0 63 -44.5 104.5t-121.5 41.5zM888 700l-123 -700h-65l123 700h65z" />
    <glyph glyph-name="afii10046" unicode="&#x42c;" horiz-adv-x="665" 
d="M409 0h-319l123 700h65l-44 -250h202q107 0 169 -59t62 -144q0 -106 -72.5 -176.5t-185.5 -70.5zM436 390h-212l-58 -330h247q87 0 138 51t51 133q0 63 -44.5 104.5t-121.5 41.5z" />
    <glyph glyph-name="afii10047" unicode="&#x42d;" horiz-adv-x="795" 
d="M181 470h-67q29 68 80 125q113 125 282 125q149 0 241.5 -92t92.5 -236q0 -88 -32.5 -165.5t-86.5 -131t-126 -84.5t-149 -31q-80 0 -145 28t-102 71t-57 85.5t-23 80.5h66q12 -58 45 -103q74 -102 223 -102q117 0 206.5 78.5t110.5 206.5h-321l11 60h315v5
q0 120 -75.5 195t-197.5 75q-135 0 -226 -95q-38 -39 -65 -95z" />
    <glyph glyph-name="afii10048" unicode="&#x42e;" horiz-adv-x="1025" 
d="M223 385h127q25 147 132 241t238 94q139 0 229.5 -93t90.5 -235q0 -116 -54.5 -212t-140.5 -148t-182 -52q-138 0 -229 92t-91 236v17h-131l-57 -325h-65l123 700h65zM716 660q-123 0 -215.5 -98.5t-92.5 -251.5q0 -119 73 -194.5t186 -75.5q123 0 215.5 98.5t92.5 251.5
q0 119 -73 194.5t-186 75.5z" />
    <glyph glyph-name="afii10049" unicode="&#x42f;" horiz-adv-x="685" 
d="M380 330h207l55 310h-256q-85 0 -132 -47t-47 -127q0 -61 43.5 -98.5t129.5 -37.5zM65 0l218 285q-63 19 -102 66t-39 116q0 102 69 167.5t179 65.5h328l-123 -700h-66l48 270h-229l-208 -270h-75z" />
    <glyph glyph-name="afii10065" unicode="&#x430;" 
d="M476 0l15 84q-25 -36 -74 -65t-112 -29q-93 0 -155.5 65.5t-62.5 164.5q0 123 81.5 206.5t184.5 83.5q79 0 128 -40t62 -87l21 117h60l-88 -500h-60zM312 45q79 0 143.5 65.5t64.5 162.5q0 79 -48 130.5t-117 51.5q-79 0 -143.5 -65.5t-64.5 -162.5q0 -79 48 -130.5
t117 -51.5z" />
    <glyph glyph-name="afii10066" unicode="&#x431;" horiz-adv-x="560" 
d="M607 645h-159q-203 0 -270 -265q16 21 44 40q58 40 133 40q90 0 151.5 -62t61.5 -152q0 -105 -77.5 -180.5t-181.5 -75.5q-103 0 -157.5 61t-54.5 166q0 129 38.5 237.5t117.5 177t185 68.5h179zM318 45q72 0 131 58t59 140q0 68 -45.5 115t-116.5 47q-72 0 -131 -58
t-59 -140q0 -68 45.5 -115t116.5 -47z" />
    <glyph glyph-name="afii10067" unicode="&#x432;" horiz-adv-x="530" 
d="M345 235h-164l-31 -180h195q50 0 78.5 27.5t28.5 73.5q0 35 -26.5 57t-80.5 22zM380 445h-162l-27 -155h190q43 0 66.5 23t23.5 63q0 31 -22.5 50t-68.5 19zM168 500h222q68 0 104.5 -33.5t36.5 -84.5q0 -52 -26 -81.5t-53 -37.5l-8 -2t-5 -1l-1 -1q19 -7 37 -22
q37 -31 37 -83q0 -67 -47.5 -110.5t-124.5 -43.5h-260z" />
    <glyph glyph-name="afii10068" unicode="&#x433;" horiz-adv-x="415" 
d="M80 0l88 500h335l-10 -55h-275l-78 -445h-60z" />
    <glyph glyph-name="afii10069" unicode="&#x434;" horiz-adv-x="535" 
d="M458 500l42 -445h55l-31 -175h-55l21 120h-430l-21 -120h-55l31 175h55l198 445h190zM304 445l-174 -390h310l-36 390h-100z" />
    <glyph glyph-name="afii10070" unicode="&#x435;" horiz-adv-x="590" 
d="M87 221q0 115 79 202t195 87q101 0 165.5 -65.5t64.5 -164.5q0 -8 -3 -35l-2 -15h-439v-5q0 -79 49 -129.5t128 -50.5q81 0 142 55q27 24 46 55h60q-25 -48 -60 -83q-82 -82 -192 -82q-102 0 -167.5 65t-65.5 166zM154 285h374q0 64 -45 117t-125 53q-76 0 -132.5 -51
t-71.5 -119z" />
    <glyph glyph-name="afii10072" unicode="&#x436;" horiz-adv-x="765" 
d="M456 235l-41 -235h-60l41 235h-98l-216 -235h-72l241 260l-138 240h70l123 -210h100l37 210h60l-37 -210h99l197 210h71l-222 -240l149 -260h-69l-134 235h-101z" />
    <glyph glyph-name="afii10073" unicode="&#x437;" horiz-adv-x="490" 
d="M308 510q85 0 136 -38t51 -94q0 -64 -56 -102q-26 -17 -56 -24q25 -11 42 -25q43 -39 43 -86q0 -65 -51 -108t-140 -43q-135 0 -186 77q-25 34 -31 78h58q7 -28 25 -50q42 -50 132 -50q63 0 98 28.5t35 69.5q0 39 -36 63t-102 24h-45l10 55h85q56 0 85.5 23.5t29.5 63.5
q0 34 -33.5 58.5t-96.5 24.5q-68 0 -111 -43q-19 -19 -29 -42h-60q12 36 40 70q62 70 163 70z" />
    <glyph glyph-name="afii10074" unicode="&#x438;" horiz-adv-x="580" 
d="M80 0l88 500h60l-73 -415l363 415h70l-88 -500h-60l73 415l-363 -415h-70z" />
    <glyph glyph-name="afii10075" unicode="&#x439;" horiz-adv-x="580" 
d="M80 0l88 500h60l-73 -415l363 415h70l-88 -500h-60l73 415l-363 -415h-70zM394 570q-61 0 -97.5 33.5t-36.5 78.5v8h55v-5q0 -28 22.5 -46.5t63.5 -18.5q35 0 57.5 19t26.5 51h55q-8 -56 -48 -88t-98 -32z" />
    <glyph glyph-name="afii10076" unicode="&#x43a;" horiz-adv-x="520" 
d="M181 235l-41 -235h-60l88 500h60l-37 -210h119l202 210h71l-227 -240l154 -260h-69l-139 235h-121z" />
    <glyph glyph-name="afii10077" unicode="&#x43b;" horiz-adv-x="515" 
d="M86 0h-61l228 500h195l52 -500h-59l-47 445h-105z" />
    <glyph glyph-name="afii10078" unicode="&#x43c;" horiz-adv-x="700" 
d="M421 120h-100l-105 310l-76 -430h-60l88 500h88l109 -320h30l221 320h92l-88 -500h-60l76 430z" />
    <glyph glyph-name="afii10079" unicode="&#x43d;" horiz-adv-x="580" 
d="M80 0l88 500h60l-39 -220h300l39 220h60l-88 -500h-60l40 225h-300l-40 -225h-60z" />
    <glyph glyph-name="afii10080" unicode="&#x43e;" horiz-adv-x="600" 
d="M323 -10q-105 0 -170.5 65.5t-65.5 165.5q0 124 82 206.5t195 82.5q105 0 170.5 -65.5t65.5 -165.5q0 -123 -82.5 -206t-194.5 -83zM147 225q0 -79 49.5 -129.5t129.5 -50.5q86 0 150 65.5t64 164.5q0 79 -49.5 129.5t-129.5 50.5q-86 0 -150 -65.5t-64 -164.5z" />
    <glyph glyph-name="afii10081" unicode="&#x43f;" horiz-adv-x="575" 
d="M80 0l88 500h415l-88 -500h-60l78 445h-295l-78 -445h-60z" />
    <glyph glyph-name="afii10082" unicode="&#x440;" 
d="M227 500l-15 -84q25 36 74 65t112 29q93 0 155.5 -65.5t62.5 -164.5q0 -123 -81.5 -206.5t-184.5 -83.5q-79 0 -128 40t-62 87l-54 -307h-60l121 690h60zM391 455q-79 0 -143.5 -65.5t-64.5 -162.5q0 -79 48 -130.5t117 -51.5q79 0 143.5 65.5t64.5 162.5q0 79 -48 130.5
t-117 51.5z" />
    <glyph glyph-name="afii10083" unicode="&#x441;" horiz-adv-x="570" 
d="M507 175h60q-21 -51 -56 -93q-82 -92 -197 -92q-96 0 -161.5 65.5t-65.5 165.5q0 123 82 206t188 83q118 0 183 -88q26 -38 37 -87h-60q-10 34 -32 60q-46 60 -131 60q-80 0 -143.5 -66t-63.5 -164q0 -79 48.5 -129.5t120.5 -50.5q85 0 146 65q28 30 45 65z" />
    <glyph glyph-name="afii10084" unicode="&#x442;" horiz-adv-x="430" 
d="M73 445l10 55h420l-10 -55h-180l-78 -445h-60l78 445h-180z" />
    <glyph glyph-name="afii10085" unicode="&#x443;" horiz-adv-x="505" 
d="M150 0l-47 500h66l37 -445h94l208 445h65l-327 -690h-65l94 190h-125z" />
    <glyph glyph-name="afii10086" unicode="&#x444;" horiz-adv-x="660" 
d="M376 450h-11q-95 0 -160 -64.5t-65 -153.5q0 -72 47 -123t119 -59zM480 700l-34 -195q97 -12 156.5 -76.5t59.5 -156.5q0 -116 -85 -196.5t-203 -80.5h-18l-33 -185h-60l33 185q-97 12 -156.5 76.5t-59.5 156.5q0 116 85 196.5t203 80.5h18l34 195h60zM366 50h11
q95 0 160 64.5t65 153.5q0 73 -46.5 122.5t-119.5 59.5z" />
    <glyph glyph-name="afii10087" unicode="&#x445;" horiz-adv-x="490" 
d="M375 255l105 -255h-69l-89 230h-64l-171 -230h-72l195 255l-97 245h69l82 -215h65l158 215h71z" />
    <glyph glyph-name="afii10088" unicode="&#x446;" horiz-adv-x="575" 
d="M80 0l88 500h60l-78 -445h280l78 445h60l-78 -445h75l-31 -175h-60l21 120h-415z" />
    <glyph glyph-name="afii10089" unicode="&#x447;" horiz-adv-x="540" 
d="M400 0l33 183q-14 -9 -37 -17q-48 -16 -97 -16q-72 0 -119 31t-59 84q-5 22 -5 39q0 20 4 37l29 159h60l-29 -163q-3 -16 -3 -32q0 -39 21 -65q29 -35 108 -35q50 0 98 16q26 9 38 17l46 262h60l-88 -500h-60z" />
    <glyph glyph-name="afii10090" unicode="&#x448;" horiz-adv-x="790" 
d="M513 500l-78 -445h225l78 445h60l-88 -500h-630l88 500h60l-78 -445h225l78 445h60z" />
    <glyph glyph-name="afii10091" unicode="&#x449;" horiz-adv-x="805" 
d="M725 0h-645l88 500h60l-78 -445h225l78 445h60l-78 -445h225l78 445h60l-78 -445h75l-31 -175h-60z" />
    <glyph glyph-name="afii10092" unicode="&#x44a;" horiz-adv-x="530" 
d="M231 320h124q80 0 127.5 -41.5t47.5 -104.5q0 -74 -54 -124t-133 -50h-228l78 445h-115l10 55h175zM355 265h-133l-37 -210h160q54 0 89.5 32.5t35.5 82.5q0 40 -30.5 67.5t-84.5 27.5z" />
    <glyph glyph-name="afii10093" unicode="&#x44b;" horiz-adv-x="670" 
d="M310 265h-123l-37 -210h150q54 0 89.5 32.5t35.5 82.5q0 40 -30.5 67.5t-84.5 27.5zM196 320h114q80 0 127.5 -41.5t47.5 -104.5q0 -74 -54 -124t-133 -50h-218l88 500h60zM530 0l88 498h60l-88 -498h-60z" />
    <glyph glyph-name="afii10094" unicode="&#x44c;" horiz-adv-x="505" 
d="M330 265h-143l-37 -210h170q54 0 89.5 32.5t35.5 82.5q0 40 -30.5 67.5t-84.5 27.5zM196 320h134q80 0 127.5 -41.5t47.5 -104.5q0 -74 -54 -124t-133 -50h-238l88 500h60z" />
    <glyph glyph-name="afii10095" unicode="&#x44d;" horiz-adv-x="565" 
d="M280 280h225q-2 76 -50.5 125.5t-118.5 49.5q-85 0 -141 -60q-25 -25 -42 -60h-60q21 48 54 87q76 88 191 88q96 0 161.5 -66t65.5 -165q0 -123 -82 -206t-188 -83q-122 0 -187 92q-26 39 -37 93h60q10 -37 31 -65q47 -65 136 -65q69 0 128 50.5t74 129.5h-230z" />
    <glyph glyph-name="afii10096" unicode="&#x44e;" horiz-adv-x="765" 
d="M188 275h90q18 103 93.5 169t168.5 66q98 0 162 -66t64 -165q0 -123 -81 -206t-186 -83q-98 0 -162 65.5t-64 164.5h-94l-39 -220h-60l88 500h60zM333 225q0 -78 48.5 -129t120.5 -51q80 0 142 66t62 164q0 78 -48.5 129t-120.5 51q-80 0 -142 -66t-62 -164z" />
    <glyph glyph-name="afii10097" unicode="&#x44f;" horiz-adv-x="540" 
d="M279 225h161l38 220h-173q-56 0 -94.5 -34.5t-38.5 -83.5q0 -42 29.5 -72t77.5 -30zM55 0l141 190q-34 13 -59 48.5t-25 82.5q0 75 56.5 127t139.5 52h240l-88 -500h-60l30 170h-185l-120 -170h-70z" />
    <glyph glyph-name="afii10071" unicode="&#x451;" horiz-adv-x="590" 
d="M87 221q0 115 79 202t195 87q101 0 165.5 -65.5t64.5 -164.5q0 -8 -3 -35l-2 -15h-439v-5q0 -79 49 -129.5t128 -50.5q81 0 142 55q27 24 46 55h60q-25 -48 -60 -83q-82 -82 -192 -82q-102 0 -167.5 65t-65.5 166zM154 285h374q0 64 -45 117t-125 53q-76 0 -132.5 -51
t-71.5 -119zM296 580q-18 0 -29.5 12t-11.5 30q0 20 14.5 34t34.5 14q18 0 29.5 -12t11.5 -30q0 -20 -14.5 -34t-34.5 -14zM466 580q-18 0 -29.5 12t-11.5 30q0 20 14.5 34t34.5 14q18 0 29.5 -12t11.5 -30q0 -20 -14.5 -34t-34.5 -14z" />
    <glyph glyph-name="afii10099" unicode="&#x452;" horiz-adv-x="575" 
d="M435 -135l61 344q4 20 4 41q0 9 -2 25q-17 100 -128 100q-66 0 -119 -46t-65 -118l-37 -211h-60l93 530h-70l10 55h70l20 115h60l-20 -115h130l-10 -55h-130l-31 -180q16 22 40 40q54 40 130 40q74 0 119 -36.5t56 -101.5q3 -20 3 -39q0 -23 -5 -55l-68 -388h-211l10 55
h150z" />
    <glyph glyph-name="afii10100" unicode="&#x453;" horiz-adv-x="415" 
d="M80 0l88 500h335l-10 -55h-275l-78 -445h-60zM416 715h75l-141 -145h-50z" />
    <glyph glyph-name="afii10101" unicode="&#x454;" horiz-adv-x="570" 
d="M371 225h-224q0 -79 48.5 -129.5t120.5 -50.5q85 0 146 65q28 30 45 65h60q-21 -51 -56 -93q-82 -92 -197 -92q-96 0 -161.5 65.5t-65.5 165.5q0 123 82 206t188 83q118 0 183 -88q26 -38 37 -87h-60q-10 34 -32 60q-46 60 -131 60q-68 0 -125.5 -49t-75.5 -126h228z" />
    <glyph glyph-name="afii10102" unicode="&#x455;" horiz-adv-x="510" 
d="M71 150h64q7 -29 28 -53q44 -52 139 -52q60 0 93 25t33 65q0 25 -24.5 45t-49.5 29.5t-75 24.5q-149 42 -149 133q0 59 48.5 101t131.5 42q113 0 174 -73q25 -31 34 -72h-65q-9 25 -27 45q-41 45 -120 45q-56 0 -86 -24t-30 -57q0 -19 11 -34t37 -27.5t44.5 -19
t56.5 -18.5q68 -21 108.5 -51t40.5 -82q0 -65 -51 -108.5t-139 -43.5q-126 0 -190 80q-26 33 -37 80z" />
    <glyph glyph-name="afii10103" unicode="&#x456;" horiz-adv-x="220" 
d="M80 0l88 500h60l-88 -500h-60zM221 605q-18 0 -29.5 12t-11.5 30q0 20 14.5 34t34.5 14q18 0 29.5 -12t11.5 -30q0 -20 -14.5 -34t-34.5 -14z" />
    <glyph glyph-name="afii10104" unicode="&#x457;" horiz-adv-x="220" 
d="M80 0l88 500h60l-88 -500h-60zM121 585q-18 0 -29.5 12t-11.5 30q0 20 14.5 34t34.5 14q18 0 29.5 -12t11.5 -30q0 -20 -14.5 -34t-34.5 -14zM291 585q-18 0 -29.5 12t-11.5 30q0 20 14.5 34t34.5 14q18 0 29.5 -12t11.5 -30q0 -20 -14.5 -34t-34.5 -14z" />
    <glyph glyph-name="afii10105" unicode="&#x458;" horiz-adv-x="220" 
d="M229 500l-122 -690h-205l10 55h145l112 635h60zM222 605q-18 0 -29.5 12t-11.5 30q0 20 14.5 34t34.5 14q18 0 29.5 -12t11.5 -30q0 -20 -14.5 -34t-34.5 -14z" />
    <glyph glyph-name="afii10106" unicode="&#x459;" horiz-adv-x="780" 
d="M481 320h124q80 0 127.5 -41.5t47.5 -104.5q0 -74 -54 -124t-133 -50h-228l78 445h-155l-203 -445h-60l228 500h260zM605 265h-133l-37 -210h160q54 0 89.5 32.5t35.5 82.5q0 40 -30.5 67.5t-84.5 27.5z" />
    <glyph glyph-name="afii10107" unicode="&#x45a;" horiz-adv-x="845" 
d="M543 300h127q80 0 127.5 -38.5t47.5 -97.5q0 -70 -53.5 -117t-133.5 -47h-228l43 245h-290l-43 -245h-60l88 500h60l-35 -200h290l35 200h60zM670 245h-137l-33 -190h160q55 0 90 29t35 76q0 36 -30.5 60.5t-84.5 24.5z" />
    <glyph glyph-name="afii10108" unicode="&#x45b;" horiz-adv-x="575" 
d="M212 700h60l-20 -115h130l-10 -55h-130l-31 -180q16 22 40 40q54 40 130 40q74 0 119 -36.5t56 -101.5q3 -20 3 -39q0 -23 -5 -55l-35 -198h-60l37 209q4 20 4 41q0 9 -2 25q-17 100 -128 100q-66 0 -119 -46t-65 -118l-37 -211h-60l93 530h-70l10 55h70z" />
    <glyph glyph-name="afii10109" unicode="&#x45c;" horiz-adv-x="520" 
d="M181 235l-41 -235h-60l88 500h60l-37 -210h119l202 210h71l-227 -240l154 -260h-69l-139 235h-121zM446 706h75l-141 -145h-50z" />
    <glyph glyph-name="afii10110" unicode="&#x45e;" horiz-adv-x="505" 
d="M150 0l-47 500h66l37 -445h94l208 445h65l-327 -690h-65l94 190h-125zM339 570q-61 0 -97.5 33.5t-36.5 78.5v8h55v-5q0 -28 22.5 -46.5t63.5 -18.5q35 0 57.5 19t26.5 51h55q-8 -56 -48 -88t-98 -32z" />
    <glyph glyph-name="afii10193" unicode="&#x45f;" horiz-adv-x="575" 
d="M80 0l88 500h60l-78 -445h295l78 445h60l-88 -500h-175l-21 -120h-60l21 120h-180z" />
    <glyph glyph-name="afii10050" unicode="&#x490;" horiz-adv-x="540" 
d="M268 640l-113 -640h-65l123 700h375l18 100h65l-28 -160h-375z" />
    <glyph glyph-name="afii10098" unicode="&#x491;" horiz-adv-x="425" 
d="M80 0l88 500h275l16 90h60l-26 -145h-275l-78 -445h-60z" />
    <glyph glyph-name="uni1E9E" unicode="&#x1e9e;" horiz-adv-x="700" 
d="M440 370h-35l12 65l215 200h-211q-85 0 -129 -39.5t-59 -124.5l-83 -471h-65l85 481q18 105 84 162t178 57h298l-10 -61l-223 -204l-1 -5q99 -18 149 -69t50 -128q0 -100 -73.5 -166.5t-194.5 -66.5h-107l11 60h99q91 0 145.5 47.5t54.5 117.5q0 60 -49.5 102.5
t-140.5 42.5z" />
    <glyph glyph-name="endash" unicode="&#x2013;" horiz-adv-x="665" 
d="M655 240h-545l10 55h545z" />
    <glyph glyph-name="emdash" unicode="&#x2014;" horiz-adv-x="855" 
d="M845 240h-735l10 55h735z" />
    <glyph glyph-name="quoteleft" unicode="&#x2018;" horiz-adv-x="195" 
d="M203 600q15 0 25.5 -12.5t10.5 -27.5q0 -22 -15.5 -36t-36.5 -14q-49 0 -49 60q0 62 33.5 96.5t88.5 43.5l-6 -30q-71 -19 -71 -70q0 -8 1 -9q0 -3 1 -4q3 0 5 1q8 2 13 2z" />
    <glyph glyph-name="quoteright" unicode="&#x2019;" horiz-adv-x="195" 
d="M195 620q-15 0 -25.5 12.5t-10.5 27.5q0 22 15.5 36t36.5 14q49 0 49 -60q0 -62 -33.5 -96.5t-88.5 -43.5l6 30q71 19 71 70v5q-1 1 -1 4q-1 1 -1 4q-1 -1 -2 -1t-1.5 -0.5t-1.5 -0.5q-2 -1 -13 -1z" />
    <glyph glyph-name="quotesinglbase" unicode="&#x201a;" horiz-adv-x="195" 
d="M95 -10q-15 0 -25.5 12.5t-10.5 27.5q0 22 15.5 36t36.5 14q49 0 49 -60q0 -62 -33.5 -96.5t-88.5 -43.5l6 30q71 19 71 70v4q-1 2 -1 5q-1 1 -1 4q-1 -1 -2 -1t-1.5 -0.5t-1.5 -0.5q-2 -1 -13 -1z" />
    <glyph glyph-name="quotedblleft" unicode="&#x201c;" horiz-adv-x="335" 
d="M343 600q15 0 25.5 -12.5t10.5 -27.5q0 -22 -15.5 -36t-36.5 -14q-49 0 -49 60q0 62 33.5 96.5t88.5 43.5l-6 -30q-71 -19 -71 -70q0 -8 1 -9q0 -3 1 -4q3 0 5 1q8 2 13 2zM203 600q15 0 25.5 -12.5t10.5 -27.5q0 -22 -15.5 -36t-36.5 -14q-49 0 -49 60q0 62 33.5 96.5
t88.5 43.5l-6 -30q-71 -19 -71 -70q0 -8 1 -9q0 -3 1 -4q3 0 5 1q8 2 13 2z" />
    <glyph glyph-name="quotedblright" unicode="&#x201d;" horiz-adv-x="335" 
d="M195 620q-15 0 -25.5 12.5t-10.5 27.5q0 22 15.5 36t36.5 14q49 0 49 -60q0 -62 -33.5 -96.5t-88.5 -43.5l6 30q71 19 71 70v4q-1 2 -1 5q-1 1 -1 4q-1 -1 -2 -1t-1.5 -0.5t-1.5 -0.5q-2 -1 -13 -1zM335 620q-15 0 -25.5 12.5t-10.5 27.5q0 22 15.5 36t36.5 14
q49 0 49 -60q0 -62 -33.5 -96.5t-88.5 -43.5l6 30q71 19 71 70v4q-1 2 -1 5q-1 1 -1 4q-1 -1 -2 -1t-1.5 -0.5t-1.5 -0.5q-2 -1 -13 -1z" />
    <glyph glyph-name="quotedblbase" unicode="&#x201e;" horiz-adv-x="335" 
d="M95 -10q-15 0 -25.5 12.5t-10.5 27.5q0 22 15.5 36t36.5 14q49 0 49 -60q0 -62 -33.5 -96.5t-88.5 -43.5l6 30q71 19 71 70v4q-1 2 -1 5q-1 1 -1 4q-1 -1 -2 -1t-1.5 -0.5t-1.5 -0.5q-2 -1 -13 -1zM235 -10q-15 0 -25.5 12.5t-10.5 27.5q0 22 15.5 36t36.5 14
q49 0 49 -60q0 -62 -33.5 -96.5t-88.5 -43.5l6 30q71 19 71 70v4q-1 2 -1 5q-1 1 -1 4q-1 -1 -2 -1t-1.5 -0.5t-1.5 -0.5q-2 -1 -13 -1z" />
    <glyph glyph-name="dagger" unicode="&#x2020;" horiz-adv-x="460" 
d="M199 0l78 440h-150l11 60h150l35 200h60l-35 -200h150l-11 -60h-150l-78 -440h-60z" />
    <glyph glyph-name="daggerdbl" unicode="&#x2021;" horiz-adv-x="460" 
d="M239 220l45 260h-150l11 60h150l28 160h60l-28 -160h150l-11 -60h-150l-45 -260h150l-11 -60h-150l-28 -160h-60l28 160h-150l11 60h150z" />
    <glyph glyph-name="bullet" unicode="&#x2022;" horiz-adv-x="370" 
d="M232 215q-24 0 -41.5 17.5t-17.5 41.5q0 29 22 50t50 21q24 0 41.5 -17.5t17.5 -41.5q0 -29 -22 -50t-50 -21z" />
    <glyph glyph-name="ellipsis" unicode="&#x2026;" horiz-adv-x="620" 
d="M108 -15q-21 0 -34 13t-13 32q0 26 15 40.5t39 14.5q21 0 34 -13t13 -32q0 -26 -15 -40.5t-39 -14.5zM323 -15q-21 0 -34 13t-13 32q0 26 15 40.5t39 14.5q21 0 34 -13t13 -32q0 -26 -15 -40.5t-39 -14.5zM538 -15q-21 0 -34 13t-13 32q0 26 15 40.5t39 14.5q21 0 34 -13
t13 -32q0 -26 -15 -40.5t-39 -14.5z" />
    <glyph glyph-name="perthousand" unicode="&#x2030;" horiz-adv-x="1130" 
d="M688 700h65l-543 -700h-65zM319 656q-47 0 -81 -35t-34 -90q0 -43 26.5 -70t70.5 -27q47 0 81 35t34 90q0 43 -26.5 70t-70.5 27zM294 380q-64 0 -106.5 44t-42.5 106q0 74 55 127t126 53q64 0 106.5 -44t42.5 -106q0 -74 -55 -127t-126 -53zM576 44q47 0 81 35t34 90
q0 43 -26.5 70t-70.5 27q-47 0 -81 -35t-34 -90q0 -43 26.5 -70t70.5 -27zM601 320q64 0 106.5 -44t42.5 -106q0 -74 -55 -127t-126 -53q-64 0 -106.5 44t-42.5 106q0 74 55 127t126 53zM946 44q47 0 81 35t34 90q0 43 -26.5 70t-70.5 27q-47 0 -81 -35t-34 -90
q0 -43 26.5 -70t70.5 -27zM971 320q64 0 106.5 -44t42.5 -106q0 -74 -55 -127t-126 -53q-64 0 -106.5 44t-42.5 106q0 74 55 127t126 53z" />
    <glyph glyph-name="guilsinglleft" unicode="&#x2039;" horiz-adv-x="355" 
d="M324 54l-46 -39l-189 235l271 235l35 -42l-226 -196z" />
    <glyph glyph-name="guilsinglright" unicode="&#x203a;" horiz-adv-x="355" 
d="M135 446l46 39l189 -235l-271 -235l-35 42l226 196z" />
    <glyph glyph-name="fraction" unicode="&#x2044;" horiz-adv-x="120" 
d="M431 700l-553 -700h-60l553 700h60z" />
    <glyph glyph-name="zerosuperior" unicode="&#x2070;" horiz-adv-x="370" 
d="M274 505q45 0 77.5 41.5t32.5 110.5q0 47 -22 72.5t-61 25.5q-44 0 -77 -42t-33 -110q0 -47 22 -72.5t61 -25.5zM269 450q-60 0 -99 42t-39 109q0 93 52.5 151t122.5 58q60 0 99 -42t39 -109q0 -93 -52.5 -151t-122.5 -58z" />
    <glyph glyph-name="foursuperior" unicode="&#x2074;" horiz-adv-x="320" 
d="M321 460h-60l13 75h-175l10 55l172 210h65l-172 -210h110l12 70h60l-12 -70h50l-10 -55h-50z" />
    <glyph glyph-name="fivesuperior" unicode="&#x2075;" horiz-adv-x="345" 
d="M198 600l-50 10l43 190h225l-9 -55h-170l-19 -80q5 5 17 10q24 10 55 10q52 0 84.5 -30.5t32.5 -74.5q0 -57 -39.5 -93.5t-99.5 -36.5q-82 0 -119 52q-18 24 -22 53h65q3 -15 13 -25q21 -25 65 -25q36 0 56.5 19.5t20.5 45.5q0 27 -20.5 43.5t-57.5 16.5q-26 0 -52 -15
q-14 -10 -19 -15z" />
    <glyph glyph-name="sixsuperior" unicode="&#x2076;" horiz-adv-x="330" 
d="M251 450q-61 0 -99 32.5t-38 79.5q0 63 73 136l108 102h77l-98 -91l-34 -21l-1 -5l11 3q9 4 23 4q55 0 88.5 -34.5t33.5 -78.5q0 -52 -41.5 -89.5t-102.5 -37.5zM255 505q35 0 57.5 20.5t22.5 47.5t-21.5 44.5t-59.5 17.5q-35 0 -57.5 -20.5t-22.5 -47.5t21.5 -44.5
t59.5 -17.5z" />
    <glyph glyph-name="sevensuperior" unicode="&#x2077;" horiz-adv-x="285" 
d="M150 745l10 55h255l-10 -55l-200 -285h-65l200 285h-190z" />
    <glyph glyph-name="eightsuperior" unicode="&#x2078;" horiz-adv-x="370" 
d="M282 450q-69 0 -112 27t-43 72t41 74q18 11 42 18l1 5q-13 6 -21 16q-21 21 -21 50q0 41 35 69.5t95 28.5q67 0 103 -27.5t36 -65.5q0 -41 -34 -67q-16 -11 -34 -18l-1 -5q15 -7 28 -18q28 -22 28 -58q0 -41 -38.5 -71t-104.5 -30zM234 707q0 -17 18 -29.5t57 -12.5
q64 0 64 48q0 17 -18 29.5t-57 12.5q-64 0 -64 -48zM366 553q0 21 -24.5 36.5t-74.5 15.5q-40 0 -60.5 -14t-20.5 -34q0 -21 24.5 -36.5t74.5 -15.5q40 0 60.5 14t20.5 34z" />
    <glyph glyph-name="ninesuperior" unicode="&#x2079;" horiz-adv-x="330" 
d="M288 810q61 0 99 -32.5t38 -79.5q0 -63 -73 -136l-108 -102h-77l98 91l34 21l1 5l-11 -4q-11 -3 -23 -3q-55 0 -88.5 34.5t-33.5 78.5q0 52 41.5 89.5t102.5 37.5zM284 755q-35 0 -57.5 -20.5t-22.5 -47.5t21.5 -44.5t59.5 -17.5q35 0 57.5 20.5t22.5 47.5t-21.5 44.5
t-59.5 17.5z" />
    <glyph glyph-name="zeroinferior" unicode="&#x2080;" horiz-adv-x="370" 
d="M181 -55q45 0 77.5 41.5t32.5 110.5q0 47 -22 72.5t-61 25.5q-44 0 -77 -42t-33 -110q0 -47 22 -72.5t61 -25.5zM176 -110q-60 0 -99 42t-39 109q0 93 52.5 151t122.5 58q60 0 99 -42t39 -109q0 -93 -52.5 -151t-122.5 -58z" />
    <glyph glyph-name="oneinferior" unicode="&#x2081;" horiz-adv-x="340" 
d="M48 -100l10 55h100l38 220l-99 -55l11 65l105 55h55l-50 -285h95l-10 -55h-255z" />
    <glyph glyph-name="twoinferior" unicode="&#x2082;" horiz-adv-x="350" 
d="M135 -45h186l-10 -55h-280l10 55l94 50q92 48 123.5 74t31.5 61q0 25 -18 40t-55 15q-40 0 -66 -30q-11 -12 -19 -30h-61q10 29 31 57q46 58 117 58q61 0 96 -30.5t35 -74.5q0 -52 -50.5 -96t-164.5 -94z" />
    <glyph glyph-name="threeinferior" unicode="&#x2083;" horiz-adv-x="345" 
d="M336 185l-119 -75q52 -7 79.5 -34.5t27.5 -67.5q0 -49 -38.5 -83.5t-98.5 -34.5q-82 0 -119 52q-18 24 -22 53h65q3 -15 13 -25q21 -25 66 -25q35 0 54.5 17.5t19.5 45.5q0 52 -80 52h-61l9 50l119 75h-155l9 55h240z" />
    <glyph glyph-name="fourinferior" unicode="&#x2084;" horiz-adv-x="320" 
d="M243 -100h-60l13 75h-175l10 55l172 210h65l-172 -210h110l12 70h60l-12 -70h50l-10 -55h-50z" />
    <glyph glyph-name="fiveinferior" unicode="&#x2085;" horiz-adv-x="345" 
d="M115 40l-50 10l43 190h225l-9 -55h-170l-19 -80q5 5 17 10q24 10 55 10q52 0 84.5 -30.5t32.5 -74.5q0 -57 -39.5 -93.5t-99.5 -36.5q-82 0 -119 52q-18 24 -22 53h65q3 -15 13 -25q21 -25 65 -25q36 0 56.5 19.5t20.5 45.5q0 27 -20.5 43.5t-57.5 16.5q-26 0 -52 -15
q-14 -10 -19 -15z" />
    <glyph glyph-name="sixinferior" unicode="&#x2086;" horiz-adv-x="330" 
d="M176 -110q-61 0 -99 32.5t-38 79.5q0 63 73 136l108 102h77l-98 -91l-34 -21l-1 -5l11 3q9 4 23 4q55 0 88.5 -34.5t33.5 -78.5q0 -52 -41.5 -89.5t-102.5 -37.5zM180 -55q35 0 57.5 20.5t22.5 47.5t-21.5 44.5t-59.5 17.5q-35 0 -57.5 -20.5t-22.5 -47.5t21.5 -44.5
t59.5 -17.5z" />
    <glyph glyph-name="seveninferior" unicode="&#x2087;" horiz-adv-x="285" 
d="M61 185l10 55h255l-10 -55l-200 -285h-65l200 285h-190z" />
    <glyph glyph-name="eightinferior" unicode="&#x2088;" horiz-adv-x="370" 
d="M200 -110q-69 0 -112 27t-43 72t41 74q18 11 42 18l1 5q-13 6 -21 16q-21 21 -21 50q0 41 35 69.5t95 28.5q67 0 103 -27.5t36 -65.5q0 -41 -34 -67q-16 -11 -34 -18l-1 -5q15 -7 28 -18q28 -22 28 -58q0 -41 -38.5 -71t-104.5 -30zM152 147q0 -17 18 -29.5t57 -12.5
q64 0 64 48q0 17 -18 29.5t-57 12.5q-64 0 -64 -48zM284 -7q0 21 -24.5 36.5t-74.5 15.5q-40 0 -60.5 -14t-20.5 -34q0 -21 24.5 -36.5t74.5 -15.5q40 0 60.5 14t20.5 34z" />
    <glyph glyph-name="nineinferior" unicode="&#x2089;" horiz-adv-x="330" 
d="M202 250q61 0 99 -32.5t38 -79.5q0 -63 -73 -136l-108 -102h-77l98 91l34 21l1 5l-11 -4q-11 -3 -23 -3q-55 0 -88.5 34.5t-33.5 78.5q0 52 41.5 89.5t102.5 37.5zM198 195q-35 0 -57.5 -20.5t-22.5 -47.5t21.5 -44.5t59.5 -17.5q35 0 57.5 20.5t22.5 47.5t-21.5 44.5
t-59.5 17.5z" />
    <glyph glyph-name="Euro" unicode="&#x20ac;" horiz-adv-x="840" 
d="M784 245h67q-29 -73 -80 -133q-112 -132 -288 -132q-132 0 -222 74.5t-108 195.5h-79l10 55h65v3q0 42 8 87h-57l9 55h63q42 122 144.5 196t226.5 74q77 0 140 -26t100 -66t58 -80.5t26 -77.5h-66q-17 54 -49 95q-73 95 -216 95q-99 0 -180 -56.5t-117 -153.5h290l-9 -55
h-297q-9 -41 -9 -85v-5h290l-10 -55h-275q18 -96 90 -153t178 -57q140 0 232 102q39 43 65 103z" />
    <glyph glyph-name="uni20B4" unicode="&#x20b4;" horiz-adv-x="640" 
d="M135 450h411q10 7 22 23q23 33 23 72q0 48 -46 81.5t-133 33.5q-92 0 -150 -58q-26 -26 -41 -57h-66q18 47 53 87q82 88 207 88q114 0 177.5 -50.5t63.5 -123.5q0 -39 -18 -71q-8 -15 -17 -25h44l-10 -60h-530zM630 250h-411q-11 -7 -23 -23q-22 -32 -22 -72
q0 -48 46 -81.5t133 -33.5q89 0 150 57q26 26 41 58h66q-19 -49 -54 -88q-77 -87 -206 -87q-114 0 -177.5 50.5t-63.5 123.5q0 41 17 71q9 16 18 25h-44l10 60h530z" />
    <glyph glyph-name="uni20BD" unicode="&#x20bd;" horiz-adv-x="675" 
d="M480 640h-183l-56 -320h218q84 0 135 51t51 127q0 61 -44.5 101.5t-120.5 40.5zM243 700h237q103 0 166.5 -56.5t63.5 -143.5q0 -102 -72 -171t-185 -69h-223l-15 -90h255l-11 -60h-255l-19 -110h-65l19 110h-85l11 60h85l15 90h-85l11 60h85z" />
    <glyph glyph-name="afii61352" unicode="&#x2116;" horiz-adv-x="1060" 
d="M635 0h-95l-273 635l-112 -635h-65l123 700h95l273 -635l112 635h65zM1063 245h-270l11 60h270zM971 445q45 0 78 34t33 83q0 41 -25.5 67t-66.5 26q-44 0 -77 -34t-33 -83q0 -41 25.5 -67t65.5 -26zM968 390q-65 0 -107 41.5t-42 102.5q0 74 52.5 125t122.5 51
q65 0 107 -41.5t42 -102.5q0 -74 -52.5 -125t-122.5 -51z" />
    <glyph glyph-name="trademark" unicode="&#x2122;" horiz-adv-x="745" 
d="M705 645l-85 -180h-80l-85 180v-265h-55v320h85l85 -180h20l85 180h85v-320h-55v265zM80 645v55h285v-55h-115v-265h-55v265h-115z" />
    <glyph glyph-name="arrowleft" unicode="&#x2190;" horiz-adv-x="900" 
d="M325 515h15v-150h530v-50h-530v-150h-15l-175 170v10z" />
    <glyph glyph-name="arrowup" unicode="&#x2191;" horiz-adv-x="900" 
d="M320 525v15l170 175h10l170 -175v-15h-150v-525h-50v525h-150z" />
    <glyph glyph-name="arrowright" unicode="&#x2192;" horiz-adv-x="900" 
d="M695 515h15l175 -170v-10l-175 -170h-15v150h-530v50h530v150z" />
    <glyph glyph-name="arrowdown" unicode="&#x2193;" horiz-adv-x="900" 
d="M320 160v15h150v525h50v-525h150v-15l-170 -175h-10z" />
    <glyph glyph-name="uni2196" unicode="&#x2196;" horiz-adv-x="900" 
d="M275 360h-15v250l10 10h250v-15l-105 -105l380 -380l-35 -35l-380 380z" />
    <glyph glyph-name="uni2197" unicode="&#x2197;" horiz-adv-x="900" 
d="M760 360h-15l-105 105l-380 -380l-35 35l380 380l-105 105v15h250l10 -10v-250z" />
    <glyph glyph-name="uni2198" unicode="&#x2198;" horiz-adv-x="900" 
d="M745 345h15v-250l-10 -10h-250v15l105 105l-380 380l35 35l380 -380z" />
    <glyph glyph-name="uni2199" unicode="&#x2199;" horiz-adv-x="900" 
d="M260 345h15l105 -105l380 380l35 -35l-380 -380l105 -105v-15h-250l-10 10v250z" />
    <glyph glyph-name="minus" unicode="&#x2212;" horiz-adv-x="500" 
d="M500 255h-380v60h380v-60z" />
    <glyph glyph-name="approxequal" unicode="&#x2248;" horiz-adv-x="500" 
d="M385 285q-45 0 -89 38q-2 1 -10 7.5t-10 8t-9 6.5t-10.5 6.5t-9 4t-11 3.5t-11.5 1q-55 0 -55 -55v-15h-60v15q0 49 31 79.5t84 30.5q43 0 90 -37q13 -12 17.5 -15.5t15 -10.5t19 -9.5t18.5 -2.5q55 0 55 55v15h60v-15q0 -49 -31 -79.5t-84 -30.5zM385 120q-45 0 -89 38
q-2 1 -10 7.5t-10 8t-9 6.5t-10.5 6.5t-9 4t-11 3.5t-11.5 1q-55 0 -55 -55v-15h-60v15q0 49 31 79.5t84 30.5q43 0 90 -37q13 -12 17.5 -15.5t15 -10.5t19 -9.5t18.5 -2.5q55 0 55 55v15h60v-15q0 -49 -31 -79.5t-84 -30.5z" />
    <glyph glyph-name="notequal" unicode="&#x2260;" horiz-adv-x="500" 
d="M195 0h-60l80 145h-90v55h120l70 130h-190v55h220l80 145h60l-80 -145h90v-55h-120l-70 -130h190v-55h-220z" />
    <glyph glyph-name="lessequal" unicode="&#x2264;" horiz-adv-x="500" 
d="M115 345l380 175v-60l-320 -145v-5l320 -145v-60l-380 175v65zM115 165v55l380 -175v-55z" />
    <glyph glyph-name="greaterequal" unicode="&#x2265;" horiz-adv-x="500" 
d="M110 520l380 -175v-65l-380 -175v60l320 145v5l-320 145v60zM490 220v-55l-380 -175v55z" />
    <glyph glyph-name="commaaccent" unicode="&#xf6c3;" horiz-adv-x="160" 
d="M49 -180q-15 0 -25.5 10t-10.5 25q0 18 14 31.5t35 13.5t34 -15.5t13 -42.5q0 -52 -33.5 -85t-79.5 -37l5 30q28 3 46 19.5t18 41.5v5q-1 1 -1 4q-1 1 -1 3l-4 -2q-2 -1 -10 -1z" />
    <glyph glyph-name="cyrBreve" unicode="&#xf6d1;" horiz-adv-x="360" 
d="M310 770q-66 0 -105 35.5t-39 88.5v11h54v-9q0 -34 24.5 -55t68.5 -21q39 0 66 22t32 63h55q-8 -62 -52 -98.5t-104 -36.5z" />
    <glyph glyph-name="cyrbreve" unicode="&#xf6d4;" horiz-adv-x="340" 
d="M272 560q-61 0 -97.5 33.5t-36.5 78.5v8h55v-5q0 -28 22.5 -46.5t63.5 -18.5q35 0 57.5 19t26.5 51h55q-8 -56 -48 -88t-98 -32z" />
    <glyph glyph-name="zero.oldstyle" unicode="&#xf730;" horiz-adv-x="600" 
d="M147 225q0 -79 49.5 -129.5t129.5 -50.5q86 0 150 65t64 165q0 79 -49.5 129.5t-129.5 50.5q-86 0 -150 -65t-64 -165zM87 221q0 124 83 206.5t195 82.5q104 0 169.5 -65t65.5 -166q0 -124 -83 -206.5t-195 -82.5q-104 0 -169.5 65t-65.5 166z" />
    <glyph glyph-name="one.oldstyle" unicode="&#xf731;" horiz-adv-x="285" 
d="M205 0h-60l75 425l-128 -100l12 70l134 105h55z" />
    <glyph glyph-name="two.oldstyle" unicode="&#xf732;" horiz-adv-x="495" 
d="M323 136l-170 -81h325l-10 -55h-430l10 55l245 125q85 43 122.5 78.5t37.5 89.5q0 45 -38 76t-105 31q-74 0 -121 -53q-20 -22 -33 -52h-66q17 47 46 80q66 80 176 80q94 0 147.5 -45.5t53.5 -112.5q0 -75 -45.5 -122.5t-144.5 -93.5z" />
    <glyph glyph-name="three.oldstyle" unicode="&#xf733;" horiz-adv-x="520" 
d="M486 16q0 -91 -66 -153.5t-165 -62.5q-132 0 -195 95q-27 40 -36 95h65l2 -10q3 -16 11.5 -33.5t25.5 -40t51 -37t78 -14.5q74 0 121.5 43.5t47.5 113.5q0 54 -41.5 91t-115.5 37h-76l10 55h106q68 0 111 39.5t43 99.5q0 52 -38 86.5t-103 34.5q-76 0 -129 -53
q-22 -22 -36 -52h-62q20 46 51 80q72 80 178 80q91 0 145.5 -50.5t54.5 -122.5q0 -87 -67 -138q-27 -21 -66 -32l-2 -5q27 -14 48 -33q49 -47 49 -113z" />
    <glyph glyph-name="four.oldstyle" unicode="&#xf734;" horiz-adv-x="510" 
d="M381 -190h-60l34 190h-330l10 55l328 445h70l-328 -445h260l35 200h60l-35 -200h105l-10 -55h-105z" />
    <glyph glyph-name="five.oldstyle" unicode="&#xf735;" horiz-adv-x="540" 
d="M149 115h-54l92 385h370l-9 -55h-315l-56 -238q14 13 35 24q46 24 104 24q89 0 147.5 -58t58.5 -148q0 -107 -72.5 -178t-174.5 -71q-131 0 -190 97q-27 46 -31 98h65q6 -38 24 -70q42 -70 136 -70q77 0 130 53.5t53 135.5q0 67 -44 111.5t-114 44.5q-62 0 -117 -43
q-23 -19 -38 -42z" />
    <glyph glyph-name="six.oldstyle" unicode="&#xf736;" horiz-adv-x="580" 
d="M87 205q0 36 10.5 70.5t22 58t37 55t38 44.5t42.5 43l223 224h76l-259 -253l-2 -5q13 7 24 11q26 12 64 12q93 0 154.5 -64t61.5 -154q0 -107 -77.5 -182t-186.5 -75q-100 0 -164 62.5t-64 152.5zM319 45q80 0 140 57.5t60 144.5q0 68 -48.5 115.5t-123.5 47.5
q-80 0 -140 -57.5t-60 -144.5q0 -68 48.5 -115.5t123.5 -47.5z" />
    <glyph glyph-name="seven.oldstyle" unicode="&#xf737;" horiz-adv-x="450" 
d="M73 445l10 55h430l-10 -55l-387 -635h-65l387 635h-365z" />
    <glyph glyph-name="eight.oldstyle" unicode="&#xf738;" horiz-adv-x="600" 
d="M334 -10q-103 0 -178.5 52.5t-75.5 140.5q0 105 89 162q38 24 90 35v5q-27 14 -45 31q-44 40 -44 103q0 79 63.5 135t164.5 56q103 0 162 -50.5t59 -122.5q0 -88 -72 -138q-31 -22 -71 -33v-5q34 -14 57 -35q57 -51 57 -123q0 -87 -71 -150t-185 -63zM230 523
q0 -51 44 -87t122 -36q73 0 118 39t45 93q0 51 -44 87t-122 36q-73 0 -118 -39t-45 -93zM331 45q85 0 142 46.5t57 107.5q0 57 -52.5 101.5t-138.5 44.5q-85 0 -142 -46.5t-57 -107.5q0 -57 52.5 -101.5t138.5 -44.5z" />
    <glyph glyph-name="nine.oldstyle" unicode="&#xf739;" horiz-adv-x="580" 
d="M580 295q0 -36 -10.5 -70.5t-22 -58t-37 -55t-38 -44.5t-42.5 -43l-213 -214h-76l249 243l2 5q-10 -8 -24 -12q-24 -11 -64 -11q-95 0 -155.5 64t-60.5 154q0 107 77.5 182t186.5 75q100 0 164 -62.5t64 -152.5zM348 455q-80 0 -140 -57.5t-60 -144.5q0 -68 48.5 -115.5
t123.5 -47.5q80 0 140 57.5t60 144.5q0 68 -48.5 115.5t-123.5 47.5z" />
    <glyph glyph-name="adieresis.sc" 
d="M509 250l-29 290h-145l-131 -290h305zM514 190h-335l-84 -190h-65l271 600h235l59 -600h-65zM346 705q-18 0 -29.5 12t-11.5 30q0 20 14.5 34t34.5 14q18 0 29.5 -12t11.5 -30q0 -20 -14.5 -34t-34.5 -14zM516 705q-18 0 -29.5 12t-11.5 30q0 20 14.5 34t34.5 14
q18 0 29.5 -12t11.5 -30q0 -20 -14.5 -34t-34.5 -14z" />
    <glyph glyph-name="edieresis.sc" horiz-adv-x="560" 
d="M166 60h360l-11 -60h-425l106 600h425l-11 -60h-360l-36 -205h300l-11 -60h-300zM336 710q-18 0 -29.5 12t-11.5 30q0 20 14.5 34t34.5 14q18 0 29.5 -12t11.5 -30q0 -20 -14.5 -34t-34.5 -14zM506 710q-18 0 -29.5 12t-11.5 30q0 20 14.5 34t34.5 14q18 0 29.5 -12
t11.5 -30q0 -20 -14.5 -34t-34.5 -14z" />
    <glyph glyph-name="Imacron.alt" horiz-adv-x="485" 
d="M163 640l10 60h385l-10 -60h-160l-102 -580h160l-11 -60h-385l11 60h160l102 580h-160zM260 820l10 55h255l-10 -55h-255z" />
    <glyph glyph-name="Idotaccent.alt" horiz-adv-x="485" 
d="M163 640l10 60h385l-10 -60h-160l-102 -580h160l-11 -60h-385l11 60h160l102 580h-160zM381 805q-18 0 -29.5 12t-11.5 30q0 20 14.5 34t34.5 14q18 0 29.5 -12t11.5 -30q0 -20 -14.5 -34t-34.5 -14z" />
    <glyph glyph-name="Idieresis.alt" horiz-adv-x="485" 
d="M163 640l10 60h385l-10 -60h-160l-102 -580h160l-11 -60h-385l11 60h160l102 580h-160zM291 805q-18 0 -29.5 12t-11.5 30q0 20 14.5 34t34.5 14q18 0 29.5 -12t11.5 -30q0 -20 -14.5 -34t-34.5 -14zM461 805q-18 0 -29.5 12t-11.5 30q0 20 14.5 34t34.5 14
q18 0 29.5 -12t11.5 -30q0 -20 -14.5 -34t-34.5 -14z" />
    <glyph glyph-name="Icircumflex.alt" horiz-adv-x="485" 
d="M163 640l10 60h385l-10 -60h-160l-102 -580h160l-11 -60h-385l11 60h160l102 580h-160zM520 790h-58l-57 100h-15l-93 -100h-62l136 145h65z" />
    <glyph glyph-name="Iacute.alt" horiz-adv-x="485" 
d="M163 640l10 60h385l-10 -60h-160l-102 -580h160l-11 -60h-385l11 60h160l102 580h-160zM456 935h75l-141 -145h-50z" />
    <glyph glyph-name="Igrave.alt" horiz-adv-x="485" 
d="M163 640l10 60h385l-10 -60h-160l-102 -580h160l-11 -60h-385l11 60h160l102 580h-160zM260 935h75l64 -145h-50z" />
    <glyph glyph-name="lcommaaccent.alt" horiz-adv-x="220" 
d="M263 700l-123 -700h-60l123 700h60zM79 -180q-15 0 -25.5 10t-10.5 25q0 18 14 31.5t35 13.5t34 -15.5t13 -42.5q0 -52 -33.5 -85t-79.5 -37l5 30q28 3 46 19.5t18 41.5v5q-1 1 -1 4q-1 1 -1 3l-4 -2q-2 -1 -10 -1z" />
    <glyph glyph-name="lcaron.alt" horiz-adv-x="270" 
d="M263 700l-123 -700h-60l123 700h60zM346 630q-15 0 -25.5 10t-10.5 25q0 18 14 31.5t35 13.5t34 -15.5t13 -42.5q0 -52 -33.5 -85t-79.5 -37l5 30q28 3 46 19.5t18 41.5v5q-1 1 -1 4q-1 1 -1 3l-4 -2q-2 -1 -10 -1z" />
    <glyph glyph-name="lacute.alt" horiz-adv-x="220" 
d="M263 700l-123 -700h-60l123 700h60zM336 935h75l-141 -145h-50z" />
    <glyph glyph-name="atilde.alt" horiz-adv-x="560" 
d="M145 132q0 -40 33.5 -63.5t93.5 -23.5q77 0 134 53.5t67 136.5h-205q-59 0 -91 -28.5t-32 -74.5zM260 -10q-79 0 -127 37t-48 102q0 70 51 115.5t136 45.5h210l4 21q3 17 3 31q0 41 -24 73q-33 40 -107 40q-75 0 -124 -53q-22 -22 -36 -52h-61q17 46 48 80q70 80 175 80
q78 0 125 -33t59 -90q4 -17 4 -41q0 -20 -3 -39l-53 -307h-61l14 78q-17 -22 -47 -44q-59 -44 -138 -44zM451 600q-37 0 -68 33l-9 9t-10.5 9.5t-8.5 6t-11 6t-11 1.5q-15 0 -27.5 -10t-14.5 -25l-4 -25h-50l5 26q7 37 34 60.5t65 23.5q35 0 69 -32q31 -33 50 -33
q15 0 27 10t14 25l4 25h51l-5 -26q-7 -37 -34.5 -60.5t-65.5 -23.5z" />
    <glyph glyph-name="aring.alt" horiz-adv-x="560" 
d="M145 132q0 -40 33.5 -63.5t93.5 -23.5q77 0 134 53.5t67 136.5h-205q-59 0 -91 -28.5t-32 -74.5zM260 -10q-79 0 -127 37t-48 102q0 70 51 115.5t136 45.5h210l4 21q3 17 3 31q0 41 -24 73q-33 40 -107 40q-75 0 -124 -53q-22 -22 -36 -52h-61q17 46 48 80q70 80 175 80
q78 0 125 -33t59 -90q4 -17 4 -41q0 -20 -3 -39l-53 -307h-61l14 78q-17 -22 -47 -44q-59 -44 -138 -44zM344 680q0 -21 14.5 -35.5t36.5 -14.5q23 0 41.5 18t18.5 42q0 21 -14.5 35.5t-36.5 14.5q-23 0 -41.5 -18t-18.5 -42zM299 675q0 44 33 77t76 33q39 0 65.5 -26.5
t26.5 -63.5q0 -45 -33 -77.5t-76 -32.5q-39 0 -65.5 26.5t-26.5 63.5z" />
    <glyph glyph-name="aogonek.alt" horiz-adv-x="560" 
d="M392 -225q-43 0 -70 22t-27 62q0 85 136 143l14 76q-17 -22 -47 -44q-59 -44 -138 -44t-127 37t-48 102q0 70 51 115.5t136 45.5h210l4 21q3 17 3 31q0 41 -24 73q-33 40 -107 40q-75 0 -124 -53q-22 -22 -36 -52h-61q17 46 48 80q70 80 175 80q78 0 125 -33t59 -90
q4 -17 4 -41q0 -20 -3 -39l-53 -307q-88 -44 -114 -68q-33 -30 -33 -65q0 -42 55 -42q27 0 42 4q9 1 18 5l-8 -45q-7 -4 -17 -7q-18 -7 -43 -7zM145 132q0 -40 33.5 -63.5t93.5 -23.5q77 0 134 53.5t67 136.5h-205q-59 0 -91 -28.5t-32 -74.5z" />
    <glyph glyph-name="amacron.alt" horiz-adv-x="560" 
d="M145 132q0 -40 33.5 -63.5t93.5 -23.5q77 0 134 53.5t67 136.5h-205q-59 0 -91 -28.5t-32 -74.5zM260 -10q-79 0 -127 37t-48 102q0 70 51 115.5t136 45.5h210l4 21q3 17 3 31q0 41 -24 73q-33 40 -107 40q-75 0 -124 -53q-22 -22 -36 -52h-61q17 46 48 80q70 80 175 80
q78 0 125 -33t59 -90q4 -17 4 -41q0 -20 -3 -39l-53 -307h-61l14 78q-17 -22 -47 -44q-59 -44 -138 -44zM260 625l10 55h255l-10 -55h-255z" />
    <glyph glyph-name="adieresis.alt" horiz-adv-x="560" 
d="M145 132q0 -40 33.5 -63.5t93.5 -23.5q77 0 134 53.5t67 136.5h-205q-59 0 -91 -28.5t-32 -74.5zM260 -10q-79 0 -127 37t-48 102q0 70 51 115.5t136 45.5h210l4 21q3 17 3 31q0 41 -24 73q-33 40 -107 40q-75 0 -124 -53q-22 -22 -36 -52h-61q17 46 48 80q70 80 175 80
q78 0 125 -33t59 -90q4 -17 4 -41q0 -20 -3 -39l-53 -307h-61l14 78q-17 -22 -47 -44q-59 -44 -138 -44zM301 615q-18 0 -29.5 12t-11.5 30q0 20 14.5 34t34.5 14q18 0 29.5 -12t11.5 -30q0 -20 -14.5 -34t-34.5 -14zM471 615q-18 0 -29.5 12t-11.5 30q0 20 14.5 34t34.5 14
q18 0 29.5 -12t11.5 -30q0 -20 -14.5 -34t-34.5 -14z" />
    <glyph glyph-name="acircumflex.alt" horiz-adv-x="560" 
d="M145 132q0 -40 33.5 -63.5t93.5 -23.5q77 0 134 53.5t67 136.5h-205q-59 0 -91 -28.5t-32 -74.5zM260 -10q-79 0 -127 37t-48 102q0 70 51 115.5t136 45.5h210l4 21q3 17 3 31q0 41 -24 73q-33 40 -107 40q-75 0 -124 -53q-22 -22 -36 -52h-61q17 46 48 80q70 80 175 80
q78 0 125 -33t59 -90q4 -17 4 -41q0 -20 -3 -39l-53 -307h-61l14 78q-17 -22 -47 -44q-59 -44 -138 -44zM525 600h-58l-57 100h-15l-93 -100h-62l136 145h65z" />
    <glyph glyph-name="abreve.alt" horiz-adv-x="560" 
d="M145 132q0 -40 33.5 -63.5t93.5 -23.5q77 0 134 53.5t67 136.5h-205q-59 0 -91 -28.5t-32 -74.5zM260 -10q-79 0 -127 37t-48 102q0 70 51 115.5t136 45.5h210l4 21q3 17 3 31q0 41 -24 73q-33 40 -107 40q-75 0 -124 -53q-22 -22 -36 -52h-61q17 46 48 80q70 80 175 80
q78 0 125 -33t59 -90q4 -17 4 -41q0 -20 -3 -39l-53 -307h-61l14 78q-17 -22 -47 -44q-59 -44 -138 -44zM393 605q-56 0 -92 32.5t-36 79.5v8h55v-5q0 -28 20.5 -46.5t57.5 -18.5q33 0 55.5 19t26.5 51h56q-6 -52 -47 -86t-96 -34z" />
    <glyph glyph-name="aacute.alt" horiz-adv-x="560" 
d="M145 132q0 -40 33.5 -63.5t93.5 -23.5q77 0 134 53.5t67 136.5h-205q-59 0 -91 -28.5t-32 -74.5zM260 -10q-79 0 -127 37t-48 102q0 70 51 115.5t136 45.5h210l4 21q3 17 3 31q0 41 -24 73q-33 40 -107 40q-75 0 -124 -53q-22 -22 -36 -52h-61q17 46 48 80q70 80 175 80
q78 0 125 -33t59 -90q4 -17 4 -41q0 -20 -3 -39l-53 -307h-61l14 78q-17 -22 -47 -44q-59 -44 -138 -44zM472 745h75l-141 -145h-50z" />
    <glyph glyph-name="agrave.alt" horiz-adv-x="560" 
d="M145 132q0 -40 33.5 -63.5t93.5 -23.5q77 0 134 53.5t67 136.5h-205q-59 0 -91 -28.5t-32 -74.5zM260 -10q-79 0 -127 37t-48 102q0 70 51 115.5t136 45.5h210l4 21q3 17 3 31q0 41 -24 73q-33 40 -107 40q-75 0 -124 -53q-22 -22 -36 -52h-61q17 46 48 80q70 80 175 80
q78 0 125 -33t59 -90q4 -17 4 -41q0 -20 -3 -39l-53 -307h-61l14 78q-17 -22 -47 -44q-59 -44 -138 -44zM280 745h75l64 -145h-50z" />
    <glyph glyph-name="afii10110.alt" horiz-adv-x="505" 
d="M245 -59l29 59h-125l-47 500h66l37 -445h94l208 445h65l-269 -565q-30 -64 -70.5 -94.5t-101.5 -30.5h-95l10 55h94q37 0 60.5 17.5t44.5 58.5zM344 564q-61 0 -97.5 33.5t-36.5 78.5v8h55v-5q0 -28 22.5 -46.5t63.5 -18.5q35 0 57.5 19t26.5 51h55q-8 -56 -48 -88
t-98 -32z" />
    <glyph glyph-name="lslash.alt" horiz-adv-x="250" 
d="M59 305l92 40l62 355h60l-57 -325l103 45l-11 -60l-103 -45l-55 -315h-60l50 285l-92 -40z" />
    <glyph glyph-name="ydieresis.alt" horiz-adv-x="505" 
d="M245 -59l29 59h-125l-47 500h66l37 -445h94l208 445h65l-269 -565q-30 -64 -70.5 -94.5t-101.5 -30.5h-95l10 55h94q37 0 60.5 17.5t44.5 58.5zM266 610q-18 0 -29.5 12t-11.5 30q0 20 14.5 34t34.5 14q18 0 29.5 -12t11.5 -30q0 -20 -14.5 -34t-34.5 -14zM436 610
q-18 0 -29.5 12t-11.5 30q0 20 14.5 34t34.5 14q18 0 29.5 -12t11.5 -30q0 -20 -14.5 -34t-34.5 -14z" />
    <glyph glyph-name="Germandbls" horiz-adv-x="700" 
d="M440 370h-35l12 65l215 200h-211q-85 0 -129 -39.5t-59 -124.5l-83 -471h-65l85 481q18 105 84 162t178 57h298l-10 -61l-223 -204l-1 -5q99 -18 149 -69t50 -128q0 -100 -73.5 -166.5t-194.5 -66.5h-107l11 60h99q91 0 145.5 47.5t54.5 117.5q0 60 -49.5 102.5
t-140.5 42.5z" />
    <glyph glyph-name="l.alt" horiz-adv-x="220" 
d="M263 700l-123 -700h-60l123 700h60z" />
    <glyph glyph-name="g.alt" horiz-adv-x="555" 
d="M411 500h233l-10 -55h-143q15 -13 25 -29q26 -38 26 -82q0 -81 -64 -137.5t-159 -56.5q-36 0 -70 8q-17 5 -26 9l-13 -74h8q6 0 9 1h12q130 0 197.5 -46t67.5 -102q0 -54 -58.5 -95t-164.5 -41q-130 0 -196.5 46t-66.5 102q0 50 42.5 82t93.5 45l20 112q-18 13 -31 31
q-31 41 -31 94q0 84 63.5 141t159.5 57q35 0 57 -5zM322 195q69 0 114.5 40.5t45.5 97.5q0 51 -40.5 86.5t-109.5 35.5t-114.5 -40.5t-45.5 -97.5q0 -51 40.5 -86.5t109.5 -35.5zM288 -145q76 0 116 25t40 54q0 34 -52.5 64.5t-157.5 30.5q-76 0 -116 -25t-40 -54
q0 -34 52.5 -64.5t157.5 -30.5z" />
    <glyph glyph-name="a.alt" horiz-adv-x="560" 
d="M145 132q0 -40 33.5 -63.5t93.5 -23.5q77 0 134 53.5t67 136.5h-205q-59 0 -91 -28.5t-32 -74.5zM260 -10q-79 0 -127 37t-48 102q0 70 51 115.5t136 45.5h210l4 21q3 17 3 31q0 41 -24 73q-33 40 -107 40q-75 0 -124 -53q-22 -22 -36 -52h-61q17 46 48 80q70 80 175 80
q78 0 125 -33t59 -90q4 -17 4 -41q0 -20 -3 -39l-53 -307h-61l14 78q-17 -22 -47 -44q-59 -44 -138 -44z" />
    <glyph glyph-name="afii10085.alt" horiz-adv-x="505" 
d="M245 -59l29 59h-125l-47 500h66l37 -445h94l208 445h65l-269 -565q-30 -64 -70.5 -94.5t-101.5 -30.5h-95l10 55h94q37 0 60.5 17.5t44.5 58.5z" />
    <glyph glyph-name="y.alt" horiz-adv-x="505" 
d="M245 -59l29 59h-125l-47 500h66l37 -445h94l208 445h65l-269 -565q-30 -64 -70.5 -94.5t-101.5 -30.5h-95l10 55h94q37 0 60.5 17.5t44.5 58.5z" />
    <glyph glyph-name="I.alt" horiz-adv-x="485" 
d="M163 640l10 60h385l-10 -60h-160l-102 -580h160l-11 -60h-385l11 60h160l102 580h-160z" />
    <glyph glyph-name="afii10065.alt" horiz-adv-x="560" 
d="M145 132q0 -40 33.5 -63.5t93.5 -23.5q77 0 134 53.5t67 136.5h-205q-59 0 -91 -28.5t-32 -74.5zM260 -10q-79 0 -127 37t-48 102q0 70 51 115.5t136 45.5h210l4 21q3 17 3 31q0 41 -24 73q-33 40 -107 40q-75 0 -124 -53q-22 -22 -36 -52h-61q17 46 48 80q70 80 175 80
q78 0 125 -33t59 -90q4 -17 4 -41q0 -20 -3 -39l-53 -307h-61l14 78q-17 -22 -47 -44q-59 -44 -138 -44z" />
    <glyph glyph-name="nine.taboldstyle" horiz-adv-x="560" 
d="M572 295q0 -36 -10.5 -70.5t-22 -58t-37 -55t-38 -44.5t-42.5 -43l-213 -214h-76l249 243l2 5q-10 -8 -24 -12q-24 -11 -64 -11q-95 0 -155.5 64t-60.5 154q0 107 77.5 182t186.5 75q100 0 164 -62.5t64 -152.5zM340 455q-80 0 -140 -57.5t-60 -144.5q0 -68 48.5 -115.5
t123.5 -47.5q80 0 140 57.5t60 144.5q0 68 -48.5 115.5t-123.5 47.5z" />
    <glyph glyph-name="eight.taboldstyle" horiz-adv-x="560" 
d="M317 -10q-103 0 -178.5 52.5t-75.5 140.5q0 105 89 162q38 24 90 35v5q-27 14 -45 31q-44 40 -44 103q0 79 63.5 135t164.5 56q103 0 162 -50.5t59 -122.5q0 -88 -72 -138q-31 -22 -71 -33v-5q34 -14 57 -35q57 -51 57 -123q0 -87 -71 -150t-185 -63zM213 523
q0 -51 44 -87t122 -36q73 0 118 39t45 93q0 51 -44 87t-122 36q-73 0 -118 -39t-45 -93zM314 45q85 0 142 46.5t57 107.5q0 57 -52.5 101.5t-138.5 44.5q-85 0 -142 -46.5t-57 -107.5q0 -57 52.5 -101.5t138.5 -44.5z" />
    <glyph glyph-name="seven.taboldstyle" horiz-adv-x="560" 
d="M104 310l34 190h470l-10 -55l-402 -635h-65l402 635h-345l-24 -135h-60z" />
    <glyph glyph-name="six.taboldstyle" horiz-adv-x="560" 
d="M82 205q0 36 10.5 70.5t22 58t37 55t38 44.5t42.5 43l223 224h76l-259 -253l-2 -5q13 7 24 11q26 12 64 12q93 0 154.5 -64t61.5 -154q0 -107 -77.5 -182t-186.5 -75q-100 0 -164 62.5t-64 152.5zM314 45q80 0 140 57.5t60 144.5q0 68 -48.5 115.5t-123.5 47.5
q-80 0 -140 -57.5t-60 -144.5q0 -68 48.5 -115.5t123.5 -47.5z" />
    <glyph glyph-name="five.taboldstyle" horiz-adv-x="560" 
d="M155 115h-54l92 385h370l-9 -55h-315l-56 -238q14 13 35 24q46 24 104 24q89 0 147.5 -58t58.5 -148q0 -107 -72.5 -178t-174.5 -71q-131 0 -190 97q-27 46 -31 98h65q6 -38 24 -70q42 -70 136 -70q77 0 130 53.5t53 135.5q0 67 -44 111.5t-114 44.5q-62 0 -117 -43
q-24 -19 -38 -42z" />
    <glyph glyph-name="four.taboldstyle" horiz-adv-x="560" 
d="M411 -190h-60l34 190h-330l10 55l328 445h70l-328 -445h260l35 200h60l-35 -200h105l-10 -55h-105z" />
    <glyph glyph-name="three.taboldstyle" horiz-adv-x="560" 
d="M502 16q0 -91 -66 -153.5t-165 -62.5q-132 0 -195 95q-27 40 -36 95h65l2 -10q3 -16 11.5 -33.5t25.5 -40t51 -37t78 -14.5q74 0 121.5 43.5t47.5 113.5q0 54 -41.5 91t-115.5 37h-76l10 55h106q68 0 111 39.5t43 99.5q0 52 -38 86.5t-103 34.5q-76 0 -129 -53
q-22 -22 -36 -52h-62q20 46 51 80q72 80 178 80q91 0 145.5 -50.5t54.5 -122.5q0 -87 -67 -138q-27 -21 -66 -32l-2 -5q27 -14 48 -33q49 -47 49 -113z" />
    <glyph glyph-name="two.taboldstyle" horiz-adv-x="560" 
d="M358 136l-170 -81h325l-10 -55h-430l10 55l245 125q85 43 122.5 78.5t37.5 89.5q0 45 -38 76t-105 31q-74 0 -121 -53q-20 -22 -33 -52h-66q17 47 46 80q66 80 176 80q94 0 147.5 -45.5t53.5 -112.5q0 -75 -45.5 -122.5t-144.5 -93.5z" />
    <glyph glyph-name="one.taboldstyle" horiz-adv-x="560" 
d="M100 0l10 55h180l65 370l-148 -100l13 70l153 105h55l-78 -445h170l-10 -55h-410z" />
    <glyph glyph-name="zero.taboldstyle" horiz-adv-x="560" 
d="M127 225q0 -79 49.5 -129.5t129.5 -50.5q86 0 150 65t64 165q0 79 -49.5 129.5t-129.5 50.5q-86 0 -150 -65t-64 -165zM67 221q0 124 83 206.5t195 82.5q104 0 169.5 -65t65.5 -166q0 -124 -83 -206.5t-195 -82.5q-104 0 -169.5 65t-65.5 166z" />
    <glyph glyph-name="at.case" horiz-adv-x="815" 
d="M544 205l8 44q-11 -17 -25 -27q-31 -27 -80 -27q-58 0 -97.5 41t-39.5 106q0 78 51.5 130.5t116.5 52.5q45 0 71 -19t35 -40l4 -11l11 60h60l-45 -255h6q68 0 118.5 52t50.5 141q0 91 -75 159t-203 68q-139 0 -240.5 -102t-101.5 -255q0 -125 81 -204t214 -79
q62 0 117 17q28 8 46 18l-10 -55q-18 -10 -46 -18q-55 -17 -116 -17q-153 0 -249 96t-96 240q0 173 121 293.5t285 120.5q149 0 241 -85.5t92 -196.5q0 -115 -73.5 -181.5t-200.5 -66.5h-31zM461 250q43 0 77 36t34 89q0 44 -25 69.5t-65 25.5q-43 0 -77 -36t-34 -89
q0 -44 25 -69.5t65 -25.5z" />
    <glyph glyph-name="parenleft.case" horiz-adv-x="365" 
d="M474 815l27 -48q-134 -86 -208.5 -218.5t-74.5 -273.5q0 -137 68 -254q30 -53 69 -93l-41 -43q-48 45 -81 101q-81 132 -81 285q0 227 161 410q70 79 161 134z" />
    <glyph glyph-name="parenright.case" horiz-adv-x="365" 
d="M18 -118l-27 48q134 86 208.5 218.5t74.5 273.5q0 136 -69 254q-29 51 -68 93l41 43q47 -45 81 -101q81 -136 81 -285q0 -229 -161 -410q-68 -77 -161 -134z" />
    <glyph glyph-name="bracketleft.case" horiz-adv-x="325" 
d="M437 725h-145l-132 -750h145l-11 -60h-210l153 870h210z" />
    <glyph glyph-name="bracketright.case" horiz-adv-x="325" 
d="M288 725h-145l10 60h210l-153 -870h-210l11 60h145z" />
    <glyph glyph-name="braceleft.case" horiz-adv-x="340" 
d="M206 355l-1 -5q18 -5 27 -14q9 -6 17 -24q4 -8 4 -22q0 -6 -2 -20l-41 -235q-1 -5 -1 -12q0 -17 11 -31q14 -17 44 -17h60l-10 -60h-60q-61 0 -89 34q-22 25 -22 62q0 8 2 24l41 235q1 5 1 15q0 40 -46 40h-30l10 55h30q55 0 64 55l41 230q9 53 50.5 86.5t100.5 33.5h60
l-10 -60h-60q-30 0 -50.5 -16.5t-25.5 -43.5l-41 -230q-9 -45 -42 -66q-12 -9 -32 -14z" />
    <glyph glyph-name="braceright.case" horiz-adv-x="340" 
d="M257 350l1 5q-19 5 -28 14q-10 7 -16 24q-4 8 -4 22q0 6 2 20l40 230q1 5 1 13q0 17 -10 30q-15 17 -45 17h-60l10 60h60q61 0 89 -34q22 -25 22 -62q0 -8 -2 -24l-40 -230q-1 -5 -1 -15q0 -40 46 -40h30l-10 -55h-30q-55 0 -64 -55l-42 -235q-9 -53 -50.5 -86.5
t-100.5 -33.5h-60l11 60h60q29 0 49.5 16.5t25.5 43.5l42 235q9 45 41 66q13 9 33 14z" />
    <glyph glyph-name="nine.tab" horiz-adv-x="600" 
d="M631 494q0 -34 -9 -65.5t-16.5 -50t-35 -51.5t-36.5 -42.5t-50 -48.5l-18 -18l-223 -218h-80l240 234l-11 -2q-14 -2 -34 -2q-109 0 -179.5 62.5t-70.5 163.5q0 110 82 187t197 77q108 0 176 -65.5t68 -160.5zM381 660q-87 0 -147.5 -58t-60.5 -144q0 -73 51 -120.5
t134 -47.5q87 0 147.5 57.5t60.5 144.5q0 73 -51 120.5t-134 47.5z" />
    <glyph glyph-name="afii10069.alt" horiz-adv-x="570" 
d="M20 55h55q18 8 32 25q34 40 48 115l54 305h359l-78 -445h75l-31 -175h-60l21 120h-425l-21 -120h-60zM259 445l-44 -250q-14 -65 -42 -109q-13 -19 -28 -31h285l69 390h-240z" />
    <glyph glyph-name="nine.dnom" horiz-adv-x="330" 
d="M213 350q61 0 99 -32.5t38 -79.5q0 -63 -73 -136l-108 -102h-77l98 91l34 21l1 5l-11 -4q-10 -3 -23 -3q-55 0 -88.5 34.5t-33.5 78.5q0 52 41.5 89.5t102.5 37.5zM209 295q-35 0 -57.5 -20.5t-22.5 -47.5t21.5 -44.5t59.5 -17.5q35 0 57.5 20.5t22.5 47.5t-21.5 44.5
t-59.5 17.5z" />
    <glyph glyph-name="eight.dnom" horiz-adv-x="370" 
d="M210 -10q-69 0 -112 27t-43 72t41 74q18 11 42 18l1 5q-13 6 -21 16q-21 21 -21 50q0 41 35 69.5t95 28.5q67 0 103 -27.5t36 -65.5q0 -41 -34 -67q-16 -11 -34 -18l-1 -5q15 -7 28 -18q28 -22 28 -58q0 -41 -38.5 -71t-104.5 -30zM162 247q0 -17 18 -29.5t57 -12.5
q64 0 64 48q0 17 -18 29.5t-57 12.5q-64 0 -64 -48zM294 93q0 21 -24.5 36.5t-74.5 15.5q-40 0 -60.5 -14t-20.5 -34q0 -21 24.5 -36.5t74.5 -15.5q40 0 60.5 14t20.5 34z" />
    <glyph glyph-name="seven.dnom" horiz-adv-x="285" 
d="M69 285l10 55h255l-10 -55l-200 -285h-65l200 285h-190z" />
    <glyph glyph-name="six.dnom" horiz-adv-x="330" 
d="M186 -10q-61 0 -99 32.5t-38 79.5q0 63 73 136l108 102h77l-98 -91l-34 -21l-1 -5l11 3q9 4 23 4q55 0 88.5 -34.5t33.5 -78.5q0 -52 -41.5 -89.5t-102.5 -37.5zM190 45q35 0 57.5 20.5t22.5 47.5t-21.5 44.5t-59.5 17.5q-35 0 -57.5 -20.5t-22.5 -47.5t21.5 -44.5
t59.5 -17.5z" />
    <glyph glyph-name="five.dnom" horiz-adv-x="345" 
d="M137 140l-50 10l43 190h225l-9 -55h-170l-19 -80q5 5 17 10q24 10 55 10q52 0 84.5 -30.5t32.5 -74.5q0 -57 -39.5 -93.5t-99.5 -36.5q-82 0 -119 52q-18 24 -22 53h65q3 -15 13 -25q21 -25 65 -25q36 0 56.5 19.5t20.5 45.5q0 27 -20.5 43.5t-57.5 16.5q-26 0 -52 -15
q-14 -10 -19 -15z" />
    <glyph glyph-name="four.dnom" horiz-adv-x="320" 
d="M257 0h-60l13 75h-175l10 55l172 210h65l-172 -210h110l12 70h60l-12 -70h50l-10 -55h-50z" />
    <glyph glyph-name="three.dnom" horiz-adv-x="345" 
d="M347 285l-119 -75q52 -7 79.5 -34.5t27.5 -67.5q0 -49 -38.5 -83.5t-98.5 -34.5q-82 0 -119 52q-18 24 -22 53h65q3 -15 13 -25q21 -25 66 -25q35 0 54.5 17.5t19.5 45.5q0 52 -80 52h-61l9 50l119 75h-155l9 55h240z" />
    <glyph glyph-name="two.dnom" horiz-adv-x="350" 
d="M150 55h186l-10 -55h-280l10 55l94 50q92 48 123.5 74t31.5 61q0 25 -18 40t-55 15q-40 0 -66 -30q-11 -12 -19 -30h-61q10 29 31 57q46 58 117 58q61 0 96 -30.5t35 -74.5q0 -52 -50.5 -96t-164.5 -94z" />
    <glyph glyph-name="one.dnom" horiz-adv-x="340" 
d="M65 0l10 55h100l38 220l-99 -55l11 65l105 55h55l-50 -285h95l-10 -55h-255z" />
    <glyph glyph-name="zero.dnom" horiz-adv-x="370" 
d="M208 45q45 0 77.5 41.5t32.5 110.5q0 47 -22 72.5t-61 25.5q-44 0 -77 -42t-33 -110q0 -47 22 -72.5t61 -25.5zM203 -10q-60 0 -99 42t-39 109q0 93 52.5 151t122.5 58q60 0 99 -42t39 -109q0 -93 -52.5 -151t-122.5 -58z" />
    <glyph glyph-name="nine.numr" horiz-adv-x="330" 
d="M253 710q61 0 99 -32.5t38 -79.5q0 -63 -73 -136l-108 -102h-77l98 91l34 21l1 5l-11 -4q-11 -3 -23 -3q-55 0 -88.5 34.5t-33.5 78.5q0 52 41.5 89.5t102.5 37.5zM249 655q-35 0 -57.5 -20.5t-22.5 -47.5t21.5 -44.5t59.5 -17.5q35 0 57.5 20.5t22.5 47.5t-21.5 44.5
t-59.5 17.5z" />
    <glyph glyph-name="eight.numr" horiz-adv-x="370" 
d="M270 350q-69 0 -112 27t-43 72t41 74q18 11 42 18l1 5q-13 6 -21 16q-21 21 -21 50q0 41 35 69.5t95 28.5q67 0 103 -27.5t36 -65.5q0 -41 -34 -67q-16 -11 -34 -18l-1 -5q15 -7 28 -18q28 -22 28 -58q0 -41 -38.5 -71t-104.5 -30zM222 607q0 -17 18 -29.5t57 -12.5
q64 0 64 48q0 17 -18 29.5t-57 12.5q-64 0 -64 -48zM354 453q0 21 -24.5 36.5t-74.5 15.5q-40 0 -60.5 -14t-20.5 -34q0 -21 24.5 -36.5t74.5 -15.5q40 0 60.5 14t20.5 34z" />
    <glyph glyph-name="seven.numr" horiz-adv-x="285" 
d="M133 645l10 55h255l-10 -55l-200 -285h-65l200 285h-190z" />
    <glyph glyph-name="six.numr" horiz-adv-x="330" 
d="M236 350q-61 0 -99 32.5t-38 79.5q0 63 73 136l108 102h77l-98 -91l-34 -21l-1 -5l11 3q9 4 23 4q55 0 88.5 -34.5t33.5 -78.5q0 -52 -41.5 -89.5t-102.5 -37.5zM240 405q35 0 57.5 20.5t22.5 47.5t-21.5 44.5t-59.5 17.5q-35 0 -57.5 -20.5t-22.5 -47.5t21.5 -44.5
t59.5 -17.5z" />
    <glyph glyph-name="five.numr" horiz-adv-x="345" 
d="M183 500l-50 10l43 190h225l-9 -55h-170l-19 -80q5 5 17 10q24 10 55 10q52 0 84.5 -30.5t32.5 -74.5q0 -57 -39.5 -93.5t-99.5 -36.5q-82 0 -119 52q-18 24 -22 53h65q3 -15 13 -25q21 -25 65 -25q36 0 56.5 19.5t20.5 45.5q0 27 -20.5 43.5t-57.5 16.5q-26 0 -52 -15
q-14 -10 -19 -15z" />
    <glyph glyph-name="four.numr" horiz-adv-x="320" 
d="M307 360h-60l13 75h-175l10 55l172 210h65l-172 -210h110l12 70h60l-12 -70h50l-10 -55h-50z" />
    <glyph glyph-name="three.numr" horiz-adv-x="345" 
d="M395 645l-119 -75q52 -7 79.5 -34.5t27.5 -67.5q0 -49 -38.5 -83.5t-98.5 -34.5q-82 0 -119 52q-18 24 -22 53h65q3 -15 13 -25q21 -25 66 -25q35 0 54.5 17.5t19.5 45.5q0 52 -80 52h-61l9 50l119 75h-155l9 55h240z" />
    <glyph glyph-name="two.numr" horiz-adv-x="350" 
d="M195 415h186l-10 -55h-280l10 55l94 50q92 48 123.5 74t31.5 61q0 25 -18 40t-55 15q-40 0 -66 -30q-11 -12 -19 -30h-61q10 29 31 57q46 58 117 58q61 0 96 -30.5t35 -74.5q0 -52 -50.5 -96t-164.5 -94z" />
    <glyph glyph-name="one.numr" horiz-adv-x="340" 
d="M109 360l10 55h100l38 220l-99 -55l11 65l105 55h55l-50 -285h95l-10 -55h-255z" />
    <glyph glyph-name="zero.numr" horiz-adv-x="370" 
d="M248 405q45 0 77.5 41.5t32.5 110.5q0 47 -22 72.5t-61 25.5q-44 0 -77 -42t-33 -110q0 -47 22 -72.5t61 -25.5zM243 350q-60 0 -99 42t-39 109q0 93 52.5 151t122.5 58q60 0 99 -42t39 -109q0 -93 -52.5 -151t-122.5 -58z" />
    <glyph glyph-name="eight.tab" horiz-adv-x="600" 
d="M339 -20q-108 0 -188.5 54.5t-80.5 148.5q0 51 20.5 91t51.5 62t55 32.5t45 15.5l12 2q-29 13 -47 31q-47 45 -47 107q0 79 67 137.5t175 58.5q110 0 173.5 -53t63.5 -126q0 -43 -16 -76.5t-42 -53t-44 -28.5t-36 -15q-2 -1 -5 -2l-5 -1q36 -15 59 -35q60 -48 60 -127
q0 -91 -75 -157t-196 -66zM401 400q78 0 126 42.5t48 95.5q0 50 -46.5 86t-131.5 36q-79 0 -126 -42t-47 -96q0 -50 46 -86t131 -36zM345 40q91 0 145.5 45.5t54.5 111.5q0 60 -55.5 102t-155.5 42q-91 0 -145.5 -45.5t-54.5 -111.5q0 -60 55 -102t156 -42z" />
    <glyph glyph-name="seven.tab" horiz-adv-x="600" 
d="M255 0h-70l408 640h-370l-24 -135h-65l34 195h505l-10 -60z" />
    <glyph glyph-name="six.tab" horiz-adv-x="600" 
d="M85 206q0 34 9 65.5t16.5 50t35 51.5t36.5 42.5t50 48.5l18 18l223 218h80l-240 -234l11 2q14 2 34 2q109 0 179.5 -62.5t70.5 -163.5q0 -110 -82 -187t-197 -77q-108 0 -176 65.5t-68 160.5zM335 40q87 0 147.5 57.5t60.5 144.5q0 73 -51 120.5t-134 47.5
q-87 0 -147.5 -58t-60.5 -144q0 -73 51 -120.5t134 -47.5z" />
    <glyph glyph-name="five.tab" horiz-adv-x="600" 
d="M276 640l-60 -231q21 17 38 25q50 26 108 26q104 0 170 -62t66 -156q0 -110 -79 -186t-190 -76q-144 0 -207 100q-30 45 -37 100h64q9 -37 32 -70q50 -70 155 -70q82 0 139 57t57 143q0 72 -48.5 116t-126.5 44q-67 0 -123 -38q-24 -15 -42 -37h-55l95 375h405l-11 -60
h-350z" />
    <glyph glyph-name="four.tab" horiz-adv-x="600" 
d="M491 0h-65l28 160h-375l11 60l334 480h70l-334 -480h305l33 190h65l-33 -190h105l-11 -60h-105z" />
    <glyph glyph-name="three.tab" horiz-adv-x="600" 
d="M342 420h16q103 0 166.5 -61.5t63.5 -143.5q0 -97 -75.5 -166t-185.5 -69q-153 0 -216 100q-28 43 -36 100h63q7 -37 32 -70q54 -70 162 -70q84 0 137.5 48.5t53.5 123.5q0 63 -48.5 105.5t-126.5 42.5h-107l11 60l288 220h-355l11 60h445l-11 -60z" />
    <glyph glyph-name="two.tab" horiz-adv-x="600" 
d="M353 190l-192 -130h390l-11 -60h-490l11 60l244 165q15 10 49 32.5t45.5 30.5t37.5 26.5t35 26.5t27.5 24.5t24.5 26.5t17 25.5t14.5 29t6.5 30.5t3 36q0 63 -45.5 105t-120.5 42q-88 0 -144 -78q-26 -35 -39 -77h-71q18 59 51 107q76 108 205 108q102 0 165.5 -59
t63.5 -145q0 -51 -16 -92t-60.5 -83t-74.5 -64t-104 -72q-14 -10 -22 -15z" />
    <glyph glyph-name="one.tab" horiz-adv-x="600" 
d="M80 0l11 60h205l99 565l-147 -100l12 70l153 105h60l-112 -640h195l-11 -60h-465z" />
    <glyph glyph-name="zero.tab" horiz-adv-x="600" 
d="M328 40q87 0 148.5 53t77.5 143l33 190q5 28 5 49q0 22 -5 45q-14 65 -65 102.5t-132 37.5q-87 0 -148.5 -53t-77.5 -143l-33 -190q-4 -21 -4 -46q0 -22 5 -47q14 -65 65 -103t131 -38zM326 -20q-106 0 -173.5 49t-85.5 132q-7 27 -7 60q0 29 6 60l34 189
q20 115 99 182.5t193 67.5q105 0 172.5 -49t87.5 -132q6 -28 6 -58t-6 -62l-34 -189q-20 -115 -99 -182.5t-193 -67.5z" />
    <glyph glyph-name="afii10021.alt" horiz-adv-x="730" 
d="M16 60h70q24 13 48 46q51 68 75 199l70 395h465l-113 -640h95l-35 -200h-65l25 140h-580l-25 -140h-65zM334 640l-60 -335q-24 -130 -68 -199q-20 -32 -40 -46h400l103 580h-335z" />
    <glyph glyph-name="f.alt" horiz-adv-x="305" 
d="M373 500l-10 -55h-135l-78 -445h-60l78 445h-70l10 55h70l11 63q26 137 148 137h101l-9 -55h-93q-72 0 -88 -88l-10 -57h135z" />
    <glyph glyph-name="t.alt" horiz-adv-x="355" 
d="M233 445l-51 -290q-3 -17 -3 -30q0 -31 15 -47q21 -23 66 -23h74l-9 -55h-70q-75 0 -111 40q-26 29 -26 76q0 16 3 36l52 293h-70l10 55h70l19 110h60l-19 -110h165l-10 -55h-165z" />
    <glyph glyph-name="j.alt" horiz-adv-x="220" 
d="M72 -40l96 540h60l-96 -540q-13 -76 -49.5 -113t-102.5 -37h-78l10 55h69q74 0 91 95zM221 605q-18 0 -29.5 12t-11.5 30q0 20 14.5 34t34.5 14q18 0 29.5 -12t11.5 -30q0 -20 -14.5 -34t-34.5 -14z" />
    <glyph glyph-name="afii10055.alt" horiz-adv-x="485" 
d="M163 640l10 60h385l-10 -60h-160l-102 -580h160l-11 -60h-385l11 60h160l102 580h-160z" />
    <glyph glyph-name="afii10056.alt" horiz-adv-x="485" 
d="M163 640l10 60h385l-10 -60h-160l-102 -580h160l-11 -60h-385l11 60h160l102 580h-160zM291 785q-18 0 -29.5 12t-11.5 30q0 20 14.5 34t34.5 14q18 0 29.5 -12t11.5 -30q0 -20 -14.5 -34t-34.5 -14zM461 785q-18 0 -29.5 12t-11.5 30q0 20 14.5 34t34.5 14
q18 0 29.5 -12t11.5 -30q0 -20 -14.5 -34t-34.5 -14z" />
    <glyph glyph-name="afii10061.alt" horiz-adv-x="680" 
d="M546 914h75l-141 -145h-50zM538 355q21 -6 36 -21q12 -12 22 -38q4 -11 4 -28q0 -19 -4 -38l-19 -105q-1 -5 -1 -13q0 -23 13 -37q17 -20 46 -20h30l-11 -60h-30q-44 0 -73.5 21t-37.5 57q-3 13 -3 27q0 7 2 25l19 105q3 15 3 27q0 68 -82 68h-240l-57 -325h-65l123 700
h65l-55 -315h230q95 0 112 95l16 95q10 57 54 93.5t104 36.5h30l-10 -60h-30q-30 0 -54 -20t-29 -50l-16 -95q-14 -73 -53 -104q-18 -16 -39 -21z" />
    <glyph glyph-name="afii10051.alt" horiz-adv-x="770" 
d="M744 169l-11 -65q-17 -98 -83 -153.5t-167 -55.5h-32l10 60h27q151 0 180 155l12 65q4 17 4 38q0 20 -4 35q-12 52 -53.5 82t-107.5 30h-176l-64 -360h-65l113 640h-215l11 60h520l-11 -60h-240l-39 -220h171q84 0 141 -40.5t77 -109.5q7 -24 7 -53q0 -20 -5 -48z" />
    <glyph glyph-name="afii10058.alt" horiz-adv-x="1110" 
d="M211 290l72 410h455l-44 -250h192q107 0 169 -59t62 -144q0 -106 -72.5 -176.5t-185.5 -70.5h-309l113 640h-325l-62 -350q-31 -171 -85 -235.5t-143 -64.5q-24 0 -42 5q-6 1 -16 5l11 60q8 -4 13 -5q15 -5 35 -5q61 0 99 51t63 189zM886 390h-202l-58 -330h237
q87 0 138 51t51 133q0 63 -44.5 104.5t-121.5 41.5z" />
    <glyph glyph-name="afii10099.alt" horiz-adv-x="575" 
d="M554 198l-44 -250q-12 -66 -52 -102t-100 -36h-73l10 55h67q74 0 89 88l45 256q4 20 4 41q0 9 -2 25q-17 100 -128 100q-66 0 -119 -46t-65 -118l-37 -211h-60l93 530h-70l10 55h70l20 115h60l-20 -115h130l-10 -55h-130l-31 -180q16 22 40 40q54 40 130 40
q74 0 119 -36.5t56 -101.5q3 -20 3 -39q0 -23 -5 -55z" />
    <glyph glyph-name="afii10105.alt" horiz-adv-x="220" 
d="M72 -40l96 540h60l-96 -540q-13 -76 -49.5 -113t-102.5 -37h-78l10 55h69q74 0 91 95zM221 605q-18 0 -29.5 12t-11.5 30q0 20 14.5 34t34.5 14q18 0 29.5 -12t11.5 -30q0 -20 -14.5 -34t-34.5 -14z" />
    <glyph glyph-name="afii10106.alt" horiz-adv-x="835" 
d="M263 445l-46 -260q-20 -105 -59.5 -147.5t-109.5 -42.5q-24 0 -35 4q-5 1 -13 5l10 54l10 -4q9 -4 28 -4q44 0 69.5 30t39.5 105l56 315h355l-32 -180h124q80 0 127.5 -41.5t47.5 -104.5q0 -74 -54 -124t-133 -50h-228l78 445h-235zM660 265h-133l-37 -210h160
q54 0 89.5 32.5t35.5 82.5q0 40 -30.5 67.5t-84.5 27.5z" />
    <glyph glyph-name="afii10109.alt" horiz-adv-x="530" 
d="M392 95l11 65q2 14 2 19q0 46 -55 46h-170l-40 -225h-60l88 500h60l-39 -220h160q65 0 77 65l10 60q8 46 42 73t86 27h20l-10 -55h-20q-48 0 -59 -55l-11 -60q-9 -46 -37 -66q-10 -9 -27 -14q15 -4 27 -16q9 -9 17 -26q3 -9 3 -21q0 -6 -2 -22l-11 -65q-2 -10 -2 -15
q0 -14 8 -25q10 -15 34 -15h20l-10 -55h-20q-54 0 -76 28q-18 19 -18 51q0 7 2 21zM441 715h75l-141 -145h-50z" />
    <glyph glyph-name="ff.alt" 
d="M488 500l11 63q26 137 148 137h101l-9 -55h-93q-72 0 -88 -88l-10 -57h135l-10 -55h-135l-78 -445h-60l78 445h-245l-78 -445h-60l78 445h-70l10 55h70l11 63q26 137 148 137h101l-9 -55h-93q-72 0 -88 -88l-10 -57h245z" />
    <glyph glyph-name="fi.alt" horiz-adv-x="540" 
d="M243 500h305l-88 -500h-60l78 445h-245l-78 -445h-60l78 445h-70l10 55h70l11 63q26 137 148 137h211l-9 -55h-203q-72 0 -88 -88z" />
    <glyph glyph-name="f_j.alt" horiz-adv-x="540" 
d="M548 500l-95 -540q-15 -77 -51 -113.5t-101 -36.5h-78l10 55h69q74 0 91 95l85 485h-245l-78 -445h-60l78 445h-70l10 55h70l11 63q24 137 148 137h211l-9 -55h-203q-72 0 -88 -88l-10 -57h305z" />
    <glyph glyph-name="fl.alt" horiz-adv-x="540" 
d="M400 0l95 540q2 14 2 20q0 36 -24 62q-30 33 -94 33q-52 0 -84 -26t-41 -69l-11 -60h135l-10 -55h-135l-78 -445h-60l78 445h-70l10 55h70l12 66q12 65 61.5 104.5t125.5 39.5q67 0 111.5 -29.5t58.5 -78.5q5 -20 5 -38q0 -15 -3 -30l-94 -534h-60z" />
    <glyph glyph-name="f_t.alt" horiz-adv-x="660" 
d="M548 500h165l-10 -55h-165l-51 -290q-3 -17 -3 -30q0 -31 15 -47q21 -23 66 -23h74l-9 -55h-70q-75 0 -111 40q-26 29 -26 76q0 16 3 36l52 293h-245l-78 -445h-60l78 445h-70l10 55h70l12 66q12 65 61.5 104.5t125.5 39.5q67 0 111.5 -29.5t58.5 -78.5q5 -20 5 -38
q0 -15 -3 -30zM488 500l7 40q2 14 2 20q0 36 -24 62q-30 33 -94 33q-52 0 -84 -26t-41 -69l-11 -60h245z" />
    <glyph glyph-name="afii10072.alt" horiz-adv-x="760" 
d="M627 95l11 65q2 14 2 19q0 46 -55 46h-130l-40 -225h-60l40 225h-130q-65 0 -77 -65l-11 -65q-8 -46 -42 -73t-86 -27h-20l10 55h20q48 0 59 55l12 65q10 61 74 85q-3 0 -9.5 3t-14 13t-11.5 24q-2 10 -2 18q0 6 2 22l11 60q2 10 2 15q0 15 -8 26q-12 14 -35 14h-20
l10 55h20q53 0 77 -27q17 -22 17 -51q0 -6 -2 -22l-10 -60q-2 -14 -2 -19q0 -46 55 -46h120l39 220h60l-39 -220h120q65 0 77 65l10 60q8 46 42 73t86 27h20l-10 -55h-20q-49 0 -60 -55l-10 -60q-6 -30 -22 -50t-26.5 -25t-15.5 -5q3 0 10 -3.5t17.5 -14.5t15.5 -25
q4 -9 4 -23q0 -5 -2 -19l-12 -65q-1 -5 -1 -14q0 -15 8 -26q11 -15 34 -15h20l-10 -55h-20q-54 0 -76 28q-18 19 -18 51q0 7 2 21z" />
    <glyph glyph-name="A_A" horiz-adv-x="1225" 
d="M1150 0l-19 230h-370l-101 -230h-60l-19 230h-370l-101 -230h-65l308 700h250l51 -565l249 565h250l62 -700h-65zM1093 640h-150l-157 -350h340zM543 640h-150l-157 -350h340z" />
    <glyph glyph-name="A_R" horiz-adv-x="1060" 
d="M353 700h517q106 0 167 -54.5t61 -138.5q0 -97 -61 -162t-163 -73l131 -272h-75l-127 270h-215l-48 -270h-65l47 270h-294l-118 -270h-65zM860 640h-207l-55 -310h254q84 0 132.5 47.5t48.5 126.5q0 63 -44 99.5t-129 36.5zM388 640l-135 -310h280l54 310h-199z" />
    <glyph glyph-name="A_T" horiz-adv-x="735" 
d="M645 0l-19 230h-175l-41 -230h-65l41 230h-175l-101 -230h-65l282 640h-119l10 60h565l-10 -60h-119l56 -640h-65zM458 640h-65l-157 -350h160zM588 640h-65l-62 -350h160z" />
    <glyph glyph-name="A_V" horiz-adv-x="1055" 
d="M661 60h142l277 640h73l-308 -700h-245l-19 230h-370l-101 -230h-65l308 700h250zM543 640h-150l-157 -350h340z" />
    <glyph glyph-name="C_E" horiz-adv-x="800" 
d="M390 240h190l-10 -60h-255l60 340h255l-11 -60h-190l-13 -75h140l-11 -60h-140zM743 245h67q-29 -73 -80 -133q-112 -132 -288 -132q-149 0 -241.5 92t-92.5 236q0 88 32.5 165.5t86.5 131t126 84.5t149 31t140 -26t100 -66t58 -80.5t26 -77.5h-66q-17 54 -49 95
q-73 95 -216 95q-132 0 -227 -98t-95 -252q0 -120 75.5 -195t197.5 -75q140 0 232 102q39 43 65 103z" />
    <glyph glyph-name="C_O" horiz-adv-x="800" 
d="M743 245h67q-29 -73 -80 -133q-112 -132 -288 -132q-149 0 -241.5 92t-92.5 236q0 88 32.5 165.5t86.5 131t126 84.5t149 31t140 -26t100 -66t58 -80.5t26 -77.5h-66q-17 54 -49 95q-73 95 -216 95q-132 0 -227 -98t-95 -252q0 -120 75.5 -195t197.5 -75q140 0 232 102
q39 43 65 103zM466 240q47 0 81.5 34.5t34.5 87.5q0 43 -27 70.5t-69 27.5q-47 0 -81.5 -34.5t-34.5 -87.5q0 -43 27 -70.5t69 -27.5zM461 180q-68 0 -112 44t-44 109q0 78 55.5 132.5t130.5 54.5q68 0 112 -44t44 -109q0 -78 -55.5 -132.5t-130.5 -54.5z" />
    <glyph glyph-name="D_E" horiz-adv-x="1065" 
d="M213 700h197h14h719l-10 -60h-523q125 -89 125 -255h278l-11 -60h-272q-26 -171 -173 -265h474l-11 -60h-930zM410 640h-142l-102 -580h189q135 0 225 93.5t90 231.5q0 110 -73 182.5t-187 72.5z" />
    <glyph glyph-name="E_A" horiz-adv-x="1120" 
d="M268 640l-45 -255h435l140 315h250l62 -700h-65l-30 325h-318l-142 -325h-465l123 700h425l-10 -60h-360zM166 60h350l116 265h-420zM838 640l-115 -255h287l-22 255h-150z" />
    <glyph glyph-name="J_A" horiz-adv-x="911" 
d="M442 207l87 493h310l62 -700h-65l-20 230h-305l-5 -29q-19 -105 -83 -163t-159 -58q-56 0 -99.5 17t-68.5 45t-39.5 56t-19.5 58l67 14q6 -37 25 -65q45 -65 137 -65q67 0 114.5 43.5t61.5 123.5zM779 640h-196l-62 -350h291z" />
    <glyph glyph-name="K_K" horiz-adv-x="855" 
d="M545 0l-173 325h-160l-57 -325h-65l123 700h65l-55 -315h155l280 315h80l-305 -340l192 -360h-80zM578 360l305 340h80l-305 -340l192 -360h-80z" />
    <glyph glyph-name="K_O" horiz-adv-x="1100" 
d="M545 0l-173 325h-160l-57 -325h-65l123 700h65l-55 -315h155l280 315h80l-305 -340l192 -360h-80zM613 330q0 118 85 201.5t195 83.5q100 0 166.5 -68t66.5 -167q0 -118 -85 -201.5t-195 -83.5q-100 0 -166.5 68t-66.5 167zM679 333q0 -76 48.5 -127t122.5 -51
q83 0 146.5 64t63.5 158q0 76 -48.5 127t-122.5 51q-83 0 -146.5 -64t-63.5 -158z" />
    <glyph glyph-name="L_A" horiz-adv-x="925" 
d="M850 0l-19 230h-370l-75 -170h160l-11 -60h-445l123 700h65l-112 -640h155l282 640h250l62 -700h-65zM793 640h-150l-157 -350h340z" />
    <glyph glyph-name="L_I" horiz-adv-x="620" 
d="M658 700l-93 -530h-65l93 530h65zM278 700l-112 -640h380l-11 -60h-445l123 700h65z" />
    <glyph glyph-name="L_L" horiz-adv-x="625" 
d="M278 700l-112 -640h380l-11 -60h-445l123 700h65zM463 700l-82 -470h270l-11 -60h-335l93 530h65z" />
    <glyph glyph-name="L_F" horiz-adv-x="640" 
d="M420 395l-42 -235h-65l95 540h325l-10 -60h-260l-33 -184h210l-10 -61h-210zM278 700l-112 -640h380l-11 -60h-445l123 700h65z" />
    <glyph glyph-name="L_O" horiz-adv-x="800" 
d="M317 424q0 118 85 201.5t195 83.5q100 0 166.5 -68t66.5 -167q0 -118 -85 -201.5t-195 -83.5q-100 0 -166.5 68t-66.5 167zM383 427q0 -76 48.5 -127t122.5 -51q83 0 146.5 64t63.5 158q0 76 -48.5 127t-122.5 51q-83 0 -146.5 -64t-63.5 -158zM278 700l-112 -640h380
l-11 -60h-445l123 700h65z" />
    <glyph glyph-name="N_A" horiz-adv-x="1070" 
d="M635 0h-95l-273 635l-112 -635h-65l123 700h95l273 -635l112 635h305l62 -700h-65l-19 230h-300zM938 640h-190l-62 -350h285z" />
    <glyph glyph-name="O_C" horiz-adv-x="1179" 
d="M878 720q78 0 141.5 -26t101 -66t58.5 -80.5t26 -77.5h-66q-17 54 -49 95q-73 95 -216 95q-71 0 -134 -30q95 -92 95 -238q0 -198 -146 -322q62 -30 136 -30q140 0 232 102q39 43 65 103h67q-29 -73 -80 -133q-112 -132 -288 -132q-106 0 -189 51q-88 -51 -189 -51
q-149 0 -242 92.5t-93 235.5q0 176 116 294t276 118q106 0 189 -51q88 51 189 51zM447 40q69 0 134 30q-95 95 -95 238q0 99 39 182.5t107 139.5q-58 30 -136 30q-133 0 -228 -98t-95 -252q0 -120 75.5 -195t198.5 -75zM770 390q0 131 -87 206q-62 -46 -97 -120t-35 -166
q0 -131 87 -206q62 47 97 121t35 165z" />
    <glyph glyph-name="O_G" horiz-adv-x="1238" 
d="M447 40q69 0 134 30q-95 95 -95 238q0 99 39 182.5t107 139.5q-58 30 -136 30q-133 0 -228 -98t-95 -252q0 -120 75.5 -195t198.5 -75zM770 390q0 131 -87 206q-62 -46 -97 -120t-35 -166q0 -131 87 -206q62 47 97 121t35 165zM821 -20q-106 0 -189 51q-88 -51 -189 -51
q-149 0 -242 92.5t-93 235.5q0 176 116 294t276 118q106 0 189 -51q88 51 189 51q63 0 115.5 -16.5t87 -42t61 -59.5t40 -65t20.5 -62h-66q-16 52 -49 92q-77 93 -213 93q-71 0 -134 -30q95 -92 95 -238q0 -198 -146 -322q62 -30 136 -30q56 0 106.5 18.5t85.5 47t61.5 64
t40 69t16.5 61.5h-138l10 60h295l-10 -60h-90q-9 -53 -38.5 -107.5t-75.5 -103t-116 -79t-151 -30.5z" />
    <glyph glyph-name="O_L_I" horiz-adv-x="1400" 
d="M1431 700l-93 -530h-65l93 530h65zM1051 700l-112 -640h380l-11 -60h-445l123 700h65zM447 40q133 0 228 98t95 252q0 120 -76 195t-198 75q-133 0 -228 -98t-95 -252q0 -120 75.5 -195t198.5 -75zM443 -20q-149 0 -242 92.5t-93 235.5q0 176 116 294t276 118
q149 0 242 -92.5t93 -235.5q0 -176 -116 -294t-276 -118z" />
    <glyph glyph-name="O_O" horiz-adv-x="1198" 
d="M821 -20q-106 0 -189 51q-88 -51 -189 -51q-149 0 -242 92.5t-93 235.5q0 176 116 294t276 118q106 0 189 -51q88 51 189 51q149 0 242 -92.5t93 -235.5q0 -176 -116 -294t-276 -118zM825 40q133 0 228 98t95 252q0 120 -76 195t-198 75q-71 0 -134 -30q95 -92 95 -238
q0 -198 -146 -322q62 -30 136 -30zM447 40q69 0 134 30q-95 95 -95 238q0 99 39 182.5t107 139.5q-58 30 -136 30q-133 0 -228 -98t-95 -252q0 -120 75.5 -195t198.5 -75zM770 390q0 131 -87 206q-62 -46 -97 -120t-35 -166q0 -131 87 -206q62 47 97 121t35 165z" />
    <glyph glyph-name="P_H" horiz-adv-x="1185" 
d="M213 700h267q107 0 169 -59t62 -144q0 -20 -8 -68l-8 -44h405l55 315h65l-123 -700h-65l57 325h-405l-57 -325h-65l53 300q-67 -50 -162 -50h-254l-44 -250h-65zM480 640h-212l-58 -330h247q87 0 138 51t51 133q0 63 -44.5 104.5t-121.5 41.5z" />
    <glyph glyph-name="R_J" horiz-adv-x="997" 
d="M421 270h-218l-48 -270h-65l123 700h272q106 0 167 -54.5t61 -138.5q0 -97 -59 -160.5t-163 -75.5l24 -53q47 -104 86 -141.5t113 -37.5q68 0 114.5 43t60.5 123l87 495h65l-87 -501q-18 -104 -83 -162t-160 -58q-94 0 -149 51.5t-110 172.5zM475 640h-207l-55 -310h254
q84 0 132.5 47.5t48.5 126.5q0 63 -44 99.5t-129 36.5z" />
    <glyph glyph-name="S_A" horiz-adv-x="1256" 
d="M331 40q89 0 139.5 43.5t50.5 107.5q0 26 -11 48t-35 40t-43 29t-54 28q-66 30 -104.5 69.5t-38.5 103.5q0 86 66.5 148.5t176.5 62.5q147 0 218 -93q31 -40 40 -92h-66q-7 34 -32 62q-55 63 -165 63q-80 0 -126 -40.5t-46 -99.5q0 -26 11 -47.5t34.5 -39.5t43.5 -29
t54 -28q66 -32 104 -72t38 -104q0 -90 -71 -155t-190 -65q-161 0 -231 102q-34 46 -41 103h65l3 -11q4 -17 15.5 -36t34 -43t64.5 -39.5t96 -15.5zM1180 0l-19 230h-370l-101 -230h-65l309 700h250l61 -700h-65zM1123 640h-150l-156 -350h340z" />
    <glyph glyph-name="T_A" horiz-adv-x="746" 
d="M670 0l-19 230h-300l-41 -230h-65l113 640h-250l11 60h555l61 -700h-65zM613 640h-190l-62 -350h285z" />
    <glyph glyph-name="T_E" horiz-adv-x="705" 
d="M358 640h-250l11 60h565l-11 -60h-250l-28 -160h330l-11 -60h-330l-26 -150h250l-11 -60h-250l-26 -150h330l-11 -60h-395z" />
    <glyph glyph-name="T_H_E" horiz-adv-x="1230" 
d="M348 640h-240l11 60h545l-11 -60h-240l-45 -255h405l56 315h475l-11 -60h-410l-45 -255h335l-11 -60h-335l-46 -265h410l-11 -60h-475l57 325h-405l-57 -325h-65z" />
    <glyph glyph-name="T_T" horiz-adv-x="840" 
d="M358 640h-250l11 60h565l-11 -60h-250l-113 -640h-65zM639 420h-165l11 60h395l-11 -60h-165l-74 -420h-65z" />
    <glyph glyph-name="U_U" horiz-adv-x="780" 
d="M422 125q-60 0 -98 30.5t-47 81.5q-3 17 -3 35t3 38l42 240h65l-42 -237q-4 -17 -4 -37q0 -8 1 -13q7 -78 88 -78q84 0 102 108l45 257h65l-46 -263q-14 -77 -59.5 -119.5t-111.5 -42.5zM417 -20q-123 0 -196 54.5t-91 140.5q-7 28 -7 61q0 24 5 52l73 412h64l-73 -418
q-4 -20 -4 -44q0 -26 6 -50q17 -68 75.5 -108t150.5 -40q98 0 163 54.5t81 145.5l82 460h65l-82 -466q-20 -116 -103.5 -185t-208.5 -69z" />
    <glyph glyph-name="W_E" horiz-adv-x="1260" 
d="M661 700l27 -640h34l248 640h365l-11 -60h-307l-100 -255h287l-10 -60h-302l-107 -265h437l-10 -60h-586l-23 640h-30l-247 -640h-134l-32 700h67l22 -640h35l253 640h124z" />
    <glyph glyph-name="afii10024.alt" horiz-adv-x="985" 
d="M271 355q-4 0 -11.5 4t-19.5 19t-17 38q-3 10 -3 26q0 18 4 38l17 95q1 5 1 14q0 21 -12 36q-17 20 -46 20h-30l10 60h30q44 0 73.5 -21t38.5 -57q3 -12 3 -25q0 -14 -3 -27l-16 -95q-2 -20 -2 -27q0 -29 13 -45q18 -23 67 -23h165l55 315h65l-55 -315h165q94 0 111 95
l17 95q10 57 54 93.5t104 36.5h30l-10 -60h-30q-30 0 -54 -20t-29 -50l-16 -95q-5 -29 -16 -52.5t-22.5 -36.5t-23.5 -21.5t-19.5 -11.5t-11.5 -3q4 0 13.5 -4t23.5 -19t21 -37q4 -11 4 -29q0 -19 -4 -36l-18 -105q-1 -5 -1 -13q0 -23 13 -37q17 -20 46 -20h30l-11 -60h-30
q-44 0 -73.5 21t-37.5 57q-3 13 -3 27q0 7 2 25l18 105q2 20 2 28q0 28 -12 44q-20 23 -68 23h-175l-57 -325h-65l57 325h-175q-49 0 -75.5 -23t-35.5 -72l-19 -105q-10 -57 -54 -93.5t-104 -36.5h-30l11 60h30q30 0 53.5 20t28.5 50l18 105q18 98 99 124z" />
    <glyph glyph-name="afii10076.alt" horiz-adv-x="530" 
d="M392 95l11 65q2 14 2 19q0 46 -55 46h-170l-40 -225h-60l88 500h60l-39 -220h160q65 0 77 65l10 60q8 46 42 73t86 27h20l-10 -55h-20q-48 0 -59 -55l-11 -60q-9 -46 -37 -66q-10 -9 -27 -14q15 -4 27 -16q9 -9 17 -26q3 -9 3 -21q0 -6 -2 -22l-11 -65q-2 -10 -2 -15
q0 -14 8 -25q10 -15 34 -15h20l-10 -55h-20q-54 0 -76 28q-18 19 -18 51q0 7 2 21z" />
    <glyph glyph-name="afii10028.alt" horiz-adv-x="680" 
d="M538 355q21 -6 36 -21q12 -12 22 -38q4 -11 4 -28q0 -19 -4 -38l-19 -105q-1 -5 -1 -13q0 -23 13 -37q17 -20 46 -20h30l-11 -60h-30q-44 0 -73.5 21t-37.5 57q-3 13 -3 27q0 7 2 25l19 105q3 15 3 27q0 68 -82 68h-240l-57 -325h-65l123 700h65l-55 -315h230
q95 0 112 95l16 95q10 57 54 93.5t104 36.5h30l-10 -60h-30q-30 0 -54 -20t-29 -50l-16 -95q-14 -73 -53 -104q-18 -16 -39 -21z" />
    <glyph glyph-name="afii10077.alt" horiz-adv-x="580" 
d="M263 445l-46 -260q-20 -105 -59.5 -147.5t-109.5 -42.5q-24 0 -35 4q-5 1 -13 5l10 54l10 -4q9 -4 28 -4q44 0 69.5 30t39.5 105l56 315h374l-88 -500h-60l79 445h-255z" />
    <glyph glyph-name="afii10029.alt" horiz-adv-x="725" 
d="M211 290l72 410h475l-123 -700h-65l113 640h-345l-62 -350q-31 -171 -85 -235.5t-143 -64.5q-24 0 -42 5q-6 1 -16 5l11 60q8 -4 13 -5q15 -5 35 -5q61 0 99 51t63 189z" />
    <glyph glyph-name="gcommaaccent.alt" horiz-adv-x="555" 
d="M389 670q15 0 25.5 -10t10.5 -25q0 -18 -14 -31.5t-35 -13.5t-34 15.5t-13 42.5q0 52 33 85t80 37l-5 -30q-28 -3 -46 -19.5t-18 -41.5q0 -8 1 -9q0 -2 1 -3q2 0 4 1q6 2 10 2zM411 500h233l-10 -55h-143q15 -13 25 -29q26 -38 26 -82q0 -81 -64 -137.5t-159 -56.5
q-36 0 -70 8q-17 5 -26 9l-13 -74h8q6 0 9 1h12q130 0 197.5 -46t67.5 -102q0 -54 -58.5 -95t-164.5 -41q-130 0 -196.5 46t-66.5 102q0 50 42.5 82t93.5 45l20 112q-18 13 -31 31q-31 41 -31 94q0 84 63.5 141t159.5 57q35 0 57 -5zM322 195q69 0 114.5 40.5t45.5 97.5
q0 51 -40.5 86.5t-109.5 35.5t-114.5 -40.5t-45.5 -97.5q0 -51 40.5 -86.5t109.5 -35.5zM288 -145q76 0 116 25t40 54q0 34 -52.5 64.5t-157.5 30.5q-76 0 -116 -25t-40 -54q0 -34 52.5 -64.5t157.5 -30.5z" />
    <glyph glyph-name="gbreve.alt" horiz-adv-x="555" 
d="M411 500h233l-10 -55h-143q15 -13 25 -29q26 -38 26 -82q0 -81 -64 -137.5t-159 -56.5q-36 0 -70 8q-17 5 -26 9l-13 -74h8q6 0 9 1h12q130 0 197.5 -46t67.5 -102q0 -54 -58.5 -95t-164.5 -41q-130 0 -196.5 46t-66.5 102q0 50 42.5 82t93.5 45l20 112q-18 13 -31 31
q-31 41 -31 94q0 84 63.5 141t159.5 57q35 0 57 -5zM322 195q69 0 114.5 40.5t45.5 97.5q0 51 -40.5 86.5t-109.5 35.5t-114.5 -40.5t-45.5 -97.5q0 -51 40.5 -86.5t109.5 -35.5zM288 -145q76 0 116 25t40 54q0 34 -52.5 64.5t-157.5 30.5q-76 0 -116 -25t-40 -54
q0 -34 52.5 -64.5t157.5 -30.5zM383 601q-56 0 -92 32.5t-36 79.5v8h55v-5q0 -28 20.5 -46.5t57.5 -18.5q33 0 55.5 19t26.5 51h56q-6 -52 -47 -86t-96 -34z" />
    <glyph glyph-name="Iogonek.alt" horiz-adv-x="485" 
d="M335 -225q-43 0 -70 22t-27 62q0 26 12 48t33.5 40t40.5 29t45 24h-319l11 60h160l102 580h-160l10 60h385l-10 -60h-160l-102 -580h160l-11 -60q-88 -44 -114 -68q-33 -30 -33 -65q0 -42 55 -42q27 0 42 4q9 1 18 5l-8 -45q-7 -4 -17 -7q-18 -7 -43 -7z" />
    <glyph glyph-name="Aacute.alt2" horiz-adv-x="675" 
d="M600 0l-19 230h-370l-101 -230h-65l308 700h100l22 125h75l-42 -125h95l62 -700h-65zM543 640h-150l-157 -350h340z" />
    <glyph glyph-name="Adieresis.alt2" horiz-adv-x="675" 
d="M600 0l-19 230h-370l-101 -230h-65l308 700h250l62 -700h-65zM543 640h-150l-157 -350h340zM256 620q-18 0 -29.5 12t-11.5 30q0 20 14.5 34t34.5 14q18 0 29.5 -12t11.5 -30q0 -20 -14.5 -34t-34.5 -14zM671 620q-18 0 -29.5 12t-11.5 30q0 20 14.5 34t34.5 14
q18 0 29.5 -12t11.5 -30q0 -20 -14.5 -34t-34.5 -14z" />
    <glyph glyph-name="Aring.alt2" horiz-adv-x="675" 
d="M600 0l-19 230h-370l-101 -230h-65l308 700h46q-7 4 -11 11q-11 13 -11 36q0 33 29.5 58t73.5 25q43 0 70 -24t27 -54q0 -25 -13 -40q-6 -8 -13 -12h52l62 -700h-65zM543 640h-150l-157 -350h340zM422 742q0 -37 50 -42h10q23 2 36.5 15t13.5 33q0 18 -15 30t-40 12
q-26 0 -40.5 -13.5t-14.5 -34.5z" />
    <glyph glyph-name="Odieresis.alt2" horiz-adv-x="820" 
d="M447 40q133 0 228 98t95 252q0 120 -76 195t-198 75q-133 0 -228 -98t-95 -252q0 -120 75.5 -195t198.5 -75zM443 -20q-149 0 -242 92.5t-93 235.5q0 176 116 294t276 118q149 0 242 -92.5t93 -235.5q0 -176 -116 -294t-276 -118zM179 619q-18 0 -29.5 12t-11.5 30
q0 20 14.5 34t34.5 14q18 0 29.5 -12t11.5 -30q0 -20 -14.5 -34t-34.5 -14zM814 619q-18 0 -29.5 12t-11.5 30q0 20 14.5 34t34.5 14q18 0 29.5 -12t11.5 -30q0 -20 -14.5 -34t-34.5 -14z" />
    <glyph glyph-name="Otilde.alt2" horiz-adv-x="820" 
d="M602 705q-37 0 -68 33l-7 7t-7 6.5t-6.5 5.5t-7.5 5.5l-7 3.5t-8 3t-8 1q-15 0 -27 -10t-14 -25l-4 -25h-51l5 26q7 37 34.5 60.5t65.5 23.5q35 0 69 -32q31 -33 50 -33q15 0 27 10t14 25l4 25h51l-5 -26q-7 -37 -34.5 -60.5t-65.5 -23.5zM453 40q130 0 223.5 88
t93.5 227q0 112 -78.5 183.5t-202.5 71.5q-130 0 -223 -88.5t-93 -226.5q0 -113 78 -184t202 -71zM448 -20q-149 0 -244.5 88t-95.5 223q0 164 114 271.5t272 107.5q150 0 245.5 -88t95.5 -223q0 -164 -114.5 -271.5t-272.5 -107.5z" />
    <glyph glyph-name="Scaron.alt2" horiz-adv-x="635" 
d="M368 40q84 -4 135.5 40t51.5 102q0 23 -12 43t-27 33.5t-45 29t-50.5 24.5t-57.5 23q-88 32 -140 74.5t-52 109.5q0 76 57.5 133t153.5 67l-54 96h59l53 -95h25l87 95h61l-99 -108q49 -15 84.5 -45.5t49.5 -56.5t18 -49l4 -21h-64q-8 35 -33 62q-57 63 -167 63
q-76 0 -123 -38.5t-47 -94.5q0 -27 15 -50t46.5 -42t58.5 -31.5t72 -29.5q41 -16 71.5 -31.5t60 -38t45 -52t15.5 -64.5q0 -85 -72 -146.5t-187 -61.5q-163 0 -233 102q-34 46 -41 103h65l3 -11q4 -17 16 -36.5t35 -43t65 -39t97 -15.5z" />
    <glyph glyph-name="Udieresis.alt2" horiz-adv-x="710" 
d="M129 270l54 310h65l-54 -310q-5 -30 -5 -51q0 -25 4 -42q12 -64 61 -100.5t128 -36.5q86 0 143 52.5t74 149.5l59 338h65l-60 -343q-22 -119 -99.5 -188t-187.5 -69q-97 0 -162 47.5t-83 127.5q-7 27 -7 60q0 23 5 55zM225 610q-18 0 -29.5 12t-11.5 30q0 20 14.5 34
t34.5 14q18 0 29.5 -12t11.5 -30q0 -20 -14.5 -34t-34.5 -14zM700 610q-18 0 -29.5 12t-11.5 30q0 20 14.5 34t34.5 14q18 0 29.5 -12t11.5 -30q0 -20 -14.5 -34t-34.5 -14z" />
    <glyph glyph-name="Zcaron.alt2" horiz-adv-x="600" 
d="M532 815h62l-101 -115h195l-10 -60l-542 -575v-5h445l-11 -60h-530l11 60l541 575l1 5h-425l10 60h190l-59 115h58l54 -115h15z" />
    <glyph glyph-name="ampersand.alt2" horiz-adv-x="860" 
d="M742 305h-85l9 50h235l-9 -50h-90q-34 -88 -91 -158q-54 -68 -136 -112.5t-188 -44.5q-131 0 -213 75.5t-82 182.5q0 125 81.5 208.5t189.5 83.5q103 0 164 -69t61 -178l-434 -47q2 -82 63.5 -141.5t172.5 -59.5q160 0 274 130q48 57 78 130zM159 311l-2 -10l370 43
q-13 59 -56.5 100t-113.5 41q-73 0 -128.5 -48.5t-69.5 -125.5z" />
    <glyph glyph-name="ampersand.alt" horiz-adv-x="700" 
d="M575 330h-85l11 60h255l-11 -60h-105l-21 -118q-18 -105 -93.5 -168.5t-184.5 -63.5q-121 0 -191.5 59.5t-70.5 140.5q0 101 91 160q39 24 92 35q-32 15 -52 34q-51 45 -51 112q0 82 68.5 140.5t174.5 58.5q146 0 217 -93q31 -40 40 -92h-65q-8 35 -33 62q-57 63 -166 63
q-78 0 -124 -38.5t-46 -95.5q0 -53 44 -94.5t113 -41.5h34l-11 -60h-78q-84 0 -133.5 -44t-49.5 -104q0 -58 53.5 -100t149.5 -42q85 0 139 46.5t69 131.5z" />
    <glyph glyph-name="florin.alt" horiz-adv-x="360" 
d="M104 -40l113 485h-59l4 55h70l16 70q31 130 162 130h80l-5 -55h-86q-40 0 -61 -18.5t-30 -56.5l-16 -70h130l-4 -55h-141l-112 -480q-21 -89 -60.5 -122t-117.5 -33h-60l5 55h60q50 0 75 21t37 74z" />
    <glyph glyph-name="periodcentered.case" horiz-adv-x="280" 
d="M198 310q-48 0 -48 44q0 25 15 40.5t38 15.5q48 0 48 -44q0 -25 -15 -40.5t-38 -15.5z" />
    <glyph glyph-name="tcaron.alt" horiz-adv-x="355" 
d="M262 610l-80 -455q-3 -17 -3 -30q0 -31 15 -47q21 -23 66 -23h74l-9 -55h-70q-75 0 -111 40q-26 29 -26 76q0 16 3 36l52 293h-70l10 55h70l19 110h60zM346 540q-15 0 -25.5 10t-10.5 25q0 18 14 31.5t35 13.5t34 -15.5t13 -42.5q0 -52 -33.5 -85t-79.5 -37l5 30
q28 3 46 19.5t18 41.5v5q-1 1 -1 4q-1 1 -1 3l-4 -2q-2 -1 -10 -1z" />
    <glyph glyph-name="tcommaaccent.alt" horiz-adv-x="355" 
d="M233 445l-51 -290q-3 -17 -3 -30q0 -31 15 -47q21 -23 66 -23h74l-9 -55h-70q-75 0 -111 40q-26 29 -26 76q0 16 3 36l52 293h-70l10 55h70l19 110h60l-19 -110h165l-10 -55h-165zM185 -180q-15 0 -25.5 10t-10.5 25q0 18 14 31.5t35 13.5t34 -15.5t13 -42.5
q0 -52 -33.5 -85t-79.5 -37l5 30q28 3 46 19.5t18 41.5v5q-1 1 -1 4q-1 1 -1 3l-4 -2q-2 -1 -10 -1z" />
    <glyph glyph-name="uni021B.alt" horiz-adv-x="355" 
d="M233 445l-51 -290q-3 -17 -3 -30q0 -31 15 -47q21 -23 66 -23h74l-9 -55h-70q-75 0 -111 40q-26 29 -26 76q0 16 3 36l52 293h-70l10 55h70l19 110h60l-19 -110h165l-10 -55h-165zM185 -180q-15 0 -25.5 10t-10.5 25q0 18 14 31.5t35 13.5t34 -15.5t13 -42.5
q0 -52 -33.5 -85t-79.5 -37l5 30q28 3 46 19.5t18 41.5v5q-1 1 -1 4q-1 1 -1 3l-4 -2q-2 -1 -10 -1z" />
    <glyph glyph-name="Eacute.alt2" horiz-adv-x="610" 
d="M166 60h410l-11 -60h-475l123 700h215l22 125h75l-42 -125h205l-10 -60h-410l-45 -255h335l-11 -60h-335z" />
    <glyph glyph-name="Iacute.alt2" horiz-adv-x="245" 
d="M268 640l-113 -640h-65l113 640h65zM240 825h75l-42 -125h-55z" />
    <glyph glyph-name="Oacute.alt2" horiz-adv-x="820" 
d="M443 -20q-149 0 -242 92.5t-93 235.5q0 176 116 294t276 118h5l18 105h75l-36 -110q123 -18 198 -107t75 -216q0 -176 -116 -294t-276 -118zM447 40q133 0 228 98t95 252q0 120 -76 195t-198 75q-133 0 -228 -98t-95 -252q0 -120 75.5 -195t198.5 -75z" />
    <glyph glyph-name="Uacute.alt2" horiz-adv-x="710" 
d="M129 270l76 430h65l-76 -430q-5 -30 -5 -51q0 -25 4 -42q12 -64 61 -100.5t128 -36.5q86 0 143 52.5t74 149.5l81 458h65l-82 -463q-22 -119 -99.5 -188t-187.5 -69q-97 0 -162 47.5t-83 127.5q-7 27 -7 60q0 23 5 55zM467 825h75l-42 -125h-55z" />
    <glyph glyph-name="Yacute.alt2" horiz-adv-x="635" 
d="M738 700l-353 -445l-45 -255h-65l45 255l-197 445h77l160 -370h5l290 370h83zM425 825h75l-42 -125h-55z" />
    <glyph glyph-name="a.sc" 
d="M509 250l-29 290h-145l-131 -290h305zM514 190h-335l-84 -190h-65l271 600h235l59 -600h-65z" />
    <glyph glyph-name="aacute.sc" 
d="M509 250l-29 290h-145l-131 -290h305zM514 190h-335l-84 -190h-65l271 600h235l59 -600h-65zM516 835h75l-141 -145h-50z" />
    <glyph glyph-name="abreve.sc" 
d="M509 250l-29 290h-145l-131 -290h305zM514 190h-335l-84 -190h-65l271 600h235l59 -600h-65zM428 690q-56 0 -92 32.5t-36 79.5v8h55v-5q0 -28 20.5 -46.5t57.5 -18.5q33 0 55.5 19t26.5 51h56q-6 -52 -47 -86t-96 -34z" />
    <glyph glyph-name="acircumflex.sc" 
d="M509 250l-29 290h-145l-131 -290h305zM514 190h-335l-84 -190h-65l271 600h235l59 -600h-65zM565 690h-58l-57 100h-15l-93 -100h-62l136 145h65z" />
    <glyph glyph-name="exclamdown.case" horiz-adv-x="280" 
d="M115 0l63 360l34 135h40l-14 -135l-63 -360h-60zM265 710q21 0 34 -13t13 -32q0 -26 -15 -40.5t-39 -14.5q-21 0 -34 13t-13 32q0 26 15 40.5t39 14.5z" />
    <glyph glyph-name="agrave.sc" 
d="M509 250l-29 290h-145l-131 -290h305zM514 190h-335l-84 -190h-65l271 600h235l59 -600h-65zM311 835h75l64 -145h-50z" />
    <glyph glyph-name="amacron.sc" 
d="M509 250l-29 290h-145l-131 -290h305zM514 190h-335l-84 -190h-65l271 600h235l59 -600h-65zM300 720l10 55h255l-10 -55h-255z" />
    <glyph glyph-name="aogonek.sc" 
d="M514 190h-335l-84 -190h-65l271 600h235l59 -600q-88 -44 -114 -68q-33 -30 -33 -65q0 -42 55 -42q27 0 42 4q9 1 18 5l-8 -45q-7 -4 -17 -7q-18 -7 -43 -7q-43 0 -70 22t-27 62q0 48 37 81t95 60zM509 250l-29 290h-145l-131 -290h305z" />
    <glyph glyph-name="aring.sc" 
d="M509 250l-29 290h-145l-131 -290h305zM514 190h-335l-84 -190h-65l271 600h235l59 -600h-65zM380 755q0 -21 14.5 -35.5t36.5 -14.5q23 0 41.5 18t18.5 42q0 21 -14.5 35.5t-36.5 14.5q-23 0 -41.5 -18t-18.5 -42zM335 750q0 44 33 77t76 33q39 0 65.5 -26.5t26.5 -63.5
q0 -45 -33 -77.5t-76 -32.5q-39 0 -65.5 26.5t-26.5 63.5z" />
    <glyph glyph-name="atilde.sc" 
d="M509 250l-29 290h-145l-131 -290h305zM514 190h-335l-84 -190h-65l271 600h235l59 -600h-65zM484 695q-37 0 -68 33l-9 9t-10.5 9.5t-8.5 6t-11 6t-11 1.5q-15 0 -27.5 -10t-14.5 -25l-4 -25h-50l5 26q7 37 34 60.5t65 23.5q35 0 69 -32q31 -33 50 -33q15 0 27 10t14 25
l4 25h51l-5 -26q-7 -37 -34.5 -60.5t-65.5 -23.5z" />
    <glyph glyph-name="ae.sc" horiz-adv-x="870" 
d="M496 60h340l-11 -60h-405l34 190h-275l-84 -190h-65l271 600h630l-11 -60h-340l-36 -205h280l-11 -60h-280zM335 540l-131 -290h260l51 290h-180z" />
    <glyph glyph-name="b.sc" horiz-adv-x="650" 
d="M430 280h-226l-38 -220h259q62 0 99.5 33t37.5 83q0 43 -34 73.5t-98 30.5zM480 540h-230l-35 -200h250q50 0 82.5 30t32.5 83q0 40 -27.5 63.5t-72.5 23.5zM196 600h284q73 0 119 -42t46 -103q0 -80 -55 -123q-23 -17 -54 -25l-1 -5q29 -8 46 -23q47 -39 47 -97
q0 -76 -60 -129t-152 -53h-326z" />
    <glyph glyph-name="c.sc" horiz-adv-x="725" 
d="M654 215h66q-28 -65 -75 -118q-107 -117 -252 -117q-128 0 -213 83t-85 207q0 146 103 248t248 102q153 0 233 -110q34 -48 51 -110h-63q-13 45 -44 80q-70 80 -183 80q-112 0 -196 -81.5t-84 -207.5q0 -100 67.5 -165.5t169.5 -65.5q116 0 197 87q37 40 60 88z" />
    <glyph glyph-name="cacute.sc" horiz-adv-x="725" 
d="M654 215h66q-28 -65 -75 -118q-107 -117 -252 -117q-128 0 -213 83t-85 207q0 146 103 248t248 102q153 0 233 -110q34 -48 51 -110h-63q-13 45 -44 80q-70 80 -183 80q-112 0 -196 -81.5t-84 -207.5q0 -100 67.5 -165.5t169.5 -65.5q116 0 197 87q37 40 60 88zM551 835
h75l-141 -145h-50z" />
    <glyph glyph-name="ccaron.sc" horiz-adv-x="725" 
d="M654 215h66q-28 -65 -75 -118q-107 -117 -252 -117q-128 0 -213 83t-85 207q0 146 103 248t248 102q153 0 233 -110q34 -48 51 -110h-63q-13 45 -44 80q-70 80 -183 80q-112 0 -196 -81.5t-84 -207.5q0 -100 67.5 -165.5t169.5 -65.5q116 0 197 87q37 40 60 88zM578 835
h62l-136 -145h-65l-84 145h58l57 -100h15z" />
    <glyph glyph-name="ccedilla.sc" horiz-adv-x="725" 
d="M654 215h66q-29 -65 -73 -115q-100 -115 -245 -119l-24 -38q28 -4 47.5 -26t19.5 -51q0 -44 -31.5 -72.5t-77.5 -28.5q-35 0 -59 13q-12 7 -19 14l8 44q9 -9 18 -13q22 -13 55 -13q24 0 40 14.5t16 38.5q0 42 -55 42h-32l50 77q-115 12 -189 92t-74 196q0 146 103 248
t248 102q153 0 233 -110q34 -48 51 -110h-63q-13 45 -44 80q-70 80 -183 80q-112 0 -196 -81.5t-84 -207.5q0 -100 67.5 -165.5t169.5 -65.5q116 0 197 87q37 40 60 88z" />
    <glyph glyph-name="ccircumflex.sc" horiz-adv-x="725" 
d="M654 215h66q-28 -65 -75 -118q-107 -117 -252 -117q-128 0 -213 83t-85 207q0 146 103 248t248 102q153 0 233 -110q34 -48 51 -110h-63q-13 45 -44 80q-70 80 -183 80q-112 0 -196 -81.5t-84 -207.5q0 -100 67.5 -165.5t169.5 -65.5q116 0 197 87q37 40 60 88zM615 690
h-58l-57 100h-15l-93 -100h-62l136 145h65z" />
    <glyph glyph-name="d.sc" horiz-adv-x="665" 
d="M370 540h-120l-84 -480h174q119 0 192.5 76.5t73.5 194.5q0 96 -65 152.5t-171 56.5zM196 600h184q132 0 211 -77t79 -191q0 -142 -94.5 -237t-245.5 -95h-240z" />
    <glyph glyph-name="dcaron.sc" horiz-adv-x="665" 
d="M370 540h-120l-84 -480h174q119 0 192.5 76.5t73.5 194.5q0 96 -65 152.5t-171 56.5zM196 600h184q132 0 211 -77t79 -191q0 -142 -94.5 -237t-245.5 -95h-240zM543 825h62l-136 -145h-65l-84 145h58l57 -100h15z" />
    <glyph glyph-name="dcroat.sc" horiz-adv-x="670" 
d="M201 600h184q132 0 211 -77t79 -191q0 -142 -94.5 -237t-245.5 -95h-240l47 265h-70l11 60h70zM375 540h-120l-37 -215h155l-11 -60h-155l-36 -205h174q119 0 192.5 76.5t73.5 194.5q0 96 -65 152.5t-171 56.5z" />
    <glyph glyph-name="eth.sc" horiz-adv-x="670" 
d="M201 600h184q132 0 211 -77t79 -191q0 -142 -94.5 -237t-245.5 -95h-240l47 265h-70l11 60h70zM375 540h-120l-37 -215h155l-11 -60h-155l-36 -205h174q119 0 192.5 76.5t73.5 194.5q0 96 -65 152.5t-171 56.5z" />
    <glyph glyph-name="e.sc" horiz-adv-x="560" 
d="M166 60h360l-11 -60h-425l106 600h425l-11 -60h-360l-36 -205h300l-11 -60h-300z" />
    <glyph glyph-name="eacute.sc" horiz-adv-x="560" 
d="M166 60h360l-11 -60h-425l106 600h425l-11 -60h-360l-36 -205h300l-11 -60h-300zM501 835h75l-141 -145h-50z" />
    <glyph glyph-name="ecaron.sc" horiz-adv-x="560" 
d="M166 60h360l-11 -60h-425l106 600h425l-11 -60h-360l-36 -205h300l-11 -60h-300zM528 835h62l-136 -145h-65l-84 145h58l57 -100h15z" />
    <glyph glyph-name="ecircumflex.sc" horiz-adv-x="560" 
d="M166 60h360l-11 -60h-425l106 600h425l-11 -60h-360l-36 -205h300l-11 -60h-300zM565 690h-58l-57 100h-15l-93 -100h-62l136 145h65z" />
    <glyph glyph-name="yacute.alt" horiz-adv-x="505" 
d="M245 -59l29 59h-125l-47 500h66l37 -445h94l208 445h65l-269 -565q-30 -64 -70.5 -94.5t-101.5 -30.5h-95l10 55h94q37 0 60.5 17.5t44.5 58.5zM426 745h75l-141 -145h-50z" />
    <glyph glyph-name="edotaccent.sc" horiz-adv-x="560" 
d="M166 60h360l-11 -60h-425l106 600h425l-11 -60h-360l-36 -205h300l-11 -60h-300zM426 705q-18 0 -29.5 12t-11.5 30q0 20 14.5 34t34.5 14q18 0 29.5 -12t11.5 -30q0 -20 -14.5 -34t-34.5 -14z" />
    <glyph glyph-name="egrave.sc" horiz-adv-x="560" 
d="M166 60h360l-11 -60h-425l106 600h425l-11 -60h-360l-36 -205h300l-11 -60h-300zM316 835h75l64 -145h-50z" />
    <glyph glyph-name="emacron.sc" horiz-adv-x="560" 
d="M166 60h360l-11 -60h-425l106 600h425l-11 -60h-360l-36 -205h300l-11 -60h-300zM300 730l10 55h255l-10 -55h-255z" />
    <glyph glyph-name="eogonek.sc" horiz-adv-x="560" 
d="M415 -225q-43 0 -70 22t-27 62q0 26 12 48t33.5 40t40.5 29t45 24h-359l106 600h425l-11 -60h-360l-36 -205h300l-11 -60h-300l-37 -215h360l-11 -60q-88 -44 -114 -68q-33 -30 -33 -65q0 -42 55 -42q27 0 42 4q9 1 18 5l-8 -45q-7 -4 -17 -7q-18 -7 -43 -7z" />
    <glyph glyph-name="f.sc" horiz-adv-x="530" 
d="M200 255l-45 -255h-65l106 600h415l-11 -60h-350l-39 -225h280l-11 -60h-280z" />
    <glyph glyph-name="g.sc" horiz-adv-x="780" 
d="M657 260h-116l10 60h270l-10 -60h-85q-30 -116 -121 -198t-217 -82t-209.5 83t-83.5 207q0 146 103 248t248 102q146 0 230 -105q34 -47 51 -105h-63q-15 42 -45 75q-71 75 -179 75q-112 0 -196 -81.5t-84 -207.5q0 -100 66.5 -165.5t165.5 -65.5q96 0 174.5 67.5
t90.5 152.5z" />
    <glyph glyph-name="gbreve.sc" horiz-adv-x="780" 
d="M657 260h-116l10 60h270l-10 -60h-85q-30 -116 -121 -198t-217 -82t-209.5 83t-83.5 207q0 146 103 248t248 102q146 0 230 -105q34 -47 51 -105h-63q-15 42 -45 75q-71 75 -179 75q-112 0 -196 -81.5t-84 -207.5q0 -100 66.5 -165.5t165.5 -65.5q96 0 174.5 67.5
t90.5 152.5zM468 690q-56 0 -92 32.5t-36 79.5v8h55v-5q0 -28 20.5 -46.5t57.5 -18.5q33 0 55.5 19t26.5 51h56q-6 -52 -47 -86t-96 -34z" />
    <glyph glyph-name="gcommaaccent.sc" horiz-adv-x="780" 
d="M657 260h-116l10 60h270l-10 -60h-85q-30 -116 -121 -198t-217 -82t-209.5 83t-83.5 207q0 146 103 248t248 102q146 0 230 -105q34 -47 51 -105h-63q-15 42 -45 75q-71 75 -179 75q-112 0 -196 -81.5t-84 -207.5q0 -100 66.5 -165.5t165.5 -65.5q96 0 174.5 67.5
t90.5 152.5zM360 -180q-15 0 -25.5 10t-10.5 25q0 18 14 31.5t35 13.5t34 -15.5t13 -42.5q0 -52 -33.5 -85t-79.5 -37l5 30q28 3 46 19.5t18 41.5v5q-1 1 -1 4q-1 1 -1 3l-4 -2q-2 -1 -10 -1z" />
    <glyph glyph-name="h.sc" horiz-adv-x="670" 
d="M90 0l106 600h65l-47 -265h360l47 265h65l-106 -600h-65l48 275h-360l-48 -275h-65z" />
    <glyph glyph-name="i.sc" horiz-adv-x="245" 
d="M261 600l-106 -600h-65l106 600h65z" />
    <glyph glyph-name="iacute.sc" horiz-adv-x="245" 
d="M261 600l-106 -600h-65l106 600h65zM331 835h75l-141 -145h-50z" />
    <glyph glyph-name="icircumflex.sc" horiz-adv-x="245" 
d="M261 600l-106 -600h-65l106 600h65zM377 690h-58l-57 100h-15l-93 -100h-62l136 145h65z" />
    <glyph glyph-name="dotlessi.sc" horiz-adv-x="245" 
d="M261 600l-106 -600h-65l106 600h65zM252 705q-18 0 -29.5 12t-11.5 30q0 20 14.5 34t34.5 14q18 0 29.5 -12t11.5 -30q0 -20 -14.5 -34t-34.5 -14z" />
    <glyph glyph-name="idieresis.sc" horiz-adv-x="245" 
d="M261 600l-106 -600h-65l106 600h65zM161 710q-18 0 -29.5 12t-11.5 30q0 20 14.5 34t34.5 14q18 0 29.5 -12t11.5 -30q0 -20 -14.5 -34t-34.5 -14zM331 710q-18 0 -29.5 12t-11.5 30q0 20 14.5 34t34.5 14q18 0 29.5 -12t11.5 -30q0 -20 -14.5 -34t-34.5 -14z" />
    <glyph glyph-name="igrave.sc" horiz-adv-x="245" 
d="M261 600l-106 -600h-65l106 600h65zM121 835h75l64 -145h-50z" />
    <glyph glyph-name="imacron.sc" horiz-adv-x="245" 
d="M261 600l-106 -600h-65l106 600h65zM110 730l10 55h255l-10 -55h-255z" />
    <glyph glyph-name="iogonek.sc" horiz-adv-x="245" 
d="M55 -225q-43 0 -70 22t-27 62q0 48 37 81t95 60l106 600h65l-106 -600q-88 -44 -114 -68q-33 -30 -33 -65q0 -42 55 -42q27 0 42 4q9 1 18 5l-8 -45q-7 -4 -17 -7q-18 -7 -43 -7z" />
    <glyph glyph-name="j.sc" horiz-adv-x="520" 
d="M550 600l-75 -426q-17 -93 -77.5 -146t-148.5 -53q-120 0 -176 83q-27 38 -34 83l66 15q6 -36 24 -61q39 -60 123 -60q61 0 104 39t55 107l74 419h65z" />
    <glyph glyph-name="k.sc" horiz-adv-x="590" 
d="M502 0l-147 275h-152l-48 -275h-65l106 600h65l-47 -265h144l237 265h81l-261 -290l165 -310h-78z" />
    <glyph glyph-name="kcommaaccent.sc" horiz-adv-x="590" 
d="M502 0l-147 275h-152l-48 -275h-65l106 600h65l-47 -265h144l237 265h81l-261 -290l165 -310h-78zM300 -180q-15 0 -25.5 10t-10.5 25q0 18 14 31.5t35 13.5t34 -15.5t13 -42.5q0 -52 -33.5 -85t-79.5 -37l5 30q28 3 46 19.5t18 41.5v5q-1 1 -1 4q-1 1 -1 3l-4 -2
q-2 -1 -10 -1z" />
    <glyph glyph-name="l.sc" horiz-adv-x="485" 
d="M261 600l-95 -540h340l-11 -60h-405l106 600h65z" />
    <glyph glyph-name="lacute.sc" horiz-adv-x="485" 
d="M261 600l-95 -540h340l-11 -60h-405l106 600h65zM337 835h75l-141 -145h-50z" />
    <glyph glyph-name="lcaron.sc" horiz-adv-x="485" 
d="M261 600l-95 -540h340l-11 -60h-405l106 600h65zM382 530q-15 0 -25.5 10t-10.5 25q0 18 14 31.5t35 13.5t34 -15.5t13 -42.5q0 -52 -33.5 -85t-79.5 -37l5 30q28 3 46 19.5t18 41.5v5q-1 1 -1 4q-1 1 -1 3l-4 -2q-2 -1 -10 -1z" />
    <glyph glyph-name="lcommaaccent.sc" horiz-adv-x="485" 
d="M261 600l-95 -540h340l-11 -60h-405l106 600h65zM275 -180q-15 0 -25.5 10t-10.5 25q0 18 14 31.5t35 13.5t34 -15.5t13 -42.5q0 -52 -33.5 -85t-79.5 -37l5 30q28 3 46 19.5t18 41.5v5q-1 1 -1 4q-1 1 -1 3l-4 -2q-2 -1 -10 -1z" />
    <glyph glyph-name="lslash.sc" horiz-adv-x="484" 
d="M261 600l-49 -275l141 60l-12 -65l-140 -60l-36 -200h340l-10 -60h-405l41 235l-70 -30l11 65l71 30l53 300h65z" />
    <glyph glyph-name="m.sc" horiz-adv-x="845" 
d="M381 150l-131 390l-95 -540h-65l106 600h102l131 -390h55l269 390h108l-106 -600h-65l95 540l-269 -390h-135z" />
    <glyph glyph-name="n.sc" horiz-adv-x="680" 
d="M590 0h-90l-252 525l-93 -525h-65l106 600h90l252 -525l93 525h65z" />
    <glyph glyph-name="nacute.sc" horiz-adv-x="680" 
d="M590 0h-90l-252 525l-93 -525h-65l106 600h90l252 -525l93 525h65zM541 835h75l-141 -145h-50z" />
    <glyph glyph-name="ncaron.sc" horiz-adv-x="680" 
d="M590 0h-90l-252 525l-93 -525h-65l106 600h90l252 -525l93 525h65zM563 835h62l-136 -145h-65l-84 145h58l57 -100h15z" />
    <glyph glyph-name="ncommaaccent.sc" horiz-adv-x="680" 
d="M590 0h-90l-252 525l-93 -525h-65l106 600h90l252 -525l93 525h65zM320 -180q-15 0 -25.5 10t-10.5 25q0 18 14 31.5t35 13.5t34 -15.5t13 -42.5q0 -52 -33.5 -85t-79.5 -37l5 30q28 3 46 19.5t18 41.5v5q-1 1 -1 4q-1 1 -1 3l-4 -2q-2 -1 -10 -1z" />
    <glyph glyph-name="ntilde.sc" horiz-adv-x="680" 
d="M590 0h-90l-252 525l-93 -525h-65l106 600h90l252 -525l93 525h65zM519 695q-37 0 -68 33l-9 9t-10.5 9.5t-8.5 6t-11 6t-11 1.5q-15 0 -27.5 -10t-14.5 -25l-4 -25h-50l5 26q7 37 34 60.5t65 23.5q35 0 69 -32q31 -33 50 -33q15 0 27 10t14 25l4 25h51l-5 -26
q-7 -37 -34.5 -60.5t-65.5 -23.5z" />
    <glyph glyph-name="o.sc" horiz-adv-x="750" 
d="M160 271q0 -101 66.5 -166t175.5 -65q115 0 197.5 82.5t82.5 206.5q0 101 -66.5 166t-175.5 65q-115 0 -197.5 -82.5t-82.5 -206.5zM95 270q0 148 104 249t247 101q133 0 217 -83t84 -207q0 -148 -104 -249t-247 -101q-133 0 -217 83t-84 207z" />
    <glyph glyph-name="oacute.sc" horiz-adv-x="750" 
d="M160 271q0 -101 66.5 -166t175.5 -65q115 0 197.5 82.5t82.5 206.5q0 101 -66.5 166t-175.5 65q-115 0 -197.5 -82.5t-82.5 -206.5zM95 270q0 148 104 249t247 101q133 0 217 -83t84 -207q0 -148 -104 -249t-247 -101q-133 0 -217 83t-84 207zM551 835h75l-141 -145h-50z
" />
    <glyph glyph-name="ocircumflex.sc" horiz-adv-x="750" 
d="M160 271q0 -101 66.5 -166t175.5 -65q115 0 197.5 82.5t82.5 206.5q0 101 -66.5 166t-175.5 65q-115 0 -197.5 -82.5t-82.5 -206.5zM95 270q0 148 104 249t247 101q133 0 217 -83t84 -207q0 -148 -104 -249t-247 -101q-133 0 -217 83t-84 207zM615 690h-58l-57 100h-15
l-93 -100h-62l136 145h65z" />
    <glyph glyph-name="odieresis.sc" horiz-adv-x="750" 
d="M160 271q0 -101 66.5 -166t175.5 -65q115 0 197.5 82.5t82.5 206.5q0 101 -66.5 166t-175.5 65q-115 0 -197.5 -82.5t-82.5 -206.5zM95 270q0 148 104 249t247 101q133 0 217 -83t84 -207q0 -148 -104 -249t-247 -101q-133 0 -217 83t-84 207zM391 705q-18 0 -29.5 12
t-11.5 30q0 20 14.5 34t34.5 14q18 0 29.5 -12t11.5 -30q0 -20 -14.5 -34t-34.5 -14zM561 705q-18 0 -29.5 12t-11.5 30q0 20 14.5 34t34.5 14q18 0 29.5 -12t11.5 -30q0 -20 -14.5 -34t-34.5 -14z" />
    <glyph glyph-name="ograve.sc" horiz-adv-x="750" 
d="M160 271q0 -101 66.5 -166t175.5 -65q115 0 197.5 82.5t82.5 206.5q0 101 -66.5 166t-175.5 65q-115 0 -197.5 -82.5t-82.5 -206.5zM95 270q0 148 104 249t247 101q133 0 217 -83t84 -207q0 -148 -104 -249t-247 -101q-133 0 -217 83t-84 207zM351 835h75l64 -145h-50z
" />
    <glyph glyph-name="ohungarumlaut.sc" horiz-adv-x="750" 
d="M160 271q0 -101 66.5 -166t175.5 -65q115 0 197.5 82.5t82.5 206.5q0 101 -66.5 166t-175.5 65q-115 0 -197.5 -82.5t-82.5 -206.5zM95 270q0 148 104 249t247 101q133 0 217 -83t84 -207q0 -148 -104 -249t-247 -101q-133 0 -217 83t-84 207zM456 835h70l-126 -145h-45z
M601 835h70l-126 -145h-45z" />
    <glyph glyph-name="omacron.sc" horiz-adv-x="750" 
d="M160 271q0 -101 66.5 -166t175.5 -65q115 0 197.5 82.5t82.5 206.5q0 101 -66.5 166t-175.5 65q-115 0 -197.5 -82.5t-82.5 -206.5zM95 270q0 148 104 249t247 101q133 0 217 -83t84 -207q0 -148 -104 -249t-247 -101q-133 0 -217 83t-84 207zM345 725l10 55h255l-10 -55
h-255z" />
    <glyph glyph-name="oslash.sc" horiz-adv-x="750" 
d="M396 -20q-154 0 -239 108l-135 -92l12 73l93 64q-32 62 -32 137q0 148 104 249t247 101q154 0 239 -108l135 92l-12 -73l-93 -64q32 -62 32 -137q0 -148 -104 -249t-247 -101zM661 431l-452 -307q69 -84 192 -84q116 0 198.5 82.5t82.5 206.5q0 55 -21 102zM181 169
l452 307q-69 84 -192 84q-116 0 -198.5 -82.5t-82.5 -206.5q0 -55 21 -102z" />
    <glyph glyph-name="otilde.sc" horiz-adv-x="750" 
d="M160 271q0 -101 66.5 -166t175.5 -65q115 0 197.5 82.5t82.5 206.5q0 101 -66.5 166t-175.5 65q-115 0 -197.5 -82.5t-82.5 -206.5zM95 270q0 148 104 249t247 101q133 0 217 -83t84 -207q0 -148 -104 -249t-247 -101q-133 0 -217 83t-84 207zM535 695q-37 0 -68 33l-9 9
t-10.5 9.5t-8.5 6t-11 6t-11 1.5q-15 0 -27.5 -10t-14.5 -25l-4 -25h-50l5 26q7 37 34 60.5t65 23.5q35 0 69 -32q31 -33 50 -33q15 0 27 10t14 25l4 25h51l-5 -26q-7 -37 -34.5 -60.5t-65.5 -23.5z" />
    <glyph glyph-name="oe.sc" horiz-adv-x="1054" 
d="M609 0l16 89q-27 -31 -64 -55q-86 -54 -178 -54q-125 0 -206.5 83.5t-81.5 204.5q0 147 103 249.5t241 102.5q115 0 197 -76q36 -34 56 -76l23 132h400l-10 -60h-335l-37 -205h275l-10 -60h-275l-38 -215h335l-11 -60h-400zM389 40q110 0 191.5 83t81.5 206
q0 100 -64 165.5t-165 65.5q-110 0 -191.5 -83t-81.5 -206q0 -100 64 -165.5t165 -65.5z" />
    <glyph glyph-name="p.sc" horiz-adv-x="629" 
d="M436 540h-186l-47 -270h226q74 0 117 41.5t43 107.5q0 54 -40 87.5t-113 33.5zM196 600h249q92 0 150.5 -51.5t58.5 -127.5q0 -92 -65 -151.5t-169 -59.5h-228l-37 -210h-65z" />
    <glyph glyph-name="q.sc" horiz-adv-x="750" 
d="M95 269q0 147 104 249t247 102q133 0 217 -83t84 -207q0 -148 -104 -249t-247 -101h-2l-27 -160h-60l28 165q-108 18 -174 97.5t-66 186.5zM160 270q0 -100 66 -165t175 -65q116 0 198.5 82.5t82.5 206.5q0 100 -67 165.5t-175 65.5q-115 0 -197.5 -83.5t-82.5 -206.5z
" />
    <glyph glyph-name="r.sc" horiz-adv-x="640" 
d="M463 227l107 -227h-75l-105 225h-195l-40 -225h-65l106 600h254q93 0 149 -51.5t56 -122.5q0 -79 -55.5 -132.5t-136.5 -66.5zM205 285h229q70 0 113 40.5t43 99.5q0 48 -38.5 81.5t-106.5 33.5h-195z" />
    <glyph glyph-name="racute.sc" horiz-adv-x="640" 
d="M463 227l107 -227h-75l-105 225h-195l-40 -225h-65l106 600h254q93 0 149 -51.5t56 -122.5q0 -79 -55.5 -132.5t-136.5 -66.5zM205 285h229q70 0 113 40.5t43 99.5q0 48 -38.5 81.5t-106.5 33.5h-195zM511 835h75l-141 -145h-50z" />
    <glyph glyph-name="rcaron.sc" horiz-adv-x="640" 
d="M463 227l107 -227h-75l-105 225h-195l-40 -225h-65l106 600h254q93 0 149 -51.5t56 -122.5q0 -79 -55.5 -132.5t-136.5 -66.5zM205 285h229q70 0 113 40.5t43 99.5q0 48 -38.5 81.5t-106.5 33.5h-195zM543 835h62l-136 -145h-65l-84 145h58l57 -100h15z" />
    <glyph glyph-name="rcommaaccent.sc" horiz-adv-x="640" 
d="M463 227l107 -227h-75l-105 225h-195l-40 -225h-65l106 600h254q93 0 149 -51.5t56 -122.5q0 -79 -55.5 -132.5t-136.5 -66.5zM205 285h229q70 0 113 40.5t43 99.5q0 48 -38.5 81.5t-106.5 33.5h-195zM300 -180q-15 0 -25.5 10t-10.5 25q0 18 14 31.5t35 13.5t34 -15.5
t13 -42.5q0 -52 -33.5 -85t-79.5 -37l5 30q28 3 46 19.5t18 41.5v5q-1 1 -1 4q-1 1 -1 3l-4 -2q-2 -1 -10 -1z" />
    <glyph glyph-name="s.sc" horiz-adv-x="595" 
d="M338 40q72 0 122 33.5t50 87.5q0 19 -11 35.5t-25 28t-42.5 24t-46.5 18.5l-54 18q-52 15 -88.5 33t-64 50.5t-27.5 74.5q0 73 61 125t161 52q139 0 203 -80q28 -34 36 -80h-65q-7 26 -29 50q-48 50 -146 50q-71 0 -113 -32.5t-42 -77.5q0 -23 14.5 -42.5t43 -34.5
t55 -25t66.5 -22q82 -27 130.5 -63t48.5 -96q0 -77 -67.5 -132t-175.5 -55q-148 0 -216 90q-30 40 -39 90h66q9 -35 34 -60q54 -60 161 -60z" />
    <glyph glyph-name="sacute.sc" horiz-adv-x="595" 
d="M338 40q72 0 122 33.5t50 87.5q0 19 -11 35.5t-25 28t-42.5 24t-46.5 18.5l-54 18q-52 15 -88.5 33t-64 50.5t-27.5 74.5q0 73 61 125t161 52q139 0 203 -80q28 -34 36 -80h-65q-7 26 -29 50q-48 50 -146 50q-71 0 -113 -32.5t-42 -77.5q0 -23 14.5 -42.5t43 -34.5
t55 -25t66.5 -22q82 -27 130.5 -63t48.5 -96q0 -77 -67.5 -132t-175.5 -55q-148 0 -216 90q-30 40 -39 90h66q9 -35 34 -60q54 -60 161 -60zM481 829h75l-141 -145h-50z" />
    <glyph glyph-name="scaron.sc" horiz-adv-x="595" 
d="M338 40q72 0 122 33.5t50 87.5q0 19 -11 35.5t-25 28t-42.5 24t-46.5 18.5l-54 18q-52 15 -88.5 33t-64 50.5t-27.5 74.5q0 73 61 125t161 52q139 0 203 -80q28 -34 36 -80h-65q-7 26 -29 50q-48 50 -146 50q-71 0 -113 -32.5t-42 -77.5q0 -23 14.5 -42.5t43 -34.5
t55 -25t66.5 -22q82 -27 130.5 -63t48.5 -96q0 -77 -67.5 -132t-175.5 -55q-148 0 -216 90q-30 40 -39 90h66q9 -35 34 -60q54 -60 161 -60zM503 832h62l-136 -145h-65l-84 145h58l57 -100h15z" />
    </font>
</defs>
</svg>
