<?xml version="1.0" standalone="no"?>
<!DOCTYPE svg PUBLIC "-//W3C//DTD SVG 1.1//EN" "http://www.w3.org/Graphics/SVG/1.1/DTD/svg11.dtd" >
<svg xmlns="http://www.w3.org/2000/svg" xmlns:xlink="http://www.w3.org/1999/xlink" version="1.1">
<metadata>
Created by FontForge 20170731 at Wed Oct 17 01:00:37 2018
 By Aleksey,,,
Copyright (c) 2018 by Typetype. Designer Ivan Gladkikh, technical designers Philipp Nurullin, Vika Usmanova, Nadyr Rakhimov, Marina Khodak. All rights reserved. |DCNT
</metadata>
<defs>
<font id="TTFirsNeue-BoldItalic" horiz-adv-x="645" >
  <font-face 
    font-family="TT Firs Neue"
    font-weight="700"
    font-style="italic"
    font-stretch="normal"
    units-per-em="1000"
    panose-1="2 0 8 3 4 0 0 9 0 4"
    ascent="800"
    descent="-200"
    x-height="520"
    cap-height="700"
    bbox="-325 -340 1542 1036"
    underline-thickness="50"
    underline-position="-250"
    slope="-10"
    unicode-range="U+000D-FB02"
  />
<missing-glyph horiz-adv-x="0" 
 />
    <glyph glyph-name="ff" unicode="ff" horiz-adv-x="733" 
d="M314 365l-64 -365h-170l64 365h-65l24 135h65l35 200h290l-24 -135h-120l-11 -65h170l35 200h310l-24 -135h-140l-11 -65h115l-24 -135h-115l-64 -365h-170l64 365h-170z" />
    <glyph glyph-name="fi" unicode="fi" horiz-adv-x="640" 
d="M79 365l24 135h65l35 200h420l-24 -135h-250l-11 -65h340l-88 -500h-170l64 365h-170l-64 -365h-170l64 365h-65z" />
    <glyph glyph-name="fl" unicode="fl" horiz-adv-x="715" 
d="M420 0l99 565h-170l-11 -65h115l-24 -135h-115l-64 -365h-170l64 365h-65l24 135h65l35 200h510l-101 -575h115l-22 -125h-285z" />
    <glyph glyph-name="f_t" unicode="ft" horiz-adv-x="760" 
d="M79 365l24 135h65l35 200h510l-35 -200h135l-24 -135h-135l-42 -240h145l-22 -125h-315l64 365h-170l-64 -365h-170l64 365h-65zM338 500h170l11 65h-170z" />
    <glyph glyph-name="f_j" unicode="fj" horiz-adv-x="640" 
d="M678 500l-122 -690h-305l22 125h135l76 430h-170l-64 -365h-170l64 365h-65l24 135h65l35 200h420l-24 -135h-250l-11 -65h340z" />
    <glyph glyph-name=".notdef" horiz-adv-x="0" 
 />
    <glyph glyph-name=".null" horiz-adv-x="0" 
 />
    <glyph glyph-name=".null" horiz-adv-x="0" 
 />
    <glyph glyph-name="nonmarkingreturn" horiz-adv-x="333" 
 />
    <glyph glyph-name="CR" unicode="&#xd;" horiz-adv-x="0" 
 />
    <glyph glyph-name="space" unicode=" " horiz-adv-x="280" 
 />
    <glyph glyph-name="exclam" unicode="!" horiz-adv-x="310" 
d="M357 700l-54 -310l-58 -160h-110l-2 160l54 310h170zM156 -15q-36 0 -59 23.5t-23 57.5q0 40 29 69.5t68 29.5q36 0 59.5 -23.5t23.5 -57.5q0 -40 -29.5 -69.5t-68.5 -29.5z" />
    <glyph glyph-name="quotedbl" unicode="&#x22;" horiz-adv-x="480" 
d="M321 700l-26 -150l-37 -95h-115l-3 95l26 150h155zM536 700l-26 -150l-37 -95h-115l-3 95l26 150h155z" />
    <glyph glyph-name="numbersign" unicode="#" horiz-adv-x="720" 
d="M180 540h125l73 160h150l-73 -160h105l73 160h150l-73 -160h80l-23 -130h-115l-56 -120h90l-23 -130h-125l-73 -160h-150l73 160h-105l-73 -160h-150l73 160h-80l23 130h115l56 120h-90zM502 410h-105l-56 -120h105z" />
    <glyph glyph-name="dollar" unicode="$" horiz-adv-x="690" 
d="M405 140q40 0 66 15.5t26 43.5q0 10 -5 18.5t-15.5 16.5t-21.5 14.5t-30 13.5t-33 12t-37.5 13.5t-37.5 13.5q-181 61 -181 187q0 89 70 155.5t187 75.5l17 91h170l-19 -111q134 -50 164 -199h-188q-4 16 -20 30q-34 30 -102 30q-42 0 -62 -14t-20 -35q0 -8 3 -14.5
t10 -13.5t13.5 -12t19.5 -11.5t22 -10.5t26 -10t27.5 -9.5t30 -10.5t29.5 -10q181 -66 181 -188q0 -92 -70.5 -161.5t-190.5 -78.5l-16 -91h-170l20 109q-163 49 -198 226h188q7 -25 25 -43q40 -42 122 -42z" />
    <glyph glyph-name="percent" unicode="%" horiz-adv-x="830" 
d="M304 480q27 0 45.5 18.5t18.5 47.5q0 24 -15.5 38.5t-41.5 14.5q-27 0 -45.5 -18.5t-18.5 -47.5q0 -24 15.5 -38.5t41.5 -14.5zM295 369q-71 0 -117 44.5t-46 111.5q0 77 55.5 131t132.5 54q71 0 117 -44.5t46 -111.5q0 -77 -55.5 -131t-132.5 -54zM815 700l-543 -700
h-130l543 700h130zM653 220q-27 0 -45.5 -18.5t-18.5 -47.5q0 -24 15.5 -38.5t41.5 -14.5q27 0 45.5 18.5t18.5 47.5q0 24 -15.5 38.5t-41.5 14.5zM662 331q71 0 117 -44.5t46 -111.5q0 -77 -55.5 -131t-132.5 -54q-71 0 -117 44.5t-46 111.5q0 77 55.5 131t132.5 54z" />
    <glyph glyph-name="ampersand" unicode="&#x26;" horiz-adv-x="760" 
d="M339 129q46 0 77 31.5t31 82.5q0 39 -25 62.5t-69 23.5q-46 0 -77 -31.5t-31 -82.5q0 -39 25 -62.5t69 -23.5zM561 130h-10q-8 -50 -75.5 -100t-153.5 -50q-116 0 -186.5 66t-70.5 160q0 108 81.5 184t198.5 76h13q5 -1 16 -1h18l1 10l-47 20l-29 60l25 145h490l-26 -150
h-280l-2 -10l265 -540h-205l-38 70z" />
    <glyph glyph-name="quotesingle" unicode="'" horiz-adv-x="265" 
d="M321 700l-26 -150l-37 -95h-115l-3 95l26 150h155z" />
    <glyph glyph-name="parenleft" unicode="(" horiz-adv-x="410" 
d="M459 760l65 -115q-66 -49 -120 -113q-120 -142 -120 -307q0 -110 56 -212q27 -48 56 -81l-103 -112q-51 47 -89 106q-89 136 -89 294q0 86 26 166t62.5 136t83.5 105t81.5 75t65.5 44z" />
    <glyph glyph-name="parenright" unicode=")" horiz-adv-x="410" 
d="M52 -180l-65 115q68 49 120 112q120 148 120 308q0 110 -56 212q-27 48 -56 81l103 112q48 -43 89 -106q89 -145 89 -294q0 -86 -26 -166t-62 -135.5t-84 -105t-81.5 -75t-64.5 -44.5z" />
    <glyph glyph-name="asterisk" unicode="*" horiz-adv-x="420" 
d="M344 600h115v-100h-85l65 -90l-85 -60l-60 100l-60 -100l-85 60l65 90h-85v100h115v100h100v-100z" />
    <glyph glyph-name="plus" unicode="+" horiz-adv-x="540" 
d="M255 220h-150v140h150v150h140v-150h150v-140h-150v-150h-140v150z" />
    <glyph glyph-name="comma" unicode="," horiz-adv-x="240" 
d="M233 70q0 -96 -50.5 -155.5t-132.5 -59.5h-21l11 65h5q71 0 87 70l2 8l-6 -2q-3 -1 -15 -1q-29 0 -46 19.5t-17 49.5q0 41 30 71t69 30t61.5 -24.5t22.5 -70.5z" />
    <glyph glyph-name="hyphen" unicode="-" horiz-adv-x="490" 
d="M475 200h-390l25 140h390z" />
    <glyph glyph-name="period" unicode="." horiz-adv-x="240" 
d="M132 -15q-36 0 -59 23.5t-23 57.5q0 40 29 69.5t68 29.5q36 0 59.5 -23.5t23.5 -57.5q0 -40 -29.5 -69.5t-68.5 -29.5z" />
    <glyph glyph-name="slash" unicode="/" horiz-adv-x="440" 
d="M0 0l388 700h175l-388 -700h-175z" />
    <glyph glyph-name="zero" unicode="0" horiz-adv-x="780" 
d="M431 150v-1q72 0 125 64.5t53 182.5q0 74 -37.5 114t-101.5 41q-72 0 -125 -64.5t-53 -182.5q0 -74 37.5 -114t101.5 -40zM419 -20q-143 0 -232.5 90t-89.5 232q0 92 32 171t85 132.5t123 84t145 30.5q143 0 232.5 -90t89.5 -232q0 -92 -32 -171t-85 -132.5t-123 -84
t-145 -30.5z" />
    <glyph glyph-name="one" unicode="1" horiz-adv-x="410" 
d="M155 0l86 490l-140 -85l34 195l163 100h170l-123 -700h-190z" />
    <glyph glyph-name="two" unicode="2" horiz-adv-x="655" 
d="M445 211l-69 -36l-43 -15l-2 -10l72 10h235l-28 -160h-580l28 160l262 145q107 60 142 92.5t35 77.5q0 33 -23.5 54t-66.5 21q-58 0 -90 -40q-14 -18 -21 -40h-191q16 69 57 125q92 125 251 125q133 0 207.5 -63t74.5 -157q0 -54 -18 -97t-56.5 -77.5t-76 -58.5
t-99.5 -56z" />
    <glyph glyph-name="three" unicode="3" horiz-adv-x="660" 
d="M494 440l-2 -10q86 -15 130 -64t44 -126q0 -110 -84.5 -185t-216.5 -75q-187 0 -265 120q-33 51 -41 120h191q4 -20 19 -40q32 -40 98 -40q49 0 79 26.5t30 63.5q0 31 -29 55.5t-75 24.5h-151l21 120l178 100l2 10h-270l28 160h525l-28 -160z" />
    <glyph glyph-name="four" unicode="4" horiz-adv-x="665" 
d="M575 0h-185l21 120h-365l28 160l309 420h205l-309 -420h160l28 155h185l-28 -155h90l-28 -160h-90z" />
    <glyph glyph-name="five" unicode="5" horiz-adv-x="675" 
d="M313 290h-195l102 410h490l-28 -160h-330l-30 -110h10q12 10 30 18q42 19 90 19q106 0 172 -63t66 -156q0 -115 -84.5 -191.5t-218.5 -76.5q-178 0 -259 117q-33 51 -41 118h188q5 -22 18 -38q29 -37 95 -37q50 0 80.5 28t30.5 69q0 37 -27 60t-75 23q-31 0 -63 -15
q-12 -7 -21 -15z" />
    <glyph glyph-name="six" unicode="6" horiz-adv-x="670" 
d="M80 224q0 81 44.5 151.5t124.5 150.5l174 174h210l-186 -201l-54 -29l-2 -10q2 1 18 8q24 8 55 8q97 0 161.5 -65t64.5 -159q0 -114 -87.5 -193t-223.5 -79q-140 0 -219.5 69t-79.5 175zM384 330q-53 0 -84 -28.5t-31 -74.5q0 -38 30.5 -62.5t85.5 -24.5q53 0 84 28.5
t31 74.5q0 38 -30.5 62.5t-85.5 24.5z" />
    <glyph glyph-name="seven" unicode="7" horiz-adv-x="580" 
d="M280 0h-205l358 530l2 10h-340l28 160h545l-28 -160z" />
    <glyph glyph-name="eight" unicode="8" horiz-adv-x="710" 
d="M409 -20q-145 0 -240 58.5t-95 157.5q0 106 91 159q43 24 92 31v10q-26 10 -48 29q-47 39 -47 99q0 80 74 138t201 58q148 0 225.5 -56.5t77.5 -135.5q0 -85 -73 -132q-35 -20 -73 -29l-2 -10q34 -12 60 -33q61 -47 61 -122q0 -90 -81 -156t-223 -66zM442 570
q-43 0 -66 -19t-23 -48q0 -27 25 -45t75 -18q43 0 66 19t23 48q0 27 -25 45t-75 18zM393 300q-54 0 -84.5 -25.5t-30.5 -62.5q0 -35 32 -58.5t92 -23.5q54 0 84.5 25.5t30.5 62.5q0 35 -32 58.5t-92 23.5z" />
    <glyph glyph-name="nine" unicode="9" horiz-adv-x="670" 
d="M710 476q0 -81 -44.5 -151.5t-124.5 -150.5l-174 -174h-210l186 201l54 29l2 10l-5 -2.5t-7 -3t-7 -2.5q-24 -8 -54 -8q-97 0 -161.5 65t-64.5 159q0 114 87.5 193t223.5 79q140 0 219.5 -69t79.5 -175zM406 370q53 0 84 28.5t31 74.5q0 38 -30.5 62.5t-85.5 24.5
q-53 0 -84 -28.5t-31 -74.5q0 -38 30.5 -62.5t85.5 -24.5z" />
    <glyph glyph-name="colon" unicode=":" horiz-adv-x="250" 
d="M132 -15q-36 0 -59 23.5t-23 57.5q0 40 29 69.5t68 29.5q36 0 59.5 -23.5t23.5 -57.5q0 -40 -29.5 -69.5t-68.5 -29.5zM195 350q-36 0 -59 23.5t-23 57.5q0 40 29 69.5t68 29.5q36 0 59.5 -23.5t23.5 -57.5q0 -40 -29.5 -69.5t-68.5 -29.5z" />
    <glyph glyph-name="semicolon" unicode=";" horiz-adv-x="250" 
d="M233 70q0 -96 -50.5 -155.5t-132.5 -59.5h-21l11 65h5q71 0 87 70l2 8l-6 -2q-3 -1 -15 -1q-29 0 -46 19.5t-17 49.5q0 41 30 71t69 30t61.5 -24.5t22.5 -70.5zM195 350q-36 0 -59 23.5t-23 57.5q0 40 29 69.5t68 29.5q36 0 59.5 -23.5t23.5 -57.5q0 -40 -29.5 -69.5
t-68.5 -29.5z" />
    <glyph glyph-name="less" unicode="&#x3c;" horiz-adv-x="540" 
d="M250 255l280 -115v-140l-425 180v160l425 180v-140l-280 -115v-10z" />
    <glyph glyph-name="equal" unicode="=" horiz-adv-x="540" 
d="M530 100h-410v135h410v-135zM530 305h-410v135h410v-135z" />
    <glyph glyph-name="greater" unicode="&#x3e;" horiz-adv-x="540" 
d="M115 140l280 115v10l-280 115v140l425 -180v-160l-425 -180v140z" />
    <glyph glyph-name="question" unicode="?" horiz-adv-x="605" 
d="M475 506q0 31 -28 47.5t-70 16.5q-58 0 -91 -43q-14 -19 -20 -42h-186q22 65 63 117q98 118 249 118q122 0 193 -58.5t71 -143.5q0 -120 -113 -177q-6 -3 -24.5 -12.5t-25.5 -13.5t-21.5 -13t-21.5 -15.5t-16 -15.5t-13.5 -19.5t-6.5 -21.5h-183q16 112 133 170
q70 35 90 55q21 22 21 51zM288 -15q-36 0 -59 23.5t-23 57.5q0 40 29 69.5t68 29.5q36 0 59.5 -23.5t23.5 -57.5q0 -40 -29.5 -69.5t-68.5 -29.5z" />
    <glyph glyph-name="at" unicode="@" horiz-adv-x="815" 
d="M856 407q0 -119 -78.5 -188t-180.5 -69h-108l7 38h-5q-8 -11 -21 -22q-29 -21 -65 -21q-53 0 -89 39t-36 103q0 88 50 143t112 55q63 0 88 -46l3 -9h5l9 50h125l-39 -220h7q37 0 69 36.5t32 105.5q0 79 -64 136t-178 57q-124 0 -211.5 -88.5t-87.5 -225.5q0 -109 72 -175
t198 -66q57 0 107 13q18 5 42 14l-18 -105q-24 -9 -42 -14q-50 -13 -106 -13q-167 0 -267.5 97t-100.5 244q0 180 124 302t298 122q160 0 254.5 -87.5t94.5 -205.5zM455 245h3q23 0 42.5 23.5t19.5 61.5q0 26 -13 40.5t-31 14.5q-22 0 -41 -23.5t-19 -61.5q0 -49 39 -55z
" />
    <glyph glyph-name="A" unicode="A" horiz-adv-x="720" 
d="M663 700l67 -700h-187l-10 140h-270l-60 -140h-193l313 700h340zM431 530l-100 -230h190l-20 230h-70z" />
    <glyph glyph-name="B" unicode="B" horiz-adv-x="730" 
d="M470 0h-405l123 700h352q105 0 163 -50t58 -118q0 -89 -68 -135q-32 -21 -67 -28v-5q29 -11 53 -30q53 -45 53 -115q0 -96 -70.5 -157.5t-191.5 -61.5zM490 550h-143l-21 -120h164q34 0 53.5 18t19.5 47q0 24 -19.5 39.5t-53.5 15.5zM276 150h174q44 0 67 20.5t23 54.5
q0 28 -23.5 46.5t-66.5 18.5h-149z" />
    <glyph glyph-name="C" unicode="C" horiz-adv-x="825" 
d="M455 -20q-164 0 -265 98.5t-101 240.5q0 164 122 282.5t295 118.5q85 0 151 -25.5t105.5 -68t61.5 -87.5t31 -94h-189q-39 105 -171 105q-88 0 -149.5 -63.5t-61.5 -163.5q0 -77 49.5 -125t132.5 -48q86 0 146 60q26 26 42 60h193q-31 -81 -86 -145q-123 -145 -306 -145z
" />
    <glyph glyph-name="D" unicode="D" horiz-adv-x="760" 
d="M410 530h-67l-63 -360h114q90 0 144.5 55t54.5 148q0 69 -48 113t-135 44zM188 700h242q156 0 257 -92t101 -230q0 -160 -116.5 -269t-290.5 -109h-316z" />
    <glyph glyph-name="E" unicode="E" 
d="M280 170h355l-30 -170h-540l123 700h540l-30 -170h-355l-18 -105h285l-27 -150h-285z" />
    <glyph glyph-name="F" unicode="F" horiz-adv-x="620" 
d="M291 235l-41 -235h-185l123 700h530l-30 -170h-345l-23 -135h265l-29 -160h-265z" />
    <glyph glyph-name="G" unicode="G" horiz-adv-x="875" 
d="M466 150q77 0 135 50q27 24 42 50h-100l24 140h365l-24 -140h-69q-33 -76 -87 -135q-119 -135 -297 -135q-164 0 -265 98.5t-101 240.5q0 164 122 282.5t295 118.5q138 0 228.5 -68.5t118.5 -196.5h-191q-51 95 -167 95q-88 0 -149.5 -63.5t-61.5 -163.5q0 -77 49.5 -125
t132.5 -48z" />
    <glyph glyph-name="H" unicode="H" horiz-adv-x="770" 
d="M65 0l123 700h185l-45 -260h270l45 260h185l-123 -700h-185l48 270h-270l-48 -270h-185z" />
    <glyph glyph-name="I" unicode="I" horiz-adv-x="315" 
d="M373 700l-123 -700h-185l123 700h185z" />
    <glyph glyph-name="J" unicode="J" horiz-adv-x="610" 
d="M667 700l-85 -479q-20 -115 -96.5 -180.5t-193.5 -65.5q-69 0 -121.5 21t-80 53.5t-41 58.5t-17.5 49l-3 14l173 36q6 -17 18 -31q29 -31 78 -31q85 0 102 92l82 463h185z" />
    <glyph glyph-name="K" unicode="K" horiz-adv-x="720" 
d="M520 0l-127 270h-95l-48 -270h-185l123 700h185l-45 -260h75l215 260h215l-278 -330l170 -370h-205z" />
    <glyph glyph-name="L" unicode="L" horiz-adv-x="580" 
d="M373 700l-93 -530h335l-30 -170h-520l123 700h185z" />
    <glyph glyph-name="M" unicode="M" horiz-adv-x="965" 
d="M613 160h-205l-77 330h-10v-90l-71 -400h-185l123 700h255l82 -360h25l208 360h265l-123 -700h-185l71 400l30 90h-10z" />
    <glyph glyph-name="N" unicode="N" horiz-adv-x="780" 
d="M500 0l-177 440h-10l-1 -90l-62 -350h-185l123 700h215l178 -440h10l1 90l61 350h185l-123 -700h-215z" />
    <glyph glyph-name="O" unicode="O" horiz-adv-x="850" 
d="M286 323q0 -77 49.5 -125t132.5 -48q88 0 149.5 63.5t61.5 163.5q0 77 -49.5 125t-132.5 48q-88 0 -149.5 -63.5t-61.5 -163.5zM91 319q0 164 122 282.5t295 118.5q164 0 265 -98.5t101 -240.5q0 -164 -122 -282.5t-295 -118.5q-164 0 -265 98.5t-101 240.5z" />
    <glyph glyph-name="P" unicode="P" horiz-adv-x="730" 
d="M480 530h-137l-30 -170h167q48 0 75 25t27 67q0 34 -25.5 56t-76.5 22zM188 700h317q120 0 194.5 -69t74.5 -167q0 -115 -87 -194.5t-215 -79.5h-188l-34 -190h-185z" />
    <glyph glyph-name="Q" unicode="Q" horiz-adv-x="850" 
d="M91 319q0 164 122 282.5t295 118.5q164 0 265 -98.5t101 -240.5q0 -149 -103.5 -263t-256.5 -134l-34 -189h-190l37 205q-109 34 -172.5 121.5t-63.5 197.5zM286 323q0 -77 49.5 -125t132.5 -48q88 0 149.5 63.5t61.5 163.5q0 77 -49.5 125t-132.5 48q-88 0 -149.5 -63.5
t-61.5 -163.5z" />
    <glyph glyph-name="R" unicode="R" horiz-adv-x="740" 
d="M602 236l98 -236h-200l-88 210h-125l-37 -210h-185l123 700h317q121 0 196.5 -65t75.5 -162q0 -88 -49.5 -148t-125.5 -89zM317 380h173q41 0 68 23t27 56q0 29 -24 50t-66 21h-152z" />
    <glyph glyph-name="S" unicode="S" horiz-adv-x="690" 
d="M405 140q40 0 66 15.5t26 43.5q0 10 -5 18.5t-15.5 16.5t-21.5 14.5t-30 13.5t-33 12t-37.5 13.5t-37.5 13.5q-181 61 -181 187q0 94 79.5 163t208.5 69q68 0 121 -17t83.5 -40t52.5 -56t30.5 -56.5t13.5 -50.5h-188q-4 16 -20 30q-34 30 -102 30q-42 0 -62 -14t-20 -35
q0 -8 3 -14.5t10 -13.5t13.5 -12t19.5 -11.5t22 -10.5t26 -10t27.5 -9.5t30 -10.5t29.5 -10q181 -66 181 -188q0 -99 -80 -170t-215 -71q-149 0 -229.5 69.5t-100.5 175.5h188q7 -25 25 -43q40 -42 122 -42z" />
    <glyph glyph-name="T" unicode="T" 
d="M310 530h-220l30 170h625l-30 -170h-220l-93 -530h-185z" />
    <glyph glyph-name="U" unicode="U" horiz-adv-x="750" 
d="M364 700l-71 -403q-3 -17 -3 -32q0 -19 4 -32q21 -83 118 -83q54 0 90 32t47 92l75 426h185l-80 -446q-22 -126 -108.5 -200t-215.5 -74q-122 0 -198 54t-95 146q-8 34 -8 67q0 31 6 62l69 391h185z" />
    <glyph glyph-name="V" unicode="V" horiz-adv-x="715" 
d="M828 700l-303 -700h-345l-57 700h185l37 -530h65l223 530h195z" />
    <glyph glyph-name="W" unicode="W" horiz-adv-x="1010" 
d="M327 210l180 490h222l8 -490h10l176 490h190l-268 -700h-255l-8 470h-10l-172 -470h-245l-22 700h180l4 -490h10z" />
    <glyph glyph-name="X" unicode="X" horiz-adv-x="695" 
d="M338 700l63 -270h50l157 270h200l-222 -355l114 -345h-195l-74 260h-50l-166 -260h-205l236 345l-98 355h190z" />
    <glyph glyph-name="Y" unicode="Y" horiz-adv-x="685" 
d="M466 250l-44 -250h-185l44 250l-181 450h190l102 -270h15l198 270h200z" />
    <glyph glyph-name="Z" unicode="Z" horiz-adv-x="665" 
d="M40 0l30 170l392 350l1 10h-320l30 170h575l-30 -170l-392 -350l-1 -10h340l-30 -170h-595z" />
    <glyph glyph-name="bracketleft" unicode="[" horiz-adv-x="385" 
d="M467 580h-130l-103 -580h130l-26 -150h-300l155 880h300z" />
    <glyph glyph-name="backslash" unicode="\" horiz-adv-x="440" 
d="M298 700l142 -700h-175l-142 700h175z" />
    <glyph glyph-name="bracketright" unicode="]" horiz-adv-x="385" 
d="M253 580h-130l26 150h300l-155 -880h-300l26 150h130z" />
    <glyph glyph-name="asciicircum" unicode="^" horiz-adv-x="505" 
d="M406 700l150 -325h-140l-90 190h-15l-90 -190h-140l150 325h175z" />
    <glyph glyph-name="underscore" unicode="_" horiz-adv-x="375" 
d="M378 -210h-415l23 130h415z" />
    <glyph glyph-name="grave" unicode="`" horiz-adv-x="305" 
d="M123 700h170l48 -155h-115l-104 150z" />
    <glyph glyph-name="a" unicode="a" 
d="M422 0l11 65h-8q-17 -21 -42 -40q-54 -40 -112 -40q-88 0 -144.5 63.5t-56.5 166.5q0 143 79.5 231.5t181.5 88.5q59 0 97 -25.5t54 -54.5l8 -15h10l14 80h170l-92 -520h-170zM346 130q51 0 87 41t36 115q0 50 -27 77t-74 27q-51 0 -87 -41t-36 -115q0 -50 27 -77t74 -27
z" />
    <glyph glyph-name="b" unicode="b" 
d="M343 700l-43 -245h8q17 21 42 40q54 40 112 40q88 0 144.5 -63.5t56.5 -166.5q0 -143 -79.5 -231.5t-181.5 -88.5q-59 0 -97 25.5t-54 54.5l-8 15h-10l-13 -80h-170l123 700h170zM387 390q-51 0 -87 -41t-36 -115q0 -50 27 -77t74 -27q51 0 87 41t36 115q0 50 -27 77
t-74 27z" />
    <glyph glyph-name="c" unicode="c" horiz-adv-x="605" 
d="M335 -15q-109 0 -187 69.5t-78 182.5q0 122 90 210t212 88q151 0 222 -108q29 -47 37 -107h-174q-5 18 -18 35q-31 35 -74 35q-47 0 -84 -42t-37 -109q0 -50 27 -79.5t68 -29.5q51 0 80 35q14 16 23 35h178q-19 -58 -58 -108q-85 -107 -227 -107z" />
    <glyph glyph-name="d" unicode="d" 
d="M422 0l11 65h-8q-17 -21 -42 -40q-54 -40 -112 -40q-88 0 -144.5 63.5t-56.5 166.5q0 143 79.5 231.5t181.5 88.5q59 0 97 -25.5t54 -54.5l8 -15h10l46 260h170l-124 -700h-170zM346 130q51 0 87 41t36 115q0 50 -27 77t-74 27q-51 0 -87 -41t-36 -115q0 -50 27 -77
t74 -27z" />
    <glyph glyph-name="e" unicode="e" horiz-adv-x="625" 
d="M342 -15q-118 0 -195 71t-77 182q0 122 91.5 209.5t215.5 87.5q118 0 191 -73t73 -179q0 -20 -5 -53h-395q5 -110 104 -110q47 0 76 27q15 13 23 28h183q-23 -56 -61 -95q-89 -95 -224 -95zM257 315h211q-2 34 -29 59.5t-64 25.5q-88 0 -118 -85z" />
    <glyph glyph-name="f" unicode="f" horiz-adv-x="393" 
d="M79 365l24 135h65l35 200h310l-24 -135h-140l-11 -65h115l-24 -135h-115l-64 -365h-170l64 365h-65z" />
    <glyph glyph-name="g" unicode="g" 
d="M442 75h-8q-16 -19 -40 -35q-50 -35 -112 -35q-89 0 -147 63t-58 163q0 133 79 218.5t180 85.5q78 0 127 -45q22 -19 34 -45h10l13 75h170l-125 -710l-495 1l24 134h325zM355 145q50 0 85.5 37.5t35.5 101.5q0 47 -28 74t-75 27q-50 0 -85.5 -37.5t-35.5 -101.5
q0 -47 28 -74t75 -27z" />
    <glyph glyph-name="h" unicode="h" horiz-adv-x="625" 
d="M634 303l-54 -303h-170l52 293q2 16 2 23q0 28 -14 51q-20 30 -70 30q-39 0 -70.5 -29.5t-39.5 -77.5l-50 -290h-170l123 700h170l-42 -245h8q16 20 41 40q54 40 112 40q76 0 120 -37.5t55 -102.5q2 -22 2 -35q0 -25 -5 -57z" />
    <glyph glyph-name="i" unicode="i" horiz-adv-x="270" 
d="M312 520l-92 -520h-170l92 520h170zM248 575q-41 0 -64 20.5t-23 54.5q0 42 26.5 68.5t67.5 26.5t64 -20.5t23 -54.5q0 -42 -26.5 -68.5t-67.5 -26.5z" />
    <glyph glyph-name="j" unicode="j" horiz-adv-x="270" 
d="M312 520l-125 -710h-305l24 135h135l101 575h170zM248 575q-41 0 -64 20.5t-23 54.5q0 42 26.5 68.5t67.5 26.5t64 -20.5t23 -54.5q0 -42 -26.5 -68.5t-67.5 -26.5z" />
    <glyph glyph-name="k" unicode="k" horiz-adv-x="580" 
d="M254 190l-34 -190h-170l123 700h170l-64 -365h50l148 185h185l-194 -245l117 -275h-185l-81 190h-65z" />
    <glyph glyph-name="l" unicode="l" horiz-adv-x="345" 
d="M50 0l123 700h170l-99 -565h115l-24 -135h-285z" />
    <glyph glyph-name="m" unicode="m" horiz-adv-x="953" 
d="M605 450h9q20 23 47 42q63 43 129 43q75 0 119.5 -37t55.5 -102q2 -22 2 -36q0 -23 -5 -58l-52 -302h-170l52 293q3 17 3 30q0 26 -11 46q-16 28 -64 28q-39 0 -67 -27.5t-36 -75.5l-52 -294h-170l52 293q3 17 3 30q0 26 -11 46q-16 28 -64 28q-39 0 -67 -27.5t-36 -75.5
l-52 -294h-170l92 520h170l-11 -65h8q17 23 38 40q50 40 110 40q73 0 120 -43q19 -17 28 -42z" />
    <glyph glyph-name="n" unicode="n" horiz-adv-x="625" 
d="M634 303l-54 -303h-170l52 293q2 16 2 23q0 28 -14 51q-20 30 -70 30q-39 0 -70.5 -29.5t-39.5 -77.5l-50 -290h-170l92 520h170l-11 -65h8q16 20 41 40q54 40 112 40q76 0 120 -37.5t55 -102.5q2 -22 2 -35q0 -25 -5 -57z" />
    <glyph glyph-name="o" unicode="o" horiz-adv-x="630" 
d="M244 239q0 -50 29 -79.5t77 -29.5q51 0 89.5 42t38.5 109q0 50 -29 79.5t-77 29.5q-51 0 -89.5 -42t-38.5 -109zM70 237q0 122 92 210t219 88q120 0 195.5 -73t75.5 -179q0 -122 -92 -210t-219 -88q-120 0 -195.5 73t-75.5 179z" />
    <glyph glyph-name="p" unicode="p" 
d="M311 520l-11 -65h8q17 21 42 40q54 40 112 40q88 0 144.5 -63.5t56.5 -166.5q0 -143 -79.5 -231.5t-181.5 -88.5q-59 0 -97 25.5t-54 54.5l-8 15h-10l-47 -270h-170l125 710h170zM387 390q-51 0 -87 -41t-36 -115q0 -50 27 -77t74 -27q51 0 87 41t36 115q0 50 -27 77
t-74 27z" />
    <glyph glyph-name="q" unicode="q" 
d="M389 -190l44 255h-8q-17 -21 -42 -40q-54 -40 -112 -40q-88 0 -144.5 63.5t-56.5 166.5q0 143 79.5 231.5t181.5 88.5q59 0 97 -25.5t54 -54.5l8 -15h10l14 80h170l-125 -710h-170zM346 130q51 0 87 41t36 115q0 50 -27 77t-74 27q-51 0 -87 -41t-36 -115q0 -50 27 -77
t74 -27z" />
    <glyph glyph-name="r" unicode="r" horiz-adv-x="425" 
d="M469 365h-85q-45 0 -77 -27.5t-40 -72.5l-47 -265h-170l92 520h165l-14 -75h10q15 26 32 42q47 43 105 43h58z" />
    <glyph glyph-name="s" unicode="s" horiz-adv-x="550" 
d="M108 365q0 71 58.5 120.5t159.5 49.5q69 0 121 -18.5t78 -47.5t38 -52t15 -43l2 -14h-163l-2 8q-4 14 -23.5 28t-55.5 14q-24 0 -38 -10t-14 -25q0 -24 70 -45q5 -2 27.5 -9t30.5 -10t29 -11t30 -14t25.5 -16t24 -20t17 -23t13 -28.5t3.5 -33.5q0 -75 -61.5 -127.5
t-173.5 -52.5q-155 0 -227 92q-32 41 -39 93h168l3 -9q5 -16 29.5 -31t68.5 -15q56 0 56 34q0 24 -70 47q-95 32 -128 52q-72 44 -72 117z" />
    <glyph glyph-name="t" unicode="t" horiz-adv-x="420" 
d="M83 385l24 135h65l19 110h170l-19 -110h135l-24 -135h-135l-44 -250h145l-24 -135h-315l68 385h-65z" />
    <glyph glyph-name="u" unicode="u" horiz-adv-x="630" 
d="M88 217l54 303h170l-52 -293q-2 -18 -2 -24q0 -28 14 -50q20 -30 70 -30q39 0 70.5 29.5t39.5 77.5l50 290h170l-92 -520h-170l11 65h-8q-16 -20 -41 -40q-54 -40 -112 -40q-76 0 -120.5 37.5t-53.5 102.5q-3 18 -3 38q0 22 5 54z" />
    <glyph glyph-name="v" unicode="v" horiz-adv-x="575" 
d="M656 520l-222 -520h-305l-38 520h170l20 -370h45l150 370h180z" />
    <glyph glyph-name="w" unicode="w" horiz-adv-x="860" 
d="M486 340h-10l-125 -340h-237l-13 520h172v-340h15l125 340h200l5 -340h15l120 340h178l-197 -520h-243z" />
    <glyph glyph-name="x" unicode="x" horiz-adv-x="585" 
d="M590 0h-185l-52 185h-30l-118 -185h-195l193 270l-91 250h180l48 -180h30l112 180h190l-179 -250z" />
    <glyph glyph-name="y" unicode="y" horiz-adv-x="575" 
d="M243 0h-110l-22 260l-21 260h170l24 -375h30q110 250 166 375h180l-325 -710h-180z" />
    <glyph glyph-name="z" unicode="z" horiz-adv-x="530" 
d="M587 520l-26 -145l-274 -220l-1 -10h245l-26 -145h-475l26 145l273 220l2 10h-225l26 145h455z" />
    <glyph glyph-name="braceleft" unicode="{" horiz-adv-x="405" 
d="M246 295l-2 -10q21 -5 37 -16q14 -11 23 -30q5 -13 5 -29q0 -7 -2 -25l-26 -147q-1 -3 -1 -9q0 -13 7 -21q9 -13 31 -13h65l-25 -145h-115q-79 0 -115 42q-26 32 -26 79q0 20 4 39l30 170q1 3 1 8q0 10 -6 17q-9 10 -24 10h-40l26 150h40q15 0 27 10t15 25l30 170
q14 76 64.5 118t128.5 42h115l-26 -145h-65q-21 0 -35 -12t-17 -31l-26 -147q-10 -54 -55 -84q-18 -11 -43 -16z" />
    <glyph glyph-name="bar" unicode="|" horiz-adv-x="400" 
d="M340 750v-850h-160v850h160z" />
    <glyph glyph-name="braceright" unicode="}" horiz-adv-x="405" 
d="M261 285l1 10q-23 5 -37 16t-22 31q-5 12 -5 28q0 7 2 25l26 147q1 3 1 9q0 12 -7 22q-9 12 -31 12h-65l25 145h115q79 0 115 -42q26 -32 26 -79q0 -20 -4 -39l-30 -170q-1 -3 -1 -7q0 -11 7 -18q7 -10 23 -10h40l-27 -150h-40q-15 0 -26.5 -10t-14.5 -25l-30 -170
q-14 -76 -64.5 -118t-128.5 -42h-115l26 145h65q21 0 35 12t17 31l26 147q10 54 55 84q19 11 43 16z" />
    <glyph glyph-name="asciitilde" unicode="~" horiz-adv-x="540" 
d="M255 260q-15 0 -25 -10t-10 -25v-15h-130v60q0 63 34 99t91 36q52 0 102 -27q45 -28 68 -28q15 0 25 10t10 25v15h130v-60q0 -63 -34 -99t-91 -36t-102 28q-4 2 -13.5 7.5t-14 8t-12 5.5t-14.5 4.5t-14 1.5z" />
    <glyph glyph-name="nbspace" unicode="&#xa0;" horiz-adv-x="280" 
 />
    <glyph glyph-name="exclamdown" unicode="&#xa1;" horiz-adv-x="310" 
d="M41 -190l55 315l58 160h110l2 -160l-55 -315h-170zM243 530q36 0 59 -23.5t23 -57.5q0 -40 -29 -69.5t-68 -29.5q-36 0 -59.5 23.5t-23.5 57.5q0 40 29.5 69.5t68.5 29.5z" />
    <glyph glyph-name="cent" unicode="&#xa2;" horiz-adv-x="605" 
d="M213 -90l17 94q-72 26 -116 87.5t-44 145.5q0 109 73.5 192t179.5 101l14 80h155l-16 -91q92 -31 133 -118q17 -38 22 -81h-174q-5 18 -18 35q-31 35 -74 35q-47 0 -84 -42t-37 -109q0 -50 27 -79.5t68 -29.5q51 0 80 35q14 16 23 35h178q-16 -50 -49 -96
q-70 -99 -189 -116l-14 -78h-155z" />
    <glyph glyph-name="sterling" unicode="&#xa3;" horiz-adv-x="625" 
d="M366 430h145l-23 -130h-145l-9 -50q-9 -42 -40 -67q-14 -11 -30 -18l-1 -5h370l-28 -160h-585l28 160h15q69 0 83 75l11 65h-64l23 130h65l17 96q18 95 83 149.5t168 54.5q71 0 120.5 -20.5t73.5 -55t34 -65t12 -64.5h-177q-2 16 -7 27q-13 28 -53 28q-60 0 -72 -69z" />
    <glyph glyph-name="currency" unicode="&#xa4;" horiz-adv-x="720" 
d="M490 550h-108l-28 -160h130q44 0 71.5 24.5t27.5 61.5q0 29 -26 51.5t-67 22.5zM223 700h292q126 0 193.5 -56.5t67.5 -141.5q0 -108 -72 -175t-200 -67h-173l-11 -60h215l-21 -120h-215l-14 -80h-185l14 80h-75l21 120h75l11 60h-75l23 130h75z" />
    <glyph glyph-name="yen" unicode="&#xa5;" horiz-adv-x="685" 
d="M502 340h120l-18 -100h-140l-12 -65h140l-17 -100h-140l-13 -75h-185l13 75h-140l17 100h140l12 65h-140l18 100h120l-177 360h190l109 -235h15l191 235h200z" />
    <glyph glyph-name="brokenbar" unicode="&#xa6;" horiz-adv-x="400" 
d="M340 750v-365h-160v365h160zM340 265v-365h-160v365h160z" />
    <glyph glyph-name="section" unicode="&#xa7;" horiz-adv-x="600" 
d="M314 414q-12 -3 -19 -9q-19 -12 -19 -35q0 -16 18 -28.5t58 -27.5l56 -23l6 2q32 13 32 41q0 18 -17.5 30t-57.5 27q-19 7 -57 23zM332 572q0 -14 19 -25.5t58 -25.5q7 -2 30 -10.5t33 -12.5t32 -13t33 -15.5t28 -16.5t26 -20.5t19 -23.5t14 -27.5t4 -31.5q0 -55 -55 -94
q-24 -16 -55 -25l-2 -10q14 -11 24 -24q24 -32 24 -66q0 -63 -60.5 -107t-164.5 -44q-158 0 -234 82q-33 36 -45 83h167q5 -15 18 -25q29 -25 83 -25q62 0 62 38q0 24 -77 52q-111 37 -152 64q-66 45 -67 106q0 57 55 94q23 16 55 25l2 10q-14 10 -24 24q-24 30 -24 66
q0 62 60 106.5t163 44.5q151 0 228 -83q32 -35 43 -82h-167q-5 14 -16 25q-27 25 -74 25q-63 0 -63 -38z" />
    <glyph glyph-name="dieresis" unicode="&#xa8;" horiz-adv-x="425" 
d="M197 550q-33 0 -53.5 21t-20.5 51q0 38 25 63t61 25q33 0 53.5 -21t20.5 -51q0 -38 -25 -63t-61 -25zM402 550q-32 0 -53 21t-21 51q0 38 25 63t61 25q32 0 53 -21t21 -51q0 -38 -25 -63t-61 -25z" />
    <glyph glyph-name="copyright" unicode="&#xa9;" horiz-adv-x="845" 
d="M480 165q-78 0 -131.5 54.5t-53.5 130.5t53.5 130.5t131.5 54.5q96 0 151 -75q23 -32 34 -75h-120q-4 8 -13 17q-18 18 -47 18q-30 0 -50 -20t-20 -50t20 -50t50 -20t47 17q9 9 13 18h120q-11 -43 -34 -75q-52 -75 -151 -75zM205 350q0 -113 78 -189t197 -76t197 76
t78 189t-78 189t-197 76t-197 -76t-78 -189zM870 350q0 -152 -113.5 -261t-276.5 -109t-276.5 109t-113.5 261t113.5 261t276.5 109t276.5 -109t113.5 -261z" />
    <glyph glyph-name="ordfeminine" unicode="&#xaa;" horiz-adv-x="390" 
d="M199 360q-44 0 -71 27t-27 64q0 49 32.5 79t86.5 30h108l4 18q1 3 1 10q0 11 -8 21q-13 11 -32 11q-18 0 -33 -15q-6 -10 -7 -15h-118q11 35 31 60q46 60 131 60q84 0 124 -37q31 -28 31 -76q0 -9 -2 -27l-35 -200h-120l9 48h-5q-11 -17 -26 -29q-33 -29 -74 -29z
M319 505h-60q-30 0 -30 -28q0 -22 30 -22q22 0 40 14.5t20 35.5z" />
    <glyph glyph-name="guillemotleft" unicode="&#xab;" horiz-adv-x="640" 
d="M356 87l-107 -87l-179 260l271 260l84 -95l-185 -175zM621 87l-107 -87l-179 260l271 260l84 -95l-185 -175z" />
    <glyph glyph-name="logicalnot" unicode="&#xac;" horiz-adv-x="540" 
d="M390 145v100h-275v140h425v-240h-150z" />
    <glyph glyph-name="uni00AD" unicode="&#xad;" horiz-adv-x="490" 
d="M475 200h-390l25 140h390z" />
    <glyph glyph-name="registered" unicode="&#xae;" horiz-adv-x="605" 
d="M260 580h125q55 0 85 -25t30 -65q0 -37 -23 -60q-11 -11 -22 -15l55 -80h-95l-45 65h-20v-65h-90v245zM380 505h-30v-40h30q25 0 25 20t-25 20zM650 450q0 -113 -80.5 -191.5t-199.5 -78.5t-199.5 78.5t-80.5 191.5t80.5 191.5t199.5 78.5t199.5 -78.5t80.5 -191.5z
M560 450q0 85 -53 135t-137 50t-137 -50t-53 -135t53 -135t137 -50t137 50t53 135z" />
    <glyph glyph-name="macron" unicode="&#xaf;" horiz-adv-x="380" 
d="M124 590l19 105h320l-19 -105h-320z" />
    <glyph glyph-name="degree" unicode="&#xb0;" horiz-adv-x="340" 
d="M259 705q60 0 100 -39t40 -96t-40 -96t-100 -39t-100 39t-40 96t40 96t100 39zM259 615q-19 0 -32 -13t-13 -32t13 -32t32 -13t32 13t13 32t-13 32t-32 13z" />
    <glyph glyph-name="plusminus" unicode="&#xb1;" horiz-adv-x="540" 
d="M545 0h-440v135h150v130h-150v135h150v150h140v-150h150v-135h-150v-130h150v-135z" />
    <glyph glyph-name="twosuperior" unicode="&#xb2;" horiz-adv-x="370" 
d="M278 555l-1 -5l47 10h105l-18 -100h-310l18 100l87 40q76 35 97.5 49t21.5 34q0 12 -9.5 20t-24.5 8q-19 0 -33 -16l-9 -15h-117q10 35 34 65q55 65 138 65q72 0 110.5 -31.5t38.5 -76.5q0 -58 -41.5 -92.5t-133.5 -54.5z" />
    <glyph glyph-name="threesuperior" unicode="&#xb3;" horiz-adv-x="355" 
d="M343 665l-1 -5q41 -4 64.5 -27t23.5 -59q0 -54 -40.5 -89t-106.5 -35q-99 0 -140 60q-19 26 -23 60h113q3 -8 8 -15q13 -15 32 -15q15 0 26.5 9.5t11.5 23.5q0 29 -34 32h-70l11 60l94 50l1 5l-42 -10h-110l16 90h275l-15 -85z" />
    <glyph glyph-name="acute" unicode="&#xb4;" horiz-adv-x="305" 
d="M228 700h170l-1 -5l-156 -150h-115z" />
    <glyph glyph-name="mu" unicode="&#xb5;" horiz-adv-x="630" 
d="M285 -15q-70 0 -88 38l-3 7h-10l20 -120l-19 -110h-170l127 720h170l-52 -293q-2 -18 -2 -24q0 -28 14 -50q20 -30 70 -30q39 0 70.5 29.5t39.5 77.5l50 290h170l-92 -520h-170l11 65h-8q-11 -22 -28 -40q-40 -40 -100 -40z" />
    <glyph glyph-name="paragraph" unicode="&#xb6;" horiz-adv-x="525" 
d="M95 475q0 95 68 160t172 65h240v-170h-95v-725h-160v445q-94 0 -159.5 65.5t-65.5 159.5z" />
    <glyph glyph-name="periodcentered" unicode="&#xb7;" horiz-adv-x="280" 
d="M183 190q-35 0 -58.5 24t-23.5 58q0 40 29 69t68 29q35 0 58.5 -24t23.5 -58q0 -40 -29 -69t-68 -29z" />
    <glyph glyph-name="cedilla" unicode="&#xb8;" horiz-adv-x="285" 
d="M191 20l-39 -68q19 -4 38 -16q38 -26 38 -73q0 -52 -41 -90t-100 -38q-40 0 -74 14q-15 6 -26 14l14 85q14 -8 26 -14q32 -14 63 -14q20 0 31.5 10.5t11.5 25.5q0 12 -9.5 20.5t-26.5 8.5h-55l74 135h75z" />
    <glyph glyph-name="onesuperior" unicode="&#xb9;" horiz-adv-x="365" 
d="M121 460l18 100h90l23 130l-88 -45l18 105l99 50h110l-42 -240h80l-18 -100h-290z" />
    <glyph glyph-name="ordmasculine" unicode="&#xba;" horiz-adv-x="400" 
d="M272 360q-76 0 -122.5 44.5t-46.5 112.5q0 83 56 138t137 55q76 0 122.5 -44.5t46.5 -112.5q0 -82 -56.5 -137.5t-136.5 -55.5zM276 465q24 0 44.5 23t20.5 61q0 26 -14 41t-35 15q-25 0 -45 -22.5t-20 -61.5q0 -26 14 -41t35 -15z" />
    <glyph glyph-name="guillemotright" unicode="&#xbb;" horiz-adv-x="640" 
d="M389 433l107 87l179 -260l-271 -260l-84 95l185 175zM124 433l107 87l179 -260l-271 -260l-84 95l185 175z" />
    <glyph glyph-name="onequarter" unicode="&#xbc;" horiz-adv-x="825" 
d="M99 360l18 100h90l23 130l-88 -45l18 105l99 50h110l-42 -240h80l-18 -100h-290zM821 700l-543 -700h-130l543 700h130zM748 0h-115l11 60h-175l16 90l153 190h120l-146 -180h50l33 50h90l-8 -50h40l-18 -100h-40z" />
    <glyph glyph-name="onehalf" unicode="&#xbd;" horiz-adv-x="865" 
d="M99 360l18 100h90l23 130l-88 -45l18 105l99 50h110l-42 -240h80l-18 -100h-290zM821 700l-543 -700h-130l543 700h130zM679 95l-1 -5l47 10h105l-18 -100h-310l18 100l87 40q76 35 97.5 49t21.5 34q0 12 -9.5 20t-24.5 8q-19 0 -33 -16l-9 -15h-117q10 35 34 65
q55 65 138 65q72 0 110.5 -31.5t38.5 -76.5q0 -58 -41.5 -92.5t-133.5 -54.5z" />
    <glyph glyph-name="threequarters" unicode="&#xbe;" horiz-adv-x="815" 
d="M331 565l-1 -5q41 -4 64.5 -27t23.5 -59q0 -54 -40.5 -89t-106.5 -35q-99 0 -140 60q-19 26 -23 60h113q3 -8 8 -15q13 -15 32 -15q15 0 26.5 9.5t11.5 23.5q0 29 -34 32h-70l11 60l94 50l1 5l-42 -10h-110l16 90h275l-15 -85zM748 0h-115l11 60h-175l16 90l153 190h120
l-146 -180h50l33 50h90l-8 -50h40l-18 -100h-40zM821 700l-543 -700h-130l543 700h130z" />
    <glyph glyph-name="questiondown" unicode="&#xbf;" horiz-adv-x="605" 
d="M230 4q0 -31 27.5 -47.5t69.5 -16.5q59 0 91 42q14 19 20 43h186q-22 -65 -63 -118q-97 -117 -249 -117q-122 0 -193 58.5t-71 143.5q0 122 114 182q76 38 98 58q26 25 31 53h183q-16 -112 -132 -168q-29 -14 -43.5 -22.5t-33.5 -22.5t-27 -30.5t-8 -37.5zM417 530
q36 0 59 -23.5t23 -57.5q0 -40 -29 -69.5t-68 -29.5q-36 0 -59.5 23.5t-23.5 57.5q0 40 29.5 69.5t68.5 29.5z" />
    <glyph glyph-name="Agrave" unicode="&#xc0;" horiz-adv-x="720" 
d="M663 700l67 -700h-187l-10 140h-270l-60 -140h-193l313 700h340zM431 530l-100 -230h190l-20 230h-70zM338 940h170l48 -155h-115l-104 150z" />
    <glyph glyph-name="Aacute" unicode="&#xc1;" horiz-adv-x="720" 
d="M663 700l67 -700h-187l-10 140h-270l-60 -140h-193l313 700h340zM431 530l-100 -230h190l-20 230h-70zM542 940h170l-1 -5l-156 -150h-115z" />
    <glyph glyph-name="Acircumflex" unicode="&#xc2;" horiz-adv-x="720" 
d="M663 700l67 -700h-187l-10 140h-270l-60 -140h-193l313 700h340zM431 530l-100 -230h190l-20 230h-70zM451 940h135l84 -150l-1 -5h-113l-43 70h-15l-67 -70h-117l1 5z" />
    <glyph glyph-name="Atilde" unicode="&#xc3;" horiz-adv-x="720" 
d="M663 700l67 -700h-187l-10 140h-270l-60 -140h-193l313 700h340zM431 530l-100 -230h190l-20 230h-70zM440 930q40 0 74 -22q33 -23 48 -23q26 0 30 25l3 15h95l-9 -50q-8 -45 -37.5 -70t-74.5 -25q-41 0 -74 23q-34 22 -48 22q-26 0 -30 -25l-3 -15h-94l9 50q8 45 37 70
t74 25z" />
    <glyph glyph-name="Adieresis" unicode="&#xc4;" horiz-adv-x="720" 
d="M663 700l67 -700h-187l-10 140h-270l-60 -140h-193l313 700h340zM431 530l-100 -230h190l-20 230h-70zM394 775q-32 0 -53 20.5t-21 51.5q0 38 25 63t61 25q32 0 53 -20.5t21 -51.5q0 -38 -25 -63t-61 -25zM599 775q-33 0 -53.5 20.5t-20.5 51.5q0 38 25 63t61 25
q33 0 53.5 -20.5t20.5 -51.5q0 -38 -25 -63t-61 -25z" />
    <glyph glyph-name="Aring" unicode="&#xc5;" horiz-adv-x="720" 
d="M663 700l67 -700h-187l-10 140h-270l-60 -140h-193l313 700h340zM431 530l-100 -230h190l-20 230h-70zM488 750q-51 0 -82 29.5t-31 75.5q0 54 37 89.5t91 35.5q51 0 82 -29.5t31 -75.5q0 -54 -37 -89.5t-91 -35.5zM491 820q21 0 35 13.5t14 34.5q0 18 -11 30t-29 12
q-21 0 -35 -13.5t-14 -34.5q0 -18 11 -30t29 -12z" />
    <glyph glyph-name="AE" unicode="&#xc6;" horiz-adv-x="1030" 
d="M680 170h340l-30 -170h-525l25 140h-225l-62 -140h-193l313 700h790l-30 -170h-340l-18 -105h270l-27 -150h-270zM433 530l-104 -230h189l40 230h-125z" />
    <glyph glyph-name="Ccedilla" unicode="&#xc7;" horiz-adv-x="825" 
d="M455 -20l-16 -28q19 -4 38 -16q38 -26 38 -73q0 -52 -41 -90t-100 -38q-40 0 -74 14q-15 6 -26 14l14 85q14 -8 26 -14q32 -14 63 -14q20 0 31.5 10.5t11.5 25.5q0 12 -9.5 20.5t-26.5 8.5h-55l55 100q-135 21 -215 114.5t-80 219.5q0 164 122 282.5t295 118.5
q85 0 151 -25.5t105.5 -68t61.5 -87.5t31 -94h-189q-39 105 -171 105q-88 0 -149.5 -63.5t-61.5 -163.5q0 -77 49.5 -125t132.5 -48q86 0 146 60q26 26 42 60h193q-31 -81 -86 -145q-123 -145 -306 -145z" />
    <glyph glyph-name="Egrave" unicode="&#xc8;" 
d="M280 170h355l-30 -170h-540l123 700h540l-30 -170h-355l-18 -105h285l-27 -150h-285zM312 940h170l48 -155h-115l-104 150z" />
    <glyph glyph-name="Eacute" unicode="&#xc9;" 
d="M280 170h355l-30 -170h-540l123 700h540l-30 -170h-355l-18 -105h285l-27 -150h-285zM502 940h170l-1 -5l-156 -150h-115z" />
    <glyph glyph-name="Ecircumflex" unicode="&#xca;" 
d="M280 170h355l-30 -170h-540l123 700h540l-30 -170h-355l-18 -105h285l-27 -150h-285zM422 940h135l84 -150l-1 -5h-113l-43 70h-15l-67 -70h-117l1 5z" />
    <glyph glyph-name="Edieresis" unicode="&#xcb;" 
d="M280 170h355l-30 -170h-540l123 700h540l-30 -170h-355l-18 -105h285l-27 -150h-285zM364 775q-32 0 -53 20.5t-21 51.5q0 38 25 63t61 25q32 0 53 -20.5t21 -51.5q0 -38 -25 -63t-61 -25zM569 775q-33 0 -53.5 20.5t-20.5 51.5q0 38 25 63t61 25q33 0 53.5 -20.5
t20.5 -51.5q0 -38 -25 -63t-61 -25z" />
    <glyph glyph-name="Igrave" unicode="&#xcc;" horiz-adv-x="315" 
d="M373 700l-123 -700h-185l123 700h185zM127 940h170l48 -155h-115l-104 150z" />
    <glyph glyph-name="Iacute" unicode="&#xcd;" horiz-adv-x="315" 
d="M373 700l-123 -700h-185l123 700h185zM337 940h170l-1 -5l-156 -150h-115z" />
    <glyph glyph-name="Icircumflex" unicode="&#xce;" horiz-adv-x="315" 
d="M373 700l-123 -700h-185l123 700h185zM246 940h135l84 -150l-1 -5h-113l-43 70h-15l-67 -70h-117l1 5z" />
    <glyph glyph-name="Idieresis" unicode="&#xcf;" horiz-adv-x="315" 
d="M373 700l-123 -700h-185l123 700h185zM194 775q-32 0 -53 20.5t-21 51.5q0 38 25 63t61 25q32 0 53 -20.5t21 -51.5q0 -38 -25 -63t-61 -25zM399 775q-33 0 -53.5 20.5t-20.5 51.5q0 38 25 63t61 25q33 0 53.5 -20.5t20.5 -51.5q0 -38 -25 -63t-61 -25z" />
    <glyph glyph-name="Eth" unicode="&#xd0;" horiz-adv-x="780" 
d="M89 420h70l49 280h242q156 0 257 -92t101 -230q0 -160 -116.5 -269t-290.5 -109h-316l49 280h-70zM430 530h-67l-19 -110h130l-25 -140h-130l-19 -110h114q90 0 144.5 55t54.5 148q0 69 -48 113t-135 44z" />
    <glyph glyph-name="Ntilde" unicode="&#xd1;" horiz-adv-x="780" 
d="M500 0l-177 440h-10l-1 -90l-62 -350h-185l123 700h215l178 -440h10l1 90l61 350h185l-123 -700h-215zM470 930q40 0 74 -22q33 -23 48 -23q26 0 30 25l3 15h95l-9 -50q-8 -45 -37.5 -70t-74.5 -25q-41 0 -74 23q-34 22 -48 22q-26 0 -30 -25l-3 -15h-94l9 50q8 45 37 70
t74 25z" />
    <glyph glyph-name="Ograve" unicode="&#xd2;" horiz-adv-x="850" 
d="M286 323q0 -77 49.5 -125t132.5 -48q88 0 149.5 63.5t61.5 163.5q0 77 -49.5 125t-132.5 48q-88 0 -149.5 -63.5t-61.5 -163.5zM91 319q0 164 122 282.5t295 118.5q164 0 265 -98.5t101 -240.5q0 -164 -122 -282.5t-295 -118.5q-164 0 -265 98.5t-101 240.5zM372 940h170
l48 -155h-115l-104 150z" />
    <glyph glyph-name="Oacute" unicode="&#xd3;" horiz-adv-x="850" 
d="M286 323q0 -77 49.5 -125t132.5 -48q88 0 149.5 63.5t61.5 163.5q0 77 -49.5 125t-132.5 48q-88 0 -149.5 -63.5t-61.5 -163.5zM91 319q0 164 122 282.5t295 118.5q164 0 265 -98.5t101 -240.5q0 -164 -122 -282.5t-295 -118.5q-164 0 -265 98.5t-101 240.5zM568 940h170
l-1 -5l-156 -150h-115z" />
    <glyph glyph-name="Ocircumflex" unicode="&#xd4;" horiz-adv-x="850" 
d="M286 323q0 -77 49.5 -125t132.5 -48q88 0 149.5 63.5t61.5 163.5q0 77 -49.5 125t-132.5 48q-88 0 -149.5 -63.5t-61.5 -163.5zM91 319q0 164 122 282.5t295 118.5q164 0 265 -98.5t101 -240.5q0 -164 -122 -282.5t-295 -118.5q-164 0 -265 98.5t-101 240.5zM488 940h135
l84 -150l-1 -5h-113l-43 70h-15l-67 -70h-117l1 5z" />
    <glyph glyph-name="Otilde" unicode="&#xd5;" horiz-adv-x="850" 
d="M286 323q0 -77 49.5 -125t132.5 -48q88 0 149.5 63.5t61.5 163.5q0 77 -49.5 125t-132.5 48q-88 0 -149.5 -63.5t-61.5 -163.5zM91 319q0 164 122 282.5t295 118.5q164 0 265 -98.5t101 -240.5q0 -164 -122 -282.5t-295 -118.5q-164 0 -265 98.5t-101 240.5zM481 930
q40 0 74 -22q33 -23 48 -23q26 0 30 25l3 15h95l-9 -50q-8 -45 -37.5 -70t-74.5 -25q-41 0 -74 23q-34 22 -48 22q-26 0 -30 -25l-3 -15h-94l9 50q8 45 37 70t74 25z" />
    <glyph glyph-name="Odieresis" unicode="&#xd6;" horiz-adv-x="850" 
d="M286 323q0 -77 49.5 -125t132.5 -48q88 0 149.5 63.5t61.5 163.5q0 77 -49.5 125t-132.5 48q-88 0 -149.5 -63.5t-61.5 -163.5zM91 319q0 164 122 282.5t295 118.5q164 0 265 -98.5t101 -240.5q0 -164 -122 -282.5t-295 -118.5q-164 0 -265 98.5t-101 240.5zM440 775
q-32 0 -53 20.5t-21 51.5q0 38 25 63t61 25q32 0 53 -20.5t21 -51.5q0 -38 -25 -63t-61 -25zM645 775q-33 0 -53.5 20.5t-20.5 51.5q0 38 25 63t61 25q33 0 53.5 -20.5t20.5 -51.5q0 -38 -25 -63t-61 -25z" />
    <glyph glyph-name="multiply" unicode="&#xd7;" horiz-adv-x="540" 
d="M115 185l115 115l-115 115l100 100l115 -115l115 115l100 -100l-115 -115l115 -115l-100 -100l-115 115l-115 -115z" />
    <glyph glyph-name="Oslash" unicode="&#xd8;" horiz-adv-x="850" 
d="M39 106l88 59q-36 69 -36 154q0 164 122 282.5t295 118.5q176 0 280 -115l158 105l-20 -116l-89 -59q37 -71 37 -154q0 -164 -122 -282.5t-295 -118.5q-177 0 -281 115l-157 -105zM679 377q0 25 -6 48l-339 -225q48 -50 134 -50q88 0 149.5 63.5t61.5 163.5zM286 323
q0 -27 6 -49l339 226q-50 50 -134 50q-88 0 -149.5 -63.5t-61.5 -163.5z" />
    <glyph glyph-name="Ugrave" unicode="&#xd9;" horiz-adv-x="750" 
d="M364 700l-71 -403q-3 -17 -3 -32q0 -19 4 -32q21 -83 118 -83q54 0 90 32t47 92l75 426h185l-80 -446q-22 -126 -108.5 -200t-215.5 -74q-122 0 -198 54t-95 146q-8 34 -8 67q0 31 6 62l69 391h185zM351 940h170l48 -155h-115l-104 150z" />
    <glyph glyph-name="Uacute" unicode="&#xda;" horiz-adv-x="750" 
d="M364 700l-71 -403q-3 -17 -3 -32q0 -19 4 -32q21 -83 118 -83q54 0 90 32t47 92l75 426h185l-80 -446q-22 -126 -108.5 -200t-215.5 -74q-122 0 -198 54t-95 146q-8 34 -8 67q0 31 6 62l69 391h185zM538 940h170l-1 -5l-156 -150h-115z" />
    <glyph glyph-name="Ucircumflex" unicode="&#xdb;" horiz-adv-x="750" 
d="M364 700l-71 -403q-3 -17 -3 -32q0 -19 4 -32q21 -83 118 -83q54 0 90 32t47 92l75 426h185l-80 -446q-22 -126 -108.5 -200t-215.5 -74q-122 0 -198 54t-95 146q-8 34 -8 67q0 31 6 62l69 391h185zM463 940h135l84 -150l-1 -5h-113l-43 70h-15l-67 -70h-117l1 5z" />
    <glyph glyph-name="Udieresis" unicode="&#xdc;" horiz-adv-x="750" 
d="M364 700l-71 -403q-3 -17 -3 -32q0 -19 4 -32q21 -83 118 -83q54 0 90 32t47 92l75 426h185l-80 -446q-22 -126 -108.5 -200t-215.5 -74q-122 0 -198 54t-95 146q-8 34 -8 67q0 31 6 62l69 391h185zM404 775q-32 0 -53 20.5t-21 51.5q0 38 25 63t61 25q32 0 53 -20.5
t21 -51.5q0 -38 -25 -63t-61 -25zM609 775q-33 0 -53.5 20.5t-20.5 51.5q0 38 25 63t61 25q33 0 53.5 -20.5t20.5 -51.5q0 -38 -25 -63t-61 -25z" />
    <glyph glyph-name="Yacute" unicode="&#xdd;" horiz-adv-x="685" 
d="M466 250l-44 -250h-185l44 250l-181 450h190l102 -270h15l198 270h200zM487 940h170l-1 -5l-156 -150h-115z" />
    <glyph glyph-name="Thorn" unicode="&#xde;" horiz-adv-x="770" 
d="M505 430h-179l-27 -150h213q97 0 97 82q0 31 -26.5 49.5t-77.5 18.5zM356 600h174q118 0 194 -65t76 -162q0 -112 -84 -187.5t-212 -75.5h-235l-19 -110h-185l123 700h185z" />
    <glyph glyph-name="germandbls" unicode="&#xdf;" horiz-adv-x="630" 
d="M337 295l26 145h9q35 0 59 21t24 53q0 27 -19 44t-49 17q-29 0 -50.5 -17.5t-26.5 -45.5l-90 -512h-170l92 532q14 82 82.5 135t170.5 53q110 0 174.5 -53t64.5 -124q0 -80 -63 -127q-26 -19 -62 -28l-2 -10q35 -10 64 -30q65 -47 65 -127q0 -99 -66.5 -160t-177.5 -61
h-107l26 145h64q37 0 63 23.5t26 55.5q0 30 -23.5 50.5t-60.5 20.5h-43z" />
    <glyph glyph-name="agrave" unicode="&#xe0;" 
d="M422 0l11 65h-8q-17 -21 -42 -40q-54 -40 -112 -40q-88 0 -144.5 63.5t-56.5 166.5q0 143 79.5 231.5t181.5 88.5q59 0 97 -25.5t54 -54.5l8 -15h10l14 80h170l-92 -520h-170zM346 130q51 0 87 41t36 115q0 50 -27 77t-74 27q-51 0 -87 -41t-36 -115q0 -50 27 -77t74 -27
zM263 770h170l48 -155h-115l-104 150z" />
    <glyph glyph-name="aacute" unicode="&#xe1;" 
d="M422 0l11 65h-8q-17 -21 -42 -40q-54 -40 -112 -40q-88 0 -144.5 63.5t-56.5 166.5q0 143 79.5 231.5t181.5 88.5q59 0 97 -25.5t54 -54.5l8 -15h10l14 80h170l-92 -520h-170zM346 130q51 0 87 41t36 115q0 50 -27 77t-74 27q-51 0 -87 -41t-36 -115q0 -50 27 -77t74 -27
zM437 770h170l-1 -5l-156 -150h-115z" />
    <glyph glyph-name="acircumflex" unicode="&#xe2;" 
d="M422 0l11 65h-8q-17 -21 -42 -40q-54 -40 -112 -40q-88 0 -144.5 63.5t-56.5 166.5q0 143 79.5 231.5t181.5 88.5q59 0 97 -25.5t54 -54.5l8 -15h10l14 80h170l-92 -520h-170zM346 130q51 0 87 41t36 115q0 50 -27 77t-74 27q-51 0 -87 -41t-36 -115q0 -50 27 -77t74 -27
zM372 770h135l84 -150l-1 -5h-113l-43 70h-15l-67 -70h-117l1 5z" />
    <glyph glyph-name="atilde" unicode="&#xe3;" 
d="M422 0l11 65h-8q-17 -21 -42 -40q-54 -40 -112 -40q-88 0 -144.5 63.5t-56.5 166.5q0 143 79.5 231.5t181.5 88.5q59 0 97 -25.5t54 -54.5l8 -15h10l14 80h170l-92 -520h-170zM346 130q51 0 87 41t36 115q0 50 -27 77t-74 27q-51 0 -87 -41t-36 -115q0 -50 27 -77t74 -27
zM360 755q40 0 74 -22q33 -23 48 -23q26 0 30 25l3 15h95l-9 -50q-8 -45 -37.5 -70t-74.5 -25q-41 0 -74 23q-34 22 -48 22q-26 0 -30 -25l-3 -15h-94l9 50q8 45 37 70t74 25z" />
    <glyph glyph-name="adieresis" unicode="&#xe4;" 
d="M422 0l11 65h-8q-17 -21 -42 -40q-54 -40 -112 -40q-88 0 -144.5 63.5t-56.5 166.5q0 143 79.5 231.5t181.5 88.5q59 0 97 -25.5t54 -54.5l8 -15h10l14 80h170l-92 -520h-170zM346 130q51 0 87 41t36 115q0 50 -27 77t-74 27q-51 0 -87 -41t-36 -115q0 -50 27 -77t74 -27
zM314 605q-32 0 -53 20.5t-21 51.5q0 38 25 63t61 25q32 0 53 -20.5t21 -51.5q0 -38 -25 -63t-61 -25zM519 605q-33 0 -53.5 20.5t-20.5 51.5q0 38 25 63t61 25q33 0 53.5 -20.5t20.5 -51.5q0 -38 -25 -63t-61 -25z" />
    <glyph glyph-name="aring" unicode="&#xe5;" 
d="M422 0l11 65h-8q-17 -21 -42 -40q-54 -40 -112 -40q-88 0 -144.5 63.5t-56.5 166.5q0 143 79.5 231.5t181.5 88.5q59 0 97 -25.5t54 -54.5l8 -15h10l14 80h170l-92 -520h-170zM346 130q51 0 87 41t36 115q0 50 -27 77t-74 27q-51 0 -87 -41t-36 -115q0 -50 27 -77t74 -27
zM418 580q-51 0 -82 29.5t-31 75.5q0 54 37 89.5t91 35.5q51 0 82 -29.5t31 -75.5q0 -54 -37 -89.5t-91 -35.5zM421 650q21 0 35 13.5t14 34.5q0 18 -11 30t-29 12q-21 0 -35 -13.5t-14 -34.5q0 -18 11 -30t29 -12z" />
    <glyph glyph-name="ae" unicode="&#xe6;" horiz-adv-x="982" 
d="M263 -15q-93 0 -148 39.5t-55 99.5q0 83 56 134.5t156 51.5h174q1 0 1 2q0 5 1 7q1 5 1 14q0 24 -14 44q-18 23 -65 23q-39 0 -66 -25q-9 -9 -18 -25h-173q16 50 50 92q77 93 208 93q82 0 137 -43q23 -17 37 -42h10q16 23 44 42q63 43 145 43q111 0 182.5 -73.5
t71.5 -178.5q0 -20 -5 -53h-390q2 -53 28 -81.5t71 -28.5q47 0 76 27q15 13 23 28h183q-23 -56 -61 -95q-89 -95 -224 -95q-90 0 -152 52q-26 20 -47 53h-10q-90 -105 -227 -105zM433 230h-129q-64 0 -64 -60q0 -50 76 -50q50 0 80.5 30t36.5 80zM619 315h206
q-2 34 -29 59.5t-64 25.5q-39 0 -68.5 -22t-44.5 -63z" />
    <glyph glyph-name="ccedilla" unicode="&#xe7;" horiz-adv-x="605" 
d="M565 96q-80 -107 -217 -111l-19 -33q19 -4 38 -16q38 -26 38 -73q0 -52 -41 -90t-100 -38q-40 0 -74 14q-15 6 -26 14l14 85q14 -8 26 -14q32 -14 63 -14q20 0 31.5 10.5t11.5 25.5q0 12 -9.5 20.5t-26.5 8.5h-55l58 105q-91 19 -149 84t-58 163q0 122 90 210t212 88
q151 0 222 -108q29 -47 37 -107h-174q-5 18 -18 35q-31 35 -74 35q-47 0 -84 -42t-37 -109q0 -50 27 -79.5t68 -29.5q51 0 80 35q14 16 23 35h178q-20 -59 -55 -104z" />
    <glyph glyph-name="egrave" unicode="&#xe8;" horiz-adv-x="625" 
d="M342 -15q-118 0 -195 71t-77 182q0 122 91.5 209.5t215.5 87.5q118 0 191 -73t73 -179q0 -20 -5 -53h-395q5 -110 104 -110q47 0 76 27q15 13 23 28h183q-23 -56 -61 -95q-89 -95 -224 -95zM257 315h211q-2 34 -29 59.5t-64 25.5q-88 0 -118 -85zM243 770h170l48 -155
h-115l-104 150z" />
    <glyph glyph-name="eacute" unicode="&#xe9;" horiz-adv-x="625" 
d="M342 -15q-118 0 -195 71t-77 182q0 122 91.5 209.5t215.5 87.5q118 0 191 -73t73 -179q0 -20 -5 -53h-395q5 -110 104 -110q47 0 76 27q15 13 23 28h183q-23 -56 -61 -95q-89 -95 -224 -95zM257 315h211q-2 34 -29 59.5t-64 25.5q-88 0 -118 -85zM433 770h170l-1 -5
l-156 -150h-115z" />
    <glyph glyph-name="ecircumflex" unicode="&#xea;" horiz-adv-x="625" 
d="M342 -15q-118 0 -195 71t-77 182q0 122 91.5 209.5t215.5 87.5q118 0 191 -73t73 -179q0 -20 -5 -53h-395q5 -110 104 -110q47 0 76 27q15 13 23 28h183q-23 -56 -61 -95q-89 -95 -224 -95zM257 315h211q-2 34 -29 59.5t-64 25.5q-88 0 -118 -85zM358 770h135l84 -150
l-1 -5h-113l-43 70h-15l-67 -70h-117l1 5z" />
    <glyph glyph-name="edieresis" unicode="&#xeb;" horiz-adv-x="625" 
d="M342 -15q-118 0 -195 71t-77 182q0 122 91.5 209.5t215.5 87.5q118 0 191 -73t73 -179q0 -20 -5 -53h-395q5 -110 104 -110q47 0 76 27q15 13 23 28h183q-23 -56 -61 -95q-89 -95 -224 -95zM257 315h211q-2 34 -29 59.5t-64 25.5q-88 0 -118 -85zM304 606q-32 0 -53 21
t-21 51q0 38 25 63t61 25q32 0 53 -21t21 -51q0 -38 -25 -63t-61 -25zM509 606q-33 0 -53.5 21t-20.5 51q0 38 25 63t61 25q33 0 53.5 -21t20.5 -51q0 -38 -25 -63t-61 -25z" />
    <glyph glyph-name="igrave" unicode="&#xec;" horiz-adv-x="270" 
d="M312 520l-92 -520h-170l92 520h170zM70 770h170l48 -155h-115l-104 150z" />
    <glyph glyph-name="iacute" unicode="&#xed;" horiz-adv-x="270" 
d="M312 520l-92 -520h-170l92 520h170zM282 770h170l-1 -5l-156 -150h-115z" />
    <glyph glyph-name="icircumflex" unicode="&#xee;" horiz-adv-x="270" 
d="M312 520l-92 -520h-170l92 520h170zM193 770h135l84 -150l-1 -5h-113l-43 70h-15l-67 -70h-117l1 5z" />
    <glyph glyph-name="idieresis" unicode="&#xef;" horiz-adv-x="270" 
d="M312 520l-92 -520h-170l92 520h170zM148 635q-32 0 -53 20.5t-21 51.5q0 38 25 63t61 25q32 0 53 -20.5t21 -51.5q0 -38 -25 -63t-61 -25zM353 635q-33 0 -53.5 20.5t-20.5 51.5q0 38 25 63t61 25q33 0 53.5 -20.5t20.5 -51.5q0 -38 -25 -63t-61 -25z" />
    <glyph glyph-name="eth" unicode="&#xf0;" horiz-adv-x="620" 
d="M411 560l-127 -70l14 80l67 40l-74 90h175l25 -30l122 70l-14 -80l-72 -38q25 -32 34 -43.5t29.5 -42.5t28.5 -52.5t16 -55t8 -68.5q0 -173 -90.5 -274t-224.5 -101q-122 0 -192.5 63t-70.5 159q0 111 76 189.5t180 78.5q66 0 107.5 -26.5t56.5 -55.5l7 -15h10
q0 41 -21.5 80.5t-69.5 101.5zM335 125q48 0 82.5 35t34.5 90q0 42 -26.5 68.5t-71.5 26.5q-48 0 -82.5 -35t-34.5 -90q0 -42 26.5 -68.5t71.5 -26.5z" />
    <glyph glyph-name="ntilde" unicode="&#xf1;" horiz-adv-x="625" 
d="M634 303l-54 -303h-170l52 293q2 16 2 23q0 28 -14 51q-20 30 -70 30q-39 0 -70.5 -29.5t-39.5 -77.5l-50 -290h-170l92 520h170l-11 -65h8q16 20 41 40q54 40 112 40q76 0 120 -37.5t55 -102.5q2 -22 2 -35q0 -25 -5 -57zM363 755q40 0 74 -22q33 -23 48 -23q26 0 30 25
l3 15h95l-9 -50q-8 -45 -37.5 -70t-74.5 -25q-41 0 -74 23q-34 22 -48 22q-26 0 -30 -25l-3 -15h-94l9 50q8 45 37 70t74 25z" />
    <glyph glyph-name="ograve" unicode="&#xf2;" horiz-adv-x="630" 
d="M244 239q0 -50 29 -79.5t77 -29.5q51 0 89.5 42t38.5 109q0 50 -29 79.5t-77 29.5q-51 0 -89.5 -42t-38.5 -109zM70 237q0 122 92 210t219 88q120 0 195.5 -73t75.5 -179q0 -122 -92 -210t-219 -88q-120 0 -195.5 73t-75.5 179zM243 765h170l48 -155h-115l-104 150z" />
    <glyph glyph-name="oacute" unicode="&#xf3;" horiz-adv-x="630" 
d="M244 239q0 -50 29 -79.5t77 -29.5q51 0 89.5 42t38.5 109q0 50 -29 79.5t-77 29.5q-51 0 -89.5 -42t-38.5 -109zM70 237q0 122 92 210t219 88q120 0 195.5 -73t75.5 -179q0 -122 -92 -210t-219 -88q-120 0 -195.5 73t-75.5 179zM435 765h170l-1 -5l-156 -150h-115z" />
    <glyph glyph-name="ocircumflex" unicode="&#xf4;" horiz-adv-x="630" 
d="M244 239q0 -50 29 -79.5t77 -29.5q51 0 89.5 42t38.5 109q0 50 -29 79.5t-77 29.5q-51 0 -89.5 -42t-38.5 -109zM70 237q0 122 92 210t219 88q120 0 195.5 -73t75.5 -179q0 -122 -92 -210t-219 -88q-120 0 -195.5 73t-75.5 179zM357 765h135l84 -150l-1 -5h-113l-43 70
h-15l-67 -70h-117l1 5z" />
    <glyph glyph-name="otilde" unicode="&#xf5;" horiz-adv-x="630" 
d="M244 239q0 -50 29 -79.5t77 -29.5q51 0 89.5 42t38.5 109q0 50 -29 79.5t-77 29.5q-51 0 -89.5 -42t-38.5 -109zM70 237q0 122 92 210t219 88q120 0 195.5 -73t75.5 -179q0 -122 -92 -210t-219 -88q-120 0 -195.5 73t-75.5 179zM345 755q40 0 74 -22q33 -23 48 -23
q26 0 30 25l3 15h95l-9 -50q-8 -45 -37.5 -70t-74.5 -25q-41 0 -74 23q-34 22 -48 22q-26 0 -30 -25l-3 -15h-94l9 50q8 45 37 70t74 25z" />
    <glyph glyph-name="odieresis" unicode="&#xf6;" horiz-adv-x="630" 
d="M244 239q0 -50 29 -79.5t77 -29.5q51 0 89.5 42t38.5 109q0 50 -29 79.5t-77 29.5q-51 0 -89.5 -42t-38.5 -109zM70 237q0 122 92 210t219 88q120 0 195.5 -73t75.5 -179q0 -122 -92 -210t-219 -88q-120 0 -195.5 73t-75.5 179zM304 605q-32 0 -53 20.5t-21 51.5
q0 38 25 63t61 25q32 0 53 -20.5t21 -51.5q0 -38 -25 -63t-61 -25zM509 605q-33 0 -53.5 20.5t-20.5 51.5q0 38 25 63t61 25q33 0 53.5 -20.5t20.5 -51.5q0 -38 -25 -63t-61 -25z" />
    <glyph glyph-name="divide" unicode="&#xf7;" horiz-adv-x="540" 
d="M540 225h-430v130h430v-130zM415 485q0 -34 -26 -59.5t-64 -25.5t-64 25.5t-26 59.5t26 59.5t64 25.5t64 -25.5t26 -59.5zM415 95q0 -34 -26 -59.5t-64 -25.5t-64 25.5t-26 59.5t26 59.5t64 25.5t64 -25.5t26 -59.5z" />
    <glyph glyph-name="oslash" unicode="&#xf8;" horiz-adv-x="630" 
d="M44 103l48 31q-22 48 -22 103q0 122 92 210t219 88q124 0 201 -80l115 75l-19 -113l-48 -31q22 -48 22 -103q0 -122 -92 -210t-219 -88q-123 0 -201 80l-115 -75zM244 239v-5l199 130q-31 26 -71 26q-51 0 -89.5 -42t-38.5 -109zM478 281v5l-199 -130q31 -26 71 -26
q51 0 89.5 42t38.5 109z" />
    <glyph glyph-name="ugrave" unicode="&#xf9;" horiz-adv-x="630" 
d="M88 217l54 303h170l-52 -293q-2 -18 -2 -24q0 -28 14 -50q20 -30 70 -30q39 0 70.5 29.5t39.5 77.5l50 290h170l-92 -520h-170l11 65h-8q-16 -20 -41 -40q-54 -40 -112 -40q-76 0 -120.5 37.5t-53.5 102.5q-3 18 -3 38q0 22 5 54zM262 770h170l48 -155h-115l-104 150z
" />
    <glyph glyph-name="uacute" unicode="&#xfa;" horiz-adv-x="630" 
d="M88 217l54 303h170l-52 -293q-2 -18 -2 -24q0 -28 14 -50q20 -30 70 -30q39 0 70.5 29.5t39.5 77.5l50 290h170l-92 -520h-170l11 65h-8q-16 -20 -41 -40q-54 -40 -112 -40q-76 0 -120.5 37.5t-53.5 102.5q-3 18 -3 38q0 22 5 54zM454 770h170l-1 -5l-156 -150h-115z" />
    <glyph glyph-name="ucircumflex" unicode="&#xfb;" horiz-adv-x="630" 
d="M88 217l54 303h170l-52 -293q-2 -18 -2 -24q0 -28 14 -50q20 -30 70 -30q39 0 70.5 29.5t39.5 77.5l50 290h170l-92 -520h-170l11 65h-8q-16 -20 -41 -40q-54 -40 -112 -40q-76 0 -120.5 37.5t-53.5 102.5q-3 18 -3 38q0 22 5 54zM376 770h135l84 -150l-1 -5h-113l-43 70
h-15l-67 -70h-117l1 5z" />
    <glyph glyph-name="udieresis" unicode="&#xfc;" horiz-adv-x="630" 
d="M88 217l54 303h170l-52 -293q-2 -18 -2 -24q0 -28 14 -50q20 -30 70 -30q39 0 70.5 29.5t39.5 77.5l50 290h170l-92 -520h-170l11 65h-8q-16 -20 -41 -40q-54 -40 -112 -40q-76 0 -120.5 37.5t-53.5 102.5q-3 18 -3 38q0 22 5 54zM318 605q-32 0 -53 20.5t-21 51.5
q0 38 25 63t61 25q32 0 53 -20.5t21 -51.5q0 -38 -25 -63t-61 -25zM523 605q-33 0 -53.5 20.5t-20.5 51.5q0 38 25 63t61 25q33 0 53.5 -20.5t20.5 -51.5q0 -38 -25 -63t-61 -25z" />
    <glyph glyph-name="yacute" unicode="&#xfd;" horiz-adv-x="575" 
d="M243 0h-110l-22 260l-21 260h170l24 -375h30q110 250 166 375h180l-325 -710h-180zM417 770h170l-1 -5l-156 -150h-115z" />
    <glyph glyph-name="thorn" unicode="&#xfe;" 
d="M343 700l-43 -245h8q17 21 42 40q54 40 112 40q88 0 144.5 -63.5t56.5 -166.5q0 -143 -79.5 -231.5t-181.5 -88.5q-59 0 -97 25.5t-54 54.5l-8 15h-10l-47 -270h-170l157 890h170zM387 390q-51 0 -87 -41t-36 -115q0 -50 27 -77t74 -27q51 0 87 41t36 115q0 50 -27 77
t-74 27z" />
    <glyph glyph-name="ydieresis" unicode="&#xff;" horiz-adv-x="575" 
d="M243 0h-110l-22 260l-21 260h170l24 -375h30q110 250 166 375h180l-325 -710h-180zM289 605q-33 0 -53.5 20.5t-20.5 51.5q0 38 25 63t61 25q33 0 53.5 -20.5t20.5 -51.5q0 -38 -25 -63t-61 -25zM494 605q-32 0 -53 20.5t-21 51.5q0 38 25 63t61 25q32 0 53 -20.5
t21 -51.5q0 -38 -25 -63t-61 -25z" />
    <glyph glyph-name="Amacron" unicode="&#x100;" horiz-adv-x="720" 
d="M663 700l67 -700h-187l-10 140h-270l-60 -140h-193l313 700h340zM431 530l-100 -230h190l-20 230h-70zM329 795l19 105h320l-19 -105h-320z" />
    <glyph glyph-name="amacron" unicode="&#x101;" 
d="M422 0l11 65h-8q-17 -21 -42 -40q-54 -40 -112 -40q-88 0 -144.5 63.5t-56.5 166.5q0 143 79.5 231.5t181.5 88.5q59 0 97 -25.5t54 -54.5l8 -15h10l14 80h170l-92 -520h-170zM346 130q51 0 87 41t36 115q0 50 -27 77t-74 27q-51 0 -87 -41t-36 -115q0 -50 27 -77t74 -27
zM255 620l19 105h320l-19 -105h-320z" />
    <glyph glyph-name="Abreve" unicode="&#x102;" horiz-adv-x="720" 
d="M663 700l67 -700h-187l-10 140h-270l-60 -140h-193l313 700h340zM431 530l-100 -230h190l-20 230h-70zM500 786q-80 0 -120 34.5t-40 91.5v13h102v-3q0 -18 16 -30t46 -12q26 0 41 12.5t17 32.5h100q-9 -69 -51 -104t-111 -35z" />
    <glyph glyph-name="abreve" unicode="&#x103;" 
d="M422 0l11 65h-8q-17 -21 -42 -40q-54 -40 -112 -40q-88 0 -144.5 63.5t-56.5 166.5q0 143 79.5 231.5t181.5 88.5q59 0 97 -25.5t54 -54.5l8 -15h10l14 80h170l-92 -520h-170zM346 130q51 0 87 41t36 115q0 50 -27 77t-74 27q-51 0 -87 -41t-36 -115q0 -50 27 -77t74 -27
zM430 616q-80 0 -120 34.5t-40 91.5v13h102v-3q0 -18 16 -30t46 -12q26 0 41 12.5t17 32.5h100q-9 -69 -51 -104t-111 -35z" />
    <glyph glyph-name="Aogonek" unicode="&#x104;" horiz-adv-x="720" 
d="M598 -255q-55 0 -87.5 23.5t-32.5 66.5q0 36 23 68t56.5 52t55 30t34.5 15h1h-105l-10 140h-270l-60 -140h-193l313 700h340l67 -700q-37 -18 -74 -43q-74 -54 -74 -94q0 -33 46 -33q21 0 39 5q8 1 17 5l-14 -82q-6 -3 -20 -7q-26 -6 -52 -6zM431 530l-100 -230h190
l-20 230h-70z" />
    <glyph glyph-name="aogonek" unicode="&#x105;" 
d="M422 0l11 65h-8q-17 -21 -42 -40q-54 -40 -112 -40q-88 0 -144.5 63.5t-56.5 166.5q0 143 79.5 231.5t181.5 88.5q59 0 97 -25.5t54 -54.5l8 -15h10l14 80h170l-92 -520q-37 -18 -74 -43q-74 -54 -74 -94q0 -33 46 -33q21 0 39 5q8 1 17 5l-14 -82q-6 -3 -20 -7
q-26 -6 -52 -6q-55 0 -87.5 23.5t-32.5 66.5q0 36 23 68t56.5 52t55 30t34.5 15h1h-88zM346 130q51 0 87 41t36 115q0 50 -27 77t-74 27q-51 0 -87 -41t-36 -115q0 -50 27 -77t74 -27z" />
    <glyph glyph-name="Cacute" unicode="&#x106;" horiz-adv-x="825" 
d="M455 -20q-164 0 -265 98.5t-101 240.5q0 164 122 282.5t295 118.5q85 0 151 -25.5t105.5 -68t61.5 -87.5t31 -94h-189q-39 105 -171 105q-88 0 -149.5 -63.5t-61.5 -163.5q0 -77 49.5 -125t132.5 -48q86 0 146 60q26 26 42 60h193q-31 -81 -86 -145q-123 -145 -306 -145z
M558 940h170l-1 -5l-156 -150h-115z" />
    <glyph glyph-name="cacute" unicode="&#x107;" horiz-adv-x="605" 
d="M335 -15q-109 0 -187 69.5t-78 182.5q0 122 90 210t212 88q151 0 222 -108q29 -47 37 -107h-174q-5 18 -18 35q-31 35 -74 35q-47 0 -84 -42t-37 -109q0 -50 27 -79.5t68 -29.5q51 0 80 35q14 16 23 35h178q-19 -58 -58 -108q-85 -107 -227 -107zM437 770h170l-1 -5
l-156 -150h-115z" />
    <glyph glyph-name="Ccircumflex" unicode="&#x108;" horiz-adv-x="825" 
d="M455 -20q-164 0 -265 98.5t-101 240.5q0 164 122 282.5t295 118.5q85 0 151 -25.5t105.5 -68t61.5 -87.5t31 -94h-189q-39 105 -171 105q-88 0 -149.5 -63.5t-61.5 -163.5q0 -77 49.5 -125t132.5 -48q86 0 146 60q26 26 42 60h193q-31 -81 -86 -145q-123 -145 -306 -145z
M473 940h135l84 -150l-1 -5h-113l-43 70h-15l-67 -70h-117l1 5z" />
    <glyph glyph-name="ccircumflex" unicode="&#x109;" horiz-adv-x="605" 
d="M335 -15q-109 0 -187 69.5t-78 182.5q0 122 90 210t212 88q151 0 222 -108q29 -47 37 -107h-174q-5 18 -18 35q-31 35 -74 35q-47 0 -84 -42t-37 -109q0 -50 27 -79.5t68 -29.5q51 0 80 35q14 16 23 35h178q-19 -58 -58 -108q-85 -107 -227 -107zM358 770h135l84 -150
l-1 -5h-113l-43 70h-15l-67 -70h-117l1 5z" />
    <glyph glyph-name="Ccaron" unicode="&#x10c;" horiz-adv-x="825" 
d="M455 -20q-164 0 -265 98.5t-101 240.5q0 164 122 282.5t295 118.5q85 0 151 -25.5t105.5 -68t61.5 -87.5t31 -94h-189q-39 105 -171 105q-88 0 -149.5 -63.5t-61.5 -163.5q0 -77 49.5 -125t132.5 -48q86 0 146 60q26 26 42 60h193q-31 -81 -86 -145q-123 -145 -306 -145z
M571 785h-135l-84 150l1 5h113l43 -70h15l67 70h117l-1 -5z" />
    <glyph glyph-name="ccaron" unicode="&#x10d;" horiz-adv-x="605" 
d="M335 -15q-109 0 -187 69.5t-78 182.5q0 122 90 210t212 88q151 0 222 -108q29 -47 37 -107h-174q-5 18 -18 35q-31 35 -74 35q-47 0 -84 -42t-37 -109q0 -50 27 -79.5t68 -29.5q51 0 80 35q14 16 23 35h178q-19 -58 -58 -108q-85 -107 -227 -107zM459 615h-135l-84 150
l1 5h113l43 -70h15l67 70h117l-1 -5z" />
    <glyph glyph-name="Dcaron" unicode="&#x10e;" horiz-adv-x="760" 
d="M410 530h-67l-63 -360h114q90 0 144.5 55t54.5 148q0 69 -48 113t-135 44zM188 700h242q156 0 257 -92t101 -230q0 -160 -116.5 -269t-290.5 -109h-316zM544 785h-135l-84 150l1 5h113l43 -70h15l67 70h117l-1 -5z" />
    <glyph glyph-name="dcaron" unicode="&#x10f;" horiz-adv-x="765" 
d="M422 0l11 65h-8q-17 -21 -42 -40q-54 -40 -112 -40q-88 0 -144.5 63.5t-56.5 166.5q0 143 79.5 231.5t181.5 88.5q59 0 97 -25.5t54 -54.5l8 -15h10l46 260h170l-124 -700h-170zM346 130q51 0 87 41t36 115q0 50 -27 77t-74 27q-51 0 -87 -41t-36 -115q0 -50 27 -77
t74 -27zM749 623q0 38 25 62.5t61 24.5q74 0 74 -87q0 -72 -43 -120t-118 -48h-15l11 60h11q54 0 66 45l2 10l-6 -2q-3 -1 -15 -1q-26 0 -39.5 15.5t-13.5 40.5z" />
    <glyph glyph-name="Dcroat" unicode="&#x110;" horiz-adv-x="780" 
d="M89 420h70l49 280h242q156 0 257 -92t101 -230q0 -160 -116.5 -269t-290.5 -109h-316l49 280h-70zM430 530h-67l-19 -110h130l-25 -140h-130l-19 -110h114q90 0 144.5 55t54.5 148q0 69 -48 113t-135 44z" />
    <glyph glyph-name="dcroat" unicode="&#x111;" horiz-adv-x="665" 
d="M687 540l-95 -540h-170l9 56h-10q-18 -21 -38 -36q-46 -35 -110 -35q-89 0 -146 60t-57 157q0 129 76 211t176 82q79 0 127 -48q21 -21 33 -47h10l25 140h-110l19 105h110l10 55h170l-10 -55h65l-19 -105h-65zM343 130q52 0 86.5 34.5t34.5 92.5q0 44 -26.5 68.5
t-71.5 24.5q-52 0 -86.5 -34.5t-34.5 -92.5q0 -44 26.5 -68.5t71.5 -24.5z" />
    <glyph glyph-name="Emacron" unicode="&#x112;" 
d="M280 170h355l-30 -170h-540l123 700h540l-30 -170h-355l-18 -105h285l-27 -150h-285zM315 795l19 105h320l-19 -105h-320z" />
    <glyph glyph-name="emacron" unicode="&#x113;" horiz-adv-x="625" 
d="M342 -15q-118 0 -195 71t-77 182q0 122 91.5 209.5t215.5 87.5q118 0 191 -73t73 -179q0 -20 -5 -53h-395q5 -110 104 -110q47 0 76 27q15 13 23 28h183q-23 -56 -61 -95q-89 -95 -224 -95zM257 315h211q-2 34 -29 59.5t-64 25.5q-88 0 -118 -85zM241 623l19 105h320
l-19 -105h-320z" />
    <glyph glyph-name="Edotaccent" unicode="&#x116;" 
d="M280 170h355l-30 -170h-540l123 700h540l-30 -170h-355l-18 -105h285l-27 -150h-285zM467 760q-41 0 -64 20.5t-23 54.5q0 42 26.5 68.5t67.5 26.5t64 -20.5t23 -54.5q0 -42 -26.5 -68.5t-67.5 -26.5z" />
    <glyph glyph-name="edotaccent" unicode="&#x117;" horiz-adv-x="625" 
d="M342 -15q-118 0 -195 71t-77 182q0 122 91.5 209.5t215.5 87.5q118 0 191 -73t73 -179q0 -20 -5 -53h-395q5 -110 104 -110q47 0 76 27q15 13 23 28h183q-23 -56 -61 -95q-89 -95 -224 -95zM257 315h211q-2 34 -29 59.5t-64 25.5q-88 0 -118 -85zM406 596q-41 0 -64 20.5
t-23 54.5q0 42 26.5 68.5t67.5 26.5t64 -20.5t23 -54.5q0 -42 -26.5 -68.5t-67.5 -26.5z" />
    <glyph glyph-name="Eogonek" unicode="&#x118;" 
d="M473 -255q-55 0 -87.5 23.5t-32.5 66.5q0 57 53.5 101.5t100.5 57.5q13 4 15 6h-457l123 700h540l-30 -170h-355l-18 -105h285l-27 -150h-285l-18 -105h355l-30 -170q-37 -18 -74 -43q-74 -54 -74 -94q0 -33 46 -33q21 0 39 5q8 1 17 5l-14 -82q-6 -3 -20 -7
q-26 -6 -52 -6z" />
    <glyph glyph-name="eogonek" unicode="&#x119;" horiz-adv-x="625" 
d="M310 -255q-55 0 -87.5 23.5t-32.5 66.5q0 89 134 151q-111 6 -182.5 76.5t-71.5 175.5q0 122 91.5 209.5t215.5 87.5q118 0 191 -73t73 -179q0 -20 -5 -53h-395q5 -110 104 -110q47 0 76 27q15 13 23 28h183q-15 -37 -41 -71q-56 -75 -145 -104q-9 -3 -41.5 -21
t-69 -52.5t-36.5 -63.5q0 -33 46 -33q21 0 39 5q8 1 17 5l-14 -82q-6 -3 -20 -7q-26 -6 -52 -6zM257 315h211q-2 34 -29 59.5t-64 25.5q-88 0 -118 -85z" />
    <glyph glyph-name="Ecaron" unicode="&#x11a;" 
d="M280 170h355l-30 -170h-540l123 700h540l-30 -170h-355l-18 -105h285l-27 -150h-285zM534 785h-135l-84 150l1 5h113l43 -70h15l67 70h117l-1 -5z" />
    <glyph glyph-name="ecaron" unicode="&#x11b;" horiz-adv-x="625" 
d="M342 -15q-118 0 -195 71t-77 182q0 122 91.5 209.5t215.5 87.5q118 0 191 -73t73 -179q0 -20 -5 -53h-395q5 -110 104 -110q47 0 76 27q15 13 23 28h183q-23 -56 -61 -95q-89 -95 -224 -95zM257 315h211q-2 34 -29 59.5t-64 25.5q-88 0 -118 -85zM458 615h-135l-84 150
l1 5h113l43 -70h15l67 70h117l-1 -5z" />
    <glyph glyph-name="Gbreve" unicode="&#x11e;" horiz-adv-x="875" 
d="M466 150q77 0 135 50q27 24 42 50h-100l24 140h365l-24 -140h-69q-33 -76 -87 -135q-119 -135 -297 -135q-164 0 -265 98.5t-101 240.5q0 164 122 282.5t295 118.5q138 0 228.5 -68.5t118.5 -196.5h-191q-51 95 -167 95q-88 0 -149.5 -63.5t-61.5 -163.5q0 -77 49.5 -125
t132.5 -48zM531 786q-80 0 -120 34.5t-40 91.5v13h102v-3q0 -18 16 -30t46 -12q26 0 41 12.5t17 32.5h100q-9 -69 -51 -104t-111 -35z" />
    <glyph glyph-name="gbreve" unicode="&#x11f;" 
d="M442 75h-8q-16 -19 -40 -35q-50 -35 -112 -35q-89 0 -147 63t-58 163q0 133 79 218.5t180 85.5q78 0 127 -45q22 -19 34 -45h10l13 75h170l-125 -710l-495 1l24 134h325zM355 145q50 0 85.5 37.5t35.5 101.5q0 47 -28 74t-75 27q-50 0 -85.5 -37.5t-35.5 -101.5
q0 -47 28 -74t75 -27zM425 616q-80 0 -120 34.5t-40 91.5v13h102v-3q0 -18 16 -30t46 -12q26 0 41 12.5t17 32.5h100q-9 -69 -51 -104t-111 -35z" />
    <glyph glyph-name="Gcommaaccent" unicode="&#x122;" horiz-adv-x="875" 
d="M466 150q77 0 135 50q27 24 42 50h-100l24 140h365l-24 -140h-69q-33 -76 -87 -135q-119 -135 -297 -135q-164 0 -265 98.5t-101 240.5q0 164 122 282.5t295 118.5q138 0 228.5 -68.5t118.5 -196.5h-191q-51 95 -167 95q-88 0 -149.5 -63.5t-61.5 -163.5q0 -77 49.5 -125
t132.5 -48zM355 -172q0 38 25 62.5t61 24.5q74 0 74 -87q0 -72 -43 -120t-118 -48h-15l11 60h11q54 0 66 45l2 10l-6 -2q-3 -1 -15 -1q-26 0 -39.5 15.5t-13.5 40.5z" />
    <glyph glyph-name="gcommaaccent" unicode="&#x123;" 
d="M510 687q0 -38 -25 -62.5t-61 -24.5q-74 0 -74 87q0 72 43 120t118 48h15l-11 -60h-11q-54 0 -66 -45l-2 -10q3 0 6 1q10 2 15 2q26 0 39.5 -15.5t13.5 -40.5zM442 75h-8q-16 -19 -40 -35q-50 -35 -112 -35q-89 0 -147 63t-58 163q0 133 79 218.5t180 85.5q78 0 127 -45
q22 -19 34 -45h10l13 75h170l-125 -710l-495 1l24 134h325zM355 145q50 0 85.5 37.5t35.5 101.5q0 47 -28 74t-75 27q-50 0 -85.5 -37.5t-35.5 -101.5q0 -47 28 -74t75 -27z" />
    <glyph glyph-name="Imacron" unicode="&#x12a;" horiz-adv-x="315" 
d="M373 700l-123 -700h-185l123 700h185zM130 795l19 105h320l-19 -105h-320z" />
    <glyph glyph-name="imacron" unicode="&#x12b;" horiz-adv-x="270" 
d="M312 520l-92 -520h-170l92 520h170zM80 625l19 105h320l-19 -105h-320z" />
    <glyph glyph-name="Iogonek" unicode="&#x12e;" horiz-adv-x="315" 
d="M118 -255q-55 0 -87.5 23.5t-32.5 66.5q0 65 85 124q40 25 85 41h-103l123 700h185l-123 -700q-37 -18 -74 -43q-74 -54 -74 -94q0 -33 46 -33q21 0 39 5q8 1 17 5l-14 -82q-6 -3 -20 -7q-26 -6 -52 -6z" />
    <glyph glyph-name="iogonek" unicode="&#x12f;" horiz-adv-x="270" 
d="M88 -255q-55 0 -87.5 23.5t-32.5 66.5q0 36 23 68t56.5 52t55 30t34.5 15h1h-88l92 520h170l-92 -520l-13 -7q-40 -17 -87.5 -56.5t-47.5 -73.5q0 -33 46 -33q21 0 39 5q8 1 17 5l-14 -82q-6 -3 -20 -7q-26 -6 -52 -6zM248 575q-41 0 -64 20.5t-23 54.5q0 42 26.5 68.5
t67.5 26.5t64 -20.5t23 -54.5q0 -42 -26.5 -68.5t-67.5 -26.5z" />
    <glyph glyph-name="Idotaccent" unicode="&#x130;" horiz-adv-x="315" 
d="M373 700l-123 -700h-185l123 700h185zM296 765q-41 0 -64 20.5t-23 54.5q0 42 26.5 68.5t67.5 26.5t64 -20.5t23 -54.5q0 -42 -26.5 -68.5t-67.5 -26.5z" />
    <glyph glyph-name="dotlessi" unicode="&#x131;" horiz-adv-x="270" 
d="M312 520l-92 -520h-170l92 520h170z" />
    <glyph glyph-name="Kcommaaccent" unicode="&#x136;" horiz-adv-x="720" 
d="M520 0l-127 270h-95l-48 -270h-185l123 700h185l-45 -260h75l215 260h215l-278 -330l170 -370h-205zM280 -172q0 38 25 62.5t61 24.5q74 0 74 -87q0 -72 -43 -120t-118 -48h-15l11 60h11q54 0 66 45l2 10l-6 -2q-3 -1 -15 -1q-26 0 -39.5 15.5t-13.5 40.5z" />
    <glyph glyph-name="kcommaaccent" unicode="&#x137;" horiz-adv-x="580" 
d="M254 190l-34 -190h-170l123 700h170l-64 -365h50l148 185h185l-194 -245l117 -275h-185l-81 190h-65zM229 -172q0 38 25 62.5t61 24.5q74 0 74 -87q0 -72 -43 -120t-118 -48h-15l11 60h11q54 0 66 45l2 10l-6 -2q-3 -1 -15 -1q-26 0 -39.5 15.5t-13.5 40.5z" />
    <glyph glyph-name="Lacute" unicode="&#x139;" horiz-adv-x="580" 
d="M373 700l-93 -530h335l-30 -170h-520l123 700h185zM332 940h170l-1 -5l-156 -150h-115z" />
    <glyph glyph-name="lacute" unicode="&#x13a;" horiz-adv-x="345" 
d="M50 0l123 700h170l-99 -565h115l-24 -135h-285zM317 940h170l-1 -5l-156 -150h-115z" />
    <glyph glyph-name="Lcommaaccent" unicode="&#x13b;" horiz-adv-x="580" 
d="M373 700l-93 -530h335l-30 -170h-520l123 700h185zM235 -170q0 38 25 62.5t61 24.5q74 0 74 -87q0 -72 -43 -120t-118 -48h-15l11 60h11q54 0 66 45l2 10l-6 -2q-3 -1 -15 -1q-26 0 -39.5 15.5t-13.5 40.5z" />
    <glyph glyph-name="lcommaaccent" unicode="&#x13c;" horiz-adv-x="345" 
d="M50 0l123 700h170l-99 -565h115l-24 -135h-285zM89 -172q0 38 25 62.5t61 24.5q74 0 74 -87q0 -72 -43 -120t-118 -48h-15l11 60h11q54 0 66 45l2 10l-6 -2q-3 -1 -15 -1q-26 0 -39.5 15.5t-13.5 40.5z" />
    <glyph glyph-name="Lcaron" unicode="&#x13d;" horiz-adv-x="580" 
d="M373 700l-93 -530h335l-30 -170h-520l123 700h185zM430 628q0 38 25 62.5t61 24.5q74 0 74 -87q0 -72 -43 -120t-118 -48h-15l11 60h11q54 0 66 45l2 10l-6 -2q-3 -1 -15 -1q-26 0 -39.5 15.5t-13.5 40.5z" />
    <glyph glyph-name="lcaron" unicode="&#x13e;" horiz-adv-x="395" 
d="M50 0l123 700h170l-99 -565h115l-24 -135h-285zM374 628q0 38 25 62.5t61 24.5q74 0 74 -87q0 -72 -43 -120t-118 -48h-15l11 60h11q54 0 66 45l2 10l-6 -2q-3 -1 -15 -1q-26 0 -39.5 15.5t-13.5 40.5z" />
    <glyph glyph-name="Lslash" unicode="&#x141;" horiz-adv-x="594" 
d="M387 700l-39 -225l156 65l-24 -140l-157 -65l-29 -165h335l-30 -170h-520l45 255l-81 -34l25 139l81 35l53 305h185z" />
    <glyph glyph-name="lslash" unicode="&#x142;" horiz-adv-x="375" 
d="M79 0l46 260l-81 -35l23 130l81 35l55 310h170l-42 -235l108 45l-23 -130l-108 -45l-37 -210h115l-22 -125h-285z" />
    <glyph glyph-name="Nacute" unicode="&#x143;" horiz-adv-x="780" 
d="M500 0l-177 440h-10l-1 -90l-62 -350h-185l123 700h215l178 -440h10l1 90l61 350h185l-123 -700h-215zM557 940h170l-1 -5l-156 -150h-115z" />
    <glyph glyph-name="nacute" unicode="&#x144;" horiz-adv-x="625" 
d="M634 303l-54 -303h-170l52 293q2 16 2 23q0 28 -14 51q-20 30 -70 30q-39 0 -70.5 -29.5t-39.5 -77.5l-50 -290h-170l92 520h170l-11 -65h8q16 20 41 40q54 40 112 40q76 0 120 -37.5t55 -102.5q2 -22 2 -35q0 -25 -5 -57zM458 770h170l-1 -5l-156 -150h-115z" />
    <glyph glyph-name="Ncommaaccent" unicode="&#x145;" horiz-adv-x="780" 
d="M500 0l-177 440h-10l-1 -90l-62 -350h-185l123 700h215l178 -440h10l1 90l61 350h185l-123 -700h-215zM300 -172q0 38 25 62.5t61 24.5q74 0 74 -87q0 -72 -43 -120t-118 -48h-15l11 60h11q54 0 66 45l2 10l-6 -2q-3 -1 -15 -1q-26 0 -39.5 15.5t-13.5 40.5z" />
    <glyph glyph-name="ncommaaccent" unicode="&#x146;" horiz-adv-x="625" 
d="M634 303l-54 -303h-170l52 293q2 16 2 23q0 28 -14 51q-20 30 -70 30q-39 0 -70.5 -29.5t-39.5 -77.5l-50 -290h-170l92 520h170l-11 -65h8q16 20 41 40q54 40 112 40q76 0 120 -37.5t55 -102.5q2 -22 2 -35q0 -25 -5 -57zM225 -172q0 38 25 62.5t61 24.5q74 0 74 -87
q0 -72 -43 -120t-118 -48h-15l11 60h11q54 0 66 45l2 10l-6 -2q-3 -1 -15 -1q-26 0 -39.5 15.5t-13.5 40.5z" />
    <glyph glyph-name="Ncaron" unicode="&#x147;" horiz-adv-x="780" 
d="M500 0l-177 440h-10l-1 -90l-62 -350h-185l123 700h215l178 -440h10l1 90l61 350h185l-123 -700h-215zM584 785h-135l-84 150l1 5h113l43 -70h15l67 70h117l-1 -5z" />
    <glyph glyph-name="ncaron" unicode="&#x148;" horiz-adv-x="625" 
d="M634 303l-54 -303h-170l52 293q2 16 2 23q0 28 -14 51q-20 30 -70 30q-39 0 -70.5 -29.5t-39.5 -77.5l-50 -290h-170l92 520h170l-11 -65h8q16 20 41 40q54 40 112 40q76 0 120 -37.5t55 -102.5q2 -22 2 -35q0 -25 -5 -57zM479 615h-135l-84 150l1 5h113l43 -70h15l67 70
h117l-1 -5z" />
    <glyph glyph-name="Omacron" unicode="&#x14c;" horiz-adv-x="850" 
d="M286 323q0 -77 49.5 -125t132.5 -48q88 0 149.5 63.5t61.5 163.5q0 77 -49.5 125t-132.5 48q-88 0 -149.5 -63.5t-61.5 -163.5zM91 319q0 164 122 282.5t295 118.5q164 0 265 -98.5t101 -240.5q0 -164 -122 -282.5t-295 -118.5q-164 0 -265 98.5t-101 240.5zM371 795
l19 105h320l-19 -105h-320z" />
    <glyph glyph-name="omacron" unicode="&#x14d;" horiz-adv-x="630" 
d="M244 239q0 -50 29 -79.5t77 -29.5q51 0 89.5 42t38.5 109q0 50 -29 79.5t-77 29.5q-51 0 -89.5 -42t-38.5 -109zM70 237q0 122 92 210t219 88q120 0 195.5 -73t75.5 -179q0 -122 -92 -210t-219 -88q-120 0 -195.5 73t-75.5 179zM235 625l19 105h320l-19 -105h-320z" />
    <glyph glyph-name="Ohungarumlaut" unicode="&#x150;" horiz-adv-x="850" 
d="M286 323q0 -77 49.5 -125t132.5 -48q88 0 149.5 63.5t61.5 163.5q0 77 -49.5 125t-132.5 48q-88 0 -149.5 -63.5t-61.5 -163.5zM91 319q0 164 122 282.5t295 118.5q164 0 265 -98.5t101 -240.5q0 -164 -122 -282.5t-295 -118.5q-164 0 -265 98.5t-101 240.5zM382 785
l97 155h140l-1 -5l-141 -150h-95zM562 785l97 155h145l-1 -5l-146 -150h-95z" />
    <glyph glyph-name="ohungarumlaut" unicode="&#x151;" horiz-adv-x="630" 
d="M244 239q0 -50 29 -79.5t77 -29.5q51 0 89.5 42t38.5 109q0 50 -29 79.5t-77 29.5q-51 0 -89.5 -42t-38.5 -109zM70 237q0 122 92 210t219 88q120 0 195.5 -73t75.5 -179q0 -122 -92 -210t-219 -88q-120 0 -195.5 73t-75.5 179zM250 615l97 155h140l-1 -5l-141 -150h-95z
M430 615l97 155h145l-1 -5l-146 -150h-95z" />
    <glyph glyph-name="OE" unicode="&#x152;" horiz-adv-x="1175" 
d="M492 550q-83 0 -144.5 -62t-61.5 -166q0 -77 49 -124.5t123 -47.5q84 0 147 62t63 166q0 77 -50 124.5t-126 47.5zM607 0l12 68q-21 -23 -54 -44q-69 -44 -163 -44q-132 0 -221.5 94.5t-89.5 235.5q0 114 56 209.5t143.5 148t183.5 52.5q115 0 189 -56q34 -26 51 -55
l16 91h525l-30 -170h-340l-19 -105h270l-26 -150h-270l-18 -105h340l-30 -170h-525z" />
    <glyph glyph-name="oe" unicode="&#x153;" horiz-adv-x="1016" 
d="M733 -15q-86 0 -147 47q-26 21 -42 48h-10q-22 -28 -52 -48q-69 -47 -156 -47q-109 0 -182.5 73.5t-73.5 178.5q0 122 91 210t215 88q84 0 145 -45q27 -21 43 -45h10q21 25 51 45q68 45 153 45q111 0 182.5 -73.5t71.5 -178.5q0 -20 -5 -53h-390q2 -53 28 -81.5t71 -28.5
q47 0 76 27q15 13 23 28h183q-23 -56 -61 -95q-89 -95 -224 -95zM653 315h206q-2 34 -29 59.5t-64 25.5q-39 0 -68.5 -22t-44.5 -63zM345 130q48 0 85.5 42t37.5 109q0 49 -28.5 79t-72.5 30q-48 0 -85.5 -42t-37.5 -109q0 -49 28.5 -79t72.5 -30z" />
    <glyph glyph-name="Racute" unicode="&#x154;" horiz-adv-x="740" 
d="M602 236l98 -236h-200l-88 210h-125l-37 -210h-185l123 700h317q121 0 196.5 -65t75.5 -162q0 -88 -49.5 -148t-125.5 -89zM317 380h173q41 0 68 23t27 56q0 29 -24 50t-66 21h-152zM522 940h170l-1 -5l-156 -150h-115z" />
    <glyph glyph-name="racute" unicode="&#x155;" horiz-adv-x="425" 
d="M469 365h-85q-45 0 -77 -27.5t-40 -72.5l-47 -265h-170l92 520h165l-14 -75h10q15 26 32 42q47 43 105 43h58zM377 770h170l-1 -5l-156 -150h-115z" />
    <glyph glyph-name="Rcommaaccent" unicode="&#x156;" horiz-adv-x="740" 
d="M602 236l98 -236h-200l-88 210h-125l-37 -210h-185l123 700h317q121 0 196.5 -65t75.5 -162q0 -88 -49.5 -148t-125.5 -89zM317 380h173q41 0 68 23t27 56q0 29 -24 50t-66 21h-152zM290 -172q0 38 25 62.5t61 24.5q74 0 74 -87q0 -72 -43 -120t-118 -48h-15l11 60h11
q54 0 66 45l2 10l-6 -2q-3 -1 -15 -1q-26 0 -39.5 15.5t-13.5 40.5z" />
    <glyph glyph-name="rcommaaccent" unicode="&#x157;" horiz-adv-x="425" 
d="M469 365h-85q-45 0 -77 -27.5t-40 -72.5l-47 -265h-170l92 520h165l-14 -75h10q15 26 32 42q47 43 105 43h58zM35 -172q0 38 25 62.5t61 24.5q74 0 74 -87q0 -72 -43 -120t-118 -48h-15l11 60h11q54 0 66 45l2 10q-1 -1 -3 -1q-2 -1 -3 -1q-3 -1 -15 -1q-26 0 -39.5 15.5
t-13.5 40.5z" />
    <glyph glyph-name="Rcaron" unicode="&#x158;" horiz-adv-x="740" 
d="M602 236l98 -236h-200l-88 210h-125l-37 -210h-185l123 700h317q121 0 196.5 -65t75.5 -162q0 -88 -49.5 -148t-125.5 -89zM317 380h173q41 0 68 23t27 56q0 29 -24 50t-66 21h-152zM559 785h-135l-84 150l1 5h113l43 -70h15l67 70h117l-1 -5z" />
    <glyph glyph-name="rcaron" unicode="&#x159;" horiz-adv-x="425" 
d="M469 365h-85q-45 0 -77 -27.5t-40 -72.5l-47 -265h-170l92 520h165l-14 -75h10q15 26 32 42q47 43 105 43h58zM404 615h-135l-84 150l1 5h113l43 -70h15l67 70h117l-1 -5z" />
    <glyph glyph-name="Sacute" unicode="&#x15a;" horiz-adv-x="690" 
d="M405 140q40 0 66 15.5t26 43.5q0 10 -5 18.5t-15.5 16.5t-21.5 14.5t-30 13.5t-33 12t-37.5 13.5t-37.5 13.5q-181 61 -181 187q0 94 79.5 163t208.5 69q68 0 121 -17t83.5 -40t52.5 -56t30.5 -56.5t13.5 -50.5h-188q-4 16 -20 30q-34 30 -102 30q-42 0 -62 -14t-20 -35
q0 -8 3 -14.5t10 -13.5t13.5 -12t19.5 -11.5t22 -10.5t26 -10t27.5 -9.5t30 -10.5t29.5 -10q181 -66 181 -188q0 -99 -80 -170t-215 -71q-149 0 -229.5 69.5t-100.5 175.5h188q7 -25 25 -43q40 -42 122 -42zM497 940h170l-1 -5l-156 -150h-115z" />
    <glyph glyph-name="sacute" unicode="&#x15b;" horiz-adv-x="550" 
d="M108 365q0 71 58.5 120.5t159.5 49.5q69 0 121 -18.5t78 -47.5t38 -52t15 -43l2 -14h-163l-2 8q-4 14 -23.5 28t-55.5 14q-24 0 -38 -10t-14 -25q0 -24 70 -45q5 -2 27.5 -9t30.5 -10t29 -11t30 -14t25.5 -16t24 -20t17 -23t13 -28.5t3.5 -33.5q0 -75 -61.5 -127.5
t-173.5 -52.5q-155 0 -227 92q-32 41 -39 93h168l3 -9q5 -16 29.5 -31t68.5 -15q56 0 56 34q0 24 -70 47q-95 32 -128 52q-72 44 -72 117zM397 770h170l-1 -5l-156 -150h-115z" />
    <glyph glyph-name="Scedilla" unicode="&#x15e;" horiz-adv-x="690" 
d="M405 140q40 0 66 15.5t26 43.5q0 10 -5 18.5t-15.5 16.5t-21.5 14.5t-30 13.5t-33 12t-37.5 13.5t-37.5 13.5q-181 61 -181 187q0 94 79.5 163t208.5 69q68 0 121 -17t83.5 -40t52.5 -56t30.5 -56.5t13.5 -50.5h-188q-4 16 -20 30q-34 30 -102 30q-42 0 -62 -14t-20 -35
q0 -8 3 -14.5t10 -13.5t13.5 -12t19.5 -11.5t22 -10.5t26 -10t27.5 -9.5t30 -10.5t29.5 -10q181 -66 181 -188q0 -98 -78.5 -168.5t-211.5 -72.5l-16 -28q19 -4 38 -16q38 -26 38 -73q0 -52 -41 -90t-100 -38q-40 0 -74 14q-15 6 -26 14l14 85q14 -8 26 -14q32 -14 63 -14
q20 0 31.5 10.5t11.5 25.5q0 12 -9.5 20.5t-26.5 8.5h-55l54 99q-115 15 -180.5 81.5t-82.5 159.5h188q7 -25 25 -43q40 -42 122 -42z" />
    <glyph glyph-name="scedilla" unicode="&#x15f;" horiz-adv-x="550" 
d="M108 365q0 71 58.5 120.5t159.5 49.5q69 0 121 -18.5t78 -47.5t38 -52t15 -43l2 -14h-163l-2 8q-4 14 -23.5 28t-55.5 14q-24 0 -38 -10t-14 -25q0 -24 70 -45q5 -2 27.5 -9t30.5 -10t29 -11t30 -14t25.5 -16t24 -20t17 -23t13 -28.5t3.5 -33.5q0 -73 -59 -125.5
t-167 -54.5l-19 -33q19 -4 38 -16q38 -26 38 -73q0 -52 -41 -90t-100 -38q-40 0 -74 14q-15 6 -26 14l14 85q14 -8 26 -14q32 -14 63 -14q20 0 31.5 10.5t11.5 25.5q0 12 -9.5 20.5t-26.5 8.5h-55l57 105q-120 16 -173 100q-24 38 -30 80h168l3 -9q5 -16 29.5 -31t68.5 -15
q56 0 56 34q0 24 -70 47q-95 32 -128 52q-72 44 -72 117z" />
    <glyph glyph-name="Scaron" unicode="&#x160;" horiz-adv-x="690" 
d="M405 140q40 0 66 15.5t26 43.5q0 10 -5 18.5t-15.5 16.5t-21.5 14.5t-30 13.5t-33 12t-37.5 13.5t-37.5 13.5q-181 61 -181 187q0 94 79.5 163t208.5 69q68 0 121 -17t83.5 -40t52.5 -56t30.5 -56.5t13.5 -50.5h-188q-4 16 -20 30q-34 30 -102 30q-42 0 -62 -14t-20 -35
q0 -8 3 -14.5t10 -13.5t13.5 -12t19.5 -11.5t22 -10.5t26 -10t27.5 -9.5t30 -10.5t29.5 -10q181 -66 181 -188q0 -99 -80 -170t-215 -71q-149 0 -229.5 69.5t-100.5 175.5h188q7 -25 25 -43q40 -42 122 -42zM519 785h-135l-84 150l1 5h113l43 -70h15l67 70h117l-1 -5z" />
    <glyph glyph-name="scaron" unicode="&#x161;" horiz-adv-x="550" 
d="M108 365q0 71 58.5 120.5t159.5 49.5q69 0 121 -18.5t78 -47.5t38 -52t15 -43l2 -14h-163l-2 8q-4 14 -23.5 28t-55.5 14q-24 0 -38 -10t-14 -25q0 -24 70 -45q5 -2 27.5 -9t30.5 -10t29 -11t30 -14t25.5 -16t24 -20t17 -23t13 -28.5t3.5 -33.5q0 -75 -61.5 -127.5
t-173.5 -52.5q-155 0 -227 92q-32 41 -39 93h168l3 -9q5 -16 29.5 -31t68.5 -15q56 0 56 34q0 24 -70 47q-95 32 -128 52q-72 44 -72 117zM428 615h-135l-84 150l1 5h113l43 -70h15l67 70h117l-1 -5z" />
    <glyph glyph-name="Tcommaaccent" unicode="&#x162;" 
d="M310 530h-220l30 170h625l-30 -170h-220l-93 -530h-185zM208 -172q0 38 25 62.5t61 24.5q74 0 74 -87q0 -72 -43 -120t-118 -48h-15l11 60h11q54 0 66 45l2 10l-6 -2q-3 -1 -15 -1q-26 0 -39.5 15.5t-13.5 40.5z" />
    <glyph glyph-name="tcommaaccent" unicode="&#x163;" horiz-adv-x="420" 
d="M83 385l24 135h65l19 110h170l-19 -110h135l-24 -135h-135l-44 -250h145l-24 -135h-315l68 385h-65zM128 -172q0 38 25 62.5t61 24.5q74 0 74 -87q0 -72 -43 -120t-118 -48h-15l11 60h11q54 0 66 45l2 10l-6 -2q-3 -1 -15 -1q-26 0 -39.5 15.5t-13.5 40.5z" />
    <glyph glyph-name="Tcaron" unicode="&#x164;" 
d="M310 530h-220l30 170h625l-30 -170h-220l-93 -530h-185zM509 785h-135l-84 150l1 5h113l43 -70h15l67 70h117l-1 -5z" />
    <glyph glyph-name="tcaron" unicode="&#x165;" horiz-adv-x="454" 
d="M83 385l24 135h65l19 110h170l-87 -495h145l-24 -135h-315l68 385h-65zM393 558q0 38 25 62.5t61 24.5q74 0 74 -87q0 -72 -43 -120t-118 -48h-15l11 60h11q54 0 66 45l2 10l-6 -2q-3 -1 -15 -1q-26 0 -39.5 15.5t-13.5 40.5z" />
    <glyph glyph-name="Umacron" unicode="&#x16a;" horiz-adv-x="750" 
d="M364 700l-71 -403q-3 -17 -3 -32q0 -19 4 -32q21 -83 118 -83q54 0 90 32t47 92l75 426h185l-80 -446q-22 -126 -108.5 -200t-215.5 -74q-122 0 -198 54t-95 146q-8 34 -8 67q0 31 6 62l69 391h185zM340 795l19 105h320l-19 -105h-320z" />
    <glyph glyph-name="umacron" unicode="&#x16b;" horiz-adv-x="630" 
d="M88 217l54 303h170l-52 -293q-2 -18 -2 -24q0 -28 14 -50q20 -30 70 -30q39 0 70.5 29.5t39.5 77.5l50 290h170l-92 -520h-170l11 65h-8q-16 -20 -41 -40q-54 -40 -112 -40q-76 0 -120.5 37.5t-53.5 102.5q-3 18 -3 38q0 22 5 54zM264 625l19 105h320l-19 -105h-320z" />
    <glyph glyph-name="Uring" unicode="&#x16e;" horiz-adv-x="750" 
d="M364 700l-71 -403q-3 -17 -3 -32q0 -19 4 -32q21 -83 118 -83q54 0 90 32t47 92l75 426h185l-80 -446q-22 -126 -108.5 -200t-215.5 -74q-122 0 -198 54t-95 146q-8 34 -8 67q0 31 6 62l69 391h185zM498 750q-51 0 -82 29.5t-31 75.5q0 54 37 89.5t91 35.5q51 0 82 -29.5
t31 -75.5q0 -54 -37 -89.5t-91 -35.5zM501 820q21 0 35 13.5t14 34.5q0 18 -11 30t-29 12q-21 0 -35 -13.5t-14 -34.5q0 -18 11 -30t29 -12z" />
    <glyph glyph-name="uring" unicode="&#x16f;" horiz-adv-x="630" 
d="M88 217l54 303h170l-52 -293q-2 -18 -2 -24q0 -28 14 -50q20 -30 70 -30q39 0 70.5 29.5t39.5 77.5l50 290h170l-92 -520h-170l11 65h-8q-16 -20 -41 -40q-54 -40 -112 -40q-76 0 -120.5 37.5t-53.5 102.5q-3 18 -3 38q0 22 5 54zM424 580q-51 0 -82 29.5t-31 75.5
q0 54 37 89.5t91 35.5q51 0 82 -29.5t31 -75.5q0 -54 -37 -89.5t-91 -35.5zM427 650q21 0 35 13.5t14 34.5q0 18 -11 30t-29 12q-21 0 -35 -13.5t-14 -34.5q0 -18 11 -30t29 -12z" />
    <glyph glyph-name="Uhungarumlaut" unicode="&#x170;" horiz-adv-x="750" 
d="M364 700l-71 -403q-3 -17 -3 -32q0 -19 4 -32q21 -83 118 -83q54 0 90 32t47 92l75 426h185l-80 -446q-22 -126 -108.5 -200t-215.5 -74q-122 0 -198 54t-95 146q-8 34 -8 67q0 31 6 62l69 391h185zM349 785l97 155h140l-1 -5l-141 -150h-95zM529 785l97 155h145l-1 -5
l-146 -150h-95z" />
    <glyph glyph-name="uhungarumlaut" unicode="&#x171;" horiz-adv-x="630" 
d="M88 217l54 303h170l-52 -293q-2 -18 -2 -24q0 -28 14 -50q20 -30 70 -30q39 0 70.5 29.5t39.5 77.5l50 290h170l-92 -520h-170l11 65h-8q-16 -20 -41 -40q-54 -40 -112 -40q-76 0 -120.5 37.5t-53.5 102.5q-3 18 -3 38q0 22 5 54zM266 615l97 155h140l-1 -5l-141 -150
h-95zM446 615l97 155h145l-1 -5l-146 -150h-95z" />
    <glyph glyph-name="Uogonek" unicode="&#x172;" horiz-adv-x="750" 
d="M388 -255q-55 0 -87.5 23.5t-32.5 66.5q0 48 37.5 85.5t85.5 60.5q-117 3 -189.5 57t-90.5 144q-7 29 -7 64q0 30 6 63l69 391h185l-71 -403q-3 -17 -3 -32q0 -19 4 -32q21 -83 118 -83q54 0 90 32t47 92l75 426h185l-80 -446q-18 -99 -75.5 -166.5t-145.5 -93.5
q-26 -13 -52.5 -29.5t-55 -46.5t-28.5 -55q0 -33 46 -33q21 0 39 5q8 1 17 5l-14 -82q-6 -3 -20 -7q-26 -6 -52 -6z" />
    <glyph glyph-name="uogonek" unicode="&#x173;" horiz-adv-x="630" 
d="M448 -255q-55 0 -87.5 23.5t-32.5 66.5q0 57 53.5 101.5t100.5 57.5q14 4 15 6h-87l11 65h-8q-16 -20 -41 -40q-54 -40 -112 -40q-76 0 -120.5 37.5t-53.5 102.5q-3 18 -3 38q0 22 5 54l54 303h170l-52 -293q-2 -18 -2 -24q0 -28 14 -50q20 -30 70 -30q39 0 70.5 29.5
t39.5 77.5l50 290h170l-92 -520q-37 -18 -74 -43q-74 -54 -74 -94q0 -33 46 -33q21 0 39 5q8 1 17 5l-14 -82q-6 -3 -20 -7q-26 -6 -52 -6z" />
    <glyph glyph-name="Ydieresis" unicode="&#x178;" horiz-adv-x="685" 
d="M466 250l-44 -250h-185l44 250l-181 450h190l102 -270h15l198 270h200zM354 775q-32 0 -53 20.5t-21 51.5q0 38 25 63t61 25q32 0 53 -20.5t21 -51.5q0 -38 -25 -63t-61 -25zM559 775q-33 0 -53.5 20.5t-20.5 51.5q0 38 25 63t61 25q33 0 53.5 -20.5t20.5 -51.5
q0 -38 -25 -63t-61 -25z" />
    <glyph glyph-name="Zacute" unicode="&#x179;" horiz-adv-x="665" 
d="M40 0l30 170l392 350l1 10h-320l30 170h575l-30 -170l-392 -350l-1 -10h340l-30 -170h-595zM503 940h170l-1 -5l-156 -150h-115z" />
    <glyph glyph-name="zacute" unicode="&#x17a;" horiz-adv-x="530" 
d="M587 520l-26 -145l-274 -220l-1 -10h245l-26 -145h-475l26 145l273 220l2 10h-225l26 145h455zM407 770h170l-1 -5l-156 -150h-115z" />
    <glyph glyph-name="Zdotaccent" unicode="&#x17b;" horiz-adv-x="665" 
d="M40 0l30 170l392 350l1 10h-320l30 170h575l-30 -170l-392 -350l-1 -10h340l-30 -170h-595zM472 770q-41 0 -64 20.5t-23 54.5q0 42 26.5 68.5t67.5 26.5t64 -20.5t23 -54.5q0 -42 -26.5 -68.5t-67.5 -26.5z" />
    <glyph glyph-name="zdotaccent" unicode="&#x17c;" horiz-adv-x="530" 
d="M587 520l-26 -145l-274 -220l-1 -10h245l-26 -145h-475l26 145l273 220l2 10h-225l26 145h455zM374 595q-41 0 -64 20.5t-23 54.5q0 42 26.5 68.5t67.5 26.5t64 -20.5t23 -54.5q0 -42 -26.5 -68.5t-67.5 -26.5z" />
    <glyph glyph-name="Zcaron" unicode="&#x17d;" horiz-adv-x="665" 
d="M40 0l30 170l392 350l1 10h-320l30 170h575l-30 -170l-392 -350l-1 -10h340l-30 -170h-595zM534 785h-135l-84 150l1 5h113l43 -70h15l67 70h117l-1 -5z" />
    <glyph glyph-name="zcaron" unicode="&#x17e;" horiz-adv-x="530" 
d="M587 520l-26 -145l-274 -220l-1 -10h245l-26 -145h-475l26 145l273 220l2 10h-225l26 145h455zM439 615h-135l-84 150l1 5h113l43 -70h15l67 70h117l-1 -5z" />
    <glyph glyph-name="florin" unicode="&#x192;" horiz-adv-x="465" 
d="M490 360h-130l-128 -550h-290l12 140h140l96 410h-50l12 140h70l48 200h290l-12 -140h-140l-16 -60h110z" />
    <glyph glyph-name="uni01FA" unicode="&#x1fa;" horiz-adv-x="720" 
d="M525 1036h135v-4l-76 -74q42 -30 42 -83q0 -54 -37 -89.5t-91 -35.5q-51 0 -82 29.5t-31 75.5q0 47 28.5 80.5t73.5 41.5zM501 820q21 0 35 13.5t14 34.5q0 18 -11 30t-29 12q-21 0 -35 -13.5t-14 -34.5q0 -18 11 -30t29 -12zM663 700l67 -700h-187l-10 140h-270
l-60 -140h-193l313 700h340zM431 530l-100 -230h190l-20 230h-70z" />
    <glyph glyph-name="uni01FB" unicode="&#x1fb;" 
d="M445 865h135v-4l-76 -73q42 -30 42 -83q0 -54 -37 -89.5t-91 -35.5q-51 0 -82 29.5t-31 75.5q0 47 28.5 80.5t74.5 41.5zM421 650q21 0 35 13.5t14 34.5q0 18 -11 30t-29 12q-21 0 -35 -13.5t-14 -34.5q0 -18 11 -30t29 -12zM422 0l11 65h-8q-17 -21 -42 -40
q-54 -40 -112 -40q-88 0 -144.5 63.5t-56.5 166.5q0 143 79.5 231.5t181.5 88.5q59 0 97 -25.5t54 -54.5l8 -15h10l14 80h170l-92 -520h-170zM346 130q51 0 87 41t36 115q0 50 -27 77t-74 27q-51 0 -87 -41t-36 -115q0 -50 27 -77t74 -27z" />
    <glyph glyph-name="uni01FC" unicode="&#x1fc;" horiz-adv-x="1030" 
d="M680 170h340l-30 -170h-525l25 140h-225l-62 -140h-193l313 700h790l-30 -170h-340l-18 -105h270l-27 -150h-270zM433 530l-104 -230h189l40 230h-125zM727 940h170l-1 -5l-156 -150h-115z" />
    <glyph glyph-name="uni01FD" unicode="&#x1fd;" horiz-adv-x="982" 
d="M263 -15q-93 0 -148 39.5t-55 99.5q0 83 56 134.5t156 51.5h174q1 0 1 2q0 5 1 7q1 5 1 14q0 24 -14 44q-18 23 -65 23q-39 0 -66 -25q-9 -9 -18 -25h-173q16 50 50 92q77 93 208 93q82 0 137 -43q23 -17 37 -42h10q16 23 44 42q63 43 145 43q111 0 182.5 -73.5
t71.5 -178.5q0 -20 -5 -53h-390q2 -53 28 -81.5t71 -28.5q47 0 76 27q15 13 23 28h183q-23 -56 -61 -95q-89 -95 -224 -95q-90 0 -152 52q-26 20 -47 53h-10q-90 -105 -227 -105zM433 230h-129q-64 0 -64 -60q0 -50 76 -50q50 0 80.5 30t36.5 80zM619 315h206
q-2 34 -29 59.5t-64 25.5q-39 0 -68.5 -22t-44.5 -63zM613 765h170l-1 -5l-156 -150h-115z" />
    <glyph glyph-name="uni01FE" unicode="&#x1fe;" horiz-adv-x="850" 
d="M39 106l88 59q-36 69 -36 154q0 164 122 282.5t295 118.5q176 0 280 -115l158 105l-20 -116l-89 -59q37 -71 37 -154q0 -164 -122 -282.5t-295 -118.5q-177 0 -281 115l-157 -105zM679 377q0 25 -6 48l-339 -225q48 -50 134 -50q88 0 149.5 63.5t61.5 163.5zM286 323
q0 -27 6 -49l339 226q-50 50 -134 50q-88 0 -149.5 -63.5t-61.5 -163.5zM568 940h170l-1 -5l-156 -150h-115z" />
    <glyph glyph-name="uni01FF" unicode="&#x1ff;" horiz-adv-x="630" 
d="M44 103l48 31q-22 48 -22 103q0 122 92 210t219 88q124 0 201 -80l115 75l-19 -113l-48 -31q22 -48 22 -103q0 -122 -92 -210t-219 -88q-123 0 -201 80l-115 -75zM244 239v-5l199 130q-31 26 -71 26q-51 0 -89.5 -42t-38.5 -109zM478 281v5l-199 -130q31 -26 71 -26
q51 0 89.5 42t38.5 109zM435 765h170l-1 -5l-156 -150h-115z" />
    <glyph glyph-name="Scommaaccent" unicode="&#x218;" horiz-adv-x="690" 
d="M405 140q40 0 66 15.5t26 43.5q0 10 -5 18.5t-15.5 16.5t-21.5 14.5t-30 13.5t-33 12t-37.5 13.5t-37.5 13.5q-181 61 -181 187q0 94 79.5 163t208.5 69q68 0 121 -17t83.5 -40t52.5 -56t30.5 -56.5t13.5 -50.5h-188q-4 16 -20 30q-34 30 -102 30q-42 0 -62 -14t-20 -35
q0 -8 3 -14.5t10 -13.5t13.5 -12t19.5 -11.5t22 -10.5t26 -10t27.5 -9.5t30 -10.5t29.5 -10q181 -66 181 -188q0 -99 -80 -170t-215 -71q-149 0 -229.5 69.5t-100.5 175.5h188q7 -25 25 -43q40 -42 122 -42zM275 -172q0 38 25 62.5t61 24.5q74 0 74 -87q0 -72 -43 -120
t-118 -48h-15l11 60h11q54 0 66 45l2 10l-6 -2q-3 -1 -15 -1q-26 0 -39.5 15.5t-13.5 40.5z" />
    <glyph glyph-name="scommaaccent" unicode="&#x219;" horiz-adv-x="550" 
d="M108 365q0 71 58.5 120.5t159.5 49.5q69 0 121 -18.5t78 -47.5t38 -52t15 -43l2 -14h-163l-2 8q-4 14 -23.5 28t-55.5 14q-24 0 -38 -10t-14 -25q0 -24 70 -45q5 -2 27.5 -9t30.5 -10t29 -11t30 -14t25.5 -16t24 -20t17 -23t13 -28.5t3.5 -33.5q0 -75 -61.5 -127.5
t-173.5 -52.5q-155 0 -227 92q-32 41 -39 93h168l3 -9q5 -16 29.5 -31t68.5 -15q56 0 56 34q0 24 -70 47q-95 32 -128 52q-72 44 -72 117zM204 -171q0 38 25 62.5t61 24.5q74 0 74 -87q0 -72 -43 -120t-118 -48h-15l11 60h11q54 0 66 45l2 10l-6 -2q-3 -1 -15 -1
q-26 0 -39.5 15.5t-13.5 40.5z" />
    <glyph glyph-name="uni021A" unicode="&#x21a;" 
d="M310 530h-220l30 170h625l-30 -170h-220l-93 -530h-185zM208 -172q0 38 25 62.5t61 24.5q74 0 74 -87q0 -72 -43 -120t-118 -48h-15l11 60h11q54 0 66 45l2 10l-6 -2q-3 -1 -15 -1q-26 0 -39.5 15.5t-13.5 40.5z" />
    <glyph glyph-name="uni021B" unicode="&#x21b;" horiz-adv-x="420" 
d="M83 385l24 135h65l19 110h170l-19 -110h135l-24 -135h-135l-44 -250h145l-24 -135h-315l68 385h-65zM128 -172q0 38 25 62.5t61 24.5q74 0 74 -87q0 -72 -43 -120t-118 -48h-15l11 60h11q54 0 66 45l2 10l-6 -2q-3 -1 -15 -1q-26 0 -39.5 15.5t-13.5 40.5z" />
    <glyph glyph-name="afii57929" unicode="&#x2bc;" horiz-adv-x="225" 
d="M139 618q0 38 25 62.5t61 24.5q74 0 74 -87q0 -72 -43 -120t-118 -48h-15l11 60h11q54 0 66 45l2 10l-6 -2q-3 -1 -15 -1q-26 0 -39.5 15.5t-13.5 40.5z" />
    <glyph glyph-name="circumflex" unicode="&#x2c6;" horiz-adv-x="415" 
d="M253 700h135l84 -150l-1 -5h-113l-43 70h-15l-67 -70h-117l1 5z" />
    <glyph glyph-name="caron" unicode="&#x2c7;" horiz-adv-x="415" 
d="M351 545h-135l-84 150l1 5h113l43 -70h15l67 70h117l-1 -5z" />
    <glyph glyph-name="breve" unicode="&#x2d8;" horiz-adv-x="380" 
d="M287 556q-80 0 -120 34.5t-40 91.5v13h102v-3q0 -18 16 -30t46 -12q26 0 41 12.5t17 32.5h100q-9 -69 -51 -104t-111 -35z" />
    <glyph glyph-name="dotaccent" unicode="&#x2d9;" horiz-adv-x="240" 
d="M219 545q-41 0 -64 20.5t-23 54.5q0 42 26.5 68.5t67.5 26.5t64 -20.5t23 -54.5q0 -42 -26.5 -68.5t-67.5 -26.5z" />
    <glyph glyph-name="ring" unicode="&#x2da;" horiz-adv-x="300" 
d="M230 475q-51 0 -82 29.5t-31 75.5q0 54 37 89.5t91 35.5q51 0 82 -29.5t31 -75.5q0 -54 -37 -89.5t-91 -35.5zM233 545q21 0 35 13.5t14 34.5q0 18 -11 30t-29 12q-21 0 -35 -13.5t-14 -34.5q0 -18 11 -30t29 -12z" />
    <glyph glyph-name="ogonek" unicode="&#x2db;" horiz-adv-x="275" 
d="M113 -255q-55 0 -87.5 23.5t-32.5 66.5q0 65 85 124q40 25 85 41h82q-37 -18 -74 -43q-74 -54 -74 -94q0 -33 46 -33q21 0 39 5q8 1 17 5l-14 -82q-6 -3 -20 -7q-26 -6 -52 -6z" />
    <glyph glyph-name="tilde" unicode="&#x2dc;" horiz-adv-x="405" 
d="M238 705q40 0 74 -22q33 -23 48 -23q26 0 30 25l3 15h95l-9 -50q-8 -45 -37.5 -70t-74.5 -25q-41 0 -74 23q-34 22 -48 22q-26 0 -30 -25l-3 -15h-94l9 50q8 45 37 70t74 25z" />
    <glyph glyph-name="hungarumlaut" unicode="&#x2dd;" horiz-adv-x="455" 
d="M126 545l97 155h140l-1 -5l-141 -150h-95zM306 545l97 155h145l-1 -5l-146 -150h-95z" />
    <glyph glyph-name="uni0301" unicode="&#x301;" horiz-adv-x="0" 
d="M-205 950h135v-4l-125 -121h-90z" />
    <glyph glyph-name="uni030A" unicode="&#x30a;" horiz-adv-x="0" 
d="M-212 645q-51 0 -82 29.5t-31 75.5q0 54 37 89.5t91 35.5q51 0 82 -29.5t31 -75.5q0 -54 -37 -89.5t-91 -35.5zM-209 715q21 0 35 13.5t14 34.5q0 18 -11 30t-29 12q-21 0 -35 -13.5t-14 -34.5q0 -18 11 -30t29 -12z" />
    <glyph glyph-name="afii10023" unicode="&#x401;" 
d="M280 170h355l-30 -170h-540l123 700h540l-30 -170h-355l-18 -105h285l-27 -150h-285zM364 755q-32 0 -53 20.5t-21 51.5q0 38 25 63t61 25q32 0 53 -20.5t21 -51.5q0 -38 -25 -63t-61 -25zM569 755q-33 0 -53.5 20.5t-20.5 51.5q0 38 25 63t61 25q33 0 53.5 -20.5
t20.5 -51.5q0 -38 -25 -63t-61 -25z" />
    <glyph glyph-name="afii10051" unicode="&#x402;" horiz-adv-x="835" 
d="M827 159l-47 -269h-300l30 170h115l19 107q2 14 2 20q0 7 -2 19q-8 28 -30 46t-54 18h-128l-47 -270h-185l93 530h-200l30 170h590l-30 -170h-205l-16 -90h133q92 0 152.5 -44.5t78.5 -121.5q6 -27 6 -57q0 -25 -5 -58z" />
    <glyph glyph-name="afii10052" unicode="&#x403;" horiz-adv-x="595" 
d="M65 0l123 700h510l-30 -170h-325l-93 -530h-185zM492 925h170l-1 -5l-156 -150h-115z" />
    <glyph glyph-name="afii10053" unicode="&#x404;" horiz-adv-x="825" 
d="M455 -20q-164 0 -265 98.5t-101 240.5q0 164 122 282.5t295 118.5q85 0 151 -25.5t105.5 -68t61.5 -87.5t31 -94h-189q-39 105 -171 105q-65 0 -117 -36t-77 -99h236l-23 -130h-226q12 -62 59 -98.5t119 -36.5q86 0 146 60q26 26 42 60h193q-31 -81 -86 -145
q-123 -145 -306 -145z" />
    <glyph glyph-name="afii10054" unicode="&#x405;" horiz-adv-x="690" 
d="M405 140q40 0 66 15.5t26 43.5q0 10 -5 18.5t-15.5 16.5t-21.5 14.5t-30 13.5t-33 12t-37.5 13.5t-37.5 13.5q-181 61 -181 187q0 94 79.5 163t208.5 69q68 0 121 -17t83.5 -40t52.5 -56t30.5 -56.5t13.5 -50.5h-188q-4 16 -20 30q-34 30 -102 30q-42 0 -62 -14t-20 -35
q0 -8 3 -14.5t10 -13.5t13.5 -12t19.5 -11.5t22 -10.5t26 -10t27.5 -9.5t30 -10.5t29.5 -10q181 -66 181 -188q0 -99 -80 -170t-215 -71q-149 0 -229.5 69.5t-100.5 175.5h188q7 -25 25 -43q40 -42 122 -42z" />
    <glyph glyph-name="afii10055" unicode="&#x406;" horiz-adv-x="315" 
d="M373 700l-123 -700h-185l123 700h185z" />
    <glyph glyph-name="afii10056" unicode="&#x407;" horiz-adv-x="315" 
d="M373 700l-123 -700h-185l123 700h185zM189 755q-33 0 -53.5 20.5t-20.5 51.5q0 38 25 63t61 25q33 0 53.5 -20.5t20.5 -51.5q0 -38 -25 -63t-61 -25zM394 755q-32 0 -53 20.5t-21 51.5q0 38 25 63t61 25q32 0 53 -20.5t21 -51.5q0 -38 -25 -63t-61 -25z" />
    <glyph glyph-name="afii10057" unicode="&#x408;" horiz-adv-x="610" 
d="M667 700l-85 -479q-20 -115 -96.5 -180.5t-193.5 -65.5q-69 0 -121.5 21t-80 53.5t-41 58.5t-17.5 49l-3 14l173 36q6 -17 18 -31q29 -31 78 -31q85 0 102 92l82 463h185z" />
    <glyph glyph-name="afii10058" unicode="&#x409;" horiz-adv-x="1095" 
d="M820 0h-365l93 530h-120l-228 -530h-190l308 700h445l-37 -210h119q122 0 196 -63t74 -161q0 -116 -81 -191t-214 -75zM670 170h163q40 0 65 22t25 58q0 30 -23 50t-60 20h-144z" />
    <glyph glyph-name="afii10059" unicode="&#x40a;" horiz-adv-x="1150" 
d="M875 0h-365l53 300h-260l-53 -300h-185l123 700h185l-40 -230h260l40 230h185l-40 -230h122q122 0 196 -60t74 -154q0 -112 -81 -184t-214 -72zM725 170h168q40 0 62.5 19t22.5 51q0 26 -20.5 43t-57.5 17h-152z" />
    <glyph glyph-name="afii10060" unicode="&#x40b;" horiz-adv-x="835" 
d="M827 159l-28 -159h-185l30 167q2 14 2 20q0 7 -2 19q-8 28 -30 46t-54 18h-128l-47 -270h-185l93 530h-200l30 170h590l-30 -170h-205l-16 -90h133q92 0 152.5 -44.5t78.5 -121.5q6 -27 6 -57q0 -25 -5 -58z" />
    <glyph glyph-name="afii10061" unicode="&#x40c;" horiz-adv-x="720" 
d="M520 0l-127 270h-95l-48 -270h-185l123 700h185l-45 -260h75l215 260h215l-278 -330l170 -370h-205zM532 925h170l-1 -5l-156 -150h-115z" />
    <glyph glyph-name="afii10062" unicode="&#x40e;" horiz-adv-x="670" 
d="M330 230h-130l-102 470h190l62 -300h75l168 300h195l-393 -700h-195zM448 765q-83 0 -128.5 40t-45.5 102v13q0 4 1 5h119v-8q0 -47 59 -47q56 0 62 55h121q-11 -78 -60 -119t-128 -41z" />
    <glyph glyph-name="afii10145" unicode="&#x40f;" horiz-adv-x="770" 
d="M279 -120l21 120h-235l123 700h185l-93 -530h270l93 530h185l-123 -700h-235l-21 -120h-170z" />
    <glyph glyph-name="afii10017" unicode="&#x410;" horiz-adv-x="720" 
d="M663 700l67 -700h-187l-10 140h-270l-60 -140h-193l313 700h340zM431 530l-100 -230h190l-20 230h-70z" />
    <glyph glyph-name="afii10018" unicode="&#x411;" horiz-adv-x="720" 
d="M329 450h161q114 0 178.5 -58t64.5 -147q0 -106 -75 -175.5t-193 -69.5h-400l123 700h570l-28 -160h-385zM278 160h182q35 0 58 20.5t23 48.5q0 25 -20 43t-56 18h-164z" />
    <glyph glyph-name="afii10019" unicode="&#x412;" horiz-adv-x="730" 
d="M470 0h-405l123 700h352q105 0 163 -50t58 -118q0 -89 -68 -135q-32 -21 -67 -28v-5q29 -11 53 -30q53 -45 53 -115q0 -96 -70.5 -157.5t-191.5 -61.5zM490 550h-143l-21 -120h164q34 0 53.5 18t19.5 47q0 24 -19.5 39.5t-53.5 15.5zM276 150h174q44 0 67 20.5t23 54.5
q0 28 -23.5 46.5t-66.5 18.5h-149z" />
    <glyph glyph-name="afii10020" unicode="&#x413;" horiz-adv-x="595" 
d="M65 0l123 700h510l-30 -170h-325l-93 -530h-185z" />
    <glyph glyph-name="afii10021" unicode="&#x414;" horiz-adv-x="785" 
d="M564 170l-31 360h-85l-159 -360h275zM615 0h-435l-21 -120h-175l51 290h80l234 530h345l46 -530h80l-51 -290h-175z" />
    <glyph glyph-name="afii10022" unicode="&#x415;" 
d="M280 170h355l-30 -170h-540l123 700h540l-30 -170h-355l-18 -105h285l-27 -150h-285z" />
    <glyph glyph-name="afii10024" unicode="&#x416;" horiz-adv-x="1065" 
d="M875 0l-117 270h-80l-48 -270h-185l48 270h-60l-213 -270h-220l290 370l-152 330h200l115 -260h70l45 260h185l-45 -260h50l205 260h220l-268 -330l160 -370h-200z" />
    <glyph glyph-name="afii10025" unicode="&#x417;" horiz-adv-x="695" 
d="M67 225h188q7 -25 25 -43q40 -42 122 -42q47 0 74 22t27 56q0 30 -30 48.5t-88 18.5h-81l26 150h115q87 0 87 61q0 27 -25 45.5t-75 18.5q-56 0 -95 -35q-16 -15 -23 -35h-194q21 65 64 115q99 115 261 115q138 0 211.5 -57.5t73.5 -138.5q0 -94 -69 -141
q-31 -22 -68 -29l-2 -10q32 -12 52 -28q52 -40 52 -109q0 -98 -79 -162.5t-216 -64.5q-203 0 -289 122q-36 52 -44 123z" />
    <glyph glyph-name="afii10026" unicode="&#x418;" horiz-adv-x="780" 
d="M292 265l331 435h215l-123 -700h-185l61 345l31 90h-10l-332 -435h-215l123 700h185l-60 -345l-31 -90h10z" />
    <glyph glyph-name="afii10027" unicode="&#x419;" horiz-adv-x="780" 
d="M292 265l331 435h215l-123 -700h-185l61 345l31 90h-10l-332 -435h-215l123 700h185l-60 -345l-31 -90h10zM524 765q-83 0 -128.5 40t-45.5 102v13q0 4 1 5h119v-8q0 -47 59 -47q56 0 62 55h121q-11 -78 -60 -119t-128 -41z" />
    <glyph glyph-name="afii10028" unicode="&#x41a;" horiz-adv-x="720" 
d="M520 0l-127 270h-95l-48 -270h-185l123 700h185l-45 -260h75l215 260h215l-278 -330l170 -370h-205z" />
    <glyph glyph-name="afii10029" unicode="&#x41b;" horiz-adv-x="710" 
d="M658 700l62 -700h-181l-47 530h-60l-233 -530h-189l308 700h340z" />
    <glyph glyph-name="afii10030" unicode="&#x41c;" horiz-adv-x="965" 
d="M613 160h-205l-77 330h-10v-90l-71 -400h-185l123 700h255l82 -360h25l208 360h265l-123 -700h-185l71 400l30 90h-10z" />
    <glyph glyph-name="afii10031" unicode="&#x41d;" horiz-adv-x="770" 
d="M65 0l123 700h185l-45 -260h270l45 260h185l-123 -700h-185l48 270h-270l-48 -270h-185z" />
    <glyph glyph-name="afii10032" unicode="&#x41e;" horiz-adv-x="850" 
d="M286 323q0 -77 49.5 -125t132.5 -48q88 0 149.5 63.5t61.5 163.5q0 77 -49.5 125t-132.5 48q-88 0 -149.5 -63.5t-61.5 -163.5zM91 319q0 164 122 282.5t295 118.5q164 0 265 -98.5t101 -240.5q0 -164 -122 -282.5t-295 -118.5q-164 0 -265 98.5t-101 240.5z" />
    <glyph glyph-name="afii10033" unicode="&#x41f;" horiz-adv-x="770" 
d="M65 0l123 700h640l-123 -700h-185l93 530h-270l-93 -530h-185z" />
    <glyph glyph-name="afii10034" unicode="&#x420;" horiz-adv-x="730" 
d="M480 530h-137l-30 -170h167q48 0 75 25t27 67q0 34 -25.5 56t-76.5 22zM188 700h317q120 0 194.5 -69t74.5 -167q0 -115 -87 -194.5t-215 -79.5h-188l-34 -190h-185z" />
    <glyph glyph-name="afii10035" unicode="&#x421;" horiz-adv-x="825" 
d="M455 -20q-164 0 -265 98.5t-101 240.5q0 164 122 282.5t295 118.5q85 0 151 -25.5t105.5 -68t61.5 -87.5t31 -94h-189q-39 105 -171 105q-88 0 -149.5 -63.5t-61.5 -163.5q0 -77 49.5 -125t132.5 -48q86 0 146 60q26 26 42 60h193q-31 -81 -86 -145q-123 -145 -306 -145z
" />
    <glyph glyph-name="afii10036" unicode="&#x422;" 
d="M310 530h-220l30 170h625l-30 -170h-220l-93 -530h-185z" />
    <glyph glyph-name="afii10037" unicode="&#x423;" horiz-adv-x="670" 
d="M330 230h-130l-102 470h190l62 -300h75l168 300h195l-393 -700h-195z" />
    <glyph glyph-name="afii10038" unicode="&#x424;" horiz-adv-x="955" 
d="M655 510l-55 -310q79 0 133.5 47t54.5 121q0 56 -35.5 95t-97.5 47zM415 200l55 310q-80 0 -134 -46.5t-54 -121.5q0 -56 35.5 -95t97.5 -47zM696 745l-12 -70q139 -20 219 -102t80 -195q0 -143 -112 -243t-279 -100h-21l-12 -70h-185l12 70q-139 20 -219 102t-80 195
q0 143 112 243t279 100h21l12 70h185z" />
    <glyph glyph-name="afii10039" unicode="&#x425;" horiz-adv-x="695" 
d="M338 700l63 -270h50l157 270h200l-222 -355l114 -345h-195l-74 260h-50l-166 -260h-205l236 345l-98 355h190z" />
    <glyph glyph-name="afii10040" unicode="&#x426;" horiz-adv-x="780" 
d="M590 0h-525l123 700h185l-93 -530h240l93 530h185l-93 -530h90l-51 -290h-175z" />
    <glyph glyph-name="afii10041" unicode="&#x427;" horiz-adv-x="740" 
d="M169 700h186l-38 -217q-3 -13 -3 -27q0 -38 22 -60q28 -31 98 -31q50 0 90 17q22 9 33 17l53 301h185l-124 -700h-185l42 236q-15 -10 -40 -18q-54 -18 -112 -18q-103 0 -165.5 45.5t-79.5 124.5q-5 28 -5 55q0 24 5 59z" />
    <glyph glyph-name="afii10042" unicode="&#x428;" horiz-adv-x="1045" 
d="M1103 700l-123 -700h-915l123 700h185l-93 -530h180l93 530h185l-93 -530h179l93 530h186z" />
    <glyph glyph-name="afii10043" unicode="&#x429;" horiz-adv-x="1085" 
d="M895 0h-830l123 700h185l-93 -530h180l93 530h185l-93 -530h179l93 530h186l-93 -530h90l-51 -290h-175z" />
    <glyph glyph-name="afii10044" unicode="&#x42a;" horiz-adv-x="785" 
d="M510 0h-365l93 530h-140l30 170h325l-37 -210h119q122 0 196 -63t74 -161q0 -116 -81 -191t-214 -75zM360 170h163q40 0 65 22t25 58q0 30 -23 50t-60 20h-144z" />
    <glyph glyph-name="afii10045" unicode="&#x42b;" horiz-adv-x="970" 
d="M415 0h-350l123 700h185l-37 -210h104q122 0 196 -63t74 -161q0 -116 -81 -191t-214 -75zM280 170h148q40 0 65 22t25 58q0 30 -23 50t-60 20h-129zM905 0h-185l123 700h185z" />
    <glyph glyph-name="afii10046" unicode="&#x42c;" horiz-adv-x="715" 
d="M440 0h-375l123 700h185l-37 -210h129q122 0 196 -63t74 -161q0 -116 -81 -191t-214 -75zM280 170h173q40 0 65 22t25 58q0 30 -23 50t-60 20h-154z" />
    <glyph glyph-name="afii10047" unicode="&#x42d;" horiz-adv-x="825" 
d="M424 415h226q-11 61 -59 98t-119 37q-81 0 -138 -53q-24 -21 -42 -52h-195q30 74 86 137q122 138 300 138q164 0 265 -98.5t101 -240.5q0 -164 -122 -282.5t-295 -118.5q-88 0 -156 27.5t-107.5 72.5t-60.5 92t-28 98h188q13 -52 57.5 -86t117.5 -34q66 0 118 36t76 99
h-236z" />
    <glyph glyph-name="afii10048" unicode="&#x42e;" horiz-adv-x="1117" 
d="M327 435h79q38 124 144 204.5t240 80.5q157 0 254 -98.5t97 -240.5q0 -164 -118 -282.5t-284 -118.5q-142 0 -235 80.5t-112 204.5h-95l-47 -265h-185l123 700h185zM750 150q81 0 138.5 63.5t57.5 163.5q0 77 -46 125t-121 48q-81 0 -138.5 -63.5t-57.5 -163.5
q0 -77 46 -125t121 -48z" />
    <glyph glyph-name="afii10049" unicode="&#x42f;" horiz-adv-x="740" 
d="M409 380h148l26 150h-160h-13q-43 0 -69.5 -22.5t-26.5 -56.5q0 -29 25 -50t70 -21zM40 0l196 259q-113 71 -113 178q0 111 83.5 187t207.5 76h384l-123 -700h-185l37 210h-130l-157 -210h-200z" />
    <glyph glyph-name="afii10065" unicode="&#x430;" 
d="M422 0l11 65h-8q-17 -21 -42 -40q-54 -40 -112 -40q-88 0 -144.5 63.5t-56.5 166.5q0 143 79.5 231.5t181.5 88.5q59 0 97 -25.5t54 -54.5l8 -15h10l14 80h170l-92 -520h-170zM346 130q51 0 87 41t36 115q0 50 -27 77t-74 27q-51 0 -87 -41t-36 -115q0 -50 27 -77t74 -27
z" />
    <glyph glyph-name="afii10066" unicode="&#x431;" horiz-adv-x="620" 
d="M455 700h218l-25 -145h-183q-81 0 -129 -39t-64 -106l10 -1q10 13 34 29q44 29 107 29q95 0 155 -60t60 -150q0 -115 -83.5 -193.5t-208.5 -78.5q-113 0 -187 68t-74 197q0 190 105 320t265 130zM349 130q47 0 81 35t34 89q0 42 -26.5 69t-70.5 27q-47 0 -81 -35t-34 -89
q0 -42 26.5 -69t70.5 -27z" />
    <glyph glyph-name="afii10067" unicode="&#x432;" horiz-adv-x="585" 
d="M387 0h-337l92 520h288q81 0 125.5 -36t44.5 -86q0 -68 -55 -103q-26 -17 -55 -21l-1 -10q29 -9 47 -20q47 -31 47 -86q0 -71 -50 -114.5t-146 -43.5zM360 215h-102l-18 -100h116q27 0 43.5 15t16.5 42q0 19 -14 31t-42 12zM390 405h-99l-14 -80h108q20 0 32.5 12.5
t12.5 34.5q0 33 -40 33z" />
    <glyph glyph-name="afii10068" unicode="&#x433;" horiz-adv-x="475" 
d="M50 0l92 520h410l-26 -145h-240l-66 -375h-170z" />
    <glyph glyph-name="afii10069" unicode="&#x434;" horiz-adv-x="625" 
d="M561 520l29 -375h60l-43 -245h-160l18 100h-295l-18 -100h-160l43 245h60l161 375h305zM359 375l-98 -230h163l-19 230h-46z" />
    <glyph glyph-name="afii10070" unicode="&#x435;" horiz-adv-x="625" 
d="M342 -15q-118 0 -195 71t-77 182q0 122 91.5 209.5t215.5 87.5q118 0 191 -73t73 -179q0 -20 -5 -53h-395q5 -110 104 -110q47 0 76 27q15 13 23 28h183q-23 -56 -61 -95q-89 -95 -224 -95zM257 315h211q-2 34 -29 59.5t-64 25.5q-88 0 -118 -85z" />
    <glyph glyph-name="afii10072" unicode="&#x436;" horiz-adv-x="865" 
d="M559 190l-34 -190h-170l34 190h-50l-144 -190h-190l213 275l-106 245h180l77 -185h45l33 185h170l-33 -185h40l143 185h185l-194 -245l117 -275h-185l-76 190h-55z" />
    <glyph glyph-name="afii10073" unicode="&#x437;" horiz-adv-x="555" 
d="M54 170h169q8 -28 34.5 -41.5t58.5 -13.5q33 0 49.5 14t16.5 37q0 44 -69 44h-64l20 110h77q56 0 56 44q0 17 -17 29t-50 12q-38 0 -61 -23q-9 -9 -14 -22h-175q18 49 52 87q84 88 208 88q114 0 172.5 -42.5t58.5 -104.5q0 -69 -55 -102q-24 -14 -54 -18l-2 -10
q24 -8 42 -21q43 -33 43 -85q0 -66 -59.5 -116.5t-171.5 -50.5q-159 0 -229 92q-30 41 -36 93z" />
    <glyph glyph-name="afii10074" unicode="&#x438;" horiz-adv-x="630" 
d="M225 0h-175l92 520h170l-37 -210l-24 -80h10l236 290h175l-92 -520h-170l37 210l24 80h-10z" />
    <glyph glyph-name="afii10075" unicode="&#x439;" horiz-adv-x="630" 
d="M225 0h-175l92 520h170l-37 -210l-24 -80h10l236 290h175l-92 -520h-170l37 210l24 80h-10zM420 581q-80 0 -120 34.5t-40 91.5v13h102v-3q0 -18 16 -30t46 -12q26 0 41 12.5t17 32.5h100q-9 -69 -51 -104t-111 -35z" />
    <glyph glyph-name="afii10076" unicode="&#x43a;" horiz-adv-x="580" 
d="M254 190l-34 -190h-170l92 520h170l-33 -185h50l148 185h185l-194 -245l117 -275h-185l-81 190h-65z" />
    <glyph glyph-name="afii10077" unicode="&#x43b;" horiz-adv-x="570" 
d="M339 375l-161 -375h-173l222 520h310l38 -520h-167l-28 375h-41z" />
    <glyph glyph-name="afii10078" unicode="&#x43c;" horiz-adv-x="775" 
d="M333 100l-60 230h-10l-2 -70l-46 -260h-165l92 520h222l59 -260h15l151 260h228l-92 -520h-165l46 260l22 70h-10l-140 -230h-145z" />
    <glyph glyph-name="afii10079" unicode="&#x43d;" horiz-adv-x="620" 
d="M50 0l92 520h170l-33 -185h180l33 185h170l-92 -520h-170l34 190h-180l-34 -190h-170z" />
    <glyph glyph-name="afii10080" unicode="&#x43e;" horiz-adv-x="630" 
d="M244 239q0 -50 29 -79.5t77 -29.5q51 0 89.5 42t38.5 109q0 50 -29 79.5t-77 29.5q-51 0 -89.5 -42t-38.5 -109zM70 237q0 122 92 210t219 88q120 0 195.5 -73t75.5 -179q0 -122 -92 -210t-219 -88q-120 0 -195.5 73t-75.5 179z" />
    <glyph glyph-name="afii10081" unicode="&#x43f;" horiz-adv-x="615" 
d="M50 0l92 520h515l-92 -520h-170l66 375h-175l-66 -375h-170z" />
    <glyph glyph-name="afii10082" unicode="&#x440;" 
d="M311 520l-11 -65h8q17 21 42 40q54 40 112 40q88 0 144.5 -63.5t56.5 -166.5q0 -143 -79.5 -231.5t-181.5 -88.5q-59 0 -97 25.5t-54 54.5l-8 15h-10l-47 -270h-170l125 710h170zM387 390q-51 0 -87 -41t-36 -115q0 -50 27 -77t74 -27q51 0 87 41t36 115q0 50 -27 77
t-74 27z" />
    <glyph glyph-name="afii10083" unicode="&#x441;" horiz-adv-x="605" 
d="M335 -15q-109 0 -187 69.5t-78 182.5q0 122 90 210t212 88q151 0 222 -108q29 -47 37 -107h-174q-5 18 -18 35q-31 35 -74 35q-47 0 -84 -42t-37 -109q0 -50 27 -79.5t68 -29.5q51 0 80 35q14 16 23 35h178q-19 -58 -58 -108q-85 -107 -227 -107z" />
    <glyph glyph-name="afii10084" unicode="&#x442;" horiz-adv-x="520" 
d="M61 375l26 145h510l-26 -145h-170l-66 -375h-170l66 375h-170z" />
    <glyph glyph-name="afii10085" unicode="&#x443;" horiz-adv-x="575" 
d="M243 0h-110l-22 260l-21 260h170l24 -375h30q110 250 166 375h180l-325 -710h-180z" />
    <glyph glyph-name="afii10086" unicode="&#x444;" horiz-adv-x="760" 
d="M316 124l48 271q-50 -4 -88.5 -47.5t-38.5 -113.5q0 -43 21.5 -71.5t57.5 -38.5zM534 396l-48 -271q50 4 88.5 47t38.5 114q0 43 -21.5 71.5t-57.5 38.5zM462 -10l-31 -180h-170l32 180q-100 14 -161.5 83t-61.5 162q0 128 93.5 210.5t224.5 84.5l32 180h170l-33 -180
q100 -16 161.5 -83.5t61.5 -161.5q0 -128 -93.5 -210.5t-224.5 -84.5z" />
    <glyph glyph-name="afii10087" unicode="&#x445;" horiz-adv-x="585" 
d="M590 0h-185l-52 185h-30l-118 -185h-195l193 270l-91 250h180l48 -180h30l112 180h190l-179 -250z" />
    <glyph glyph-name="afii10088" unicode="&#x446;" horiz-adv-x="630" 
d="M312 520l-66 -375h160l66 375h170l-66 -375h65l-45 -250h-160l19 105h-405l92 520h170z" />
    <glyph glyph-name="afii10089" unicode="&#x447;" horiz-adv-x="590" 
d="M303 520l-31 -173q-1 -6 -1 -16q0 -24 14 -40q18 -21 64 -21q27 0 53 10q14 6 20 11l40 229h170l-91 -520h-170l25 145q-12 -5 -29 -10q-34 -9 -76 -9q-106 0 -157 57q-38 43 -38 108q0 24 4 47l32 182h171z" />
    <glyph glyph-name="afii10090" unicode="&#x448;" horiz-adv-x="840" 
d="M361 145l66 375h170l-66 -375h115l66 375h170l-92 -520h-740l92 520h170l-66 -375h115z" />
    <glyph glyph-name="afii10091" unicode="&#x449;" horiz-adv-x="870" 
d="M695 0h-645l92 520h170l-66 -375h115l66 375h170l-66 -375h115l66 375h170l-66 -375h65l-44 -245h-160z" />
    <glyph glyph-name="afii10092" unicode="&#x44a;" horiz-adv-x="600" 
d="M338 360h82q85 0 139.5 -48.5t54.5 -118.5q0 -81 -61.5 -137t-155.5 -56h-292l66 375h-100l26 145h270zM385 230h-69l-18 -100h84q29 0 45 15t16 41q0 21 -15.5 32.5t-42.5 11.5z" />
    <glyph glyph-name="afii10093" unicode="&#x44b;" horiz-adv-x="785" 
d="M325 230h-64l-18 -100h79q29 0 45 15t16 41q0 21 -15.5 32.5t-42.5 11.5zM283 360h77q85 0 139.5 -48.5t54.5 -118.5q0 -81 -61.5 -137t-155.5 -56h-287l92 520h170zM565 0l92 520h170l-92 -520h-170z" />
    <glyph glyph-name="afii10094" unicode="&#x44c;" horiz-adv-x="560" 
d="M345 230h-84l-18 -100h99q29 0 45 15t16 41q0 21 -15.5 32.5t-42.5 11.5zM283 360h97q85 0 139.5 -48.5t54.5 -118.5q0 -81 -61.5 -137t-155.5 -56h-307l92 520h170z" />
    <glyph glyph-name="afii10095" unicode="&#x44d;" horiz-adv-x="605" 
d="M362 535q109 0 187 -69.5t78 -182.5q0 -122 -90 -210t-212 -88q-152 0 -221 105q-29 46 -37 105h175q6 -19 18 -33q26 -32 72 -32q32 0 61 21.5t46 58.5h-142l17 100h136q-8 38 -33 59t-59 21q-45 0 -78 -33q-15 -15 -22 -32h-180q21 57 59 105q89 105 225 105z" />
    <glyph glyph-name="afii10096" unicode="&#x44e;" horiz-adv-x="837" 
d="M557 -15q-107 0 -175.5 59t-81.5 146h-56l-34 -190h-160l92 520h160l-35 -195h46q32 88 108 149t176 61q116 0 189 -71t73 -178q0 -127 -89.5 -214t-212.5 -87zM567 130q48 0 82.5 42t34.5 116q0 50 -26 76t-70 26q-48 0 -82.5 -42t-34.5 -116q0 -50 26 -76t70 -26z" />
    <glyph glyph-name="afii10097" unicode="&#x44f;" horiz-adv-x="585" 
d="M335 285h80l18 100h-93q-29 0 -45.5 -15.5t-16.5 -39.5q0 -21 15.5 -33t41.5 -12zM25 0l148 196q-20 11 -36 28q-35 37 -35 96q0 86 62 143t161 57h302l-92 -520h-170l27 155h-80l-106 -155h-181z" />
    <glyph glyph-name="afii10071" unicode="&#x451;" horiz-adv-x="625" 
d="M342 -15q-118 0 -195 71t-77 182q0 122 91.5 209.5t215.5 87.5q118 0 191 -73t73 -179q0 -20 -5 -53h-395q5 -110 104 -110q47 0 76 27q15 13 23 28h183q-23 -56 -61 -95q-89 -95 -224 -95zM257 315h211q-2 34 -29 59.5t-64 25.5q-88 0 -118 -85zM289 579
q-33 0 -53.5 20.5t-20.5 51.5q0 38 25 63t61 25q33 0 53.5 -20.5t20.5 -51.5q0 -38 -25 -63t-61 -25zM494 579q-32 0 -53 20.5t-21 51.5q0 38 25 63t61 25q32 0 53 -20.5t21 -51.5q0 -38 -25 -63t-61 -25z" />
    <glyph glyph-name="afii10099" unicode="&#x452;" horiz-adv-x="640" 
d="M636 198l-69 -388h-286l24 135h116l43 243q2 16 2 23q0 28 -14 51q-19 30 -70 30q-39 0 -70.5 -29.5t-39.5 -77.5l-32 -185h-170l86 485h-65l23 135h65l14 80h170l-14 -80h120l-23 -135h-120l-23 -135h8q16 20 41 40q54 40 112 40q76 0 120 -37.5t55 -102.5q2 -22 2 -35
q0 -25 -5 -57z" />
    <glyph glyph-name="afii10100" unicode="&#x453;" horiz-adv-x="475" 
d="M50 0l92 520h410l-26 -145h-240l-66 -375h-170zM397 740h170l-1 -5l-156 -150h-115z" />
    <glyph glyph-name="afii10101" unicode="&#x454;" horiz-adv-x="604" 
d="M335 -15q-109 0 -187 69.5t-78 182.5q0 122 90 210t212 88q150 0 221 -105q29 -46 37 -105h-175q-8 19 -18 32q-27 33 -72 33q-33 0 -61.5 -21t-45.5 -59h142l-18 -100h-135q8 -38 33 -59t59 -21q45 0 77 32q14 14 24 33h178q-19 -56 -58 -105q-85 -105 -225 -105z" />
    <glyph glyph-name="afii10102" unicode="&#x455;" horiz-adv-x="550" 
d="M108 365q0 71 58.5 120.5t159.5 49.5q69 0 121 -18.5t78 -47.5t38 -52t15 -43l2 -14h-163l-2 8q-4 14 -23.5 28t-55.5 14q-24 0 -38 -10t-14 -25q0 -24 70 -45q5 -2 27.5 -9t30.5 -10t29 -11t30 -14t25.5 -16t24 -20t17 -23t13 -28.5t3.5 -33.5q0 -75 -61.5 -127.5
t-173.5 -52.5q-155 0 -227 92q-32 41 -39 93h168l3 -9q5 -16 29.5 -31t68.5 -15q56 0 56 34q0 24 -70 47q-95 32 -128 52q-72 44 -72 117z" />
    <glyph glyph-name="afii10103" unicode="&#x456;" horiz-adv-x="270" 
d="M312 520l-92 -520h-170l92 520h170zM248 575q-41 0 -64 20.5t-23 54.5q0 42 26.5 68.5t67.5 26.5t64 -20.5t23 -54.5q0 -42 -26.5 -68.5t-67.5 -26.5z" />
    <glyph glyph-name="afii10104" unicode="&#x457;" horiz-adv-x="270" 
d="M312 520l-92 -520h-170l92 520h170zM137 580q-33 0 -53.5 21t-20.5 51q0 38 25 63t61 25q33 0 53.5 -21t20.5 -51q0 -38 -25 -63t-61 -25zM342 580q-32 0 -53 21t-21 51q0 38 25 63t61 25q32 0 53 -21t21 -51q0 -38 -25 -63t-61 -25z" />
    <glyph glyph-name="afii10105" unicode="&#x458;" horiz-adv-x="270" 
d="M312 520l-125 -710h-305l24 135h135l101 575h170zM248 575q-41 0 -64 20.5t-23 54.5q0 42 26.5 68.5t67.5 26.5t64 -20.5t23 -54.5q0 -42 -26.5 -68.5t-67.5 -26.5z" />
    <glyph glyph-name="afii10106" unicode="&#x459;" horiz-adv-x="850" 
d="M593 360h77q85 0 139.5 -48.5t54.5 -118.5q0 -81 -61.5 -137t-155.5 -56h-287l66 375h-80l-161 -375h-175l227 520h385zM635 230h-64l-18 -100h79q29 0 45 15t16 41q0 21 -15.5 32.5t-42.5 11.5z" />
    <glyph glyph-name="afii10107" unicode="&#x45a;" horiz-adv-x="885" 
d="M628 360h77q85 0 139.5 -48.5t54.5 -118.5q0 -81 -61.5 -137t-155.5 -56h-287l38 215h-175l-38 -215h-170l92 520h170l-29 -160h175l29 160h170zM670 230h-64l-18 -100h79q29 0 45 15t16 41q0 21 -15.5 32.5t-42.5 11.5z" />
    <glyph glyph-name="afii10108" unicode="&#x45b;" horiz-adv-x="640" 
d="M636 198l-36 -198h-170l34 188q2 16 2 23q0 28 -14 51q-19 30 -70 30q-39 0 -70.5 -29.5t-39.5 -77.5l-32 -185h-170l86 485h-65l23 135h65l14 80h170l-14 -80h120l-23 -135h-120l-23 -135h8q16 20 41 40q54 40 112 40q76 0 120 -37.5t55 -102.5q2 -22 2 -35
q0 -25 -5 -57z" />
    <glyph glyph-name="afii10109" unicode="&#x45c;" horiz-adv-x="580" 
d="M442 740h170l-1 -5l-156 -150h-115zM254 190l-34 -190h-170l92 520h170l-33 -185h50l148 185h185l-194 -245l117 -275h-185l-81 190h-65z" />
    <glyph glyph-name="afii10110" unicode="&#x45e;" horiz-adv-x="575" 
d="M243 0h-110l-22 260l-21 260h170l24 -375h30q110 250 166 375h180l-325 -710h-180zM379 581q-80 0 -120 34.5t-40 91.5v13h102v-3q0 -18 16 -30t46 -12q26 0 41 12.5t17 32.5h100q-9 -69 -51 -104t-111 -35z" />
    <glyph glyph-name="afii10193" unicode="&#x45f;" horiz-adv-x="620" 
d="M662 520l-92 -520h-180l-18 -100h-160l18 100h-180l92 520h170l-66 -375h180l66 375h170z" />
    <glyph glyph-name="afii10050" unicode="&#x490;" horiz-adv-x="595" 
d="M668 530h-325l-93 -530h-185l123 700h325l18 100h185z" />
    <glyph glyph-name="afii10098" unicode="&#x491;" horiz-adv-x="475" 
d="M286 375l-66 -375h-170l92 520h240l14 80h170l-40 -225h-240z" />
    <glyph glyph-name="uni1E9E" unicode="&#x1e9e;" horiz-adv-x="760" 
d="M628 440l-2 -10q40 -10 72 -33q72 -54 73 -152q0 -110 -69.5 -177.5t-190.5 -67.5h-156l30 170h121q37 0 56.5 17.5t19.5 46.5q0 25 -18 40.5t-54 15.5h-99l27 150l115 90h-120h-16q-78 0 -91 -72l-81 -458h-185l86 483q19 99 91.5 158t187.5 59h363l-28 -160z" />
    <glyph glyph-name="endash" unicode="&#x2013;" horiz-adv-x="750" 
d="M735 205h-650l23 130h650z" />
    <glyph glyph-name="emdash" unicode="&#x2014;" horiz-adv-x="940" 
d="M925 205h-840l23 130h840z" />
    <glyph glyph-name="quoteleft" unicode="&#x2018;" horiz-adv-x="245" 
d="M110 510q0 96 50.5 155.5t132.5 59.5h21l-11 -65h-5q-71 0 -87 -70l-2 -8q3 0 6 1q10 2 15 2q29 0 46 -19.5t17 -49.5q0 -41 -30 -71t-69 -30t-61.5 24.5t-22.5 70.5z" />
    <glyph glyph-name="quoteright" unicode="&#x2019;" horiz-adv-x="245" 
d="M317 630q0 -96 -50.5 -155.5t-132.5 -59.5h-21l11 65h5q71 0 87 70l2 8l-6 -2q-3 -1 -15 -1q-29 0 -46 19.5t-17 49.5q0 41 30 71t69 30t61.5 -24.5t22.5 -70.5z" />
    <glyph glyph-name="quotesinglbase" unicode="&#x201a;" horiz-adv-x="240" 
d="M233 70q0 -96 -50.5 -155.5t-132.5 -59.5h-21l11 65h5q71 0 87 70l2 8l-6 -2q-3 -1 -15 -1q-29 0 -46 19.5t-17 49.5q0 41 30 71t69 30t61.5 -24.5t22.5 -70.5z" />
    <glyph glyph-name="quotedblleft" unicode="&#x201c;" horiz-adv-x="465" 
d="M110 510q0 96 50.5 155.5t132.5 59.5h21l-11 -65h-5q-71 0 -87 -70l-2 -8q3 0 6 1q10 2 15 2q29 0 46 -19.5t17 -49.5q0 -41 -30 -71t-69 -30t-61.5 24.5t-22.5 70.5zM330 510q0 96 50.5 155.5t132.5 59.5h21l-11 -65h-5q-71 0 -87 -70l-2 -8q3 0 6 1q10 2 15 2
q29 0 46 -19.5t17 -49.5q0 -41 -30 -71t-69 -30t-61.5 24.5t-22.5 70.5z" />
    <glyph glyph-name="quotedblright" unicode="&#x201d;" horiz-adv-x="465" 
d="M317 630q0 -96 -50.5 -155.5t-132.5 -59.5h-21l11 65h5q71 0 87 70l2 8l-6 -2q-3 -1 -15 -1q-29 0 -46 19.5t-17 49.5q0 41 30 71t69 30t61.5 -24.5t22.5 -70.5zM537 630q0 -96 -50.5 -155.5t-132.5 -59.5h-21l11 65h5q71 0 87 70l2 8l-6 -2q-3 -1 -15 -1q-29 0 -46 19.5
t-17 49.5q0 41 30 71t69 30t61.5 -24.5t22.5 -70.5z" />
    <glyph glyph-name="quotedblbase" unicode="&#x201e;" horiz-adv-x="460" 
d="M233 70q0 -96 -50.5 -155.5t-132.5 -59.5h-21l11 65h5q71 0 87 70l2 8l-6 -2q-3 -1 -15 -1q-29 0 -46 19.5t-17 49.5q0 41 30 71t69 30t61.5 -24.5t22.5 -70.5zM453 70q0 -96 -50.5 -155.5t-132.5 -59.5h-21l11 65h5q71 0 87 70l2 8l-6 -2q-3 -1 -15 -1q-29 0 -46 19.5
t-17 49.5q0 41 30 71t69 30t61.5 -24.5t22.5 -70.5z" />
    <glyph glyph-name="dagger" unicode="&#x2020;" horiz-adv-x="470" 
d="M150 0l66 375h-120l26 145h120l31 180h160l-31 -180h120l-26 -145h-120l-66 -375h-160z" />
    <glyph glyph-name="daggerdbl" unicode="&#x2021;" horiz-adv-x="470" 
d="M198 270l28 160h-120l25 145h120l22 125h160l-22 -125h120l-25 -145h-120l-28 -160h120l-26 -145h-120l-22 -125h-160l22 125h-120l26 145h120z" />
    <glyph glyph-name="bullet" unicode="&#x2022;" horiz-adv-x="470" 
d="M281 175q-47 0 -77 30t-30 73q0 54 37 90.5t87 36.5q47 0 77 -30t30 -73q0 -54 -37 -90.5t-87 -36.5z" />
    <glyph glyph-name="ellipsis" unicode="&#x2026;" horiz-adv-x="820" 
d="M132 -15q-36 0 -59 23.5t-23 57.5q0 40 29 69.5t68 29.5q36 0 59.5 -23.5t23.5 -57.5q0 -40 -29.5 -69.5t-68.5 -29.5zM422 -15q-36 0 -59 23.5t-23 57.5q0 40 29 69.5t68 29.5q36 0 59.5 -23.5t23.5 -57.5q0 -40 -29.5 -69.5t-68.5 -29.5zM712 -15q-36 0 -59 23.5
t-23 57.5q0 40 29 69.5t68 29.5q36 0 59.5 -23.5t23.5 -57.5q0 -40 -29.5 -69.5t-68.5 -29.5z" />
    <glyph glyph-name="perthousand" unicode="&#x2030;" horiz-adv-x="1208" 
d="M304 480q27 0 45.5 18.5t18.5 47.5q0 24 -15.5 38.5t-41.5 14.5q-27 0 -45.5 -18.5t-18.5 -47.5q0 -24 15.5 -38.5t41.5 -14.5zM295 369q-71 0 -117 44.5t-46 111.5q0 77 55.5 131t132.5 54q71 0 117 -44.5t46 -111.5q0 -77 -55.5 -131t-132.5 -54zM815 700l-543 -700
h-130l543 700h130zM642 220q-27 0 -45.5 -18.5t-18.5 -47.5q0 -24 15.5 -38.5t41.5 -14.5q27 0 45.5 18.5t18.5 47.5q0 24 -15.5 38.5t-41.5 14.5zM651 331q71 0 117 -44.5t46 -111.5q0 -77 -55.5 -131t-132.5 -54q-71 0 -117 44.5t-46 111.5q0 77 55.5 131t132.5 54z
M1031 220q-27 0 -45.5 -18.5t-18.5 -47.5q0 -24 15.5 -38.5t41.5 -14.5q27 0 45.5 18.5t18.5 47.5q0 24 -15.5 38.5t-41.5 14.5zM1040 331q71 0 117 -44.5t46 -111.5q0 -77 -55.5 -131t-132.5 -54q-71 0 -117 44.5t-46 111.5q0 77 55.5 131t132.5 54z" />
    <glyph glyph-name="guilsinglleft" unicode="&#x2039;" horiz-adv-x="410" 
d="M392 96l-113 -96l-209 260l301 260l87 -106l-198 -164z" />
    <glyph glyph-name="guilsinglright" unicode="&#x203a;" horiz-adv-x="410" 
d="M123 424l113 96l209 -260l-301 -260l-87 106l198 164z" />
    <glyph glyph-name="fraction" unicode="&#x2044;" horiz-adv-x="150" 
d="M473 700l-543 -700h-130l543 700h130z" />
    <glyph glyph-name="zerosuperior" unicode="&#x2070;" horiz-adv-x="390" 
d="M281 550q23 0 44.5 26t21.5 77q0 26 -11 41.5t-27 15.5q-23 0 -44.5 -26t-21.5 -77q0 -26 11 -41.5t27 -15.5zM279 450q-68 0 -111.5 44t-43.5 114q0 87 56 144.5t131 57.5q68 0 111.5 -44t43.5 -114q0 -87 -56 -144.5t-131 -57.5z" />
    <glyph glyph-name="foursuperior" unicode="&#x2074;" horiz-adv-x="355" 
d="M380 460h-115l11 60h-175l16 90l153 190h120l-146 -180h50l33 50h90l-8 -50h40l-18 -100h-40z" />
    <glyph glyph-name="fivesuperior" unicode="&#x2075;" horiz-adv-x="365" 
d="M276 710l-12 -42l12 5q13 5 35 5q58 0 89.5 -27.5t31.5 -71.5q0 -54 -41.5 -91.5t-111.5 -37.5q-42 0 -73.5 11.5t-46.5 24t-25 34.5t-11.5 28.5t-3.5 21.5h114q2 -9 6 -13q9 -12 34 -12q18 0 29.5 9.5t11.5 25.5q0 12 -11.5 21t-30.5 9q-13 0 -25 -5q-6 -4 -9 -5l-95 10
l49 190h245l-16 -90h-145z" />
    <glyph glyph-name="sixsuperior" unicode="&#x2076;" horiz-adv-x="350" 
d="M114 567q0 73 85 151l89 82h135l-113 -102l-38 -18l-1 -5l15 6q18 6 34 6q47 0 76 -30t29 -74q0 -58 -43 -95.5t-112 -37.5q-75 0 -115.5 33t-40.5 84zM268 540q19 0 30 10.5t11 27.5q0 34 -39 34q-19 0 -30 -10.5t-11 -27.5q0 -34 39 -34z" />
    <glyph glyph-name="sevensuperior" unicode="&#x2077;" horiz-adv-x="315" 
d="M433 700l-172 -240h-120l166 230l1 10h-165l18 100h290z" />
    <glyph glyph-name="eightsuperior" unicode="&#x2078;" horiz-adv-x="390" 
d="M301 450q-79 0 -131 28t-52 75q0 50 45 75q22 12 45 16l1 5q-13 4 -24 14q-24 22 -24 50q0 41 36 69t104 28q85 0 127 -28t42 -68q0 -45 -37 -68q-18 -11 -36 -14l-1 -5q15 -4 30 -16q31 -25 31 -59q0 -42 -39.5 -72t-116.5 -30zM294 535q22 0 33.5 8.5t11.5 20.5
q0 13 -13.5 22t-40.5 9q-22 0 -33.5 -8.5t-11.5 -20.5q0 -13 13.5 -22t40.5 -9zM315 670q37 0 37 26q0 24 -42 24q-37 0 -37 -26q0 -24 42 -24z" />
    <glyph glyph-name="ninesuperior" unicode="&#x2079;" horiz-adv-x="350" 
d="M440 693q0 -73 -85 -151l-89 -82h-135l113 102l38 18l1 5l-15 -6q-18 -6 -34 -6q-47 0 -76 30t-29 74q0 58 42.5 95.5t112.5 37.5q75 0 115.5 -33t40.5 -84zM286 720q-19 0 -30 -10.5t-11 -27.5q0 -34 39 -34q19 0 30 10.5t11 27.5q0 34 -39 34z" />
    <glyph glyph-name="zeroinferior" unicode="&#x2080;" horiz-adv-x="390" 
d="M200 -10q23 0 44.5 26t21.5 77q0 26 -11 41.5t-27 15.5q-23 0 -44.5 -26t-21.5 -77q0 -26 11 -41.5t27 -15.5zM198 -110q-68 0 -111.5 44t-43.5 114q0 87 56 144.5t131 57.5q68 0 111.5 -44t43.5 -114q0 -87 -56 -144.5t-131 -57.5z" />
    <glyph glyph-name="oneinferior" unicode="&#x2081;" horiz-adv-x="365" 
d="M20 -100l18 100h90l23 130l-88 -45l18 105l99 50h110l-42 -240h80l-18 -100h-290z" />
    <glyph glyph-name="twoinferior" unicode="&#x2082;" horiz-adv-x="370" 
d="M190 -5l-1 -5l47 10h105l-18 -100h-310l18 100l87 40q76 35 97.5 49t21.5 34q0 12 -9.5 20t-24.5 8q-19 0 -33 -16l-9 -15h-117q10 35 34 65q55 65 138 65q72 0 110.5 -31.5t38.5 -76.5q0 -58 -41.5 -92.5t-133.5 -54.5z" />
    <glyph glyph-name="threeinferior" unicode="&#x2083;" horiz-adv-x="355" 
d="M253 105l-1 -5q41 -4 64.5 -27t23.5 -59q0 -54 -40.5 -89t-106.5 -35q-99 0 -140 60q-19 26 -23 60h113q3 -8 8 -15q13 -15 32 -15q15 0 26.5 9.5t11.5 23.5q0 29 -34 32h-70l11 60l94 50l1 5l-42 -10h-110l16 90h275l-15 -85z" />
    <glyph glyph-name="fourinferior" unicode="&#x2084;" horiz-adv-x="355" 
d="M289 -100h-115l11 60h-175l16 90l153 190h120l-146 -180h50l33 50h90l-8 -50h40l-18 -100h-40z" />
    <glyph glyph-name="fiveinferior" unicode="&#x2085;" horiz-adv-x="365" 
d="M194 150l-12 -42l12 5q13 5 35 5q58 0 89.5 -27.5t31.5 -71.5q0 -54 -41.5 -91.5t-111.5 -37.5q-42 0 -73.5 11.5t-46.5 24t-25 34.5t-11.5 28.5t-3.5 21.5h114q2 -9 6 -13q9 -12 34 -12q18 0 29.5 9.5t11.5 25.5q0 12 -11.5 21t-30.5 9q-13 0 -25 -5q-6 -4 -9 -5l-95 10
l49 190h245l-16 -90h-145z" />
    <glyph glyph-name="sixinferior" unicode="&#x2086;" horiz-adv-x="350" 
d="M25 7q0 73 85 151l89 82h135l-113 -102l-38 -18l-1 -5l15 6q18 6 34 6q47 0 76 -30t29 -74q0 -58 -43 -95.5t-112 -37.5q-75 0 -115.5 33t-40.5 84zM179 -20q19 0 30 10.5t11 27.5q0 34 -39 34q-19 0 -30 -10.5t-11 -27.5q0 -34 39 -34z" />
    <glyph glyph-name="seveninferior" unicode="&#x2087;" horiz-adv-x="315" 
d="M342 140l-172 -240h-120l166 230l1 10h-165l18 100h290z" />
    <glyph glyph-name="eightinferior" unicode="&#x2088;" horiz-adv-x="390" 
d="M213 -110q-79 0 -131 28t-52 75q0 50 45 75q22 12 45 16l1 5q-13 4 -24 14q-24 22 -24 50q0 41 36 69t104 28q85 0 127 -28t42 -68q0 -45 -37 -68q-18 -11 -36 -14l-1 -5q15 -4 30 -16q31 -25 31 -59q0 -42 -39.5 -72t-116.5 -30zM206 -25q22 0 33.5 8.5t11.5 20.5
q0 13 -13.5 22t-40.5 9q-22 0 -33.5 -8.5t-11.5 -20.5q0 -13 13.5 -22t40.5 -9zM227 110q37 0 37 26q0 24 -42 24q-37 0 -37 -26q0 -24 42 -24z" />
    <glyph glyph-name="nineinferior" unicode="&#x2089;" horiz-adv-x="350" 
d="M351 133q0 -73 -85 -151l-89 -82h-135l113 102l38 18l1 5l-15 -6q-18 -6 -34 -6q-47 0 -76 30t-29 74q0 58 42.5 95.5t112.5 37.5q75 0 115.5 -33t40.5 -84zM197 160q-19 0 -30 -10.5t-11 -27.5q0 -34 39 -34q19 0 30 10.5t11 27.5q0 34 -39 34z" />
    <glyph glyph-name="Euro" unicode="&#x20ac;" horiz-adv-x="870" 
d="M503 -20q-135 0 -228.5 68t-124.5 177h-91l16 90h62v4q0 31 3 48l3 18h-56l16 90h67q49 108 153 176.5t231 68.5q85 0 151 -25.5t105.5 -68t61.5 -87.5t31 -94h-189q-39 105 -171 105q-98 0 -160 -75h175l-16 -90h-203q0 -1 -1.5 -7.5t-2.5 -10.5q-3 -16 -3 -44v-8h198
l-16 -90h-155q49 -75 155 -75q86 0 146 60q26 26 42 60h193q-31 -81 -86 -145q-123 -145 -306 -145z" />
    <glyph glyph-name="uni20B4" unicode="&#x20b4;" horiz-adv-x="690" 
d="M684 465h37l-16 -90h-600l16 90h376q7 4 13 12q13 15 13 38q0 26 -27 45.5t-75 19.5q-51 0 -86 -35q-16 -16 -25 -35h-184q20 58 60 105q93 105 247 105q142 0 216.5 -52t74.5 -113q0 -37 -20 -66q-8 -12 -20 -24zM117 235h-37l16 90h600l-16 -90h-376q-9 -5 -13 -12
q-13 -15 -13 -38q0 -26 27 -45.5t75 -19.5q51 0 86 35q13 13 25 35h184q-19 -58 -60 -105q-89 -105 -247 -105q-142 0 -216.5 52t-74.5 113q0 37 20 66q8 12 20 24z" />
    <glyph glyph-name="uni20BD" unicode="&#x20bd;" horiz-adv-x="720" 
d="M490 550h-108l-28 -160h130q44 0 71.5 24.5t27.5 61.5q0 29 -26 51.5t-67 22.5zM223 700h292q126 0 193.5 -56.5t67.5 -141.5q0 -108 -72 -175t-200 -67h-173l-11 -60h215l-21 -120h-215l-14 -80h-185l14 80h-75l21 120h75l11 60h-75l23 130h75z" />
    <glyph glyph-name="afii61352" unicode="&#x2116;" horiz-adv-x="1135" 
d="M490 0l-167 440h-10l-1 -90l-62 -350h-185l123 700h215l168 -440h10l1 90l61 350h185l-123 -700h-215zM1130 200h-310l21 120h310zM1030 480q24 0 42.5 19.5t18.5 48.5q0 23 -13.5 37.5t-35.5 14.5q-24 0 -42.5 -19.5t-18.5 -48.5q0 -23 13.5 -37.5t35.5 -14.5zM1050 710
q68 0 112.5 -45.5t44.5 -109.5q0 -77 -56 -131t-129 -54q-68 0 -112.5 45.5t-44.5 109.5q0 77 56 131t129 54z" />
    <glyph glyph-name="trademark" unicode="&#x2122;" horiz-adv-x="850" 
d="M430 700v-115h-100v-205h-130v205h-100v115h330zM735 450h-90l-50 120h-10l10 -60v-130h-130v320h168l52 -135h10l52 135h168v-320h-130v130l10 60h-10z" />
    <glyph glyph-name="arrowleft" unicode="&#x2190;" horiz-adv-x="900" 
d="M365 565h20v-170h480v-100h-480v-170h-20l-210 210v20z" />
    <glyph glyph-name="arrowup" unicode="&#x2191;" horiz-adv-x="900" 
d="M290 470v20l210 210h20l210 -210v-20h-170v-470h-100v470h-170z" />
    <glyph glyph-name="arrowright" unicode="&#x2192;" horiz-adv-x="900" 
d="M640 565h20l210 -210v-20l-210 -210h-20v170h-480v100h480v170z" />
    <glyph glyph-name="arrowdown" unicode="&#x2193;" horiz-adv-x="900" 
d="M290 210v20h170v470h100v-470h170v-20l-210 -210h-20z" />
    <glyph glyph-name="uni2196" unicode="&#x2196;" horiz-adv-x="900" 
d="M260 305h-20v305l15 15h305v-20l-115 -115l335 -335l-70 -70l-335 335z" />
    <glyph glyph-name="uni2197" unicode="&#x2197;" horiz-adv-x="900" 
d="M765 305h-20l-115 115l-335 -335l-70 70l335 335l-115 115v20h305l15 -15v-305z" />
    <glyph glyph-name="uni2198" unicode="&#x2198;" horiz-adv-x="900" 
d="M745 415h20v-305l-15 -15h-305v20l115 115l-335 335l70 70l335 -335z" />
    <glyph glyph-name="uni2199" unicode="&#x2199;" horiz-adv-x="900" 
d="M240 415h20l115 -115l335 335l70 -70l-335 -335l115 -115v-20h-305l-15 15v305z" />
    <glyph glyph-name="minus" unicode="&#x2212;" horiz-adv-x="540" 
d="M540 200h-430v140h430v-140z" />
    <glyph glyph-name="approxequal" unicode="&#x2248;" horiz-adv-x="540" 
d="M430 80q-55 0 -102 28q-5 3 -14 8t-14.5 7.5t-12.5 5.5t-13.5 4.5t-13.5 1.5q-15 0 -25 -10t-10 -25v-15h-125v39q0 60 33 95.5t87 35.5q50 0 102 -27q47 -28 68 -28q15 0 25 10t10 25v15h125v-39q0 -60 -33 -95.5t-87 -35.5zM430 290q-55 0 -102 28q-5 3 -14 8
t-14.5 7.5t-12.5 5.5t-13.5 4.5t-13.5 1.5q-15 0 -25 -10t-10 -25v-15h-125v39q0 60 33 95.5t87 35.5q50 0 102 -27q47 -28 68 -28q15 0 25 10t10 25v15h125v-39q0 -60 -33 -95.5t-87 -35.5z" />
    <glyph glyph-name="notequal" unicode="&#x2260;" horiz-adv-x="540" 
d="M530 100h-210l-45 -100h-140l45 100h-60v135h120l30 70h-150v135h210l45 100h140l-45 -100h60v-135h-120l-30 -70h150v-135z" />
    <glyph glyph-name="lessequal" unicode="&#x2264;" horiz-adv-x="540" 
d="M545 85v-125l-425 150v125zM545 260v-130l-425 150v160l425 150v-130l-280 -95v-10z" />
    <glyph glyph-name="greaterequal" unicode="&#x2265;" horiz-adv-x="540" 
d="M110 -40v125l425 150v-125zM110 130v130l280 95v10l-280 95v130l425 -150v-160z" />
    <glyph glyph-name="commaaccent" unicode="&#xf6c3;" horiz-adv-x="225" 
d="M3 -157q0 38 25 62.5t61 24.5q74 0 74 -87q0 -72 -43 -120t-118 -48h-15l11 60h11q54 0 66 45l2 10l-6 -2q-3 -1 -15 -1q-26 0 -39.5 15.5t-13.5 40.5z" />
    <glyph glyph-name="cyrBreve" unicode="&#xf6d1;" horiz-adv-x="420" 
d="M333 755q-83 0 -128.5 40t-45.5 102v13q0 4 1 5h119v-8q0 -47 59 -47q56 0 62 55h121q-11 -78 -60 -119t-128 -41z" />
    <glyph glyph-name="cyrbreve" unicode="&#xf6d4;" horiz-adv-x="380" 
d="M287 556q-80 0 -120 34.5t-40 91.5v13h102v-3q0 -18 16 -30t46 -12q26 0 41 12.5t17 32.5h100q-9 -69 -51 -104t-111 -35z" />
    <glyph glyph-name="zero.oldstyle" unicode="&#xf730;" horiz-adv-x="640" 
d="M354 125q52 0 90.5 43.5t38.5 115.5q0 51 -28.5 81t-75.5 30q-52 0 -90.5 -43.5t-38.5 -115.5q0 -51 28.5 -81t75.5 -30zM349 -15q-123 0 -198.5 71.5t-75.5 178.5q0 127 89.5 213.5t218.5 86.5q123 0 198.5 -71.5t75.5 -178.5q0 -127 -89.5 -213.5t-218.5 -86.5z" />
    <glyph glyph-name="one.oldstyle" unicode="&#xf731;" horiz-adv-x="370" 
d="M309 0h-170l61 345l-124 -80l29 165l146 90h150z" />
    <glyph glyph-name="two.oldstyle" unicode="&#xf732;" horiz-adv-x="560" 
d="M381 160l-74 -25l-2 -10l73 15h180l-25 -140h-500l22 124l203 101q87 42 116 64t29 54q0 22 -18 37t-52 15q-39 0 -65 -30q-10 -13 -18 -30h-173q18 56 53 100q78 100 215 100q110 0 172.5 -50.5t62.5 -119.5q0 -139 -199 -205z" />
    <glyph glyph-name="three.oldstyle" unicode="&#xf733;" horiz-adv-x="570" 
d="M281 100h-97l24 140h112q39 0 66 24.5t27 60.5q0 30 -22 50t-57 20q-43 0 -73 -30q-11 -12 -19 -30h-167q18 56 53 100q78 100 213 100q112 0 178 -56.5t66 -133.5q0 -93 -71 -140q-33 -20 -70 -26l-2 -10q31 -11 53 -28q54 -42 54 -116q0 -99 -73.5 -164.5t-196.5 -65.5
q-67 0 -118 18t-78.5 43t-44.5 58t-21.5 56.5t-4.5 44.5h171q3 -21 14 -40q24 -40 80 -40q42 0 70 25.5t28 66.5q0 31 -24 52t-70 21z" />
    <glyph glyph-name="four.oldstyle" unicode="&#xf734;" horiz-adv-x="590" 
d="M471 -190h-170l34 190h-310l26 145l281 375h190l-282 -380h120l66 150h130l-26 -150h95l-25 -140h-95z" />
    <glyph glyph-name="five.oldstyle" unicode="&#xf735;" horiz-adv-x="590" 
d="M221 95h-151l100 425h452l-25 -140h-302l-33 -133h10q10 7 27 15q41 15 77 15q90 0 148.5 -59.5t58.5 -149.5q0 -118 -81 -195.5t-205 -77.5q-69 0 -120.5 18.5t-77.5 44.5t-42 61t-19.5 58.5t-3.5 47.5h170q0 -10 3 -21.5t12 -27.5t30 -26t51 -10q46 0 76.5 33t30.5 89
q0 40 -24.5 64t-68.5 24t-72 -28q-14 -12 -21 -27z" />
    <glyph glyph-name="six.oldstyle" unicode="&#xf736;" horiz-adv-x="620" 
d="M65 230q0 39 10.5 76t24 64.5t41 61.5t46 54t55.5 57l157 157h209l-202 -200l-60 -30l-2 -10l5 2.5t7 3t7 2.5q24 8 52 8q98 0 159 -62.5t61 -155.5q0 -110 -88 -191.5t-214 -81.5q-119 0 -193.5 71t-74.5 174zM340 125q49 0 84 34.5t35 87.5q0 42 -28.5 70t-73.5 28
q-49 0 -84 -34.5t-35 -87.5q0 -42 28.5 -70t73.5 -28z" />
    <glyph glyph-name="seven.oldstyle" unicode="&#xf737;" horiz-adv-x="520" 
d="M67 380l24 140h505l-25 -145l-350 -565h-175l349 560l2 10h-330z" />
    <glyph glyph-name="eight.oldstyle" unicode="&#xf738;" horiz-adv-x="630" 
d="M361 -15q-137 0 -221 57t-84 146q0 99 92 158q40 25 92 37l1 10q-28 12 -48 31q-47 45 -47 105q0 75 68.5 130.5t185.5 55.5q131 0 203 -53.5t72 -125.5q0 -86 -74 -136q-30 -21 -74 -32l-1 -10q32 -13 60 -37q60 -52 60 -124q0 -86 -76.5 -149t-208.5 -63zM403 435
q37 0 60 21.5t23 54.5q0 29 -20 46.5t-57 17.5t-60 -21.5t-23 -54.5q0 -29 20 -46.5t57 -17.5zM356 305q-50 0 -80 -27t-30 -69q0 -37 28.5 -60.5t80.5 -23.5q50 0 80 27t30 69q0 37 -28.5 60.5t-80.5 23.5z" />
    <glyph glyph-name="nine.oldstyle" unicode="&#xf739;" horiz-adv-x="620" 
d="M640 290q0 -39 -10.5 -76t-24 -64.5t-41 -61.5t-46 -54t-55.5 -57l-168 -167h-209l213 210l60 30l2 10l-5 -2.5t-7 -3t-7 -2.5q-24 -8 -52 -8q-98 0 -159 62.5t-61 155.5q0 110 88 191.5t214 81.5q119 0 193.5 -71t74.5 -174zM365 395q-49 0 -84 -34.5t-35 -87.5
q0 -42 28.5 -70t73.5 -28q49 0 84 34.5t35 87.5q0 42 -28.5 70t-73.5 28z" />
    <glyph glyph-name="Udieresis.alt2" horiz-adv-x="750" 
d="M249 560q-33 0 -53.5 21t-20.5 51q0 38 25 63t61 25q33 0 53.5 -21t20.5 -51q0 -38 -25 -63t-61 -25zM694 560q-32 0 -53 21t-21 51q0 38 25 63t61 25q32 0 53 -21t21 -51q0 -38 -25 -63t-61 -25zM340 570l-47 -273q-3 -17 -3 -32q0 -19 4 -32q21 -83 118 -83q54 0 90 32
t47 92l51 296h14q4 -9 16 -18q23 -17 63 -17q35 0 58 17q11 8 18 18h16l-56 -316q-22 -126 -108.5 -200t-215.5 -74q-122 0 -198 54t-95 146q-8 34 -8 67q0 31 6 62l45 261h14q4 -9 16 -18q23 -17 60 -17q34 0 59 17q12 8 20 18h16z" />
    <glyph glyph-name="edotaccent.sc" horiz-adv-x="595" 
d="M276 150h305l-26 -150h-490l106 600h490l-27 -150h-305l-13 -75h245l-25 -145h-245zM427 666q-41 0 -64 20.5t-23 54.5q0 42 26.5 68.5t67.5 26.5t64 -20.5t23 -54.5q0 -42 -26.5 -68.5t-67.5 -26.5z" />
    <glyph glyph-name="bracketleft.case" horiz-adv-x="385" 
d="M487 640h-130l-103 -580h130l-26 -150h-300l155 880h300z" />
    <glyph glyph-name="bracketright.case" horiz-adv-x="385" 
d="M258 640h-130l26 150h300l-155 -880h-300l26 150h130z" />
    <glyph glyph-name="braceleft.case" horiz-adv-x="405" 
d="M256 355l-2 -10q21 -5 37 -16q14 -11 23 -30q5 -13 5 -29q0 -7 -2 -25l-26 -147q-1 -3 -1 -9q0 -13 7 -21q9 -13 31 -13h65l-25 -145h-115q-79 0 -115 42q-26 32 -26 79q0 20 4 39l30 170q1 3 1 8q0 10 -6 17q-9 10 -24 10h-40l26 150h40q15 0 27 10t15 25l30 170
q14 76 64.5 118t128.5 42h115l-26 -145h-65q-21 0 -35 -12t-17 -31l-26 -147q-10 -54 -55 -84q-18 -11 -43 -16z" />
    <glyph glyph-name="braceright.case" horiz-adv-x="405" 
d="M271 345l1 10q-23 5 -37 16t-22 31q-5 12 -5 28q0 7 2 25l26 147q1 3 1 9q0 12 -7 22q-9 12 -31 12h-65l25 145h115q79 0 115 -42q26 -32 26 -79q0 -20 -4 -39l-30 -170q-1 -3 -1 -7q0 -11 7 -18q7 -10 23 -10h40l-27 -150h-40q-15 0 -26.5 -10t-14.5 -25l-30 -170
q-14 -76 -64.5 -118t-128.5 -42h-115l26 145h65q21 0 35 12t17 31l26 147q10 54 55 84q19 11 43 16z" />
    <glyph glyph-name="exclamdown.case" horiz-adv-x="310" 
d="M70 0l55 310l58 160h110l2 -160l-55 -310h-170zM357 638q0 -42 -33 -72.5t-75 -30.5q-33 0 -54 22t-21 55q0 41 32.5 72t74.5 31q33 0 54.5 -22t21.5 -55z" />
    <glyph glyph-name="questiondown.case" horiz-adv-x="600" 
d="M236 194q0 -31 28 -47.5t70 -16.5q59 0 91 42q14 19 20 43h186q-22 -65 -63 -118q-97 -117 -249 -117q-122 0 -193 58.5t-71 143.5q0 118 113 178q3 2 17 8.5t18 8.5t16 9t16.5 10t14.5 9.5t14 10.5l11 11t10.5 13t7 14t4.5 16h183q-17 -113 -132 -169
q-30 -15 -43.5 -22.5t-33 -21.5t-27.5 -29t-8 -34zM423 715q36 0 59 -23.5t23 -57.5q0 -40 -29 -69.5t-68 -29.5q-36 0 -59.5 23.5t-23.5 57.5q0 40 29.5 69.5t68.5 29.5z" />
    <glyph glyph-name="guillemotleft.case" horiz-adv-x="640" 
d="M370 172l-107 -87l-179 260l271 260l84 -95l-185 -175zM635 172l-107 -87l-179 260l271 260l84 -95l-185 -175z" />
    <glyph glyph-name="guillemotright.case" horiz-adv-x="640" 
d="M403 518l107 87l179 -260l-271 -260l-84 95l185 175zM138 518l107 87l179 -260l-271 -260l-84 95l185 175z" />
    <glyph glyph-name="guilsinglleft.case" horiz-adv-x="410" 
d="M406 181l-113 -96l-209 260l301 260l87 -106l-198 -164z" />
    <glyph glyph-name="guilsinglright.case" horiz-adv-x="410" 
d="M137 509l113 96l209 -260l-301 -260l-87 106l198 164z" />
    <glyph glyph-name="hyphen.case" horiz-adv-x="490" 
d="M490 305h-390l25 140h390z" />
    <glyph glyph-name="endash.case" horiz-adv-x="750" 
d="M750 305h-650l23 130h650z" />
    <glyph glyph-name="emdash.case" horiz-adv-x="940" 
d="M940 305h-840l23 130h840z" />
    <glyph glyph-name="periodcentered.case" horiz-adv-x="280" 
d="M190 275q-35 0 -58.5 24t-23.5 58q0 40 29 69t68 29q35 0 58.5 -24t23.5 -58q0 -40 -29 -69t-68 -29z" />
    <glyph glyph-name="Iogonek.alt" horiz-adv-x="575" 
d="M400 -255q-55 0 -87.5 23.5t-32.5 66.5q0 57 53.5 101.5t100.5 57.5q14 4 15 6h-412l26 150h155l71 400h-155l26 150h495l-26 -150h-155l-71 -400h155l-26 -150q-37 -18 -74 -43q-74 -54 -74 -94q0 -33 46 -33q21 0 39 5q8 1 17 5l-14 -82q-6 -3 -20 -7q-26 -6 -52 -6z
" />
    <glyph glyph-name="gbreve.alt" horiz-adv-x="620" 
d="M314 -97q90 0 90 48q0 13 -12 25t-45 21t-83 9q-90 0 -90 -48q0 -13 12 -25t45 -21t83 -9zM356 274q39 0 62 21t23 55q0 28 -22 46t-63 18q-39 0 -62 -21t-23 -55q0 -28 22 -46t63 -18zM599 415l-6 -5l6 -15q7 -26 7 -45q0 -83 -65 -140.5t-180 -57.5q-33 0 -54 4l-27 4
l-8 -45q158 -3 232 -51.5t74 -113.5t-65 -111t-191 -46q-83 0 -153 15.5t-119.5 54.5t-49.5 96q0 69 72 115q33 19 72 29l19 111q-17 13 -29 30q-28 37 -28 91q0 86 66.5 143t179.5 57q55 0 85 -8q29 -8 29 -7h241l-22 -125h-30zM415 616q-80 0 -120 34.5t-40 91.5v13h102
v-3q0 -18 16 -30t46 -12q26 0 41 12.5t17 32.5h100q-9 -69 -51 -104t-111 -35z" />
    <glyph glyph-name="gcommaaccent.alt" horiz-adv-x="620" 
d="M486 687q0 -38 -25 -62.5t-61 -24.5q-74 0 -74 87q0 72 43 120t118 48h15l-11 -60h-11q-54 0 -66 -45l-2 -10q3 0 6 1q10 2 15 2q26 0 39.5 -15.5t13.5 -40.5zM314 -97q90 0 90 48q0 13 -12 25t-45 21t-83 9q-90 0 -90 -48q0 -13 12 -25t45 -21t83 -9zM356 274
q39 0 62 21t23 55q0 28 -22 46t-63 18q-39 0 -62 -21t-23 -55q0 -28 22 -46t63 -18zM599 415l-6 -5l6 -15q7 -26 7 -45q0 -83 -65 -140.5t-180 -57.5q-33 0 -54 4l-27 4l-8 -45q158 -3 232 -51.5t74 -113.5t-65 -111t-191 -46q-83 0 -153 15.5t-119.5 54.5t-49.5 96
q0 69 72 115q33 19 72 29l19 111q-17 13 -29 30q-28 37 -28 91q0 86 66.5 143t179.5 57q55 0 85 -8q29 -8 29 -7h241l-22 -125h-30z" />
    <glyph glyph-name="Adieresis.alt2" horiz-adv-x="720" 
d="M431 530l-100 -230h190l-20 230h-70zM663 700l1 -10q-9 -6 -15 -17q-15 -23 -15 -56q0 -37 22 -63q14 -14 23 -19l51 -535h-187l-10 140h-270l-60 -140h-193l239 535q19 4 39 19q40 32 40 92q0 24 -4 33l-4 11l3 10h340zM214 550q-32 0 -53 21t-21 51q0 38 25 63t61 25
q32 0 53 -21t21 -51q0 -38 -25 -63t-61 -25zM735 550q-33 0 -53.5 21t-20.5 51q0 38 25 63t61 25q33 0 53.5 -21t20.5 -51q0 -38 -25 -63t-61 -25z" />
    <glyph glyph-name="Odieresis.alt2" horiz-adv-x="850" 
d="M845 524q8 -21 14 -43q15 -58 15 -100q0 -164 -122 -282.5t-295 -118.5q-164 0 -265 98.5t-101 240.5q0 117 66 215q5 -3 13 -5q15 -5 35 -5q47 0 80 32.5t33 82.5q0 11 -2 25l-2 9q89 47 194 47q133 0 229 -69l-2 -8q-2 -14 -2 -23q0 -42 28.5 -70.5t83.5 -25.5z
M286 323q0 -77 49.5 -125t132.5 -48q88 0 149.5 63.5t61.5 163.5q0 77 -49.5 125t-132.5 48q-88 0 -149.5 -63.5t-61.5 -163.5zM207 550q-33 0 -53.5 21t-20.5 51q0 38 25 63t61 25q33 0 53.5 -21t20.5 -51q0 -38 -25 -63t-61 -25zM833 550q-33 0 -53.5 21t-20.5 51
q0 38 25 63t61 25q33 0 53.5 -21t20.5 -51q0 -38 -25 -63t-61 -25z" />
    <glyph glyph-name="Aring.alt2" horiz-adv-x="720" 
d="M663 700l67 -700h-187l-10 140h-270l-60 -140h-193l313 700h72q-15 15 -15 42q0 37 33 65t83 28q51 0 82.5 -26.5t31.5 -60.5q0 -31 -17 -48h70zM431 530l-100 -230h190l-20 230h-70zM495 700q43 0 43 37q0 33 -47 33q-43 0 -43 -37q0 -33 47 -33z" />
    <glyph glyph-name="parenleft.case" horiz-adv-x="410" 
d="M464 820l65 -115q-66 -49 -120 -113q-120 -142 -120 -307q0 -110 56 -212q27 -48 56 -81l-103 -112q-51 47 -89 106q-89 136 -89 294q0 86 26 166t62.5 136t83.5 105t81.5 75t65.5 44z" />
    <glyph glyph-name="Scaron.alt2" horiz-adv-x="690" 
d="M405 140q40 0 66 15.5t26 43.5q0 10 -5 18.5t-15.5 16.5t-21.5 14.5t-30 13.5t-33 12t-37.5 13.5t-37.5 13.5q-181 61 -181 187q0 80 59.5 144t158.5 82l-44 101l1 5h112l37 -100h15l73 100h118l-1 -5l-95 -120q125 -49 155 -195h-188q-4 16 -20 30q-34 30 -102 30
q-42 0 -62 -14t-20 -35q0 -8 3 -14.5t10 -13.5t13.5 -12t19.5 -11.5t22 -10.5t26 -10t27.5 -9.5t30 -10.5t29.5 -10q181 -66 181 -188q0 -99 -80 -170t-215 -71q-149 0 -229.5 69.5t-100.5 175.5h188q7 -25 25 -43q40 -42 122 -42z" />
    <glyph glyph-name="Zcaron.alt2" horiz-adv-x="665" 
d="M40 0l30 170l394 350l1 10h-322l30 170h170l-39 115l1 5h111l33 -120h15l77 120h119l-1 -5l-81 -115h170l-30 -170l-396 -350l-2 -10h345l-30 -170h-595z" />
    <glyph glyph-name="Otilde.alt2" horiz-adv-x="850" 
d="M488 835q40 0 74 -22q33 -23 48 -23q25 0 29 25l3 15h95l-9 -50q-8 -45 -37.5 -70t-74.5 -25q-41 0 -74 23q-34 22 -48 22q-25 0 -29 -25l-3 -15h-95l9 50q8 45 37.5 70t74.5 25zM471 145q88 0 146.5 56t58.5 143q0 71 -50 116t-138 45t-146 -56t-58 -143q0 -71 50 -116
t137 -45zM462 -20q-167 0 -270 95t-103 230q0 148 119.5 256.5t289.5 108.5q167 0 270 -95t103 -230q0 -148 -119.5 -256.5t-289.5 -108.5z" />
    <glyph glyph-name="at.case" horiz-adv-x="815" 
d="M860 439q0 -119 -78.5 -188t-180.5 -69h-108l7 38h-5q-8 -11 -21 -22q-29 -21 -65 -21q-53 0 -89 39t-36 103q0 88 50 143t112 55q63 0 88 -46l3 -9h5l9 50h125l-39 -220h7q37 0 69 36.5t32 105.5q0 79 -64 136t-178 57q-124 0 -211.5 -88.5t-87.5 -225.5q0 -109 72 -175
t198 -66q57 0 107 13q18 5 42 14l-18 -105q-24 -9 -42 -14q-50 -13 -106 -13q-167 0 -267.5 97t-100.5 244q0 180 124 302t298 122q160 0 254.5 -87.5t94.5 -205.5zM459 277h3q23 0 42.5 23.5t19.5 61.5q0 26 -13 40.5t-31 14.5q-22 0 -41 -23.5t-19 -61.5q0 -49 39 -55z
" />
    <glyph glyph-name="afii10065.alt" horiz-adv-x="605" 
d="M431 220h-129q-30 0 -46 -15t-16 -40q0 -45 76 -45q50 0 79 27.5t36 72.5zM233 -15q-77 0 -125 37t-48 102q0 80 57 130.5t155 50.5h173q0 3 1 5q1 1 1 5q0 3 1 4q1 5 1 14q0 24 -14 44q-18 23 -65 23q-39 0 -66 -25q-9 -9 -18 -25h-173q16 50 50 92q77 93 208 93
q101 0 163.5 -38.5t79.5 -104.5q5 -25 5 -47q0 -26 -4 -47l-53 -298h-170l11 65h-8q-16 -22 -40 -40q-54 -40 -122 -40z" />
    <glyph glyph-name="I.alt" horiz-adv-x="575" 
d="M134 550l26 150h495l-26 -150h-155l-71 -400h155l-26 -150h-495l26 150h155l71 400h-155z" />
    <glyph glyph-name="y.alt" horiz-adv-x="590" 
d="M265 30h-125l-44 490h170l28 -350h35l157 350h181l-247 -544q-41 -90 -90.5 -128t-138.5 -38h-155l24 135h110q31 0 48.5 12.5t35.5 48.5l6 12z" />
    <glyph glyph-name="afii10085.alt" horiz-adv-x="590" 
d="M265 30h-125l-44 490h170l28 -350h35l157 350h181l-247 -544q-41 -90 -90.5 -128t-138.5 -38h-155l24 135h110q31 0 48.5 12.5t35.5 48.5l6 12z" />
    <glyph glyph-name="l.alt" horiz-adv-x="270" 
d="M50 0l123 700h170l-123 -700h-170z" />
    <glyph glyph-name="ydieresis.alt" horiz-adv-x="590" 
d="M265 30h-125l-44 490h170l28 -350h35l157 350h181l-247 -544q-41 -90 -90.5 -128t-138.5 -38h-155l24 135h110q31 0 48.5 12.5t35.5 48.5l6 12zM287 605q-33 0 -53.5 20.5t-20.5 51.5q0 38 25 63t61 25q33 0 53.5 -20.5t20.5 -51.5q0 -38 -25 -63t-61 -25zM492 605
q-32 0 -53 20.5t-21 51.5q0 38 25 63t61 25q32 0 53 -20.5t21 -51.5q0 -38 -25 -63t-61 -25z" />
    <glyph glyph-name="yacute.alt" horiz-adv-x="590" 
d="M265 30h-125l-44 490h170l28 -350h35l157 350h181l-247 -544q-41 -90 -90.5 -128t-138.5 -38h-155l24 135h110q31 0 48.5 12.5t35.5 48.5l6 12zM422 770h170l-1 -5l-156 -150h-115z" />
    <glyph glyph-name="Imacron.alt" horiz-adv-x="575" 
d="M134 550l26 150h495l-26 -150h-155l-71 -400h155l-26 -150h-495l26 150h155l71 400h-155zM260 795l19 105h320l-19 -105h-320z" />
    <glyph glyph-name="Idotaccent.alt" horiz-adv-x="575" 
d="M134 550l26 150h495l-26 -150h-155l-71 -400h155l-26 -150h-495l26 150h155l71 400h-155zM417 760q-41 0 -64 20.5t-23 54.5q0 42 26.5 68.5t67.5 26.5t64 -20.5t23 -54.5q0 -42 -26.5 -68.5t-67.5 -26.5z" />
    <glyph glyph-name="Idieresis.alt" horiz-adv-x="575" 
d="M134 550l26 150h495l-26 -150h-155l-71 -400h155l-26 -150h-495l26 150h155l71 400h-155zM314 775q-32 0 -53 20.5t-21 51.5q0 38 25 63t61 25q32 0 53 -20.5t21 -51.5q0 -38 -25 -63t-61 -25zM519 775q-33 0 -53.5 20.5t-20.5 51.5q0 38 25 63t61 25q33 0 53.5 -20.5
t20.5 -51.5q0 -38 -25 -63t-61 -25z" />
    <glyph glyph-name="Icircumflex.alt" horiz-adv-x="575" 
d="M134 550l26 150h495l-26 -150h-155l-71 -400h155l-26 -150h-495l26 150h155l71 400h-155zM377 940h135l84 -150l-1 -5h-113l-43 70h-15l-67 -70h-117l1 5z" />
    <glyph glyph-name="Iacute.alt" horiz-adv-x="575" 
d="M134 550l26 150h495l-26 -150h-155l-71 -400h155l-26 -150h-495l26 150h155l71 400h-155zM457 940h170l-1 -5l-156 -150h-115z" />
    <glyph glyph-name="Igrave.alt" horiz-adv-x="575" 
d="M134 550l26 150h495l-26 -150h-155l-71 -400h155l-26 -150h-495l26 150h155l71 400h-155zM258 940h170l48 -155h-115l-104 150z" />
    <glyph glyph-name="foundryicon" horiz-adv-x="1538" 
d="M322 460v-31h-72v-199h-35v199h-71v31h178zM563 396q32 0 54.5 -24.5t22.5 -59.5q0 -36 -22.5 -60.5t-54.5 -24.5q-29 0 -47 21v-79h-34v224h24l9 -19q19 22 48 22zM560 258q19 0 33 15.5t14 38.5q0 21 -14 36.5t-33 15.5q-20 0 -33.5 -15.5t-13.5 -36.5
q0 -23 13.5 -38.5t33.5 -15.5zM377 277l44 116h37l-77 -190q-16 -34 -49 -34q-8 0 -10 1v28q23 0 31 20l6 16l-63 159h37zM745 396q32 0 54 -24t22 -59v-4q-1 -2 -1 -5v-6h-119q2 -17 14.5 -29t29.5 -12q27 0 37 17h35q-18 -47 -72 -47q-32 0 -55 24.5t-23 60.5
q0 35 22.5 59.5t55.5 24.5zM701 325h88q-1 17 -14.5 28.5t-29.5 11.5t-29 -11t-15 -29zM983 460v-31h-72v-199h-35v199h-71v31h178zM1224 396q32 0 54.5 -24.5t22.5 -59.5q0 -36 -22.5 -60.5t-54.5 -24.5q-29 0 -47 21v-79h-34v224h24l9 -19q19 22 48 22zM1221 258
q19 0 33 15.5t14 38.5q0 21 -14 36.5t-33 15.5q-20 0 -33.5 -15.5t-13.5 -36.5q0 -23 13.5 -38.5t33.5 -15.5zM1038 277l44 116h37l-77 -190q-16 -34 -49 -34q-8 0 -10 1v28q23 0 31 20l6 16l-63 159h37zM1406 396q32 0 54 -24t22 -59v-4q-1 -2 -1 -5v-6h-119
q2 -17 14.5 -29t29.5 -12q27 0 37 17h35q-18 -47 -72 -47q-32 0 -55 24.5t-23 60.5q0 35 22.5 59.5t55.5 24.5zM1362 325h88q-1 17 -14.5 28.5t-29.5 11.5t-29 -11t-15 -29z" />
    <glyph glyph-name="lcommaaccent.alt" horiz-adv-x="270" 
d="M50 0l123 700h170l-123 -700h-170zM35 -172q0 38 25 62.5t61 24.5q74 0 74 -87q0 -72 -43 -120t-118 -48h-15l11 60h11q54 0 66 45l2 10q-1 -1 -3 -1q-2 -1 -3 -1q-3 -1 -15 -1q-26 0 -39.5 15.5t-13.5 40.5z" />
    <glyph glyph-name="lcaron.alt" horiz-adv-x="385" 
d="M50 0l123 700h170l-123 -700h-170zM374 628q0 38 25 62.5t61 24.5q74 0 74 -87q0 -72 -43 -120t-118 -48h-15l11 60h11q54 0 66 45l2 10l-6 -2q-3 -1 -15 -1q-26 0 -39.5 15.5t-13.5 40.5z" />
    <glyph glyph-name="lacute.alt" horiz-adv-x="270" 
d="M50 0l123 700h170l-123 -700h-170zM318 940h170l-1 -5l-156 -150h-115z" />
    <glyph glyph-name="atilde.alt" horiz-adv-x="605" 
d="M431 220h-129q-30 0 -46 -15t-16 -40q0 -45 76 -45q50 0 79 27.5t36 72.5zM233 -15q-77 0 -125 37t-48 102q0 80 57 130.5t155 50.5h173q0 3 1 5q1 1 1 5q0 3 1 4q1 5 1 14q0 24 -14 44q-18 23 -65 23q-39 0 -66 -25q-9 -9 -18 -25h-173q16 50 50 92q77 93 208 93
q101 0 163.5 -38.5t79.5 -104.5q5 -25 5 -47q0 -26 -4 -47l-53 -298h-170l11 65h-8q-16 -22 -40 -40q-54 -40 -122 -40zM350 755q40 0 74 -22q33 -23 48 -23q26 0 30 25l3 15h95l-9 -50q-8 -45 -37.5 -70t-74.5 -25q-41 0 -74 23q-34 22 -48 22q-26 0 -30 -25l-3 -15h-94
l9 50q8 45 37 70t74 25z" />
    <glyph glyph-name="aring.alt" horiz-adv-x="605" 
d="M431 220h-129q-30 0 -46 -15t-16 -40q0 -45 76 -45q50 0 79 27.5t36 72.5zM233 -15q-77 0 -125 37t-48 102q0 80 57 130.5t155 50.5h173q0 3 1 5q1 1 1 5q0 3 1 4q1 5 1 14q0 24 -14 44q-18 23 -65 23q-39 0 -66 -25q-9 -9 -18 -25h-173q16 50 50 92q77 93 208 93
q101 0 163.5 -38.5t79.5 -104.5q5 -25 5 -47q0 -26 -4 -47l-53 -298h-170l11 65h-8q-16 -22 -40 -40q-54 -40 -122 -40zM423 575q-51 0 -82 29.5t-31 75.5q0 54 37 89.5t91 35.5q51 0 82 -29.5t31 -75.5q0 -54 -37 -89.5t-91 -35.5zM426 645q21 0 35 13.5t14 34.5
q0 18 -11 30t-29 12q-21 0 -35 -13.5t-14 -34.5q0 -18 11 -30t29 -12z" />
    <glyph glyph-name="aogonek.alt" horiz-adv-x="605" 
d="M430 -255q-55 0 -87.5 23.5t-32.5 66.5q0 57 53.5 101.5t100.5 57.5q14 4 15 6h-87l11 65h-8q-16 -22 -40 -40q-54 -40 -122 -40q-77 0 -125 37t-48 102q0 80 57 130.5t155 50.5h173q0 3 1 5q1 1 1 5q0 3 1 4q1 5 1 14q0 24 -14 44q-18 23 -65 23q-39 0 -66 -25
q-9 -9 -18 -25h-173q16 50 50 92q77 93 208 93q101 0 163.5 -38.5t79.5 -104.5q5 -25 5 -47q0 -26 -4 -47l-53 -298h-1q-9 -3 -41.5 -21t-69 -52.5t-36.5 -63.5q0 -33 46 -33q21 0 39 5q8 1 17 5l-14 -82q-6 -3 -20 -7q-26 -6 -52 -6zM431 220h-129q-30 0 -46 -15t-16 -40
q0 -45 76 -45q50 0 79 27.5t36 72.5z" />
    <glyph glyph-name="amacron.alt" horiz-adv-x="605" 
d="M431 220h-129q-30 0 -46 -15t-16 -40q0 -45 76 -45q50 0 79 27.5t36 72.5zM233 -15q-77 0 -125 37t-48 102q0 80 57 130.5t155 50.5h173q0 3 1 5q1 1 1 5q0 3 1 4q1 5 1 14q0 24 -14 44q-18 23 -65 23q-39 0 -66 -25q-9 -9 -18 -25h-173q16 50 50 92q77 93 208 93
q101 0 163.5 -38.5t79.5 -104.5q5 -25 5 -47q0 -26 -4 -47l-53 -298h-170l11 65h-8q-16 -22 -40 -40q-54 -40 -122 -40zM250 625l19 105h320l-19 -105h-320z" />
    <glyph glyph-name="adieresis.alt" horiz-adv-x="605" 
d="M431 220h-129q-30 0 -46 -15t-16 -40q0 -45 76 -45q50 0 79 27.5t36 72.5zM233 -15q-77 0 -125 37t-48 102q0 80 57 130.5t155 50.5h173q0 3 1 5q1 1 1 5q0 3 1 4q1 5 1 14q0 24 -14 44q-18 23 -65 23q-39 0 -66 -25q-9 -9 -18 -25h-173q16 50 50 92q77 93 208 93
q101 0 163.5 -38.5t79.5 -104.5q5 -25 5 -47q0 -26 -4 -47l-53 -298h-170l11 65h-8q-16 -22 -40 -40q-54 -40 -122 -40zM308 605q-32 0 -53 20.5t-21 51.5q0 38 25 63t61 25q32 0 53 -20.5t21 -51.5q0 -38 -25 -63t-61 -25zM513 605q-33 0 -53.5 20.5t-20.5 51.5q0 38 25 63
t61 25q33 0 53.5 -20.5t20.5 -51.5q0 -38 -25 -63t-61 -25z" />
    <glyph glyph-name="acircumflex.alt" horiz-adv-x="605" 
d="M431 220h-129q-30 0 -46 -15t-16 -40q0 -45 76 -45q50 0 79 27.5t36 72.5zM233 -15q-77 0 -125 37t-48 102q0 80 57 130.5t155 50.5h173q0 3 1 5q1 1 1 5q0 3 1 4q1 5 1 14q0 24 -14 44q-18 23 -65 23q-39 0 -66 -25q-9 -9 -18 -25h-173q16 50 50 92q77 93 208 93
q101 0 163.5 -38.5t79.5 -104.5q5 -25 5 -47q0 -26 -4 -47l-53 -298h-170l11 65h-8q-16 -22 -40 -40q-54 -40 -122 -40zM363 770h135l84 -150l-1 -5h-113l-43 70h-15l-67 -70h-117l1 5z" />
    <glyph glyph-name="abreve.alt" horiz-adv-x="605" 
d="M431 220h-129q-30 0 -46 -15t-16 -40q0 -45 76 -45q50 0 79 27.5t36 72.5zM233 -15q-77 0 -125 37t-48 102q0 80 57 130.5t155 50.5h173q0 3 1 5q1 1 1 5q0 3 1 4q1 5 1 14q0 24 -14 44q-18 23 -65 23q-39 0 -66 -25q-9 -9 -18 -25h-173q16 50 50 92q77 93 208 93
q101 0 163.5 -38.5t79.5 -104.5q5 -25 5 -47q0 -26 -4 -47l-53 -298h-170l11 65h-8q-16 -22 -40 -40q-54 -40 -122 -40zM419 615q-80 0 -120 34.5t-40 91.5v13h102v-3q0 -18 16 -30t46 -12q26 0 41 12.5t17 32.5h100q-9 -69 -51 -104t-111 -35z" />
    <glyph glyph-name="aacute.alt" horiz-adv-x="605" 
d="M431 220h-129q-30 0 -46 -15t-16 -40q0 -45 76 -45q50 0 79 27.5t36 72.5zM233 -15q-77 0 -125 37t-48 102q0 80 57 130.5t155 50.5h173q0 3 1 5q1 1 1 5q0 3 1 4q1 5 1 14q0 24 -14 44q-18 23 -65 23q-39 0 -66 -25q-9 -9 -18 -25h-173q16 50 50 92q77 93 208 93
q101 0 163.5 -38.5t79.5 -104.5q5 -25 5 -47q0 -26 -4 -47l-53 -298h-170l11 65h-8q-16 -22 -40 -40q-54 -40 -122 -40zM447 770h170l-1 -5l-156 -150h-115z" />
    <glyph glyph-name="agrave.alt" horiz-adv-x="605" 
d="M431 220h-129q-30 0 -46 -15t-16 -40q0 -45 76 -45q50 0 79 27.5t36 72.5zM233 -15q-77 0 -125 37t-48 102q0 80 57 130.5t155 50.5h173q0 3 1 5q1 1 1 5q0 3 1 4q1 5 1 14q0 24 -14 44q-18 23 -65 23q-39 0 -66 -25q-9 -9 -18 -25h-173q16 50 50 92q77 93 208 93
q101 0 163.5 -38.5t79.5 -104.5q5 -25 5 -47q0 -26 -4 -47l-53 -298h-170l11 65h-8q-16 -22 -40 -40q-54 -40 -122 -40zM247 770h170l48 -155h-115l-104 150z" />
    <glyph glyph-name="afii10110.alt" horiz-adv-x="590" 
d="M265 30h-125l-44 490h170l28 -350h35l157 350h181l-247 -544q-41 -90 -90.5 -128t-138.5 -38h-155l24 135h110q31 0 48.5 12.5t35.5 48.5l6 12zM390 576q-80 0 -120 34.5t-40 91.5v13h102v-3q0 -18 16 -30t46 -12q26 0 41 12.5t17 32.5h100q-9 -69 -51 -104t-111 -35z
" />
    <glyph glyph-name="lslash.alt" horiz-adv-x="355" 
d="M89 0l45 255l-91 -35l23 130l91 35l56 315h170l-42 -236l97 41l-23 -130l-97 -41l-59 -334h-170z" />
    <glyph glyph-name="g.alt" horiz-adv-x="620" 
d="M314 -97q90 0 90 48q0 13 -12 25t-45 21t-83 9q-90 0 -90 -48q0 -13 12 -25t45 -21t83 -9zM356 274q39 0 62 21t23 55q0 28 -22 46t-63 18q-39 0 -62 -21t-23 -55q0 -28 22 -46t63 -18zM599 415l-6 -5l6 -15q7 -26 7 -45q0 -83 -65 -140.5t-180 -57.5q-33 0 -54 4l-27 4
l-8 -45q158 -3 232 -51.5t74 -113.5t-65 -111t-191 -46q-83 0 -153 15.5t-119.5 54.5t-49.5 96q0 69 72 115q33 19 72 29l19 111q-17 13 -29 30q-28 37 -28 91q0 86 66.5 143t179.5 57q55 0 85 -8q29 -8 29 -7h241l-22 -125h-30z" />
    <glyph glyph-name="a.alt" horiz-adv-x="605" 
d="M431 220h-129q-30 0 -46 -15t-16 -40q0 -45 76 -45q50 0 79 27.5t36 72.5zM233 -15q-77 0 -125 37t-48 102q0 80 57 130.5t155 50.5h173q0 3 1 5q1 1 1 5q0 3 1 4q1 5 1 14q0 24 -14 44q-18 23 -65 23q-39 0 -66 -25q-9 -9 -18 -25h-173q16 50 50 92q77 93 208 93
q101 0 163.5 -38.5t79.5 -104.5q5 -25 5 -47q0 -26 -4 -47l-53 -298h-170l11 65h-8q-16 -22 -40 -40q-54 -40 -122 -40z" />
    <glyph glyph-name="nine.taboldstyle" horiz-adv-x="610" 
d="M640 290q0 -39 -10.5 -76t-24 -64.5t-41 -61.5t-46 -54t-55.5 -57l-168 -167h-209l213 210l60 30l2 10l-5 -2.5t-7 -3t-7 -2.5q-24 -8 -52 -8q-98 0 -159 62.5t-61 155.5q0 110 88 191.5t214 81.5q119 0 193.5 -71t74.5 -174zM365 395q-49 0 -84 -34.5t-35 -87.5
q0 -42 28.5 -70t73.5 -28q49 0 84 34.5t35 87.5q0 42 -28.5 70t-73.5 28z" />
    <glyph glyph-name="Germandbls" horiz-adv-x="760" 
d="M628 440l-2 -10q40 -10 72 -33q72 -54 73 -152q0 -110 -69.5 -177.5t-190.5 -67.5h-156l30 170h121q37 0 56.5 17.5t19.5 46.5q0 25 -18 40.5t-54 15.5h-99l27 150l115 90h-120h-16q-78 0 -91 -72l-81 -458h-185l86 483q19 99 91.5 158t187.5 59h363l-28 -160z" />
    <glyph glyph-name="eight.taboldstyle" horiz-adv-x="610" 
d="M351 -15q-137 0 -221 57t-84 146q0 99 92 158q40 25 92 37l1 10q-28 12 -48 31q-47 45 -47 105q0 75 68.5 130.5t185.5 55.5q131 0 203 -53.5t72 -125.5q0 -86 -74 -136q-30 -21 -74 -32l-1 -10q32 -13 60 -37q60 -52 60 -124q0 -86 -76.5 -149t-208.5 -63zM393 435
q37 0 60 21.5t23 54.5q0 29 -20 46.5t-57 17.5t-60 -21.5t-23 -54.5q0 -29 20 -46.5t57 -17.5zM346 305q-50 0 -80 -27t-30 -69q0 -37 28.5 -60.5t80.5 -23.5q50 0 80 27t30 69q0 37 -28.5 60.5t-80.5 23.5z" />
    <glyph glyph-name="seven.taboldstyle" horiz-adv-x="610" 
d="M80 275l43 245h540l-24 -140l-356 -570h-185l359 560l2 10h-190l-19 -105h-170z" />
    <glyph glyph-name="six.taboldstyle" horiz-adv-x="610" 
d="M65 230q0 39 10.5 76t24 64.5t41 61.5t46 54t55.5 57l157 157h209l-202 -200l-60 -30l-2 -10l5 2.5t7 3t7 2.5q24 8 52 8q98 0 159 -62.5t61 -155.5q0 -110 -88 -191.5t-214 -81.5q-119 0 -193.5 71t-74.5 174zM340 125q49 0 84 34.5t35 87.5q0 42 -28.5 70t-73.5 28
q-49 0 -84 -34.5t-35 -87.5q0 -42 28.5 -70t73.5 -28z" />
    <glyph glyph-name="five.taboldstyle" horiz-adv-x="610" 
d="M231 95h-151l100 425h452l-25 -140h-302l-33 -133h10q10 7 27 15q41 15 77 15q90 0 148.5 -59.5t58.5 -149.5q0 -118 -81 -195.5t-205 -77.5q-69 0 -120.5 18.5t-77.5 44.5t-42 61t-19.5 58.5t-3.5 47.5h170q0 -10 3 -21.5t12 -27.5t30 -26t51 -10q46 0 76.5 33t30.5 89
q0 40 -24.5 64t-68.5 24t-72 -28q-14 -12 -21 -27z" />
    <glyph glyph-name="four.taboldstyle" horiz-adv-x="610" 
d="M481 -190h-170l34 190h-310l26 145l281 375h190l-282 -380h120l66 150h130l-26 -150h95l-25 -140h-95z" />
    <glyph glyph-name="three.taboldstyle" horiz-adv-x="610" 
d="M306 100h-97l24 140h112q39 0 66 24.5t27 60.5q0 30 -22 50t-57 20q-43 0 -73 -30q-11 -12 -19 -30h-167q18 56 53 100q78 100 213 100q112 0 178 -56.5t66 -133.5q0 -93 -71 -140q-33 -20 -70 -26l-2 -10q31 -11 53 -28q54 -42 54 -116q0 -99 -73.5 -164.5t-196.5 -65.5
q-67 0 -118 18t-78.5 43t-44.5 58t-21.5 56.5t-4.5 44.5h171q3 -21 14 -40q24 -40 80 -40q42 0 70 25.5t28 66.5q0 31 -24 52t-70 21z" />
    <glyph glyph-name="two.taboldstyle" horiz-adv-x="610" 
d="M411 160l-74 -25l-2 -10l73 15h180l-25 -140h-500l22 124l203 101q87 42 116 64t29 54q0 22 -18 37t-52 15q-39 0 -65 -30q-10 -13 -18 -30h-173q18 56 53 100q78 100 215 100q110 0 172.5 -50.5t62.5 -119.5q0 -139 -199 -205z" />
    <glyph glyph-name="one.taboldstyle" horiz-adv-x="610" 
d="M80 0l25 140h165l36 205l-124 -80l29 165l146 90h150l-67 -380h145l-25 -140h-480z" />
    <glyph glyph-name="zero.taboldstyle" horiz-adv-x="610" 
d="M339 125q52 0 90.5 43.5t38.5 115.5q0 51 -28.5 81t-75.5 30q-52 0 -90.5 -43.5t-38.5 -115.5q0 -51 28.5 -81t75.5 -30zM334 -15q-123 0 -198.5 71.5t-75.5 178.5q0 127 89.5 213.5t218.5 86.5q123 0 198.5 -71.5t75.5 -178.5q0 -127 -89.5 -213.5t-218.5 -86.5z" />
    <glyph glyph-name="K_K" horiz-adv-x="1010" 
d="M520 0l-127 270h-95l-48 -270h-185l123 700h185l-45 -260h75l215 260h215l-278 -330l170 -370h-205zM1015 0h-205l-175 370l273 330h215l-278 -330z" />
    <glyph glyph-name="L_L" horiz-adv-x="690" 
d="M598 700l-57 -325h205l-25 -145h-355l82 470h150zM373 700l-93 -530h335l-30 -170h-520l123 700h185z" />
    <glyph glyph-name="T_E" horiz-adv-x="737" 
d="M310 530h-220l30 170h625l-30 -170h-220l-10 -55h300l-22 -125h-300l-9 -55h235l-21 -115h-235l-9 -55h300l-22 -125h-485z" />
    <glyph glyph-name="R_J" horiz-adv-x="1050" 
d="M633 250q1 -28 13 -53q25 -52 92 -52q85 0 102 92l82 463h185l-85 -479q-20 -115 -96.5 -180.5t-193.5 -65.5q-62 0 -110.5 17.5t-76.5 43t-46.5 57.5t-25 56t-7.5 44l-2 17h-177l-37 -210h-185l123 700h317q121 0 196.5 -65t75.5 -162q0 -100 -72 -172q-31 -31 -72 -51z
M317 380h173q41 0 68 23t27 56q0 29 -24 50t-66 21h-152z" />
    <glyph glyph-name="T_T" horiz-adv-x="867" 
d="M608 320h-130l25 140h420l-25 -140h-130l-56 -320h-160zM310 530h-220l30 170h625l-30 -170h-220l-93 -530h-185z" />
    <glyph glyph-name="U_U" horiz-adv-x="855" 
d="M349 700l-64 -367q-4 -20 -4 -40q0 -31 10 -52q21 -52 71 -76t110 -24q80 0 131.5 42.5t64.5 115.5l71 401h175l-74 -421q-24 -140 -121 -219.5t-249 -79.5t-244 59.5t-114 160.5q-8 37 -8 71q0 38 7 73l63 356h175zM471 180q-79 0 -117 44q-27 32 -27 80q0 20 4 39
l39 217h120l-41 -227q-1 -3 -1 -9q0 -10 3 -17q5 -12 21 -12t24 6.5t12 26.5l42 232h120l-43 -243q-12 -66 -52.5 -101.5t-103.5 -35.5z" />
    <glyph glyph-name="P_H" horiz-adv-x="1215" 
d="M188 700h317q120 0 194.5 -69t74.5 -167v-12q-1 -4 -1 -12h270l45 260h185l-123 -700h-185l48 270h-270l-48 -270h-185l34 197q-29 -7 -72 -7h-188l-34 -190h-185zM313 360h167q48 0 75 25t27 67q0 34 -25.5 56t-76.5 22h-137z" />
    <glyph glyph-name="E_A" horiz-adv-x="1205" 
d="M1148 700l67 -700h-187l-15 200h-240l-85 -200h-623l123 700h495l-30 -170h-310l-18 -105h360l123 275h340zM280 170h290l48 105h-320zM916 530l-74 -170h159l-15 170h-70z" />
    <glyph glyph-name="C_O" horiz-adv-x="825" 
d="M504 720q154 0 241.5 -77.5t109.5 -197.5h-170q-11 36 -34 62q-55 63 -153 63q-97 0 -165 -70t-68 -178q0 -86 55 -139t146 -53q98 0 162 70q29 32 45 70h175q-31 -81 -86 -145q-123 -145 -305 -145q-165 0 -266.5 96t-101.5 240q0 172 121.5 288t293.5 116zM476 290
q24 0 42.5 19t18.5 48q0 23 -14 38t-35 15q-24 0 -43 -19t-19 -48q0 -23 14.5 -38t35.5 -15zM469 185q-68 0 -111 41t-43 105q0 79 52.5 131.5t126.5 52.5q68 0 111 -41t43 -105q0 -79 -52.5 -131.5t-126.5 -52.5z" />
    <glyph glyph-name="K_O" horiz-adv-x="1220" 
d="M520 0l-127 270h-95l-48 -270h-185l123 700h185l-45 -260h75l215 260h215l-278 -330l170 -370h-205zM963 241q50 0 85 38t35 101q0 48 -27.5 74.5t-75.5 26.5q-50 0 -85 -38t-35 -101q0 -48 27.5 -74.5t75.5 -26.5zM954 86q-123 0 -198.5 71.5t-75.5 179.5
q0 126 90 212.5t219 86.5q123 0 198.5 -71.5t75.5 -179.5q0 -126 -90 -212.5t-219 -86.5z" />
    <glyph glyph-name="W_E" horiz-adv-x="1295" 
d="M327 210l180 490h222l8 -490h10l176 490h455l-30 -170h-300l-40 -105h252l-27 -150h-283l-40 -105h375l-30 -170h-665l-8 470h-10l-172 -470h-245l-22 700h180l4 -490h10z" />
    <glyph glyph-name="A_T" horiz-adv-x="870" 
d="M203 700h720l-30 -170h-75l52 -530h-190l-10 140h-120l-25 -140h-170l25 140h-120l-60 -140h-190l238 530h-75zM453 530h-25l-100 -230h85zM638 530h-25l-40 -230h85z" />
    <glyph glyph-name="S_A" horiz-adv-x="1334" 
d="M364 140q36 0 61.5 17t25.5 45q0 7 -2 14t-7 13.5t-10 12t-14 11.5t-16 10.5t-19 11t-19.5 10t-22 10.5t-21.5 11q-131 66 -131 177q0 98 78.5 167.5t210.5 69.5q180 0 258 -110q34 -47 43 -110h-188q-6 16 -21 30q-34 30 -101 30q-43 0 -63 -15t-20 -37q0 -7 2 -14
t7 -13.5t10 -12t14.5 -11.5t16 -10.5t19 -11t19.5 -10t22 -10.5t22 -11q131 -66 131 -177q0 -101 -79 -174t-213 -73q-188 0 -273 122q-40 55 -50 123h188q6 -25 24 -43q40 -42 118 -42zM1277 700l67 -700h-187l-10 140h-270l-60 -140h-193l313 700h340zM1045 530l-100 -230
h190l-20 230h-70z" />
    <glyph glyph-name="L_F" horiz-adv-x="690" 
d="M510 225h-145l83 475h345l-22 -125h-200l-12 -70h165l-21 -120h-165zM373 700l-93 -530h335l-30 -170h-520l123 700h185z" />
    <glyph glyph-name="L_I" horiz-adv-x="650" 
d="M442 240l81 460h185l-81 -460h-185zM373 700l-93 -530h335l-30 -170h-520l123 700h185z" />
    <glyph glyph-name="L_A" horiz-adv-x="1000" 
d="M943 700l67 -700h-187l-10 140h-235l-25 -140h-488l123 700h185l-93 -530h85l238 530h340zM711 530l-100 -230h190l-20 230h-70z" />
    <glyph glyph-name="L_O" horiz-adv-x="840" 
d="M373 700l-93 -530h335l-30 -170h-520l123 700h185zM637 360q47 0 81 35t34 89q0 42 -26.5 69t-70.5 27q-47 0 -81 -35t-34 -89q0 -42 26.5 -69t70.5 -27zM627 220q-104 0 -170.5 65.5t-66.5 161.5q0 114 81.5 193.5t193.5 79.5q104 0 170.5 -65.5t66.5 -161.5
q0 -115 -81.5 -194t-193.5 -79z" />
    <glyph glyph-name="C_E" horiz-adv-x="825" 
d="M504 720q154 0 241.5 -77.5t109.5 -197.5h-170q-11 36 -34 62q-55 63 -153 63q-97 0 -165 -70t-68 -178q0 -86 55 -139t146 -53q98 0 162 70q29 32 45 70h175q-31 -81 -86 -145q-123 -145 -305 -145q-165 0 -266.5 96t-101.5 240q0 172 121.5 288t293.5 116zM588 280
l-16 -90h-245l56 320h245l-16 -90h-145l-5 -30h115l-13 -75h-115l-6 -35h145z" />
    <glyph glyph-name="A_V" horiz-adv-x="1080" 
d="M1193 700l-303 -700h-347l-10 140h-270l-60 -140h-193l313 700h350l37 -530h65l223 530h195zM431 530l-100 -230h190l-20 230h-70z" />
    <glyph glyph-name="ampersand.alt2" horiz-adv-x="915" 
d="M363 550q67 0 119 -22t81 -58t43.5 -78t14.5 -88l-374 -73q7 -27 34 -51q56 -50 170 -50q160 0 245 155q38 69 53 155h220l-23 -130h-74q-32 -94 -88 -163q-130 -162 -339 -162q-172 0 -271 83t-99 199q0 118 84 200.5t204 82.5zM251 320l196 39q-19 56 -90 56
q-57 0 -87 -48q-13 -19 -19 -47z" />
    <glyph glyph-name="O_G" horiz-adv-x="1259" 
d="M286 323q0 -77 49.5 -125t132.5 -48q88 0 149.5 63.5t61.5 163.5q0 77 -49.5 125t-132.5 48q-88 0 -149.5 -63.5t-61.5 -163.5zM839 -20q-106 0 -191 45q-92 -45 -191 -45q-164 0 -265 98.5t-101 240.5q0 164 122 282.5t295 118.5q103 0 191 -45q92 45 191 45
q82 0 147 -24t104 -64.5t62 -84t34 -92.5h-191q-46 95 -167 95q-19 0 -47 -5q42 -74 42 -164q0 -124 -74 -226q20 -5 50 -5q77 0 135 50q27 24 42 50h-100l24 140h365l-24 -140h-69q-33 -76 -87 -135q-119 -135 -297 -135z" />
    <glyph glyph-name="O_O" horiz-adv-x="1232" 
d="M850 150q88 0 149.5 63.5t61.5 163.5q0 77 -49.5 125t-132.5 48q-19 0 -47 -5q42 -74 42 -164q0 -124 -74 -226q20 -5 50 -5zM286 323q0 -77 49.5 -125t132.5 -48q88 0 149.5 63.5t61.5 163.5q0 77 -49.5 125t-132.5 48q-88 0 -149.5 -63.5t-61.5 -163.5zM839 -20
q-106 0 -191 45q-92 -45 -191 -45q-164 0 -265 98.5t-101 240.5q0 164 122 282.5t295 118.5q103 0 191 -45q92 45 191 45q164 0 265 -98.5t101 -240.5q0 -164 -122 -282.5t-295 -118.5z" />
    <glyph glyph-name="O_C" horiz-adv-x="1209" 
d="M839 -20q-106 0 -191 45q-92 -45 -191 -45q-164 0 -265 98.5t-101 240.5q0 164 122 282.5t295 118.5q103 0 191 -45q92 45 191 45q85 0 151 -25.5t105.5 -68t61.5 -87.5t31 -94h-189q-39 105 -171 105q-19 0 -47 -5q42 -74 42 -164q0 -124 -74 -226q20 -5 50 -5
q86 0 146 60q26 26 42 60h193q-31 -81 -86 -145q-123 -145 -306 -145zM286 323q0 -77 49.5 -125t132.5 -48q88 0 149.5 63.5t61.5 163.5q0 77 -49.5 125t-132.5 48q-88 0 -149.5 -63.5t-61.5 -163.5z" />
    <glyph glyph-name="T_H_E" horiz-adv-x="1252" 
d="M310 530h-220l30 170h625l-30 -170h-220l-19 -105h270l49 275h540l-30 -170h-355l-19 -105h285l-26 -150h-285l-18 -105h355l-30 -170h-540l48 275h-270l-48 -275h-185z" />
    <glyph glyph-name="nine.dnom" horiz-adv-x="350" 
d="M366 233q0 -73 -85 -151l-89 -82h-135l113 102l38 18l1 5l-15 -6q-18 -6 -34 -6q-47 0 -76 30t-29 74q0 58 42.5 95.5t112.5 37.5q75 0 115.5 -33t40.5 -84zM212 260q-19 0 -30 -10.5t-11 -27.5q0 -34 39 -34q19 0 30 10.5t11 27.5q0 34 -39 34z" />
    <glyph glyph-name="eight.dnom" horiz-adv-x="390" 
d="M228 -10q-79 0 -131 28t-52 75q0 50 45 75q22 12 45 16l1 5q-13 4 -24 14q-24 22 -24 50q0 41 36 69t104 28q85 0 127 -28t42 -68q0 -45 -37 -68q-18 -11 -36 -14l-1 -5q15 -4 30 -16q31 -25 31 -59q0 -42 -39.5 -72t-116.5 -30zM221 75q22 0 33.5 8.5t11.5 20.5
q0 13 -13.5 22t-40.5 9q-22 0 -33.5 -8.5t-11.5 -20.5q0 -13 13.5 -22t40.5 -9zM242 210q37 0 37 26q0 24 -42 24q-37 0 -37 -26q0 -24 42 -24z" />
    <glyph glyph-name="seven.dnom" horiz-adv-x="315" 
d="M352 240l-172 -240h-120l166 230l1 10h-165l18 100h290z" />
    <glyph glyph-name="six.dnom" horiz-adv-x="350" 
d="M40 107q0 73 85 151l89 82h135l-113 -102l-38 -18l-1 -5l15 6q18 6 34 6q47 0 76 -30t29 -74q0 -58 -43 -95.5t-112 -37.5q-75 0 -115.5 33t-40.5 84zM194 80q19 0 30 10.5t11 27.5q0 34 -39 34q-19 0 -30 -10.5t-11 -27.5q0 -34 39 -34z" />
    <glyph glyph-name="five.dnom" horiz-adv-x="365" 
d="M209 250l-12 -42l12 5q13 5 35 5q58 0 89.5 -27.5t31.5 -71.5q0 -54 -41.5 -91.5t-111.5 -37.5q-42 0 -73.5 11.5t-46.5 24t-25 34.5t-11.5 28.5t-3.5 21.5h114q2 -9 6 -13q9 -12 34 -12q18 0 29.5 9.5t11.5 25.5q0 12 -11.5 21t-30.5 9q-13 0 -25 -5q-6 -4 -9 -5l-95 10
l49 190h245l-16 -90h-145z" />
    <glyph glyph-name="four.dnom" horiz-adv-x="355" 
d="M304 0h-115l11 60h-175l16 90l153 190h120l-146 -180h50l33 50h90l-8 -50h40l-18 -100h-40z" />
    <glyph glyph-name="three.dnom" horiz-adv-x="355" 
d="M267 205l-1 -5q41 -4 64.5 -27t23.5 -59q0 -54 -40.5 -89t-106.5 -35q-99 0 -140 60q-19 26 -23 60h113q3 -8 8 -15q13 -15 32 -15q15 0 26.5 9.5t11.5 23.5q0 29 -34 32h-70l11 60l94 50l1 5l-42 -10h-110l16 90h275l-15 -85z" />
    <glyph glyph-name="two.dnom" horiz-adv-x="370" 
d="M207 95l-1 -5l47 10h105l-18 -100h-310l18 100l87 40q76 35 97.5 49t21.5 34q0 12 -9.5 20t-24.5 8q-19 0 -33 -16l-9 -15h-117q10 35 34 65q55 65 138 65q72 0 110.5 -31.5t38.5 -76.5q0 -58 -41.5 -92.5t-133.5 -54.5z" />
    <glyph glyph-name="one.dnom" horiz-adv-x="365" 
d="M45 0l18 100h90l23 130l-88 -45l18 105l99 50h110l-42 -240h80l-18 -100h-290z" />
    <glyph glyph-name="zero.dnom" horiz-adv-x="390" 
d="M208 90q23 0 44.5 26t21.5 77q0 26 -11 41.5t-27 15.5q-23 0 -44.5 -26t-21.5 -77q0 -26 11 -41.5t27 -15.5zM206 -10q-68 0 -111.5 44t-43.5 114q0 87 56 144.5t131 57.5q68 0 111.5 -44t43.5 -114q0 -87 -56 -144.5t-131 -57.5z" />
    <glyph glyph-name="nine.numr" horiz-adv-x="350" 
d="M423 593q0 -73 -85 -151l-89 -82h-135l113 102l38 18l1 5l-15 -6q-18 -6 -34 -6q-47 0 -76 30t-29 74q0 58 42.5 95.5t112.5 37.5q75 0 115.5 -33t40.5 -84zM269 620q-19 0 -30 -10.5t-11 -27.5q0 -34 39 -34q19 0 30 10.5t11 27.5q0 34 -39 34z" />
    <glyph glyph-name="eight.numr" horiz-adv-x="390" 
d="M278 350q-79 0 -131 28t-52 75q0 50 45 75q22 12 45 16l1 5q-13 4 -24 14q-24 22 -24 50q0 41 36 69t104 28q85 0 127 -28t42 -68q0 -45 -37 -68q-18 -11 -36 -14l-1 -5q15 -4 30 -16q31 -25 31 -59q0 -42 -39.5 -72t-116.5 -30zM271 435q22 0 33.5 8.5t11.5 20.5
q0 13 -13.5 22t-40.5 9q-22 0 -33.5 -8.5t-11.5 -20.5q0 -13 13.5 -22t40.5 -9zM292 570q37 0 37 26q0 24 -42 24q-37 0 -37 -26q0 -24 42 -24z" />
    <glyph glyph-name="seven.numr" horiz-adv-x="315" 
d="M410 600l-172 -240h-120l166 230l1 10h-165l18 100h290z" />
    <glyph glyph-name="six.numr" horiz-adv-x="350" 
d="M97 467q0 73 85 151l89 82h135l-113 -102l-38 -18l-1 -5l15 6q18 6 34 6q47 0 76 -30t29 -74q0 -58 -43 -95.5t-112 -37.5q-75 0 -115.5 33t-40.5 84zM251 440q19 0 30 10.5t11 27.5q0 34 -39 34q-19 0 -30 -10.5t-11 -27.5q0 -34 39 -34z" />
    <glyph glyph-name="five.numr" horiz-adv-x="365" 
d="M259 610l-12 -42l12 5q13 5 35 5q58 0 89.5 -27.5t31.5 -71.5q0 -54 -41.5 -91.5t-111.5 -37.5q-42 0 -73.5 11.5t-46.5 24t-25 34.5t-11.5 28.5t-3.5 21.5h114q2 -9 6 -13q9 -12 34 -12q18 0 29.5 9.5t11.5 25.5q0 12 -11.5 21t-30.5 9q-13 0 -25 -5q-6 -4 -9 -5l-95 10
l49 190h245l-16 -90h-145z" />
    <glyph glyph-name="four.numr" horiz-adv-x="355" 
d="M363 360h-115l11 60h-175l16 90l153 190h120l-146 -180h50l33 50h90l-8 -50h40l-18 -100h-40z" />
    <glyph glyph-name="three.numr" horiz-adv-x="355" 
d="M322 565l-1 -5q41 -4 64.5 -27t23.5 -59q0 -54 -40.5 -89t-106.5 -35q-99 0 -140 60q-19 26 -23 60h113q3 -8 8 -15q13 -15 32 -15q15 0 26.5 9.5t11.5 23.5q0 29 -34 32h-70l11 60l94 50l1 5l-42 -10h-110l16 90h275l-15 -85z" />
    <glyph glyph-name="two.numr" horiz-adv-x="370" 
d="M261 455l-1 -5l47 10h105l-18 -100h-310l18 100l87 40q76 35 97.5 49t21.5 34q0 12 -9.5 20t-24.5 8q-19 0 -33 -16l-9 -15h-117q10 35 34 65q55 65 138 65q72 0 110.5 -31.5t38.5 -76.5q0 -58 -41.5 -92.5t-133.5 -54.5z" />
    <glyph glyph-name="one.numr" horiz-adv-x="365" 
d="M104 360l18 100h90l23 130l-88 -45l18 105l99 50h110l-42 -240h80l-18 -100h-290z" />
    <glyph glyph-name="afii10029.alt" horiz-adv-x="790" 
d="M0 5l29 165q6 -4 12 -5q15 -5 31 -5q56 0 88 39.5t51 150.5l62 350h574l-123 -700h-185l93 530h-204l-32 -180q-36 -202 -112.5 -281t-201.5 -79q-34 0 -60 7z" />
    <glyph glyph-name="afii10077.alt" horiz-adv-x="635" 
d="M335 375l-28 -160q-38 -225 -220 -225q-41 0 -64 7q-16 7 -18 8l25 140l9 -3q14 -2 25 -2q32 0 49.5 19.5t26.5 70.5l51 290h485l-92 -520h-170l66 375h-145z" />
    <glyph glyph-name="afii10028.alt" horiz-adv-x="730" 
d="M609 365l-1 -10q21 -4 41 -19q16 -14 25 -34q6 -14 6 -33q0 -6 -2 -24l-12 -70q-1 -3 -1 -9q0 -26 30 -26h35l-27 -150h-75q-91 0 -128 43q-28 31 -28 79q0 21 4 38l12 65q1 5 1 15q0 40 -46 40h-145l-48 -270h-185l123 700h185l-45 -260h135q55 0 64 55l10 55
q15 83 66 121.5t142 38.5h75l-26 -150h-35q-36 0 -42 -35l-9 -55q-10 -57 -55 -86q-18 -13 -44 -19z" />
    <glyph glyph-name="afii10076.alt" horiz-adv-x="595" 
d="M378 100l9 50q1 3 1 10q0 30 -34 30h-100l-34 -190h-170l92 520h170l-33 -185h90q19 0 31.5 10.5t15.5 29.5l8 45q9 50 48 80t101 30h85l-23 -135h-20q-31 0 -36 -30l-3 -20q-6 -39 -42 -60q-16 -11 -36 -15l-2 -10q18 -4 35 -16q13 -8 22 -24q6 -10 6 -24q0 -4 -2 -16
l-5 -25q-1 -3 -1 -9q0 -21 26 -21h20l-24 -135h-85q-64 0 -91 31q-21 23 -21 56q0 7 2 23z" />
    <glyph glyph-name="afii10024.alt" horiz-adv-x="1065" 
d="M949 365l-2 -10q21 -4 41 -19q16 -13 26 -34q6 -14 6 -33q0 -6 -2 -24l-12 -70q-1 -4 -1 -11q0 -12 4 -16q6 -8 25 -8h35l-26 -150h-75q-91 0 -128 43q-28 31 -28 79q0 21 4 38l12 65q1 5 1 14q0 41 -47 41h-105l-47 -270h-185l47 270h-105q-55 0 -64 -55l-12 -65
q-15 -83 -66 -121.5t-142 -38.5h-75l26 150h35q36 0 42 35l12 70q10 59 60 91q25 15 49 19l2 10q-22 6 -36 19q-12 10 -22 32q-5 13 -5 29q0 7 2 25l9 55q1 4 1 11q0 12 -4 16q-6 8 -25 8h-35l26 150h75q92 0 129 -42q27 -32 27 -79q0 -20 -4 -39l-10 -55q-1 -5 -1 -15
q0 -40 46 -40h95l46 260h185l-46 -260h95q54 0 65 55l10 55q15 83 66 121.5t142 38.5h75l-26 -150h-35q-36 0 -42 -35l-9 -55q-10 -57 -55 -86q-18 -13 -44 -19z" />
    <glyph glyph-name="afii10072.alt" horiz-adv-x="880" 
d="M664 100l9 50q1 4 1 11q0 11 -6 19q-9 10 -28 10h-80l-33 -190h-170l33 190h-80q-40 0 -47 -40l-9 -50q-9 -50 -48 -80t-101 -30h-85l24 135h20q29 0 35 30l5 25q9 41 49 64q21 12 40 16l1 10q-17 5 -29 15q-10 7 -18 23q-5 10 -5 23q0 9 1 14l3 20q4 30 -25 30h-20
l24 135h85q64 0 92 -30q21 -22 21 -57q0 -7 -2 -23l-8 -45q-1 -3 -1 -10q0 -30 34 -30h70l32 185h170l-32 -185h70q19 0 31.5 10.5t15.5 29.5l8 45q9 50 48 80t101 30h85l-24 -135h-20q-31 0 -35 -30l-3 -20q-6 -39 -43 -60q-16 -11 -36 -15l-1 -10q19 -4 34 -16
q12 -9 21 -24q6 -11 6 -26q0 -9 -1 -14l-4 -25q-1 -3 -1 -8q0 -22 26 -22h20l-24 -135h-85q-64 0 -92 31q-21 23 -21 56q0 7 2 23z" />
    <glyph glyph-name="afii10021.alt" horiz-adv-x="820" 
d="M625 0h-445l-21 -120h-175l51 290h65q24 14 42 38q44 54 61 147l61 345h570l-94 -530h90l-51 -290h-175zM555 170l64 360h-200l-30 -170q-19 -104 -63 -155q-18 -23 -41 -35h270z" />
    <glyph glyph-name="afii10069.alt" horiz-adv-x="650" 
d="M664 520l-66 -375h65l-43 -245h-160l18 100h-310l-18 -100h-160l43 245h50q14 8 26 24q29 32 39 91l46 260h470zM333 375l-20 -115q-10 -57 -36 -89q-10 -13 -23 -21l-1 -5h175l41 230h-136z" />
    <glyph glyph-name="zero.numr" horiz-adv-x="390" 
d="M264 450q23 0 44.5 26t21.5 77q0 26 -11 41.5t-27 15.5q-23 0 -44.5 -26t-21.5 -77q0 -26 11 -41.5t27 -15.5zM262 350q-68 0 -111.5 44t-43.5 114q0 87 56 144.5t131 57.5q68 0 111.5 -44t43.5 -114q0 -87 -56 -144.5t-131 -57.5z" />
    <glyph glyph-name="nine.tab" horiz-adv-x="680" 
d="M715 476q0 -81 -44.5 -151.5t-124.5 -150.5l-174 -174h-210l186 201l54 29l2 10l-5 -2.5t-7 -3t-7 -2.5q-24 -8 -54 -8q-97 0 -161.5 65t-64.5 159q0 114 87.5 193t223.5 79q140 0 219.5 -69t79.5 -175zM411 370q53 0 84 28.5t31 74.5q0 38 -30.5 62.5t-85.5 24.5
q-53 0 -84 -28.5t-31 -74.5q0 -38 30.5 -62.5t85.5 -24.5z" />
    <glyph glyph-name="ff.alt" horiz-adv-x="733" 
d="M508 500l5 25q34 175 183 175h157l-24 -135h-98q-21 0 -32.5 -12t-17.5 -39l-3 -14h115l-24 -135h-115l-64 -365h-170l64 365h-170l-64 -365h-170l64 365h-65l24 135h65l5 25q34 175 183 175h137l-24 -135h-78q-21 0 -32.5 -12t-17.5 -39l-3 -14h170z" />
    <glyph glyph-name="fi.alt" horiz-adv-x="640" 
d="M338 500h340l-88 -500h-170l64 365h-170l-64 -365h-170l64 365h-65l24 135h65l5 25q34 175 183 175h267l-24 -135h-208q-21 0 -32.5 -12t-17.5 -39z" />
    <glyph glyph-name="fl.alt" horiz-adv-x="640" 
d="M696 600l-106 -600h-170l93 530q-9 11 -23 20q-29 20 -80 20q-58 0 -69 -56l-3 -14h115l-24 -135h-115l-64 -365h-170l64 365h-65l24 135h65l6 29q19 91 73.5 136t162.5 45q135 0 225 -55q39 -25 61 -55z" />
    <glyph glyph-name="f_j.alt" horiz-adv-x="640" 
d="M338 500h340l-91 -515q-13 -80 -66.5 -127.5t-127.5 -47.5h-142l22 125h88q47 0 58 59l65 371h-170l-64 -365h-170l64 365h-65l24 135h65l5 25q34 175 183 175h267l-24 -135h-208q-21 0 -32.5 -12t-17.5 -39z" />
    <glyph glyph-name="f_t.alt" horiz-adv-x="760" 
d="M696 600l-18 -100h135l-24 -135h-135l-30 -170q-1 -5 -1 -13q0 -18 11 -31q15 -16 45 -16h79l-24 -135h-115q-68 0 -110 31.5t-53 89.5q-4 17 -4 40q0 24 4 44l28 160h-170l-64 -365h-170l64 365h-65l24 135h65l6 29q19 91 73.5 136t162.5 45q135 0 225 -55
q39 -25 61 -55zM338 500h170l5 30q-9 11 -23 20q-29 20 -80 20q-58 0 -69 -56z" />
    <glyph glyph-name="f.alt" horiz-adv-x="393" 
d="M342 524l-5 -24h116l-24 -135h-115l-64 -365h-170l64 365h-65l24 135h64l7 35q16 80 62.5 122.5t118.5 42.5h158l-22 -125h-91q-48 0 -58 -51z" />
    <glyph glyph-name="j.alt" horiz-adv-x="270" 
d="M312 520l-94 -536q-14 -80 -67 -127t-128 -47h-141l24 135h86q49 0 59 60l91 515h170zM248 575q-41 0 -64 20.5t-23 54.5q0 42 26.5 68.5t67.5 26.5t64 -20.5t23 -54.5q0 -42 -26.5 -68.5t-67.5 -26.5z" />
    <glyph glyph-name="afii10051.alt" horiz-adv-x="835" 
d="M639 134l5 33q2 14 2 20q0 7 -2 19q-8 28 -30 46t-54 18h-128l-47 -270h-185l93 530h-200l30 170h590l-30 -170h-205l-16 -90h133q92 0 152.5 -44.5t78.5 -121.5q6 -27 6 -57q0 -25 -5 -58l-8 -44q-22 -115 -83.5 -175t-180.5 -60h-87l29 160h23q105 0 119 94z" />
    <glyph glyph-name="afii10099.alt" horiz-adv-x="640" 
d="M636 198l-38 -214q-31 -174 -191 -174h-121l24 135h63q47 0 58 59l33 184q2 16 2 23q0 28 -14 51q-19 30 -70 30q-39 0 -70.5 -29.5t-39.5 -77.5l-32 -185h-170l86 485h-65l23 135h65l14 80h170l-14 -80h120l-23 -135h-120l-23 -135h8q16 20 41 40q54 40 112 40
q76 0 120 -37.5t55 -102.5q2 -22 2 -35q0 -25 -5 -57z" />
    <glyph glyph-name="afii10105.alt" horiz-adv-x="270" 
d="M312 520l-94 -536q-14 -80 -67 -127t-128 -47h-141l24 135h86q49 0 59 60l91 515h170zM248 575q-41 0 -64 20.5t-23 54.5q0 42 26.5 68.5t67.5 26.5t64 -20.5t23 -54.5q0 -42 -26.5 -68.5t-67.5 -26.5z" />
    <glyph glyph-name="tcaron.alt" horiz-adv-x="454" 
d="M361 630l-76 -435q-1 -5 -1 -13q0 -18 11 -31q15 -16 45 -16h79l-24 -135h-115q-68 0 -110 31.5t-53 89.5q-4 17 -4 40q0 24 4 44l31 180h-65l24 135h65l19 110h170zM393 558q0 38 25 62.5t61 24.5q74 0 74 -87q0 -72 -43 -120t-118 -48h-15l11 60h11q54 0 66 45l2 10
l-6 -2q-3 -1 -15 -1q-26 0 -39.5 15.5t-13.5 40.5z" />
    <glyph glyph-name="tcommaaccent.alt" horiz-adv-x="422" 
d="M318 385l-33 -190q-1 -5 -1 -13q0 -18 11 -31q15 -16 45 -16h79l-24 -135h-115q-68 0 -110 31.5t-53 89.5q-4 17 -4 40q0 24 4 44l31 180h-65l24 135h65l19 110h170l-19 -110h135l-24 -135h-135zM129 -172q0 38 25 62.5t61 24.5q74 0 74 -87q0 -72 -43 -120t-118 -48h-15
l11 60h11q54 0 66 45l2 10q-1 -1 -3 -1q-2 -1 -3 -1q-3 -1 -15 -1q-26 0 -39.5 15.5t-13.5 40.5z" />
    <glyph glyph-name="uni021B.alt" horiz-adv-x="422" 
d="M318 385l-33 -190q-1 -5 -1 -13q0 -18 11 -31q15 -16 45 -16h79l-24 -135h-115q-68 0 -110 31.5t-53 89.5q-4 17 -4 40q0 24 4 44l31 180h-65l24 135h65l19 110h170l-19 -110h135l-24 -135h-135zM129 -172q0 38 25 62.5t61 24.5q74 0 74 -87q0 -72 -43 -120t-118 -48h-15
l11 60h11q54 0 66 45l2 10q-1 -1 -3 -1q-2 -1 -3 -1q-3 -1 -15 -1q-26 0 -39.5 15.5t-13.5 40.5z" />
    <glyph glyph-name="t.alt" horiz-adv-x="421" 
d="M318 385l-33 -190q-1 -5 -1 -13q0 -18 11 -31q15 -16 45 -16h79l-24 -135h-115q-68 0 -110 31.5t-53 89.5q-4 17 -4 40q0 24 4 44l31 180h-65l24 135h65l19 110h170l-19 -110h135l-24 -135h-135z" />
    <glyph glyph-name="afii10058.alt" horiz-adv-x="1160" 
d="M0 5l29 165q6 -4 12 -5q15 -5 31 -5q56 0 88 39.5t51 150.5l62 350h555l-37 -210h119q122 0 196 -63t74 -161q0 -116 -81 -191t-214 -75h-365l93 530h-185l-32 -180q-36 -202 -112.5 -281t-201.5 -79q-34 0 -60 7zM735 170h163q40 0 65 22t25 58q0 30 -23 50t-60 20h-144
z" />
    <glyph glyph-name="afii10061.alt" horiz-adv-x="730" 
d="M609 365l-1 -10q21 -4 41 -19q16 -14 25 -34q6 -14 6 -33q0 -6 -2 -24l-12 -70q-1 -3 -1 -9q0 -26 30 -26h35l-27 -150h-75q-91 0 -128 43q-28 31 -28 79q0 21 4 38l12 65q1 5 1 15q0 40 -46 40h-145l-48 -270h-185l123 700h185l-45 -260h135q55 0 64 55l10 55
q15 83 66 121.5t142 38.5h75l-26 -150h-35q-36 0 -42 -35l-9 -55q-10 -57 -55 -86q-18 -13 -44 -19zM537 925h170l-1 -5l-156 -150h-115z" />
    <glyph glyph-name="afii10106.alt" horiz-adv-x="890" 
d="M335 375l-28 -160q-38 -225 -220 -225q-41 0 -64 7q-16 7 -18 8l25 140l9 -3q14 -2 25 -2q32 0 49.5 19.5t26.5 70.5l51 290h465l-29 -160h82q85 0 139.5 -48.5t54.5 -118.5q0 -81 -61.5 -137t-155.5 -56h-292l66 375h-125zM674 230h-69l-18 -100h84q29 0 45 15t16 41
q0 21 -15.5 32.5t-42.5 11.5z" />
    <glyph glyph-name="afii10109.alt" horiz-adv-x="595" 
d="M378 100l9 50q1 3 1 10q0 30 -34 30h-100l-34 -190h-170l92 520h170l-33 -185h90q19 0 31.5 10.5t15.5 29.5l8 45q9 50 48 80t101 30h85l-23 -135h-20q-31 0 -36 -30l-3 -20q-6 -39 -42 -60q-16 -11 -36 -15l-2 -10q18 -4 35 -16q13 -8 22 -24q6 -10 6 -24q0 -4 -2 -16
l-5 -25q-1 -3 -1 -9q0 -21 26 -21h20l-24 -135h-85q-64 0 -91 31q-21 23 -21 56q0 7 2 23zM441 740h170l-1 -5l-156 -150h-115z" />
    <glyph glyph-name="florin.alt" horiz-adv-x="465" 
d="M140 360l12 140h71l8 40q16 82 73 121t181 39h75l-12 -140h-65q-43 0 -63.5 -14.5t-27.5 -45.5h110l-12 -140h-130l-81 -350q-47 -200 -232 -200h-105l12 140h85q57 0 70 60l81 350h-50z" />
    <glyph glyph-name="T_A" horiz-adv-x="844" 
d="M787 700l67 -700h-187l-11 140h-230l-24 -140h-185l93 530h-220l30 170h667zM495 530l-41 -230h191l-20 230h-130z" />
    <glyph glyph-name="A_A" horiz-adv-x="1250" 
d="M1193 700l67 -700h-187l-10 140h-270l-60 -140h-190l-10 140h-270l-60 -140h-193l313 700h340l25 -260l-5 -140h10l45 140l115 260h340zM431 530l-100 -230h190l-20 230h-70zM961 530l-100 -230h190l-20 230h-70z" />
    <glyph glyph-name="J_A" horiz-adv-x="994" 
d="M937 700l67 -700h-190l-10 140h-246q-75 -165 -266 -165q-69 0 -121.5 21t-80 53.5t-41 58.5t-17.5 49l-3 14l173 36q6 -17 18 -31q29 -31 78 -31q85 0 102 92l82 463h455zM772 530h-135l-40 -230h195z" />
    <glyph glyph-name="O_L_I" horiz-adv-x="1484" 
d="M286 323q0 -77 49.5 -125t132.5 -48q88 0 149.5 63.5t61.5 163.5q0 77 -49.5 125t-132.5 48q-88 0 -149.5 -63.5t-61.5 -163.5zM91 319q0 164 122 282.5t295 118.5q164 0 265 -98.5t101 -240.5q0 -164 -122 -282.5t-295 -118.5q-164 0 -265 98.5t-101 240.5zM1276 240
l81 460h185l-81 -460h-185zM1207 700l-93 -530h335l-30 -170h-520l123 700h185z" />
    <glyph glyph-name="D_E" horiz-adv-x="1100" 
d="M414 530h-71l-63 -360h114q90 0 144.5 55t54.5 148q0 68 -47.5 112.5t-131.5 44.5zM1038 275h-275q-14 -36 -41 -74q-12 -17 -21 -26l-1 -5h390l-30 -170h-995l123 700h995l-30 -170h-390v-5q7 -10 12 -26q10 -25 15 -74h275z" />
    <glyph glyph-name="A_R" horiz-adv-x="1143" 
d="M1007 236l98 -236h-200l-88 210h-125l-37 -210h-185l37 210h-215l-89 -210h-193l313 700h602q113 0 184 -65.5t71 -160.5q0 -159 -173 -238zM722 380h172q41 0 68.5 23.5t27.5 56.5q0 28 -24 49t-66 21h-152zM431 530l-65 -150h171l26 150h-132z" />
    <glyph glyph-name="N_A" horiz-adv-x="1162" 
d="M1105 700l67 -700h-187l-10 140h-235l-25 -140h-215l-177 440h-10l-1 -90l-62 -350h-185l123 700h215l178 -440h10l1 90l61 350h452zM943 530h-135l-40 -230h195z" />
    <glyph glyph-name="Aacute.alt2" horiz-adv-x="720" 
d="M462 835h170l-1 -5l-78 -130h110l67 -700h-187l-10 140h-270l-60 -140h-193l313 700h115zM431 530l-100 -230h190l-20 230h-70z" />
    <glyph glyph-name="Eacute.alt2" 
d="M432 835h170l-1 -5l-78 -130h205l-30 -170h-355l-18 -105h285l-27 -150h-285l-18 -105h355l-30 -170h-540l123 700h220z" />
    <glyph glyph-name="Iacute.alt2" horiz-adv-x="315" 
d="M363 640l-113 -640h-185l113 640h185zM242 835h170l-1 -5l-78 -130h-115z" />
    <glyph glyph-name="Oacute.alt2" horiz-adv-x="850" 
d="M91 319q0 159 115 275.5t281 124.5l21 116h170l-1 -5l-74 -120q125 -28 198 -119.5t73 -209.5q0 -164 -122 -282.5t-295 -118.5q-164 0 -265 98.5t-101 240.5zM286 323q0 -77 49.5 -125t132.5 -48q88 0 149.5 63.5t61.5 163.5q0 77 -49.5 125t-132.5 48
q-88 0 -149.5 -63.5t-61.5 -163.5z" />
    <glyph glyph-name="Uacute.alt2" horiz-adv-x="750" 
d="M463 835h170l-1 -5l-78 -130h-115zM364 700l-71 -403q-3 -17 -3 -32q0 -19 4 -32q21 -83 118 -83q54 0 90 32t47 92l75 426h185l-80 -446q-22 -126 -108.5 -200t-215.5 -74q-122 0 -198 54t-95 146q-8 34 -8 67q0 31 6 62l69 391h185z" />
    <glyph glyph-name="Yacute.alt2" horiz-adv-x="685" 
d="M424 835h170l-1 -5l-78 -130h-115zM466 250l-44 -250h-185l44 250l-181 450h190l102 -270h15l198 270h200z" />
    <glyph glyph-name="afii10056.alt" horiz-adv-x="575" 
d="M134 550l26 150h495l-26 -150h-155l-71 -400h155l-26 -150h-495l26 150h155l71 400h-155zM314 756q-32 0 -53 21t-21 51q0 38 25 63t61 25q32 0 53 -21t21 -51q0 -38 -25 -63t-61 -25zM519 756q-33 0 -53.5 21t-20.5 51q0 38 25 63t61 25q33 0 53.5 -21t20.5 -51
q0 -38 -25 -63t-61 -25z" />
    <glyph glyph-name="afii10055.alt" horiz-adv-x="575" 
d="M134 550l26 150h495l-26 -150h-155l-71 -400h155l-26 -150h-495l26 150h155l71 400h-155z" />
    <glyph glyph-name="a.sc" horiz-adv-x="675" 
d="M498 0l-11 110h-245l-49 -110h-188l281 600h325l69 -600h-182zM454 430h-65l-74 -165h155z" />
    <glyph glyph-name="aacute.sc" horiz-adv-x="675" 
d="M498 0l-11 110h-245l-49 -110h-188l281 600h325l69 -600h-182zM454 430h-65l-74 -165h155zM497 840h170l-1 -5l-156 -150h-115z" />
    <glyph glyph-name="abreve.sc" horiz-adv-x="675" 
d="M498 0l-11 110h-245l-49 -110h-188l281 600h325l69 -600h-182zM454 430h-65l-74 -165h155zM455 686q-80 0 -120 34.5t-40 91.5v13h102v-3q0 -18 16 -30t46 -12q26 0 41 12.5t17 32.5h100q-9 -69 -51 -104t-111 -35z" />
    <glyph glyph-name="acircumflex.sc" horiz-adv-x="675" 
d="M498 0l-11 110h-245l-49 -110h-188l281 600h325l69 -600h-182zM454 430h-65l-74 -165h155zM412 840h135l84 -150l-1 -5h-113l-43 70h-15l-67 -70h-117l1 5z" />
    <glyph glyph-name="adieresis.sc" horiz-adv-x="675" 
d="M498 0l-11 110h-245l-49 -110h-188l281 600h325l69 -600h-182zM454 430h-65l-74 -165h155zM349 675q-33 0 -53.5 20.5t-20.5 51.5q0 38 25 63t61 25q33 0 53.5 -20.5t20.5 -51.5q0 -38 -25 -63t-61 -25zM554 675q-32 0 -53 20.5t-21 51.5q0 38 25 63t61 25q32 0 53 -20.5
t21 -51.5q0 -38 -25 -63t-61 -25z" />
    <glyph glyph-name="agrave.sc" horiz-adv-x="675" 
d="M498 0l-11 110h-245l-49 -110h-188l281 600h325l69 -600h-182zM454 430h-65l-74 -165h155zM286 840h170l48 -155h-115l-104 150z" />
    <glyph glyph-name="amacron.sc" horiz-adv-x="675" 
d="M498 0l-11 110h-245l-49 -110h-188l281 600h325l69 -600h-182zM454 430h-65l-74 -165h155zM285 695l19 105h320l-19 -105h-320z" />
    <glyph glyph-name="aogonek.sc" horiz-adv-x="675" 
d="M498 0l-11 110h-245l-49 -110h-188l281 600h325l69 -600q-37 -18 -74 -43q-74 -54 -74 -94q0 -33 46 -33q21 0 39 5q8 1 17 5l-14 -82q-6 -3 -20 -7q-26 -6 -52 -6q-55 0 -87.5 23.5t-32.5 66.5q0 57 53.5 101.5t100.5 57.5q14 4 15 6h-99zM454 430h-65l-74 -165h155z
" />
    <glyph glyph-name="aring.sc" horiz-adv-x="675" 
d="M498 0l-11 110h-245l-49 -110h-188l281 600h325l69 -600h-182zM454 430h-65l-74 -165h155zM447 655q-51 0 -82 29.5t-31 75.5q0 54 37 89.5t91 35.5q51 0 82 -29.5t31 -75.5q0 -54 -37 -89.5t-91 -35.5zM450 725q21 0 35 13.5t14 34.5q0 18 -11 30t-29 12
q-21 0 -35 -13.5t-14 -34.5q0 -18 11 -30t29 -12z" />
    <glyph glyph-name="atilde.sc" horiz-adv-x="675" 
d="M498 0l-11 110h-245l-49 -110h-188l281 600h325l69 -600h-182zM454 430h-65l-74 -165h155zM391 830q40 0 74 -22q33 -23 48 -23q26 0 30 25l3 15h95l-9 -50q-8 -45 -37.5 -70t-74.5 -25q-41 0 -74 23q-34 22 -48 22q-26 0 -30 -25l-3 -15h-94l9 50q8 45 37 70t74 25z" />
    <glyph glyph-name="ae.sc" horiz-adv-x="925" 
d="M616 150h295l-26 -150h-480l19 110h-185l-49 -110h-185l281 600h705l-27 -150h-295l-13 -75h245l-25 -145h-245zM394 450l-82 -185h140l32 185h-90z" />
    <glyph glyph-name="b.sc" horiz-adv-x="680" 
d="M429 240h-137l-17 -100h154q30 0 45.5 15.5t15.5 40.5q0 19 -15 31.5t-46 12.5zM445 460h-114l-16 -90h130q55 0 55 51q0 39 -55 39zM171 600h319q93 0 151 -41t58 -107q0 -73 -61 -112q-26 -17 -61 -25l-2 -10q30 -9 51 -25q51 -39 51 -95q0 -78 -62.5 -131.5
t-164.5 -53.5h-385z" />
    <glyph glyph-name="c.sc" horiz-adv-x="755" 
d="M582 240h190q-30 -74 -79 -130q-114 -130 -279 -130q-148 0 -240 86t-92 211q0 141 108.5 242t262.5 101q175 0 267 -125q39 -55 52 -125h-182q-9 26 -27 45q-41 45 -111 45t-122.5 -51.5t-52.5 -124.5q0 -62 42.5 -103t108.5 -41q69 0 119 50q23 25 35 50z" />
    <glyph glyph-name="cacute.sc" horiz-adv-x="755" 
d="M582 240h190q-30 -74 -79 -130q-114 -130 -279 -130q-148 0 -240 86t-92 211q0 141 108.5 242t262.5 101q175 0 267 -125q39 -55 52 -125h-182q-9 26 -27 45q-41 45 -111 45t-122.5 -51.5t-52.5 -124.5q0 -62 42.5 -103t108.5 -41q69 0 119 50q23 25 35 50zM513 840h170
l-1 -5l-156 -150h-115z" />
    <glyph glyph-name="ccaron.sc" horiz-adv-x="755" 
d="M582 240h190q-30 -74 -79 -130q-114 -130 -279 -130q-148 0 -240 86t-92 211q0 141 108.5 242t262.5 101q175 0 267 -125q39 -55 52 -125h-182q-9 26 -27 45q-41 45 -111 45t-122.5 -51.5t-52.5 -124.5q0 -62 42.5 -103t108.5 -41q69 0 119 50q23 25 35 50zM546 685h-135
l-84 150l1 5h113l43 -70h15l67 70h117l-1 -5z" />
    <glyph glyph-name="ccedilla.sc" horiz-adv-x="755" 
d="M582 240h190q-28 -72 -77 -129q-112 -127 -275 -131l-16 -28q19 -4 38 -16q38 -26 38 -73q0 -52 -41 -90t-100 -38q-40 0 -74 14q-15 6 -26 14l14 85q14 -8 26 -14q32 -14 63 -14q20 0 31.5 10.5t11.5 25.5q0 12 -9.5 20.5t-26.5 8.5h-55l55 100q-121 18 -194 100
t-73 192q0 141 108.5 242t262.5 101q175 0 267 -125q39 -55 52 -125h-182q-9 26 -27 45q-41 45 -111 45t-122.5 -51.5t-52.5 -124.5q0 -62 42.5 -103t108.5 -41q69 0 119 50q23 25 35 50z" />
    <glyph glyph-name="ccircumflex.sc" horiz-adv-x="755" 
d="M582 240h190q-30 -74 -79 -130q-114 -130 -279 -130q-148 0 -240 86t-92 211q0 141 108.5 242t262.5 101q175 0 267 -125q39 -55 52 -125h-182q-9 26 -27 45q-41 45 -111 45t-122.5 -51.5t-52.5 -124.5q0 -62 42.5 -103t108.5 -41q69 0 119 50q23 25 35 50zM433 840h135
l84 -150l-1 -5h-113l-43 70h-15l-67 -70h-117l1 5z" />
    <glyph glyph-name="d.sc" horiz-adv-x="710" 
d="M400 430h-74l-46 -260h102q69 0 111 39.5t42 102.5q0 51 -37.5 84.5t-97.5 33.5zM171 600h234q143 0 234 -81.5t91 -197.5q0 -136 -103.5 -228.5t-256.5 -92.5h-305z" />
    <glyph glyph-name="dcaron.sc" horiz-adv-x="710" 
d="M400 430h-74l-46 -260h102q69 0 111 39.5t42 102.5q0 51 -37.5 84.5t-97.5 33.5zM171 600h234q143 0 234 -81.5t91 -197.5q0 -136 -103.5 -228.5t-256.5 -92.5h-305zM509 685h-135l-84 150l1 5h113l43 -70h15l67 70h117l-1 -5z" />
    <glyph glyph-name="dcroat.sc" horiz-adv-x="730" 
d="M191 600h234q143 0 234 -81.5t91 -197.5q0 -136 -103.5 -228.5t-256.5 -92.5h-305l42 240h-65l21 120h65zM421 440h-74l-14 -80h100l-21 -120h-100l-14 -80h102q69 0 112 41.5t43 110.5q0 59 -37 93.5t-97 34.5z" />
    <glyph glyph-name="eth.sc" horiz-adv-x="730" 
d="M191 600h234q143 0 234 -81.5t91 -197.5q0 -136 -103.5 -228.5t-256.5 -92.5h-305l42 240h-65l21 120h65zM421 440h-74l-14 -80h100l-21 -120h-100l-14 -80h102q69 0 112 41.5t43 110.5q0 59 -37 93.5t-97 34.5z" />
    <glyph glyph-name="e.sc" horiz-adv-x="595" 
d="M276 150h305l-26 -150h-490l106 600h490l-27 -150h-305l-13 -75h245l-25 -145h-245z" />
    <glyph glyph-name="eacute.sc" horiz-adv-x="595" 
d="M276 150h305l-26 -150h-490l106 600h490l-27 -150h-305l-13 -75h245l-25 -145h-245zM460 839h170l-1 -5l-156 -150h-115z" />
    <glyph glyph-name="ecaron.sc" horiz-adv-x="595" 
d="M276 150h305l-26 -150h-490l106 600h490l-27 -150h-305l-13 -75h245l-25 -145h-245zM489 685h-135l-84 150l1 5h113l43 -70h15l67 70h117l-1 -5z" />
    <glyph glyph-name="ecircumflex.sc" horiz-adv-x="595" 
d="M276 150h305l-26 -150h-490l106 600h490l-27 -150h-305l-13 -75h245l-25 -145h-245zM387 840h135l84 -150l-1 -5h-113l-43 70h-15l-67 -70h-117l1 5z" />
    <glyph glyph-name="edieresis.sc" horiz-adv-x="595" 
d="M276 150h305l-26 -150h-490l106 600h490l-27 -150h-305l-13 -75h245l-25 -145h-245zM324 680q-32 0 -53 21t-21 51q0 38 25 63t61 25q32 0 53 -21t21 -51q0 -38 -25 -63t-61 -25zM529 680q-33 0 -53.5 21t-20.5 51q0 38 25 63t61 25q33 0 53.5 -21t20.5 -51
q0 -38 -25 -63t-61 -25z" />
    <glyph glyph-name="parenright.case" horiz-adv-x="410" 
d="M62 -120l-65 115q68 49 120 112q120 148 120 308q0 110 -56 212q-27 48 -56 81l103 112q48 -43 89 -106q89 -145 89 -294q0 -86 -26 -166t-62 -135.5t-84 -105t-81.5 -75t-64.5 -44.5z" />
    <glyph glyph-name="egrave.sc" horiz-adv-x="595" 
d="M276 150h305l-26 -150h-490l106 600h490l-27 -150h-305l-13 -75h245l-25 -145h-245zM282 840h170l48 -155h-115l-104 150z" />
    <glyph glyph-name="emacron.sc" horiz-adv-x="595" 
d="M276 150h305l-26 -150h-490l106 600h490l-27 -150h-305l-13 -75h245l-25 -145h-245zM265 695l19 105h320l-19 -105h-320z" />
    <glyph glyph-name="eogonek.sc" horiz-adv-x="595" 
d="M423 -255q-55 0 -87.5 23.5t-32.5 66.5q0 36 23 68t56.5 52t55 30t34.5 15h1h-408l106 600h490l-27 -150h-305l-13 -75h245l-25 -145h-245l-15 -80h305l-26 -150l-13 -7q-40 -17 -87.5 -56.5t-47.5 -73.5q0 -33 46 -33q21 0 39 5q8 1 17 5l-14 -82q-6 -3 -20 -7
q-26 -6 -52 -6z" />
    <glyph glyph-name="f.sc" horiz-adv-x="580" 
d="M284 190l-34 -190h-185l106 600h490l-28 -160h-305l-20 -110h230l-24 -140h-230z" />
    <glyph glyph-name="g.sc" horiz-adv-x="800" 
d="M428 140q68 0 114 40q20 19 33 40h-85l19 110h340l-19 -110h-65q-32 -69 -79 -120q-108 -120 -271 -120q-149 0 -241 86t-92 211q0 141 108.5 242t262.5 101q167 0 260 -115q40 -50 55 -115h-187q-9 17 -29 35q-43 35 -100 35q-70 0 -122.5 -51.5t-52.5 -124.5
q0 -62 42.5 -103t108.5 -41z" />
    <glyph glyph-name="gbreve.sc" horiz-adv-x="800" 
d="M428 140q68 0 114 40q20 19 33 40h-85l19 110h340l-19 -110h-65q-32 -69 -79 -120q-108 -120 -271 -120q-149 0 -241 86t-92 211q0 141 108.5 242t262.5 101q167 0 260 -115q40 -50 55 -115h-187q-9 17 -29 35q-43 35 -100 35q-70 0 -122.5 -51.5t-52.5 -124.5
q0 -62 42.5 -103t108.5 -41zM483 686q-80 0 -120 34.5t-40 91.5v13h102v-3q0 -18 16 -30t46 -12q26 0 41 12.5t17 32.5h100q-9 -69 -51 -104t-111 -35z" />
    <glyph glyph-name="gcommaaccent.sc" horiz-adv-x="800" 
d="M428 140q68 0 114 40q20 19 33 40h-85l19 110h340l-19 -110h-65q-32 -69 -79 -120q-108 -120 -271 -120q-149 0 -241 86t-92 211q0 141 108.5 242t262.5 101q167 0 260 -115q40 -50 55 -115h-187q-9 17 -29 35q-43 35 -100 35q-70 0 -122.5 -51.5t-52.5 -124.5
q0 -62 42.5 -103t108.5 -41zM300 -172q0 38 25 62.5t61 24.5q74 0 74 -87q0 -72 -43 -120t-118 -48h-15l11 60h11q54 0 66 45l2 10l-6 -2q-3 -1 -15 -1q-26 0 -39.5 15.5t-13.5 40.5z" />
    <glyph glyph-name="h.sc" horiz-adv-x="725" 
d="M65 0l106 600h185l-37 -210h225l37 210h185l-106 -600h-185l39 220h-225l-39 -220h-185z" />
    <glyph glyph-name="i.sc" horiz-adv-x="315" 
d="M356 600l-106 -600h-185l106 600h185z" />
    <glyph glyph-name="iacute.sc" horiz-adv-x="315" 
d="M356 600l-106 -600h-185l106 600h185zM322 840h170l-1 -5l-156 -150h-115z" />
    <glyph glyph-name="icircumflex.sc" horiz-adv-x="315" 
d="M356 600l-106 -600h-185l106 600h185zM232 840h135l84 -150l-1 -5h-113l-43 70h-15l-67 -70h-117l1 5z" />
    <glyph glyph-name="dotlessi.sc" horiz-adv-x="315" 
d="M356 600l-106 -600h-185l106 600h185zM280 665q-41 0 -64 20.5t-23 54.5q0 42 26.5 68.5t67.5 26.5t64 -20.5t23 -54.5q0 -42 -26.5 -68.5t-67.5 -26.5z" />
    <glyph glyph-name="idieresis.sc" horiz-adv-x="315" 
d="M356 600l-106 -600h-185l106 600h185zM172 675q-32 0 -53 20.5t-21 51.5q0 38 25 63t61 25q32 0 53 -20.5t21 -51.5q0 -38 -25 -63t-61 -25zM377 675q-33 0 -53.5 20.5t-20.5 51.5q0 38 25 63t61 25q33 0 53.5 -20.5t20.5 -51.5q0 -38 -25 -63t-61 -25z" />
    <glyph glyph-name="igrave.sc" horiz-adv-x="315" 
d="M356 600l-106 -600h-185l106 600h185zM102 840h170l48 -155h-115l-104 150z" />
    <glyph glyph-name="imacron.sc" horiz-adv-x="315" 
d="M356 600l-106 -600h-185l106 600h185zM109 700l19 105h320l-19 -105h-320z" />
    <glyph glyph-name="iogonek.sc" horiz-adv-x="315" 
d="M118 -255q-55 0 -87.5 23.5t-32.5 66.5q0 36 23 68t56.5 52t55 30t34.5 15h1h-103l106 600h185l-106 -600l-13 -7q-40 -17 -87.5 -56.5t-47.5 -73.5q0 -33 46 -33q21 0 39 5q8 1 17 5l-14 -82q-6 -3 -20 -7q-26 -6 -52 -6z" />
    <glyph glyph-name="j.sc" horiz-adv-x="585" 
d="M625 600l-70 -398q-18 -106 -94.5 -169t-188.5 -63q-144 0 -207 95q-30 44 -37 96l174 35q4 -14 16 -28q22 -28 67 -28q75 0 88 74l68 386h184z" />
    <glyph glyph-name="k.sc" horiz-adv-x="675" 
d="M680 0h-210l-101 220h-80l-39 -220h-185l106 600h185l-37 -210h70l167 210h215l-240 -285z" />
    <glyph glyph-name="kcommaaccent.sc" horiz-adv-x="675" 
d="M680 0h-210l-101 220h-80l-39 -220h-185l106 600h185l-37 -210h70l167 210h215l-240 -285zM270 -172q0 38 25 62.5t61 24.5q74 0 74 -87q0 -72 -43 -120t-118 -48h-15l11 60h11q54 0 66 45l2 10l-6 -2q-3 -1 -15 -1q-26 0 -39.5 15.5t-13.5 40.5z" />
    <glyph glyph-name="l.sc" horiz-adv-x="555" 
d="M356 600l-76 -430h295l-30 -170h-480l106 600h185z" />
    <glyph glyph-name="lacute.sc" horiz-adv-x="555" 
d="M356 600l-76 -430h295l-30 -170h-480l106 600h185zM312 840h170l-1 -5l-156 -150h-115z" />
    <glyph glyph-name="lcaron.sc" horiz-adv-x="555" 
d="M356 600l-76 -430h295l-30 -170h-480l106 600h185zM413 528q0 38 25 62.5t61 24.5q74 0 74 -87q0 -72 -43 -120t-118 -48h-15l11 60h11q54 0 66 45l2 10l-6 -2q-3 -1 -15 -1q-26 0 -39.5 15.5t-13.5 40.5z" />
    <glyph glyph-name="lcommaaccent.sc" horiz-adv-x="555" 
d="M356 600l-76 -430h295l-30 -170h-480l106 600h185zM208 -172q0 38 25 62.5t61 24.5q74 0 74 -87q0 -72 -43 -120t-118 -48h-15l11 60h11q54 0 66 45l2 10l-6 -2q-3 -1 -15 -1q-26 0 -39.5 15.5t-13.5 40.5z" />
    <glyph glyph-name="lslash.sc" horiz-adv-x="570" 
d="M370 600l-31 -175l135 55l-25 -140l-134 -55l-21 -115h295l-30 -170h-480l37 210l-75 -30l25 140l75 30l44 250h185z" />
    <glyph glyph-name="m.sc" horiz-adv-x="895" 
d="M374 135l-60 255h-10l1 -80l-55 -310h-185l106 600h252l69 -290h15l171 290h258l-106 -600h-185l55 310l29 80h-10l-150 -255h-195z" />
    <glyph glyph-name="n.sc" horiz-adv-x="740" 
d="M376 600l165 -340h10l-1 80l46 260h185l-106 -600h-205l-165 340h-10l1 -80l-46 -260h-185l106 600h205z" />
    <glyph glyph-name="nacute.sc" horiz-adv-x="740" 
d="M376 600l165 -340h10l-1 80l46 260h185l-106 -600h-205l-165 340h-10l1 -80l-46 -260h-185l106 600h205zM522 840h170l-1 -5l-156 -150h-115z" />
    <glyph glyph-name="ncaron.sc" horiz-adv-x="740" 
d="M376 600l165 -340h10l-1 80l46 260h185l-106 -600h-205l-165 340h-10l1 -80l-46 -260h-185l106 600h205zM548 685h-135l-84 150l1 5h113l43 -70h15l67 70h117l-1 -5z" />
    <glyph glyph-name="ncommaaccent.sc" horiz-adv-x="740" 
d="M376 600l165 -340h10l-1 80l46 260h185l-106 -600h-205l-165 340h-10l1 -80l-46 -260h-185l106 600h205zM281 -170q0 38 25 62.5t61 24.5q74 0 74 -87q0 -72 -43 -120t-118 -48h-15l11 60h11q54 0 66 45l2 10l-6 -2q-3 -1 -15 -1q-26 0 -39.5 15.5t-13.5 40.5z" />
    <glyph glyph-name="ntilde.sc" horiz-adv-x="740" 
d="M376 600l165 -340h10l-1 80l46 260h185l-106 -600h-205l-165 340h-10l1 -80l-46 -260h-185l106 600h205zM426 830q40 0 74 -22q33 -23 48 -23q26 0 30 25l3 15h95l-9 -50q-8 -45 -37.5 -70t-74.5 -25q-41 0 -74 23q-34 22 -48 22q-26 0 -30 -25l-3 -15h-94l9 50
q8 45 37 70t74 25z" />
    <glyph glyph-name="o.sc" horiz-adv-x="770" 
d="M424 150q69 0 117 48t48 118q0 57 -40.5 95.5t-104.5 38.5q-69 0 -117 -48t-48 -118q0 -57 40.5 -95.5t104.5 -38.5zM414 -20q-147 0 -239 87t-92 211q0 141 108.5 241.5t262.5 100.5q147 0 239 -87t92 -211q0 -141 -108.5 -241.5t-262.5 -100.5z" />
    <glyph glyph-name="oacute.sc" horiz-adv-x="770" 
d="M424 150q69 0 117 48t48 118q0 57 -40.5 95.5t-104.5 38.5q-69 0 -117 -48t-48 -118q0 -57 40.5 -95.5t104.5 -38.5zM414 -20q-147 0 -239 87t-92 211q0 141 108.5 241.5t262.5 100.5q147 0 239 -87t92 -211q0 -141 -108.5 -241.5t-262.5 -100.5zM512 840h170l-1 -5
l-156 -150h-115z" />
    <glyph glyph-name="ocircumflex.sc" horiz-adv-x="770" 
d="M424 150q69 0 117 48t48 118q0 57 -40.5 95.5t-104.5 38.5q-69 0 -117 -48t-48 -118q0 -57 40.5 -95.5t104.5 -38.5zM414 -20q-147 0 -239 87t-92 211q0 141 108.5 241.5t262.5 100.5q147 0 239 -87t92 -211q0 -141 -108.5 -241.5t-262.5 -100.5zM442 840h135l84 -150
l-1 -5h-113l-43 70h-15l-67 -70h-117l1 5z" />
    <glyph glyph-name="odieresis.sc" horiz-adv-x="770" 
d="M424 150q69 0 117 48t48 118q0 57 -40.5 95.5t-104.5 38.5q-69 0 -117 -48t-48 -118q0 -57 40.5 -95.5t104.5 -38.5zM414 -20q-147 0 -239 87t-92 211q0 141 108.5 241.5t262.5 100.5q147 0 239 -87t92 -211q0 -141 -108.5 -241.5t-262.5 -100.5zM384 676q-32 0 -53 21
t-21 51q0 38 25 63t61 25q32 0 53 -21t21 -51q0 -38 -25 -63t-61 -25zM589 676q-33 0 -53.5 21t-20.5 51q0 38 25 63t61 25q33 0 53.5 -21t20.5 -51q0 -38 -25 -63t-61 -25z" />
    <glyph glyph-name="ograve.sc" horiz-adv-x="770" 
d="M424 150q69 0 117 48t48 118q0 57 -40.5 95.5t-104.5 38.5q-69 0 -117 -48t-48 -118q0 -57 40.5 -95.5t104.5 -38.5zM414 -20q-147 0 -239 87t-92 211q0 141 108.5 241.5t262.5 100.5q147 0 239 -87t92 -211q0 -141 -108.5 -241.5t-262.5 -100.5zM322 840h170l48 -155
h-115l-104 150z" />
    <glyph glyph-name="ohungarumlaut.sc" horiz-adv-x="770" 
d="M424 150q69 0 117 48t48 118q0 57 -40.5 95.5t-104.5 38.5q-69 0 -117 -48t-48 -118q0 -57 40.5 -95.5t104.5 -38.5zM414 -20q-147 0 -239 87t-92 211q0 141 108.5 241.5t262.5 100.5q147 0 239 -87t92 -211q0 -141 -108.5 -241.5t-262.5 -100.5zM330 685l97 155h140
l-1 -5l-141 -150h-95zM510 685l97 155h145l-1 -5l-146 -150h-95z" />
    <glyph glyph-name="omacron.sc" horiz-adv-x="770" 
d="M424 150q69 0 117 48t48 118q0 57 -40.5 95.5t-104.5 38.5q-69 0 -117 -48t-48 -118q0 -57 40.5 -95.5t104.5 -38.5zM414 -20q-147 0 -239 87t-92 211q0 141 108.5 241.5t262.5 100.5q147 0 239 -87t92 -211q0 -141 -108.5 -241.5t-262.5 -100.5zM330 700l19 105h320
l-19 -105h-320z" />
    <glyph glyph-name="oslash.sc" horiz-adv-x="770" 
d="M31 95l85 53q-31 59 -31 130q0 141 108.5 241.5t262.5 100.5q159 0 254 -103l149 93l-18 -105l-85 -53q31 -61 31 -130q0 -141 -108.5 -241.5t-262.5 -100.5q-158 0 -254 103l-149 -93zM426 150q69 0 117 48t48 118q0 9 -2 23q-1 3 -1 9l-262 -163q42 -35 100 -35z
M281 284v-13q0 -7 1 -10l2 -9l262 163q-38 35 -100 35q-69 0 -117 -48t-48 -118z" />
    <glyph glyph-name="otilde.sc" horiz-adv-x="770" 
d="M424 150q69 0 117 48t48 118q0 57 -40.5 95.5t-104.5 38.5q-69 0 -117 -48t-48 -118q0 -57 40.5 -95.5t104.5 -38.5zM414 -20q-147 0 -239 87t-92 211q0 141 108.5 241.5t262.5 100.5q147 0 239 -87t92 -211q0 -141 -108.5 -241.5t-262.5 -100.5zM425 830q40 0 74 -22
q33 -23 48 -23q26 0 30 25l3 15h95l-9 -50q-8 -45 -37.5 -70t-74.5 -25q-41 0 -74 23q-34 22 -48 22q-26 0 -30 -25l-3 -15h-94l9 50q8 45 37 70t74 25z" />
    <glyph glyph-name="oe.sc" horiz-adv-x="1047" 
d="M537 0l9 49q-23 -21 -49 -35q-64 -34 -135 -34q-118 0 -198.5 81.5t-80.5 205.5q0 146 103 249.5t235 103.5q95 0 163 -43q29 -19 47 -42l12 65h470l-26 -150h-285l-14 -75h225l-25 -145h-225l-14 -80h285l-27 -150h-470zM424 150q69 0 117 48t48 118q0 57 -40.5 95.5
t-104.5 38.5q-69 0 -117 -48t-48 -118q0 -57 40.5 -95.5t104.5 -38.5z" />
    <glyph glyph-name="p.sc" horiz-adv-x="680" 
d="M450 150h-174l-26 -150h-185l106 600h309q103 0 167.5 -59t64.5 -147q0 -103 -74.5 -173.5t-187.5 -70.5zM305 310h135q36 0 59.5 20t23.5 50q0 25 -23 42.5t-60 17.5h-112z" />
    <glyph glyph-name="q.sc" horiz-adv-x="770" 
d="M785 322q0 -127 -88.5 -222t-222.5 -115l-28 -162h-190l31 177q-94 31 -149 107.5t-55 170.5q0 141 108.5 241.5t262.5 100.5q147 0 239 -87t92 -211zM424 150q69 0 117 48t48 118q0 57 -40.5 95.5t-104.5 38.5q-69 0 -117 -48t-48 -118q0 -57 40.5 -95.5t104.5 -38.5z
" />
    <glyph glyph-name="r.sc" horiz-adv-x="690" 
d="M574 197l76 -197h-190l-70 170h-110l-30 -170h-185l106 600h314q100 0 164 -59t64 -143q0 -91 -70 -155q-30 -27 -69 -46zM306 320h140q33 0 55.5 20.5t22.5 49.5q0 24 -19 42t-55 18h-121z" />
    <glyph glyph-name="racute.sc" horiz-adv-x="690" 
d="M574 197l76 -197h-190l-70 170h-110l-30 -170h-185l106 600h314q100 0 164 -59t64 -143q0 -91 -70 -155q-30 -27 -69 -46zM306 320h140q33 0 55.5 20.5t22.5 49.5q0 24 -19 42t-55 18h-121zM479 840h170l-1 -5l-156 -150h-115z" />
    <glyph glyph-name="rcaron.sc" horiz-adv-x="690" 
d="M574 197l76 -197h-190l-70 170h-110l-30 -170h-185l106 600h314q100 0 164 -59t64 -143q0 -91 -70 -155q-30 -27 -69 -46zM306 320h140q33 0 55.5 20.5t22.5 49.5q0 24 -19 42t-55 18h-121zM514 685h-135l-84 150l1 5h113l43 -70h15l67 70h117l-1 -5z" />
    <glyph glyph-name="rcommaaccent.sc" horiz-adv-x="690" 
d="M574 197l76 -197h-190l-70 170h-110l-30 -170h-185l106 600h314q100 0 164 -59t64 -143q0 -91 -70 -155q-30 -27 -69 -46zM306 320h140q33 0 55.5 20.5t22.5 49.5q0 24 -19 42t-55 18h-121zM265 -172q0 38 25 62.5t61 24.5q74 0 74 -87q0 -72 -43 -120t-118 -48h-15
l11 60h11q54 0 66 45l2 10l-6 -2q-3 -1 -15 -1q-26 0 -39.5 15.5t-13.5 40.5z" />
    <glyph glyph-name="s.sc" horiz-adv-x="650" 
d="M371 120q38 0 60 13.5t22 35.5q0 13 -10.5 24.5t-34.5 22.5t-43 17.5t-56 18.5q-15 5 -22 7q-166 53 -166 167q0 77 70 135.5t194 58.5q163 0 242 -95q34 -42 45 -95h-187q-5 14 -17 25q-31 25 -83 25q-35 0 -52.5 -12.5t-17.5 -31.5q0 -6 2.5 -12t9 -11t13 -9.5t18 -9
t20.5 -8t24.5 -8.5t25.5 -8t27.5 -8t27.5 -8q167 -54 167 -166q0 -83 -75 -145.5t-205 -62.5q-69 0 -124 16t-86.5 37.5t-54 51.5t-30.5 49.5t-12 39.5l-3 16h188q4 -20 20 -35q31 -35 103 -35z" />
    <glyph glyph-name="sacute.sc" horiz-adv-x="650" 
d="M371 120q38 0 60 13.5t22 35.5q0 13 -10.5 24.5t-34.5 22.5t-43 17.5t-56 18.5q-15 5 -22 7q-166 53 -166 167q0 77 70 135.5t194 58.5q163 0 242 -95q34 -42 45 -95h-187q-5 14 -17 25q-31 25 -83 25q-35 0 -52.5 -12.5t-17.5 -31.5q0 -6 2.5 -12t9 -11t13 -9.5t18 -9
t20.5 -8t24.5 -8.5t25.5 -8t27.5 -8t27.5 -8q167 -54 167 -166q0 -83 -75 -145.5t-205 -62.5q-69 0 -124 16t-86.5 37.5t-54 51.5t-30.5 49.5t-12 39.5l-3 16h188q4 -20 20 -35q31 -35 103 -35zM457 840h170l-1 -5l-156 -150h-115z" />
    <glyph glyph-name="scaron.sc" horiz-adv-x="650" 
d="M371 120q38 0 60 13.5t22 35.5q0 13 -10.5 24.5t-34.5 22.5t-43 17.5t-56 18.5q-15 5 -22 7q-166 53 -166 167q0 77 70 135.5t194 58.5q163 0 242 -95q34 -42 45 -95h-187q-5 14 -17 25q-31 25 -83 25q-35 0 -52.5 -12.5t-17.5 -31.5q0 -6 2.5 -12t9 -11t13 -9.5t18 -9
t20.5 -8t24.5 -8.5t25.5 -8t27.5 -8t27.5 -8q167 -54 167 -166q0 -83 -75 -145.5t-205 -62.5q-69 0 -124 16t-86.5 37.5t-54 51.5t-30.5 49.5t-12 39.5l-3 16h188q4 -20 20 -35q31 -35 103 -35zM491 685h-135l-84 150l1 5h113l43 -70h15l67 70h117l-1 -5z" />
    <glyph glyph-name="scedilla.sc" horiz-adv-x="650" 
d="M371 120q38 0 60 13.5t22 35.5q0 13 -10.5 24.5t-34.5 22.5t-43 17.5t-56 18.5q-15 5 -22 7q-166 53 -166 167q0 77 70 135.5t194 58.5q163 0 242 -95q34 -42 45 -95h-187q-5 14 -17 25q-31 25 -83 25q-35 0 -52.5 -12.5t-17.5 -31.5q0 -6 2.5 -12t9 -11t13 -9.5t18 -9
t20.5 -8t24.5 -8.5t25.5 -8t27.5 -8t27.5 -8q167 -54 167 -166q0 -82 -73 -144t-201 -64l-16 -28q19 -4 38 -16q38 -26 38 -73q0 -52 -41 -90t-100 -38q-40 0 -74 14q-15 6 -26 14l14 85q14 -8 26 -14q32 -14 63 -14q20 0 31.5 10.5t11.5 25.5q0 12 -9.5 20.5t-26.5 8.5h-55
l54 99q-54 7 -97 25t-68.5 40t-43 48.5t-24.5 45t-9 34.5l-2 13h188q4 -20 20 -35q31 -35 103 -35z" />
    </font>
</defs>
</svg>
